<?xml version="1.0" encoding="utf-8" standalone="no"?>
<!DOCTYPE svg PUBLIC "-//W3C//DTD SVG 1.1//EN"
  "http://www.w3.org/Graphics/SVG/1.1/DTD/svg11.dtd">
<svg xmlns:xlink="http://www.w3.org/1999/xlink" width="648pt" height="648pt" viewBox="0 0 648 648" xmlns="http://www.w3.org/2000/svg" version="1.1">
 <metadata>
  <rdf:RDF xmlns:dc="http://purl.org/dc/elements/1.1/" xmlns:cc="http://creativecommons.org/ns#" xmlns:rdf="http://www.w3.org/1999/02/22-rdf-syntax-ns#">
   <cc:Work>
    <dc:type rdf:resource="http://purl.org/dc/dcmitype/StillImage"/>
    <dc:date>2024-07-29T08:01:40.353851</dc:date>
    <dc:format>image/svg+xml</dc:format>
    <dc:creator>
     <cc:Agent>
      <dc:title>Matplotlib v3.8.4, https://matplotlib.org/</dc:title>
     </cc:Agent>
    </dc:creator>
   </cc:Work>
  </rdf:RDF>
 </metadata>
 <defs>
  <style type="text/css">*{stroke-linejoin: round; stroke-linecap: butt}</style>
 </defs>
 <g id="figure_1">
  <g id="patch_1">
   <path d="M 0 648 
L 648 648 
L 648 0 
L 0 0 
z
" style="fill: #ffffff"/>
  </g>
  <g id="axes_1">
   <g id="patch_2">
    <path d="M 47.4725 260.512 
L 631.62 260.512 
L 631.62 23.5725 
L 47.4725 23.5725 
z
" style="fill: #eaeaf2"/>
   </g>
   <g id="matplotlib.axis_1">
    <g id="xtick_1">
     <g id="line2d_1">
      <path d="M 47.4725 260.512 
L 47.4725 23.5725 
" clip-path="url(#p5c11fed322)" style="fill: none; stroke: #ffffff; stroke-linecap: round"/>
     </g>
     <g id="line2d_2"/>
    </g>
    <g id="xtick_2">
     <g id="line2d_3">
      <path d="M 307.093611 260.512 
L 307.093611 23.5725 
" clip-path="url(#p5c11fed322)" style="fill: none; stroke: #ffffff; stroke-linecap: round"/>
     </g>
     <g id="line2d_4"/>
     <g id="text_1">
      <!--  -->
      <g style="fill: #262626" transform="translate(307.093611 274.669813) scale(0.1 -0.1)"/>
      <!--  -->
      <g style="fill: #262626" transform="translate(307.093611 285.246688) scale(0.1 -0.1)"/>
      <!-- May -->
      <g style="fill: #262626" transform="translate(297.648299 295.823563) scale(0.1 -0.1)">
       <defs>
        <path id="ArialMT-4d" d="M 475 0 
L 475 4581 
L 1388 4581 
L 2472 1338 
Q 2622 884 2691 659 
Q 2769 909 2934 1394 
L 4031 4581 
L 4847 4581 
L 4847 0 
L 4263 0 
L 4263 3834 
L 2931 0 
L 2384 0 
L 1059 3900 
L 1059 0 
L 475 0 
z
" transform="scale(0.015625)"/>
        <path id="ArialMT-61" d="M 2588 409 
Q 2275 144 1986 34 
Q 1697 -75 1366 -75 
Q 819 -75 525 192 
Q 231 459 231 875 
Q 231 1119 342 1320 
Q 453 1522 633 1644 
Q 813 1766 1038 1828 
Q 1203 1872 1538 1913 
Q 2219 1994 2541 2106 
Q 2544 2222 2544 2253 
Q 2544 2597 2384 2738 
Q 2169 2928 1744 2928 
Q 1347 2928 1158 2789 
Q 969 2650 878 2297 
L 328 2372 
Q 403 2725 575 2942 
Q 747 3159 1072 3276 
Q 1397 3394 1825 3394 
Q 2250 3394 2515 3294 
Q 2781 3194 2906 3042 
Q 3031 2891 3081 2659 
Q 3109 2516 3109 2141 
L 3109 1391 
Q 3109 606 3145 398 
Q 3181 191 3288 0 
L 2700 0 
Q 2613 175 2588 409 
z
M 2541 1666 
Q 2234 1541 1622 1453 
Q 1275 1403 1131 1340 
Q 988 1278 909 1158 
Q 831 1038 831 891 
Q 831 666 1001 516 
Q 1172 366 1500 366 
Q 1825 366 2078 508 
Q 2331 650 2450 897 
Q 2541 1088 2541 1459 
L 2541 1666 
z
" transform="scale(0.015625)"/>
        <path id="ArialMT-79" d="M 397 -1278 
L 334 -750 
Q 519 -800 656 -800 
Q 844 -800 956 -737 
Q 1069 -675 1141 -563 
Q 1194 -478 1313 -144 
Q 1328 -97 1363 -6 
L 103 3319 
L 709 3319 
L 1400 1397 
Q 1534 1031 1641 628 
Q 1738 1016 1872 1384 
L 2581 3319 
L 3144 3319 
L 1881 -56 
Q 1678 -603 1566 -809 
Q 1416 -1088 1222 -1217 
Q 1028 -1347 759 -1347 
Q 597 -1347 397 -1278 
z
" transform="scale(0.015625)"/>
       </defs>
       <use xlink:href="#ArialMT-4d"/>
       <use xlink:href="#ArialMT-61" x="83.300781"/>
       <use xlink:href="#ArialMT-79" x="138.916016"/>
      </g>
      <!-- 2021 -->
      <g style="fill: #262626" transform="translate(295.971736 306.517625) scale(0.1 -0.1)">
       <defs>
        <path id="ArialMT-32" d="M 3222 541 
L 3222 0 
L 194 0 
Q 188 203 259 391 
Q 375 700 629 1000 
Q 884 1300 1366 1694 
Q 2113 2306 2375 2664 
Q 2638 3022 2638 3341 
Q 2638 3675 2398 3904 
Q 2159 4134 1775 4134 
Q 1369 4134 1125 3890 
Q 881 3647 878 3216 
L 300 3275 
Q 359 3922 746 4261 
Q 1134 4600 1788 4600 
Q 2447 4600 2831 4234 
Q 3216 3869 3216 3328 
Q 3216 3053 3103 2787 
Q 2991 2522 2730 2228 
Q 2469 1934 1863 1422 
Q 1356 997 1212 845 
Q 1069 694 975 541 
L 3222 541 
z
" transform="scale(0.015625)"/>
        <path id="ArialMT-30" d="M 266 2259 
Q 266 3072 433 3567 
Q 600 4063 929 4331 
Q 1259 4600 1759 4600 
Q 2128 4600 2406 4451 
Q 2684 4303 2865 4023 
Q 3047 3744 3150 3342 
Q 3253 2941 3253 2259 
Q 3253 1453 3087 958 
Q 2922 463 2592 192 
Q 2263 -78 1759 -78 
Q 1097 -78 719 397 
Q 266 969 266 2259 
z
M 844 2259 
Q 844 1131 1108 757 
Q 1372 384 1759 384 
Q 2147 384 2411 759 
Q 2675 1134 2675 2259 
Q 2675 3391 2411 3762 
Q 2147 4134 1753 4134 
Q 1366 4134 1134 3806 
Q 844 3388 844 2259 
z
" transform="scale(0.015625)"/>
        <path id="ArialMT-31" d="M 2384 0 
L 1822 0 
L 1822 3584 
Q 1619 3391 1289 3197 
Q 959 3003 697 2906 
L 697 3450 
Q 1169 3672 1522 3987 
Q 1875 4303 2022 4600 
L 2384 4600 
L 2384 0 
z
" transform="scale(0.015625)"/>
       </defs>
       <use xlink:href="#ArialMT-32"/>
       <use xlink:href="#ArialMT-30" x="55.615234"/>
       <use xlink:href="#ArialMT-32" x="111.230469"/>
       <use xlink:href="#ArialMT-31" x="166.845703"/>
      </g>
     </g>
    </g>
    <g id="xtick_3">
     <g id="line2d_5">
      <path d="M 631.62 260.512 
L 631.62 23.5725 
" clip-path="url(#p5c11fed322)" style="fill: none; stroke: #ffffff; stroke-linecap: round"/>
     </g>
     <g id="line2d_6"/>
     <g id="text_2">
      <!-- 31 -->
      <g style="fill: #262626" transform="translate(626.059062 274.669813) scale(0.1 -0.1)">
       <defs>
        <path id="ArialMT-33" d="M 269 1209 
L 831 1284 
Q 928 806 1161 595 
Q 1394 384 1728 384 
Q 2125 384 2398 659 
Q 2672 934 2672 1341 
Q 2672 1728 2419 1979 
Q 2166 2231 1775 2231 
Q 1616 2231 1378 2169 
L 1441 2663 
Q 1497 2656 1531 2656 
Q 1891 2656 2178 2843 
Q 2466 3031 2466 3422 
Q 2466 3731 2256 3934 
Q 2047 4138 1716 4138 
Q 1388 4138 1169 3931 
Q 950 3725 888 3313 
L 325 3413 
Q 428 3978 793 4289 
Q 1159 4600 1703 4600 
Q 2078 4600 2393 4439 
Q 2709 4278 2876 4000 
Q 3044 3722 3044 3409 
Q 3044 3113 2884 2869 
Q 2725 2625 2413 2481 
Q 2819 2388 3044 2092 
Q 3269 1797 3269 1353 
Q 3269 753 2831 336 
Q 2394 -81 1725 -81 
Q 1122 -81 723 278 
Q 325 638 269 1209 
z
" transform="scale(0.015625)"/>
       </defs>
       <use xlink:href="#ArialMT-33"/>
       <use xlink:href="#ArialMT-31" x="55.615234"/>
      </g>
     </g>
    </g>
    <g id="xtick_4">
     <g id="line2d_7"/>
    </g>
    <g id="xtick_5">
     <g id="line2d_8"/>
    </g>
    <g id="xtick_6">
     <g id="line2d_9"/>
    </g>
    <g id="xtick_7">
     <g id="line2d_10"/>
    </g>
    <g id="xtick_8">
     <g id="line2d_11"/>
     <g id="text_3">
      <!-- 12 -->
      <g style="fill: #262626" transform="translate(95.999294 271.069813) scale(0.1 -0.1)">
       <use xlink:href="#ArialMT-31"/>
       <use xlink:href="#ArialMT-32" x="55.615234"/>
      </g>
     </g>
    </g>
    <g id="xtick_9">
     <g id="line2d_12"/>
    </g>
    <g id="xtick_10">
     <g id="line2d_13"/>
    </g>
    <g id="xtick_11">
     <g id="line2d_14"/>
    </g>
    <g id="xtick_12">
     <g id="line2d_15"/>
    </g>
    <g id="xtick_13">
     <g id="line2d_16"/>
    </g>
    <g id="xtick_14">
     <g id="line2d_17"/>
    </g>
    <g id="xtick_15">
     <g id="line2d_18"/>
     <g id="text_4">
      <!-- 19 -->
      <g style="fill: #262626" transform="translate(171.722118 271.069813) scale(0.1 -0.1)">
       <defs>
        <path id="ArialMT-39" d="M 350 1059 
L 891 1109 
Q 959 728 1153 556 
Q 1347 384 1650 384 
Q 1909 384 2104 503 
Q 2300 622 2425 820 
Q 2550 1019 2634 1356 
Q 2719 1694 2719 2044 
Q 2719 2081 2716 2156 
Q 2547 1888 2255 1720 
Q 1963 1553 1622 1553 
Q 1053 1553 659 1965 
Q 266 2378 266 3053 
Q 266 3750 677 4175 
Q 1088 4600 1706 4600 
Q 2153 4600 2523 4359 
Q 2894 4119 3086 3673 
Q 3278 3228 3278 2384 
Q 3278 1506 3087 986 
Q 2897 466 2520 194 
Q 2144 -78 1638 -78 
Q 1100 -78 759 220 
Q 419 519 350 1059 
z
M 2653 3081 
Q 2653 3566 2395 3850 
Q 2138 4134 1775 4134 
Q 1400 4134 1122 3828 
Q 844 3522 844 3034 
Q 844 2597 1108 2323 
Q 1372 2050 1759 2050 
Q 2150 2050 2401 2323 
Q 2653 2597 2653 3081 
z
" transform="scale(0.015625)"/>
       </defs>
       <use xlink:href="#ArialMT-31"/>
       <use xlink:href="#ArialMT-39" x="55.615234"/>
      </g>
     </g>
    </g>
    <g id="xtick_16">
     <g id="line2d_19"/>
    </g>
    <g id="xtick_17">
     <g id="line2d_20"/>
    </g>
    <g id="xtick_18">
     <g id="line2d_21"/>
    </g>
    <g id="xtick_19">
     <g id="line2d_22"/>
    </g>
    <g id="xtick_20">
     <g id="line2d_23"/>
    </g>
    <g id="xtick_21">
     <g id="line2d_24"/>
    </g>
    <g id="xtick_22">
     <g id="line2d_25"/>
     <g id="text_5">
      <!-- 26 -->
      <g style="fill: #262626" transform="translate(247.444942 271.069813) scale(0.1 -0.1)">
       <defs>
        <path id="ArialMT-36" d="M 3184 3459 
L 2625 3416 
Q 2550 3747 2413 3897 
Q 2184 4138 1850 4138 
Q 1581 4138 1378 3988 
Q 1113 3794 959 3422 
Q 806 3050 800 2363 
Q 1003 2672 1297 2822 
Q 1591 2972 1913 2972 
Q 2475 2972 2870 2558 
Q 3266 2144 3266 1488 
Q 3266 1056 3080 686 
Q 2894 316 2569 119 
Q 2244 -78 1831 -78 
Q 1128 -78 684 439 
Q 241 956 241 2144 
Q 241 3472 731 4075 
Q 1159 4600 1884 4600 
Q 2425 4600 2770 4297 
Q 3116 3994 3184 3459 
z
M 888 1484 
Q 888 1194 1011 928 
Q 1134 663 1356 523 
Q 1578 384 1822 384 
Q 2178 384 2434 671 
Q 2691 959 2691 1453 
Q 2691 1928 2437 2201 
Q 2184 2475 1800 2475 
Q 1419 2475 1153 2201 
Q 888 1928 888 1484 
z
" transform="scale(0.015625)"/>
       </defs>
       <use xlink:href="#ArialMT-32"/>
       <use xlink:href="#ArialMT-36" x="55.615234"/>
      </g>
     </g>
    </g>
    <g id="xtick_23">
     <g id="line2d_26"/>
    </g>
    <g id="xtick_24">
     <g id="line2d_27"/>
    </g>
    <g id="xtick_25">
     <g id="line2d_28"/>
    </g>
    <g id="xtick_26">
     <g id="line2d_29"/>
    </g>
    <g id="xtick_27">
     <g id="line2d_30"/>
    </g>
    <g id="xtick_28">
     <g id="line2d_31"/>
     <g id="text_6">
      <!-- 03 -->
      <g style="fill: #262626" transform="translate(323.167766 271.069813) scale(0.1 -0.1)">
       <use xlink:href="#ArialMT-30"/>
       <use xlink:href="#ArialMT-33" x="55.615234"/>
      </g>
     </g>
    </g>
    <g id="xtick_29">
     <g id="line2d_32"/>
    </g>
    <g id="xtick_30">
     <g id="line2d_33"/>
    </g>
    <g id="xtick_31">
     <g id="line2d_34"/>
    </g>
    <g id="xtick_32">
     <g id="line2d_35"/>
    </g>
    <g id="xtick_33">
     <g id="line2d_36"/>
    </g>
    <g id="xtick_34">
     <g id="line2d_37"/>
    </g>
    <g id="xtick_35">
     <g id="line2d_38"/>
     <g id="text_7">
      <!-- 10 -->
      <g style="fill: #262626" transform="translate(398.89059 271.069813) scale(0.1 -0.1)">
       <use xlink:href="#ArialMT-31"/>
       <use xlink:href="#ArialMT-30" x="55.615234"/>
      </g>
     </g>
    </g>
    <g id="xtick_36">
     <g id="line2d_39"/>
    </g>
    <g id="xtick_37">
     <g id="line2d_40"/>
    </g>
    <g id="xtick_38">
     <g id="line2d_41"/>
    </g>
    <g id="xtick_39">
     <g id="line2d_42"/>
    </g>
    <g id="xtick_40">
     <g id="line2d_43"/>
    </g>
    <g id="xtick_41">
     <g id="line2d_44"/>
    </g>
    <g id="xtick_42">
     <g id="line2d_45"/>
     <g id="text_8">
      <!-- 17 -->
      <g style="fill: #262626" transform="translate(474.613414 271.069813) scale(0.1 -0.1)">
       <defs>
        <path id="ArialMT-37" d="M 303 3981 
L 303 4522 
L 3269 4522 
L 3269 4084 
Q 2831 3619 2401 2847 
Q 1972 2075 1738 1259 
Q 1569 684 1522 0 
L 944 0 
Q 953 541 1156 1306 
Q 1359 2072 1739 2783 
Q 2119 3494 2547 3981 
L 303 3981 
z
" transform="scale(0.015625)"/>
       </defs>
       <use xlink:href="#ArialMT-31"/>
       <use xlink:href="#ArialMT-37" x="55.615234"/>
      </g>
     </g>
    </g>
    <g id="xtick_43">
     <g id="line2d_46"/>
    </g>
    <g id="xtick_44">
     <g id="line2d_47"/>
    </g>
    <g id="xtick_45">
     <g id="line2d_48"/>
    </g>
    <g id="xtick_46">
     <g id="line2d_49"/>
    </g>
    <g id="xtick_47">
     <g id="line2d_50"/>
    </g>
    <g id="xtick_48">
     <g id="line2d_51"/>
    </g>
    <g id="xtick_49">
     <g id="line2d_52"/>
     <g id="text_9">
      <!-- 24 -->
      <g style="fill: #262626" transform="translate(550.336238 271.069813) scale(0.1 -0.1)">
       <defs>
        <path id="ArialMT-34" d="M 2069 0 
L 2069 1097 
L 81 1097 
L 81 1613 
L 2172 4581 
L 2631 4581 
L 2631 1613 
L 3250 1613 
L 3250 1097 
L 2631 1097 
L 2631 0 
L 2069 0 
z
M 2069 1613 
L 2069 3678 
L 634 1613 
L 2069 1613 
z
" transform="scale(0.015625)"/>
       </defs>
       <use xlink:href="#ArialMT-32"/>
       <use xlink:href="#ArialMT-34" x="55.615234"/>
      </g>
     </g>
    </g>
    <g id="xtick_50">
     <g id="line2d_53"/>
    </g>
    <g id="xtick_51">
     <g id="line2d_54"/>
    </g>
    <g id="xtick_52">
     <g id="line2d_55"/>
    </g>
    <g id="xtick_53">
     <g id="line2d_56"/>
    </g>
    <g id="xtick_54">
     <g id="line2d_57"/>
    </g>
    <g id="xtick_55">
     <g id="line2d_58"/>
    </g>
    <g id="text_10">
     <!-- Date -->
     <g style="fill: #262626" transform="translate(328.985312 319.662938) scale(0.1 -0.1)">
      <defs>
       <path id="ArialMT-44" d="M 494 0 
L 494 4581 
L 2072 4581 
Q 2606 4581 2888 4516 
Q 3281 4425 3559 4188 
Q 3922 3881 4101 3404 
Q 4281 2928 4281 2316 
Q 4281 1794 4159 1391 
Q 4038 988 3847 723 
Q 3656 459 3429 307 
Q 3203 156 2883 78 
Q 2563 0 2147 0 
L 494 0 
z
M 1100 541 
L 2078 541 
Q 2531 541 2789 625 
Q 3047 709 3200 863 
Q 3416 1078 3536 1442 
Q 3656 1806 3656 2325 
Q 3656 3044 3420 3430 
Q 3184 3816 2847 3947 
Q 2603 4041 2063 4041 
L 1100 4041 
L 1100 541 
z
" transform="scale(0.015625)"/>
       <path id="ArialMT-74" d="M 1650 503 
L 1731 6 
Q 1494 -44 1306 -44 
Q 1000 -44 831 53 
Q 663 150 594 308 
Q 525 466 525 972 
L 525 2881 
L 113 2881 
L 113 3319 
L 525 3319 
L 525 4141 
L 1084 4478 
L 1084 3319 
L 1650 3319 
L 1650 2881 
L 1084 2881 
L 1084 941 
Q 1084 700 1114 631 
Q 1144 563 1211 522 
Q 1278 481 1403 481 
Q 1497 481 1650 503 
z
" transform="scale(0.015625)"/>
       <path id="ArialMT-65" d="M 2694 1069 
L 3275 997 
Q 3138 488 2766 206 
Q 2394 -75 1816 -75 
Q 1088 -75 661 373 
Q 234 822 234 1631 
Q 234 2469 665 2931 
Q 1097 3394 1784 3394 
Q 2450 3394 2872 2941 
Q 3294 2488 3294 1666 
Q 3294 1616 3291 1516 
L 816 1516 
Q 847 969 1125 678 
Q 1403 388 1819 388 
Q 2128 388 2347 550 
Q 2566 713 2694 1069 
z
M 847 1978 
L 2700 1978 
Q 2663 2397 2488 2606 
Q 2219 2931 1791 2931 
Q 1403 2931 1139 2672 
Q 875 2413 847 1978 
z
" transform="scale(0.015625)"/>
      </defs>
      <use xlink:href="#ArialMT-44"/>
      <use xlink:href="#ArialMT-61" x="72.216797"/>
      <use xlink:href="#ArialMT-74" x="127.832031"/>
      <use xlink:href="#ArialMT-65" x="155.615234"/>
     </g>
    </g>
   </g>
   <g id="matplotlib.axis_2">
    <g id="ytick_1">
     <g id="line2d_59">
      <path d="M 47.4725 249.742023 
L 631.62 249.742023 
" clip-path="url(#p5c11fed322)" style="fill: none; stroke: #ffffff; stroke-linecap: round"/>
     </g>
     <g id="line2d_60"/>
     <g id="text_11">
      <!-- 0 -->
      <g style="fill: #262626" transform="translate(34.911563 253.320929) scale(0.1 -0.1)">
       <use xlink:href="#ArialMT-30"/>
      </g>
     </g>
    </g>
    <g id="ytick_2">
     <g id="line2d_61">
      <path d="M 47.4725 202.525989 
L 631.62 202.525989 
" clip-path="url(#p5c11fed322)" style="fill: none; stroke: #ffffff; stroke-linecap: round"/>
     </g>
     <g id="line2d_62"/>
     <g id="text_12">
      <!-- 100 -->
      <g style="fill: #262626" transform="translate(23.789688 206.104895) scale(0.1 -0.1)">
       <use xlink:href="#ArialMT-31"/>
       <use xlink:href="#ArialMT-30" x="55.615234"/>
       <use xlink:href="#ArialMT-30" x="111.230469"/>
      </g>
     </g>
    </g>
    <g id="ytick_3">
     <g id="line2d_63">
      <path d="M 47.4725 155.309955 
L 631.62 155.309955 
" clip-path="url(#p5c11fed322)" style="fill: none; stroke: #ffffff; stroke-linecap: round"/>
     </g>
     <g id="line2d_64"/>
     <g id="text_13">
      <!-- 200 -->
      <g style="fill: #262626" transform="translate(23.789688 158.888862) scale(0.1 -0.1)">
       <use xlink:href="#ArialMT-32"/>
       <use xlink:href="#ArialMT-30" x="55.615234"/>
       <use xlink:href="#ArialMT-30" x="111.230469"/>
      </g>
     </g>
    </g>
    <g id="ytick_4">
     <g id="line2d_65">
      <path d="M 47.4725 108.093922 
L 631.62 108.093922 
" clip-path="url(#p5c11fed322)" style="fill: none; stroke: #ffffff; stroke-linecap: round"/>
     </g>
     <g id="line2d_66"/>
     <g id="text_14">
      <!-- 300 -->
      <g style="fill: #262626" transform="translate(23.789688 111.672828) scale(0.1 -0.1)">
       <use xlink:href="#ArialMT-33"/>
       <use xlink:href="#ArialMT-30" x="55.615234"/>
       <use xlink:href="#ArialMT-30" x="111.230469"/>
      </g>
     </g>
    </g>
    <g id="ytick_5">
     <g id="line2d_67">
      <path d="M 47.4725 60.877888 
L 631.62 60.877888 
" clip-path="url(#p5c11fed322)" style="fill: none; stroke: #ffffff; stroke-linecap: round"/>
     </g>
     <g id="line2d_68"/>
     <g id="text_15">
      <!-- 400 -->
      <g style="fill: #262626" transform="translate(23.789688 64.456794) scale(0.1 -0.1)">
       <use xlink:href="#ArialMT-34"/>
       <use xlink:href="#ArialMT-30" x="55.615234"/>
       <use xlink:href="#ArialMT-30" x="111.230469"/>
      </g>
     </g>
    </g>
    <g id="text_16">
     <!-- Sales (in thousands) -->
     <g style="fill: #262626" transform="translate(17.685 187.620375) rotate(-90) scale(0.1 -0.1)">
      <defs>
       <path id="ArialMT-53" d="M 288 1472 
L 859 1522 
Q 900 1178 1048 958 
Q 1197 738 1509 602 
Q 1822 466 2213 466 
Q 2559 466 2825 569 
Q 3091 672 3220 851 
Q 3350 1031 3350 1244 
Q 3350 1459 3225 1620 
Q 3100 1781 2813 1891 
Q 2628 1963 1997 2114 
Q 1366 2266 1113 2400 
Q 784 2572 623 2826 
Q 463 3081 463 3397 
Q 463 3744 659 4045 
Q 856 4347 1234 4503 
Q 1613 4659 2075 4659 
Q 2584 4659 2973 4495 
Q 3363 4331 3572 4012 
Q 3781 3694 3797 3291 
L 3216 3247 
Q 3169 3681 2898 3903 
Q 2628 4125 2100 4125 
Q 1550 4125 1298 3923 
Q 1047 3722 1047 3438 
Q 1047 3191 1225 3031 
Q 1400 2872 2139 2705 
Q 2878 2538 3153 2413 
Q 3553 2228 3743 1945 
Q 3934 1663 3934 1294 
Q 3934 928 3725 604 
Q 3516 281 3123 101 
Q 2731 -78 2241 -78 
Q 1619 -78 1198 103 
Q 778 284 539 648 
Q 300 1013 288 1472 
z
" transform="scale(0.015625)"/>
       <path id="ArialMT-6c" d="M 409 0 
L 409 4581 
L 972 4581 
L 972 0 
L 409 0 
z
" transform="scale(0.015625)"/>
       <path id="ArialMT-73" d="M 197 991 
L 753 1078 
Q 800 744 1014 566 
Q 1228 388 1613 388 
Q 2000 388 2187 545 
Q 2375 703 2375 916 
Q 2375 1106 2209 1216 
Q 2094 1291 1634 1406 
Q 1016 1563 777 1677 
Q 538 1791 414 1992 
Q 291 2194 291 2438 
Q 291 2659 392 2848 
Q 494 3038 669 3163 
Q 800 3259 1026 3326 
Q 1253 3394 1513 3394 
Q 1903 3394 2198 3281 
Q 2494 3169 2634 2976 
Q 2775 2784 2828 2463 
L 2278 2388 
Q 2241 2644 2061 2787 
Q 1881 2931 1553 2931 
Q 1166 2931 1000 2803 
Q 834 2675 834 2503 
Q 834 2394 903 2306 
Q 972 2216 1119 2156 
Q 1203 2125 1616 2013 
Q 2213 1853 2448 1751 
Q 2684 1650 2818 1456 
Q 2953 1263 2953 975 
Q 2953 694 2789 445 
Q 2625 197 2315 61 
Q 2006 -75 1616 -75 
Q 969 -75 630 194 
Q 291 463 197 991 
z
" transform="scale(0.015625)"/>
       <path id="ArialMT-20" transform="scale(0.015625)"/>
       <path id="ArialMT-28" d="M 1497 -1347 
Q 1031 -759 709 28 
Q 388 816 388 1659 
Q 388 2403 628 3084 
Q 909 3875 1497 4659 
L 1900 4659 
Q 1522 4009 1400 3731 
Q 1209 3300 1100 2831 
Q 966 2247 966 1656 
Q 966 153 1900 -1347 
L 1497 -1347 
z
" transform="scale(0.015625)"/>
       <path id="ArialMT-69" d="M 425 3934 
L 425 4581 
L 988 4581 
L 988 3934 
L 425 3934 
z
M 425 0 
L 425 3319 
L 988 3319 
L 988 0 
L 425 0 
z
" transform="scale(0.015625)"/>
       <path id="ArialMT-6e" d="M 422 0 
L 422 3319 
L 928 3319 
L 928 2847 
Q 1294 3394 1984 3394 
Q 2284 3394 2536 3286 
Q 2788 3178 2913 3003 
Q 3038 2828 3088 2588 
Q 3119 2431 3119 2041 
L 3119 0 
L 2556 0 
L 2556 2019 
Q 2556 2363 2490 2533 
Q 2425 2703 2258 2804 
Q 2091 2906 1866 2906 
Q 1506 2906 1245 2678 
Q 984 2450 984 1813 
L 984 0 
L 422 0 
z
" transform="scale(0.015625)"/>
       <path id="ArialMT-68" d="M 422 0 
L 422 4581 
L 984 4581 
L 984 2938 
Q 1378 3394 1978 3394 
Q 2347 3394 2619 3248 
Q 2891 3103 3008 2847 
Q 3125 2591 3125 2103 
L 3125 0 
L 2563 0 
L 2563 2103 
Q 2563 2525 2380 2717 
Q 2197 2909 1863 2909 
Q 1613 2909 1392 2779 
Q 1172 2650 1078 2428 
Q 984 2206 984 1816 
L 984 0 
L 422 0 
z
" transform="scale(0.015625)"/>
       <path id="ArialMT-6f" d="M 213 1659 
Q 213 2581 725 3025 
Q 1153 3394 1769 3394 
Q 2453 3394 2887 2945 
Q 3322 2497 3322 1706 
Q 3322 1066 3130 698 
Q 2938 331 2570 128 
Q 2203 -75 1769 -75 
Q 1072 -75 642 372 
Q 213 819 213 1659 
z
M 791 1659 
Q 791 1022 1069 705 
Q 1347 388 1769 388 
Q 2188 388 2466 706 
Q 2744 1025 2744 1678 
Q 2744 2294 2464 2611 
Q 2184 2928 1769 2928 
Q 1347 2928 1069 2612 
Q 791 2297 791 1659 
z
" transform="scale(0.015625)"/>
       <path id="ArialMT-75" d="M 2597 0 
L 2597 488 
Q 2209 -75 1544 -75 
Q 1250 -75 995 37 
Q 741 150 617 320 
Q 494 491 444 738 
Q 409 903 409 1263 
L 409 3319 
L 972 3319 
L 972 1478 
Q 972 1038 1006 884 
Q 1059 663 1231 536 
Q 1403 409 1656 409 
Q 1909 409 2131 539 
Q 2353 669 2445 892 
Q 2538 1116 2538 1541 
L 2538 3319 
L 3100 3319 
L 3100 0 
L 2597 0 
z
" transform="scale(0.015625)"/>
       <path id="ArialMT-64" d="M 2575 0 
L 2575 419 
Q 2259 -75 1647 -75 
Q 1250 -75 917 144 
Q 584 363 401 755 
Q 219 1147 219 1656 
Q 219 2153 384 2558 
Q 550 2963 881 3178 
Q 1213 3394 1622 3394 
Q 1922 3394 2156 3267 
Q 2391 3141 2538 2938 
L 2538 4581 
L 3097 4581 
L 3097 0 
L 2575 0 
z
M 797 1656 
Q 797 1019 1065 703 
Q 1334 388 1700 388 
Q 2069 388 2326 689 
Q 2584 991 2584 1609 
Q 2584 2291 2321 2609 
Q 2059 2928 1675 2928 
Q 1300 2928 1048 2622 
Q 797 2316 797 1656 
z
" transform="scale(0.015625)"/>
       <path id="ArialMT-29" d="M 791 -1347 
L 388 -1347 
Q 1322 153 1322 1656 
Q 1322 2244 1188 2822 
Q 1081 3291 891 3722 
Q 769 4003 388 4659 
L 791 4659 
Q 1378 3875 1659 3084 
Q 1900 2403 1900 1659 
Q 1900 816 1576 28 
Q 1253 -759 791 -1347 
z
" transform="scale(0.015625)"/>
      </defs>
      <use xlink:href="#ArialMT-53"/>
      <use xlink:href="#ArialMT-61" x="66.699219"/>
      <use xlink:href="#ArialMT-6c" x="122.314453"/>
      <use xlink:href="#ArialMT-65" x="144.53125"/>
      <use xlink:href="#ArialMT-73" x="200.146484"/>
      <use xlink:href="#ArialMT-20" x="250.146484"/>
      <use xlink:href="#ArialMT-28" x="277.929688"/>
      <use xlink:href="#ArialMT-69" x="311.230469"/>
      <use xlink:href="#ArialMT-6e" x="333.447266"/>
      <use xlink:href="#ArialMT-20" x="389.0625"/>
      <use xlink:href="#ArialMT-74" x="416.845703"/>
      <use xlink:href="#ArialMT-68" x="444.628906"/>
      <use xlink:href="#ArialMT-6f" x="500.244141"/>
      <use xlink:href="#ArialMT-75" x="555.859375"/>
      <use xlink:href="#ArialMT-73" x="611.474609"/>
      <use xlink:href="#ArialMT-61" x="661.474609"/>
      <use xlink:href="#ArialMT-6e" x="717.089844"/>
      <use xlink:href="#ArialMT-64" x="772.705078"/>
      <use xlink:href="#ArialMT-73" x="828.320312"/>
      <use xlink:href="#ArialMT-29" x="878.320312"/>
     </g>
    </g>
   </g>
   <g id="line2d_69">
    <path d="M 47.4725 155.357171 
L 58.290046 151.910401 
L 69.107593 162.250712 
L 79.925139 102.097486 
L 90.742685 118.811961 
L 101.560231 73.390137 
L 112.377778 34.342477 
L 123.195324 192.185678 
L 134.01287 176.415522 
L 144.830417 170.702382 
L 155.647963 144.875212 
L 166.465509 184.017304 
L 177.283056 175.235122 
L 188.100602 149.596815 
L 198.918148 135.573653 
L 209.735694 118.859177 
L 220.553241 180.995478 
L 231.370787 158.992806 
L 242.188333 153.70461 
L 253.00588 171.127327 
L 263.823426 166.027995 
L 274.640972 158.567862 
L 285.458519 186.047593 
L 296.276065 155.357171 
L 307.093611 147.094366 
L 317.911157 176.509955 
L 328.728704 167.963852 
L 339.54625 162.911737 
L 350.363796 147.141582 
L 361.181343 143.553163 
L 371.998889 249.742023 
L 382.816435 249.742023 
L 393.633981 249.742023 
L 404.451528 249.742023 
L 415.269074 249.742023 
L 426.08662 249.742023 
L 436.904167 249.742023 
L 447.721713 249.742023 
L 458.539259 249.742023 
L 469.356806 249.742023 
L 480.174352 249.742023 
L 490.991898 249.742023 
L 501.809444 249.742023 
L 512.626991 249.742023 
L 523.444537 249.742023 
L 534.262083 249.742023 
L 545.07963 249.742023 
L 555.897176 249.742023 
L 566.714722 249.742023 
L 577.532269 249.742023 
L 588.349815 249.742023 
L 599.167361 249.742023 
L 609.984907 249.742023 
L 620.802454 249.742023 
L 631.62 249.742023 
" clip-path="url(#p5c11fed322)" style="fill: none; stroke: #4169e1; stroke-width: 3; stroke-linecap: round"/>
   </g>
   <g id="LineCollection_1">
    <path d="M 317.911157 249.742023 
L 317.911157 34.342477 
" clip-path="url(#p5c11fed322)" style="fill: none; stroke: #ff8c00; stroke-width: 4"/>
   </g>
   <g id="LineCollection_2">
    <path d="M 361.181343 249.742023 
L 361.181343 34.342477 
" clip-path="url(#p5c11fed322)" style="fill: none; stroke: #ff0000; stroke-width: 4"/>
   </g>
   <g id="patch_3">
    <path d="M 47.4725 260.512 
L 47.4725 23.5725 
" style="fill: none"/>
   </g>
   <g id="patch_4">
    <path d="M 631.62 260.512 
L 631.62 23.5725 
" style="fill: none"/>
   </g>
   <g id="patch_5">
    <path d="M 47.4725 260.512 
L 631.62 260.512 
" style="fill: none"/>
   </g>
   <g id="patch_6">
    <path d="M 47.4725 23.5725 
L 631.62 23.5725 
" style="fill: none"/>
   </g>
   <g id="text_17">
    <!-- Historical data for dog food sales -->
    <g style="fill: #262626" transform="translate(266.73375 17.5725) scale(0.1 -0.1)">
     <defs>
      <path id="ArialMT-48" d="M 513 0 
L 513 4581 
L 1119 4581 
L 1119 2700 
L 3500 2700 
L 3500 4581 
L 4106 4581 
L 4106 0 
L 3500 0 
L 3500 2159 
L 1119 2159 
L 1119 0 
L 513 0 
z
" transform="scale(0.015625)"/>
      <path id="ArialMT-72" d="M 416 0 
L 416 3319 
L 922 3319 
L 922 2816 
Q 1116 3169 1280 3281 
Q 1444 3394 1641 3394 
Q 1925 3394 2219 3213 
L 2025 2691 
Q 1819 2813 1613 2813 
Q 1428 2813 1281 2702 
Q 1134 2591 1072 2394 
Q 978 2094 978 1738 
L 978 0 
L 416 0 
z
" transform="scale(0.015625)"/>
      <path id="ArialMT-63" d="M 2588 1216 
L 3141 1144 
Q 3050 572 2676 248 
Q 2303 -75 1759 -75 
Q 1078 -75 664 370 
Q 250 816 250 1647 
Q 250 2184 428 2587 
Q 606 2991 970 3192 
Q 1334 3394 1763 3394 
Q 2303 3394 2647 3120 
Q 2991 2847 3088 2344 
L 2541 2259 
Q 2463 2594 2264 2762 
Q 2066 2931 1784 2931 
Q 1359 2931 1093 2626 
Q 828 2322 828 1663 
Q 828 994 1084 691 
Q 1341 388 1753 388 
Q 2084 388 2306 591 
Q 2528 794 2588 1216 
z
" transform="scale(0.015625)"/>
      <path id="ArialMT-66" d="M 556 0 
L 556 2881 
L 59 2881 
L 59 3319 
L 556 3319 
L 556 3672 
Q 556 4006 616 4169 
Q 697 4388 901 4523 
Q 1106 4659 1475 4659 
Q 1713 4659 2000 4603 
L 1916 4113 
Q 1741 4144 1584 4144 
Q 1328 4144 1222 4034 
Q 1116 3925 1116 3625 
L 1116 3319 
L 1763 3319 
L 1763 2881 
L 1116 2881 
L 1116 0 
L 556 0 
z
" transform="scale(0.015625)"/>
      <path id="ArialMT-67" d="M 319 -275 
L 866 -356 
Q 900 -609 1056 -725 
Q 1266 -881 1628 -881 
Q 2019 -881 2231 -725 
Q 2444 -569 2519 -288 
Q 2563 -116 2559 434 
Q 2191 0 1641 0 
Q 956 0 581 494 
Q 206 988 206 1678 
Q 206 2153 378 2554 
Q 550 2956 876 3175 
Q 1203 3394 1644 3394 
Q 2231 3394 2613 2919 
L 2613 3319 
L 3131 3319 
L 3131 450 
Q 3131 -325 2973 -648 
Q 2816 -972 2473 -1159 
Q 2131 -1347 1631 -1347 
Q 1038 -1347 672 -1080 
Q 306 -813 319 -275 
z
M 784 1719 
Q 784 1066 1043 766 
Q 1303 466 1694 466 
Q 2081 466 2343 764 
Q 2606 1063 2606 1700 
Q 2606 2309 2336 2618 
Q 2066 2928 1684 2928 
Q 1309 2928 1046 2623 
Q 784 2319 784 1719 
z
" transform="scale(0.015625)"/>
     </defs>
     <use xlink:href="#ArialMT-48"/>
     <use xlink:href="#ArialMT-69" x="72.216797"/>
     <use xlink:href="#ArialMT-73" x="94.433594"/>
     <use xlink:href="#ArialMT-74" x="144.433594"/>
     <use xlink:href="#ArialMT-6f" x="172.216797"/>
     <use xlink:href="#ArialMT-72" x="227.832031"/>
     <use xlink:href="#ArialMT-69" x="261.132812"/>
     <use xlink:href="#ArialMT-63" x="283.349609"/>
     <use xlink:href="#ArialMT-61" x="333.349609"/>
     <use xlink:href="#ArialMT-6c" x="388.964844"/>
     <use xlink:href="#ArialMT-20" x="411.181641"/>
     <use xlink:href="#ArialMT-64" x="438.964844"/>
     <use xlink:href="#ArialMT-61" x="494.580078"/>
     <use xlink:href="#ArialMT-74" x="550.195312"/>
     <use xlink:href="#ArialMT-61" x="577.978516"/>
     <use xlink:href="#ArialMT-20" x="633.59375"/>
     <use xlink:href="#ArialMT-66" x="661.376953"/>
     <use xlink:href="#ArialMT-6f" x="689.160156"/>
     <use xlink:href="#ArialMT-72" x="744.775391"/>
     <use xlink:href="#ArialMT-20" x="778.076172"/>
     <use xlink:href="#ArialMT-64" x="805.859375"/>
     <use xlink:href="#ArialMT-6f" x="861.474609"/>
     <use xlink:href="#ArialMT-67" x="917.089844"/>
     <use xlink:href="#ArialMT-20" x="972.705078"/>
     <use xlink:href="#ArialMT-66" x="1000.488281"/>
     <use xlink:href="#ArialMT-6f" x="1028.271484"/>
     <use xlink:href="#ArialMT-6f" x="1083.886719"/>
     <use xlink:href="#ArialMT-64" x="1139.501953"/>
     <use xlink:href="#ArialMT-20" x="1195.117188"/>
     <use xlink:href="#ArialMT-73" x="1222.900391"/>
     <use xlink:href="#ArialMT-61" x="1272.900391"/>
     <use xlink:href="#ArialMT-6c" x="1328.515625"/>
     <use xlink:href="#ArialMT-65" x="1350.732422"/>
     <use xlink:href="#ArialMT-73" x="1406.347656"/>
    </g>
   </g>
   <g id="legend_1">
    <g id="line2d_70">
     <path d="M 461.759062 36.352188 
L 471.759062 36.352188 
L 481.759062 36.352188 
" style="fill: none; stroke: #4169e1; stroke-width: 3; stroke-linecap: round"/>
    </g>
    <g id="text_18">
     <!-- Bags of dog food sold per day -->
     <g style="fill: #262626" transform="translate(489.759062 39.852188) scale(0.1 -0.1)">
      <defs>
       <path id="ArialMT-42" d="M 469 0 
L 469 4581 
L 2188 4581 
Q 2713 4581 3030 4442 
Q 3347 4303 3526 4014 
Q 3706 3725 3706 3409 
Q 3706 3116 3547 2856 
Q 3388 2597 3066 2438 
Q 3481 2316 3704 2022 
Q 3928 1728 3928 1328 
Q 3928 1006 3792 729 
Q 3656 453 3456 303 
Q 3256 153 2954 76 
Q 2653 0 2216 0 
L 469 0 
z
M 1075 2656 
L 2066 2656 
Q 2469 2656 2644 2709 
Q 2875 2778 2992 2937 
Q 3109 3097 3109 3338 
Q 3109 3566 3000 3739 
Q 2891 3913 2687 3977 
Q 2484 4041 1991 4041 
L 1075 4041 
L 1075 2656 
z
M 1075 541 
L 2216 541 
Q 2509 541 2628 563 
Q 2838 600 2978 687 
Q 3119 775 3209 942 
Q 3300 1109 3300 1328 
Q 3300 1584 3169 1773 
Q 3038 1963 2805 2039 
Q 2572 2116 2134 2116 
L 1075 2116 
L 1075 541 
z
" transform="scale(0.015625)"/>
       <path id="ArialMT-70" d="M 422 -1272 
L 422 3319 
L 934 3319 
L 934 2888 
Q 1116 3141 1344 3267 
Q 1572 3394 1897 3394 
Q 2322 3394 2647 3175 
Q 2972 2956 3137 2557 
Q 3303 2159 3303 1684 
Q 3303 1175 3120 767 
Q 2938 359 2589 142 
Q 2241 -75 1856 -75 
Q 1575 -75 1351 44 
Q 1128 163 984 344 
L 984 -1272 
L 422 -1272 
z
M 931 1641 
Q 931 1000 1190 694 
Q 1450 388 1819 388 
Q 2194 388 2461 705 
Q 2728 1022 2728 1688 
Q 2728 2322 2467 2637 
Q 2206 2953 1844 2953 
Q 1484 2953 1207 2617 
Q 931 2281 931 1641 
z
" transform="scale(0.015625)"/>
      </defs>
      <use xlink:href="#ArialMT-42"/>
      <use xlink:href="#ArialMT-61" x="66.699219"/>
      <use xlink:href="#ArialMT-67" x="122.314453"/>
      <use xlink:href="#ArialMT-73" x="177.929688"/>
      <use xlink:href="#ArialMT-20" x="227.929688"/>
      <use xlink:href="#ArialMT-6f" x="255.712891"/>
      <use xlink:href="#ArialMT-66" x="311.328125"/>
      <use xlink:href="#ArialMT-20" x="339.111328"/>
      <use xlink:href="#ArialMT-64" x="366.894531"/>
      <use xlink:href="#ArialMT-6f" x="422.509766"/>
      <use xlink:href="#ArialMT-67" x="478.125"/>
      <use xlink:href="#ArialMT-20" x="533.740234"/>
      <use xlink:href="#ArialMT-66" x="561.523438"/>
      <use xlink:href="#ArialMT-6f" x="589.306641"/>
      <use xlink:href="#ArialMT-6f" x="644.921875"/>
      <use xlink:href="#ArialMT-64" x="700.537109"/>
      <use xlink:href="#ArialMT-20" x="756.152344"/>
      <use xlink:href="#ArialMT-73" x="783.935547"/>
      <use xlink:href="#ArialMT-6f" x="833.935547"/>
      <use xlink:href="#ArialMT-6c" x="889.550781"/>
      <use xlink:href="#ArialMT-64" x="911.767578"/>
      <use xlink:href="#ArialMT-20" x="967.382812"/>
      <use xlink:href="#ArialMT-70" x="995.166016"/>
      <use xlink:href="#ArialMT-65" x="1050.78125"/>
      <use xlink:href="#ArialMT-72" x="1106.396484"/>
      <use xlink:href="#ArialMT-20" x="1139.697266"/>
      <use xlink:href="#ArialMT-64" x="1167.480469"/>
      <use xlink:href="#ArialMT-61" x="1223.095703"/>
      <use xlink:href="#ArialMT-79" x="1278.710938"/>
     </g>
    </g>
   </g>
  </g>
  <g id="axes_2">
   <g id="patch_7">
    <path d="M 47.4725 579.112 
L 631.62 579.112 
L 631.62 342.1725 
L 47.4725 342.1725 
z
" style="fill: #eaeaf2"/>
   </g>
   <g id="matplotlib.axis_3">
    <g id="xtick_56">
     <g id="line2d_71">
      <path d="M 47.4725 579.112 
L 47.4725 342.1725 
" clip-path="url(#p8a2fbb4108)" style="fill: none; stroke: #ffffff; stroke-linecap: round"/>
     </g>
     <g id="line2d_72"/>
    </g>
    <g id="xtick_57">
     <g id="line2d_73">
      <path d="M 307.093611 579.112 
L 307.093611 342.1725 
" clip-path="url(#p8a2fbb4108)" style="fill: none; stroke: #ffffff; stroke-linecap: round"/>
     </g>
     <g id="line2d_74"/>
     <g id="text_19">
      <!--  -->
      <g style="fill: #262626" transform="translate(307.093611 593.269812) scale(0.1 -0.1)"/>
      <!--  -->
      <g style="fill: #262626" transform="translate(307.093611 603.846688) scale(0.1 -0.1)"/>
      <!-- May -->
      <g style="fill: #262626" transform="translate(297.648299 614.423563) scale(0.1 -0.1)">
       <use xlink:href="#ArialMT-4d"/>
       <use xlink:href="#ArialMT-61" x="83.300781"/>
       <use xlink:href="#ArialMT-79" x="138.916016"/>
      </g>
      <!-- 2021 -->
      <g style="fill: #262626" transform="translate(295.971736 625.117625) scale(0.1 -0.1)">
       <use xlink:href="#ArialMT-32"/>
       <use xlink:href="#ArialMT-30" x="55.615234"/>
       <use xlink:href="#ArialMT-32" x="111.230469"/>
       <use xlink:href="#ArialMT-31" x="166.845703"/>
      </g>
     </g>
    </g>
    <g id="xtick_58">
     <g id="line2d_75">
      <path d="M 631.62 579.112 
L 631.62 342.1725 
" clip-path="url(#p8a2fbb4108)" style="fill: none; stroke: #ffffff; stroke-linecap: round"/>
     </g>
     <g id="line2d_76"/>
     <g id="text_20">
      <!-- 31 -->
      <g style="fill: #262626" transform="translate(626.059062 593.269812) scale(0.1 -0.1)">
       <use xlink:href="#ArialMT-33"/>
       <use xlink:href="#ArialMT-31" x="55.615234"/>
      </g>
     </g>
    </g>
    <g id="xtick_59">
     <g id="line2d_77"/>
    </g>
    <g id="xtick_60">
     <g id="line2d_78"/>
    </g>
    <g id="xtick_61">
     <g id="line2d_79"/>
    </g>
    <g id="xtick_62">
     <g id="line2d_80"/>
    </g>
    <g id="xtick_63">
     <g id="line2d_81"/>
     <g id="text_21">
      <!-- 12 -->
      <g style="fill: #262626" transform="translate(95.999294 589.669813) scale(0.1 -0.1)">
       <use xlink:href="#ArialMT-31"/>
       <use xlink:href="#ArialMT-32" x="55.615234"/>
      </g>
     </g>
    </g>
    <g id="xtick_64">
     <g id="line2d_82"/>
    </g>
    <g id="xtick_65">
     <g id="line2d_83"/>
    </g>
    <g id="xtick_66">
     <g id="line2d_84"/>
    </g>
    <g id="xtick_67">
     <g id="line2d_85"/>
    </g>
    <g id="xtick_68">
     <g id="line2d_86"/>
    </g>
    <g id="xtick_69">
     <g id="line2d_87"/>
    </g>
    <g id="xtick_70">
     <g id="line2d_88"/>
     <g id="text_22">
      <!-- 19 -->
      <g style="fill: #262626" transform="translate(171.722118 589.669813) scale(0.1 -0.1)">
       <use xlink:href="#ArialMT-31"/>
       <use xlink:href="#ArialMT-39" x="55.615234"/>
      </g>
     </g>
    </g>
    <g id="xtick_71">
     <g id="line2d_89"/>
    </g>
    <g id="xtick_72">
     <g id="line2d_90"/>
    </g>
    <g id="xtick_73">
     <g id="line2d_91"/>
    </g>
    <g id="xtick_74">
     <g id="line2d_92"/>
    </g>
    <g id="xtick_75">
     <g id="line2d_93"/>
    </g>
    <g id="xtick_76">
     <g id="line2d_94"/>
    </g>
    <g id="xtick_77">
     <g id="line2d_95"/>
     <g id="text_23">
      <!-- 26 -->
      <g style="fill: #262626" transform="translate(247.444942 589.669813) scale(0.1 -0.1)">
       <use xlink:href="#ArialMT-32"/>
       <use xlink:href="#ArialMT-36" x="55.615234"/>
      </g>
     </g>
    </g>
    <g id="xtick_78">
     <g id="line2d_96"/>
    </g>
    <g id="xtick_79">
     <g id="line2d_97"/>
    </g>
    <g id="xtick_80">
     <g id="line2d_98"/>
    </g>
    <g id="xtick_81">
     <g id="line2d_99"/>
    </g>
    <g id="xtick_82">
     <g id="line2d_100"/>
    </g>
    <g id="xtick_83">
     <g id="line2d_101"/>
     <g id="text_24">
      <!-- 03 -->
      <g style="fill: #262626" transform="translate(323.167766 589.669813) scale(0.1 -0.1)">
       <use xlink:href="#ArialMT-30"/>
       <use xlink:href="#ArialMT-33" x="55.615234"/>
      </g>
     </g>
    </g>
    <g id="xtick_84">
     <g id="line2d_102"/>
    </g>
    <g id="xtick_85">
     <g id="line2d_103"/>
    </g>
    <g id="xtick_86">
     <g id="line2d_104"/>
    </g>
    <g id="xtick_87">
     <g id="line2d_105"/>
    </g>
    <g id="xtick_88">
     <g id="line2d_106"/>
    </g>
    <g id="xtick_89">
     <g id="line2d_107"/>
    </g>
    <g id="xtick_90">
     <g id="line2d_108"/>
     <g id="text_25">
      <!-- 10 -->
      <g style="fill: #262626" transform="translate(398.89059 589.669813) scale(0.1 -0.1)">
       <use xlink:href="#ArialMT-31"/>
       <use xlink:href="#ArialMT-30" x="55.615234"/>
      </g>
     </g>
    </g>
    <g id="xtick_91">
     <g id="line2d_109"/>
    </g>
    <g id="xtick_92">
     <g id="line2d_110"/>
    </g>
    <g id="xtick_93">
     <g id="line2d_111"/>
    </g>
    <g id="xtick_94">
     <g id="line2d_112"/>
    </g>
    <g id="xtick_95">
     <g id="line2d_113"/>
    </g>
    <g id="xtick_96">
     <g id="line2d_114"/>
    </g>
    <g id="xtick_97">
     <g id="line2d_115"/>
     <g id="text_26">
      <!-- 17 -->
      <g style="fill: #262626" transform="translate(474.613414 589.669813) scale(0.1 -0.1)">
       <use xlink:href="#ArialMT-31"/>
       <use xlink:href="#ArialMT-37" x="55.615234"/>
      </g>
     </g>
    </g>
    <g id="xtick_98">
     <g id="line2d_116"/>
    </g>
    <g id="xtick_99">
     <g id="line2d_117"/>
    </g>
    <g id="xtick_100">
     <g id="line2d_118"/>
    </g>
    <g id="xtick_101">
     <g id="line2d_119"/>
    </g>
    <g id="xtick_102">
     <g id="line2d_120"/>
    </g>
    <g id="xtick_103">
     <g id="line2d_121"/>
    </g>
    <g id="xtick_104">
     <g id="line2d_122"/>
     <g id="text_27">
      <!-- 24 -->
      <g style="fill: #262626" transform="translate(550.336238 589.669813) scale(0.1 -0.1)">
       <use xlink:href="#ArialMT-32"/>
       <use xlink:href="#ArialMT-34" x="55.615234"/>
      </g>
     </g>
    </g>
    <g id="xtick_105">
     <g id="line2d_123"/>
    </g>
    <g id="xtick_106">
     <g id="line2d_124"/>
    </g>
    <g id="xtick_107">
     <g id="line2d_125"/>
    </g>
    <g id="xtick_108">
     <g id="line2d_126"/>
    </g>
    <g id="xtick_109">
     <g id="line2d_127"/>
    </g>
    <g id="xtick_110">
     <g id="line2d_128"/>
    </g>
    <g id="text_28">
     <!-- Date -->
     <g style="fill: #262626" transform="translate(328.985312 638.262938) scale(0.1 -0.1)">
      <use xlink:href="#ArialMT-44"/>
      <use xlink:href="#ArialMT-61" x="72.216797"/>
      <use xlink:href="#ArialMT-74" x="127.832031"/>
      <use xlink:href="#ArialMT-65" x="155.615234"/>
     </g>
    </g>
   </g>
   <g id="matplotlib.axis_4">
    <g id="ytick_6">
     <g id="line2d_129">
      <path d="M 47.4725 568.342023 
L 631.62 568.342023 
" clip-path="url(#p8a2fbb4108)" style="fill: none; stroke: #ffffff; stroke-linecap: round"/>
     </g>
     <g id="line2d_130"/>
     <g id="text_29">
      <!-- 0 -->
      <g style="fill: #262626" transform="translate(34.911563 571.920929) scale(0.1 -0.1)">
       <use xlink:href="#ArialMT-30"/>
      </g>
     </g>
    </g>
    <g id="ytick_7">
     <g id="line2d_131">
      <path d="M 47.4725 521.125989 
L 631.62 521.125989 
" clip-path="url(#p8a2fbb4108)" style="fill: none; stroke: #ffffff; stroke-linecap: round"/>
     </g>
     <g id="line2d_132"/>
     <g id="text_30">
      <!-- 100 -->
      <g style="fill: #262626" transform="translate(23.789688 524.704895) scale(0.1 -0.1)">
       <use xlink:href="#ArialMT-31"/>
       <use xlink:href="#ArialMT-30" x="55.615234"/>
       <use xlink:href="#ArialMT-30" x="111.230469"/>
      </g>
     </g>
    </g>
    <g id="ytick_8">
     <g id="line2d_133">
      <path d="M 47.4725 473.909955 
L 631.62 473.909955 
" clip-path="url(#p8a2fbb4108)" style="fill: none; stroke: #ffffff; stroke-linecap: round"/>
     </g>
     <g id="line2d_134"/>
     <g id="text_31">
      <!-- 200 -->
      <g style="fill: #262626" transform="translate(23.789688 477.488862) scale(0.1 -0.1)">
       <use xlink:href="#ArialMT-32"/>
       <use xlink:href="#ArialMT-30" x="55.615234"/>
       <use xlink:href="#ArialMT-30" x="111.230469"/>
      </g>
     </g>
    </g>
    <g id="ytick_9">
     <g id="line2d_135">
      <path d="M 47.4725 426.693922 
L 631.62 426.693922 
" clip-path="url(#p8a2fbb4108)" style="fill: none; stroke: #ffffff; stroke-linecap: round"/>
     </g>
     <g id="line2d_136"/>
     <g id="text_32">
      <!-- 300 -->
      <g style="fill: #262626" transform="translate(23.789688 430.272828) scale(0.1 -0.1)">
       <use xlink:href="#ArialMT-33"/>
       <use xlink:href="#ArialMT-30" x="55.615234"/>
       <use xlink:href="#ArialMT-30" x="111.230469"/>
      </g>
     </g>
    </g>
    <g id="ytick_10">
     <g id="line2d_137">
      <path d="M 47.4725 379.477888 
L 631.62 379.477888 
" clip-path="url(#p8a2fbb4108)" style="fill: none; stroke: #ffffff; stroke-linecap: round"/>
     </g>
     <g id="line2d_138"/>
     <g id="text_33">
      <!-- 400 -->
      <g style="fill: #262626" transform="translate(23.789688 383.056794) scale(0.1 -0.1)">
       <use xlink:href="#ArialMT-34"/>
       <use xlink:href="#ArialMT-30" x="55.615234"/>
       <use xlink:href="#ArialMT-30" x="111.230469"/>
      </g>
     </g>
    </g>
    <g id="text_34">
     <!-- Sales (in thousands) -->
     <g style="fill: #262626" transform="translate(17.685 506.220375) rotate(-90) scale(0.1 -0.1)">
      <use xlink:href="#ArialMT-53"/>
      <use xlink:href="#ArialMT-61" x="66.699219"/>
      <use xlink:href="#ArialMT-6c" x="122.314453"/>
      <use xlink:href="#ArialMT-65" x="144.53125"/>
      <use xlink:href="#ArialMT-73" x="200.146484"/>
      <use xlink:href="#ArialMT-20" x="250.146484"/>
      <use xlink:href="#ArialMT-28" x="277.929688"/>
      <use xlink:href="#ArialMT-69" x="311.230469"/>
      <use xlink:href="#ArialMT-6e" x="333.447266"/>
      <use xlink:href="#ArialMT-20" x="389.0625"/>
      <use xlink:href="#ArialMT-74" x="416.845703"/>
      <use xlink:href="#ArialMT-68" x="444.628906"/>
      <use xlink:href="#ArialMT-6f" x="500.244141"/>
      <use xlink:href="#ArialMT-75" x="555.859375"/>
      <use xlink:href="#ArialMT-73" x="611.474609"/>
      <use xlink:href="#ArialMT-61" x="661.474609"/>
      <use xlink:href="#ArialMT-6e" x="717.089844"/>
      <use xlink:href="#ArialMT-64" x="772.705078"/>
      <use xlink:href="#ArialMT-73" x="828.320312"/>
      <use xlink:href="#ArialMT-29" x="878.320312"/>
     </g>
    </g>
   </g>
   <g id="line2d_139">
    <path d="M 47.4725 568.342023 
L 58.290046 568.342023 
L 69.107593 568.342023 
L 79.925139 568.342023 
L 90.742685 568.342023 
L 101.560231 568.342023 
L 112.377778 568.342023 
L 123.195324 568.342023 
L 134.01287 568.342023 
L 144.830417 568.342023 
L 155.647963 568.342023 
L 166.465509 568.342023 
L 177.283056 568.342023 
L 188.100602 568.342023 
L 198.918148 568.342023 
L 209.735694 568.342023 
L 220.553241 568.342023 
L 231.370787 568.342023 
L 242.188333 568.342023 
L 253.00588 568.342023 
L 263.823426 568.342023 
L 274.640972 568.342023 
L 285.458519 568.342023 
L 296.276065 568.342023 
L 307.093611 568.342023 
L 317.911157 495.109955 
L 328.728704 486.563852 
L 339.54625 481.511737 
L 350.363796 465.741582 
L 361.181343 462.153163 
L 371.998889 460.979372 
L 382.816435 482.351238 
L 393.633981 496.599148 
L 404.451528 447.273502 
L 415.269074 423.733477 
L 426.08662 474.72396 
L 436.904167 503.529518 
L 447.721713 391.714395 
L 458.539259 507.246364 
L 469.356806 508.214293 
L 480.174352 516.112591 
L 490.991898 489.591345 
L 501.809444 521.14582 
L 512.626991 499.69652 
L 523.444537 461.01809 
L 534.262083 493.579211 
L 545.07963 488.120093 
L 555.897176 490.946445 
L 566.714722 514.447753 
L 577.532269 493.927665 
L 588.349815 484.170944 
L 599.167361 511.969856 
L 609.984907 490.946445 
L 620.802454 503.877972 
L 631.62 486.222953 
" clip-path="url(#p8a2fbb4108)" style="fill: none; stroke: #228b22; stroke-width: 3; stroke-linecap: round"/>
   </g>
   <g id="LineCollection_3">
    <path d="M 317.911157 568.342023 
L 317.911157 352.942477 
" clip-path="url(#p8a2fbb4108)" style="fill: none; stroke: #ff8c00; stroke-width: 4"/>
   </g>
   <g id="LineCollection_4">
    <path d="M 361.181343 568.342023 
L 361.181343 352.942477 
" clip-path="url(#p8a2fbb4108)" style="fill: none; stroke: #ff0000; stroke-width: 4"/>
   </g>
   <g id="patch_8">
    <path d="M 47.4725 579.112 
L 47.4725 342.1725 
" style="fill: none"/>
   </g>
   <g id="patch_9">
    <path d="M 631.62 579.112 
L 631.62 342.1725 
" style="fill: none"/>
   </g>
   <g id="patch_10">
    <path d="M 47.4725 579.112 
L 631.62 579.112 
" style="fill: none"/>
   </g>
   <g id="patch_11">
    <path d="M 47.4725 342.1725 
L 631.62 342.1725 
" style="fill: none"/>
   </g>
   <g id="text_35">
    <!-- New adjusted dog food sales -->
    <g style="fill: #262626" transform="translate(275.341562 336.1725) scale(0.1 -0.1)">
     <defs>
      <path id="ArialMT-4e" d="M 488 0 
L 488 4581 
L 1109 4581 
L 3516 984 
L 3516 4581 
L 4097 4581 
L 4097 0 
L 3475 0 
L 1069 3600 
L 1069 0 
L 488 0 
z
" transform="scale(0.015625)"/>
      <path id="ArialMT-77" d="M 1034 0 
L 19 3319 
L 600 3319 
L 1128 1403 
L 1325 691 
Q 1338 744 1497 1375 
L 2025 3319 
L 2603 3319 
L 3100 1394 
L 3266 759 
L 3456 1400 
L 4025 3319 
L 4572 3319 
L 3534 0 
L 2950 0 
L 2422 1988 
L 2294 2553 
L 1622 0 
L 1034 0 
z
" transform="scale(0.015625)"/>
      <path id="ArialMT-6a" d="M 419 3928 
L 419 4581 
L 981 4581 
L 981 3928 
L 419 3928 
z
M -294 -1288 
L -188 -809 
Q -19 -853 78 -853 
Q 250 -853 334 -739 
Q 419 -625 419 -169 
L 419 3319 
L 981 3319 
L 981 -181 
Q 981 -794 822 -1034 
Q 619 -1347 147 -1347 
Q -81 -1347 -294 -1288 
z
" transform="scale(0.015625)"/>
     </defs>
     <use xlink:href="#ArialMT-4e"/>
     <use xlink:href="#ArialMT-65" x="72.216797"/>
     <use xlink:href="#ArialMT-77" x="127.832031"/>
     <use xlink:href="#ArialMT-20" x="200.048828"/>
     <use xlink:href="#ArialMT-61" x="227.832031"/>
     <use xlink:href="#ArialMT-64" x="283.447266"/>
     <use xlink:href="#ArialMT-6a" x="339.0625"/>
     <use xlink:href="#ArialMT-75" x="361.279297"/>
     <use xlink:href="#ArialMT-73" x="416.894531"/>
     <use xlink:href="#ArialMT-74" x="466.894531"/>
     <use xlink:href="#ArialMT-65" x="494.677734"/>
     <use xlink:href="#ArialMT-64" x="550.292969"/>
     <use xlink:href="#ArialMT-20" x="605.908203"/>
     <use xlink:href="#ArialMT-64" x="633.691406"/>
     <use xlink:href="#ArialMT-6f" x="689.306641"/>
     <use xlink:href="#ArialMT-67" x="744.921875"/>
     <use xlink:href="#ArialMT-20" x="800.537109"/>
     <use xlink:href="#ArialMT-66" x="828.320312"/>
     <use xlink:href="#ArialMT-6f" x="856.103516"/>
     <use xlink:href="#ArialMT-6f" x="911.71875"/>
     <use xlink:href="#ArialMT-64" x="967.333984"/>
     <use xlink:href="#ArialMT-20" x="1022.949219"/>
     <use xlink:href="#ArialMT-73" x="1050.732422"/>
     <use xlink:href="#ArialMT-61" x="1100.732422"/>
     <use xlink:href="#ArialMT-6c" x="1156.347656"/>
     <use xlink:href="#ArialMT-65" x="1178.564453"/>
     <use xlink:href="#ArialMT-73" x="1234.179688"/>
    </g>
   </g>
   <g id="legend_2">
    <g id="line2d_140">
     <path d="M 56.4725 354.952187 
L 66.4725 354.952187 
L 76.4725 354.952187 
" style="fill: none; stroke: #228b22; stroke-width: 3; stroke-linecap: round"/>
    </g>
    <g id="text_36">
     <!-- Bags of dog food sold per day adjusted -->
     <g style="fill: #262626" transform="translate(84.4725 358.452187) scale(0.1 -0.1)">
      <use xlink:href="#ArialMT-42"/>
      <use xlink:href="#ArialMT-61" x="66.699219"/>
      <use xlink:href="#ArialMT-67" x="122.314453"/>
      <use xlink:href="#ArialMT-73" x="177.929688"/>
      <use xlink:href="#ArialMT-20" x="227.929688"/>
      <use xlink:href="#ArialMT-6f" x="255.712891"/>
      <use xlink:href="#ArialMT-66" x="311.328125"/>
      <use xlink:href="#ArialMT-20" x="339.111328"/>
      <use xlink:href="#ArialMT-64" x="366.894531"/>
      <use xlink:href="#ArialMT-6f" x="422.509766"/>
      <use xlink:href="#ArialMT-67" x="478.125"/>
      <use xlink:href="#ArialMT-20" x="533.740234"/>
      <use xlink:href="#ArialMT-66" x="561.523438"/>
      <use xlink:href="#ArialMT-6f" x="589.306641"/>
      <use xlink:href="#ArialMT-6f" x="644.921875"/>
      <use xlink:href="#ArialMT-64" x="700.537109"/>
      <use xlink:href="#ArialMT-20" x="756.152344"/>
      <use xlink:href="#ArialMT-73" x="783.935547"/>
      <use xlink:href="#ArialMT-6f" x="833.935547"/>
      <use xlink:href="#ArialMT-6c" x="889.550781"/>
      <use xlink:href="#ArialMT-64" x="911.767578"/>
      <use xlink:href="#ArialMT-20" x="967.382812"/>
      <use xlink:href="#ArialMT-70" x="995.166016"/>
      <use xlink:href="#ArialMT-65" x="1050.78125"/>
      <use xlink:href="#ArialMT-72" x="1106.396484"/>
      <use xlink:href="#ArialMT-20" x="1139.697266"/>
      <use xlink:href="#ArialMT-64" x="1167.480469"/>
      <use xlink:href="#ArialMT-61" x="1223.095703"/>
      <use xlink:href="#ArialMT-79" x="1278.710938"/>
      <use xlink:href="#ArialMT-20" x="1328.710938"/>
      <use xlink:href="#ArialMT-61" x="1356.494141"/>
      <use xlink:href="#ArialMT-64" x="1412.109375"/>
      <use xlink:href="#ArialMT-6a" x="1467.724609"/>
      <use xlink:href="#ArialMT-75" x="1489.941406"/>
      <use xlink:href="#ArialMT-73" x="1545.556641"/>
      <use xlink:href="#ArialMT-74" x="1595.556641"/>
      <use xlink:href="#ArialMT-65" x="1623.339844"/>
      <use xlink:href="#ArialMT-64" x="1678.955078"/>
     </g>
    </g>
   </g>
  </g>
 </g>
 <defs>
  <clipPath id="p5c11fed322">
   <rect x="47.4725" y="23.5725" width="584.1475" height="236.9395"/>
  </clipPath>
  <clipPath id="p8a2fbb4108">
   <rect x="47.4725" y="342.1725" width="584.1475" height="236.9395"/>
  </clipPath>
 </defs>
</svg>
