<?xml version="1.0" encoding="utf-8" standalone="no"?>
<!DOCTYPE svg PUBLIC "-//W3C//DTD SVG 1.1//EN"
  "http://www.w3.org/Graphics/SVG/1.1/DTD/svg11.dtd">
<svg xmlns:xlink="http://www.w3.org/1999/xlink" width="720pt" height="576pt" viewBox="0 0 720 576" xmlns="http://www.w3.org/2000/svg" version="1.1">
 <metadata>
  <rdf:RDF xmlns:dc="http://purl.org/dc/elements/1.1/" xmlns:cc="http://creativecommons.org/ns#" xmlns:rdf="http://www.w3.org/1999/02/22-rdf-syntax-ns#">
   <cc:Work>
    <dc:type rdf:resource="http://purl.org/dc/dcmitype/StillImage"/>
    <dc:date>2024-07-25T16:20:49.059054</dc:date>
    <dc:format>image/svg+xml</dc:format>
    <dc:creator>
     <cc:Agent>
      <dc:title>Matplotlib v3.8.4, https://matplotlib.org/</dc:title>
     </cc:Agent>
    </dc:creator>
   </cc:Work>
  </rdf:RDF>
 </metadata>
 <defs>
  <style type="text/css">*{stroke-linejoin: round; stroke-linecap: butt}</style>
 </defs>
 <g id="figure_1">
  <g id="patch_1">
   <path d="M 0 576 
L 720 576 
L 720 0 
L 0 0 
z
" style="fill: #ffffff"/>
  </g>
  <g id="axes_1">
   <g id="patch_2">
    <path d="M 59.78 535.48 
L 709.2 535.48 
L 709.2 28.32 
L 59.78 28.32 
z
" style="fill: #eaeaf2"/>
   </g>
   <g id="matplotlib.axis_1">
    <g id="xtick_1">
     <g id="line2d_1">
      <path d="M 94.041114 535.48 
L 94.041114 28.32 
" clip-path="url(#pc93ffaedf6)" style="fill: none; stroke: #ffffff; stroke-linecap: round"/>
     </g>
     <g id="line2d_2"/>
     <g id="text_1">
      <!-- 2020-12-01 -->
      <g style="fill: #262626" transform="translate(68.467676 549.637812) scale(0.1 -0.1)">
       <defs>
        <path id="ArialMT-32" d="M 3222 541 
L 3222 0 
L 194 0 
Q 188 203 259 391 
Q 375 700 629 1000 
Q 884 1300 1366 1694 
Q 2113 2306 2375 2664 
Q 2638 3022 2638 3341 
Q 2638 3675 2398 3904 
Q 2159 4134 1775 4134 
Q 1369 4134 1125 3890 
Q 881 3647 878 3216 
L 300 3275 
Q 359 3922 746 4261 
Q 1134 4600 1788 4600 
Q 2447 4600 2831 4234 
Q 3216 3869 3216 3328 
Q 3216 3053 3103 2787 
Q 2991 2522 2730 2228 
Q 2469 1934 1863 1422 
Q 1356 997 1212 845 
Q 1069 694 975 541 
L 3222 541 
z
" transform="scale(0.015625)"/>
        <path id="ArialMT-30" d="M 266 2259 
Q 266 3072 433 3567 
Q 600 4063 929 4331 
Q 1259 4600 1759 4600 
Q 2128 4600 2406 4451 
Q 2684 4303 2865 4023 
Q 3047 3744 3150 3342 
Q 3253 2941 3253 2259 
Q 3253 1453 3087 958 
Q 2922 463 2592 192 
Q 2263 -78 1759 -78 
Q 1097 -78 719 397 
Q 266 969 266 2259 
z
M 844 2259 
Q 844 1131 1108 757 
Q 1372 384 1759 384 
Q 2147 384 2411 759 
Q 2675 1134 2675 2259 
Q 2675 3391 2411 3762 
Q 2147 4134 1753 4134 
Q 1366 4134 1134 3806 
Q 844 3388 844 2259 
z
" transform="scale(0.015625)"/>
        <path id="ArialMT-2d" d="M 203 1375 
L 203 1941 
L 1931 1941 
L 1931 1375 
L 203 1375 
z
" transform="scale(0.015625)"/>
        <path id="ArialMT-31" d="M 2384 0 
L 1822 0 
L 1822 3584 
Q 1619 3391 1289 3197 
Q 959 3003 697 2906 
L 697 3450 
Q 1169 3672 1522 3987 
Q 1875 4303 2022 4600 
L 2384 4600 
L 2384 0 
z
" transform="scale(0.015625)"/>
       </defs>
       <use xlink:href="#ArialMT-32"/>
       <use xlink:href="#ArialMT-30" x="55.615234"/>
       <use xlink:href="#ArialMT-32" x="111.230469"/>
       <use xlink:href="#ArialMT-30" x="166.845703"/>
       <use xlink:href="#ArialMT-2d" x="222.460938"/>
       <use xlink:href="#ArialMT-31" x="255.761719"/>
       <use xlink:href="#ArialMT-32" x="311.376953"/>
       <use xlink:href="#ArialMT-2d" x="366.992188"/>
       <use xlink:href="#ArialMT-30" x="400.292969"/>
       <use xlink:href="#ArialMT-31" x="455.908203"/>
      </g>
     </g>
    </g>
    <g id="xtick_2">
     <g id="line2d_3">
      <path d="M 177.02651 535.48 
L 177.02651 28.32 
" clip-path="url(#pc93ffaedf6)" style="fill: none; stroke: #ffffff; stroke-linecap: round"/>
     </g>
     <g id="line2d_4"/>
     <g id="text_2">
      <!-- 2020-12-08 -->
      <g style="fill: #262626" transform="translate(151.453072 549.637812) scale(0.1 -0.1)">
       <defs>
        <path id="ArialMT-38" d="M 1131 2484 
Q 781 2613 612 2850 
Q 444 3088 444 3419 
Q 444 3919 803 4259 
Q 1163 4600 1759 4600 
Q 2359 4600 2725 4251 
Q 3091 3903 3091 3403 
Q 3091 3084 2923 2848 
Q 2756 2613 2416 2484 
Q 2838 2347 3058 2040 
Q 3278 1734 3278 1309 
Q 3278 722 2862 322 
Q 2447 -78 1769 -78 
Q 1091 -78 675 323 
Q 259 725 259 1325 
Q 259 1772 486 2073 
Q 713 2375 1131 2484 
z
M 1019 3438 
Q 1019 3113 1228 2906 
Q 1438 2700 1772 2700 
Q 2097 2700 2305 2904 
Q 2513 3109 2513 3406 
Q 2513 3716 2298 3927 
Q 2084 4138 1766 4138 
Q 1444 4138 1231 3931 
Q 1019 3725 1019 3438 
z
M 838 1322 
Q 838 1081 952 856 
Q 1066 631 1291 507 
Q 1516 384 1775 384 
Q 2178 384 2440 643 
Q 2703 903 2703 1303 
Q 2703 1709 2433 1975 
Q 2163 2241 1756 2241 
Q 1359 2241 1098 1978 
Q 838 1716 838 1322 
z
" transform="scale(0.015625)"/>
       </defs>
       <use xlink:href="#ArialMT-32"/>
       <use xlink:href="#ArialMT-30" x="55.615234"/>
       <use xlink:href="#ArialMT-32" x="111.230469"/>
       <use xlink:href="#ArialMT-30" x="166.845703"/>
       <use xlink:href="#ArialMT-2d" x="222.460938"/>
       <use xlink:href="#ArialMT-31" x="255.761719"/>
       <use xlink:href="#ArialMT-32" x="311.376953"/>
       <use xlink:href="#ArialMT-2d" x="366.992188"/>
       <use xlink:href="#ArialMT-30" x="400.292969"/>
       <use xlink:href="#ArialMT-38" x="455.908203"/>
      </g>
     </g>
    </g>
    <g id="xtick_3">
     <g id="line2d_5">
      <path d="M 260.011906 535.48 
L 260.011906 28.32 
" clip-path="url(#pc93ffaedf6)" style="fill: none; stroke: #ffffff; stroke-linecap: round"/>
     </g>
     <g id="line2d_6"/>
     <g id="text_3">
      <!-- 2020-12-15 -->
      <g style="fill: #262626" transform="translate(234.438468 549.637812) scale(0.1 -0.1)">
       <defs>
        <path id="ArialMT-35" d="M 266 1200 
L 856 1250 
Q 922 819 1161 601 
Q 1400 384 1738 384 
Q 2144 384 2425 690 
Q 2706 997 2706 1503 
Q 2706 1984 2436 2262 
Q 2166 2541 1728 2541 
Q 1456 2541 1237 2417 
Q 1019 2294 894 2097 
L 366 2166 
L 809 4519 
L 3088 4519 
L 3088 3981 
L 1259 3981 
L 1013 2750 
Q 1425 3038 1878 3038 
Q 2478 3038 2890 2622 
Q 3303 2206 3303 1553 
Q 3303 931 2941 478 
Q 2500 -78 1738 -78 
Q 1113 -78 717 272 
Q 322 622 266 1200 
z
" transform="scale(0.015625)"/>
       </defs>
       <use xlink:href="#ArialMT-32"/>
       <use xlink:href="#ArialMT-30" x="55.615234"/>
       <use xlink:href="#ArialMT-32" x="111.230469"/>
       <use xlink:href="#ArialMT-30" x="166.845703"/>
       <use xlink:href="#ArialMT-2d" x="222.460938"/>
       <use xlink:href="#ArialMT-31" x="255.761719"/>
       <use xlink:href="#ArialMT-32" x="311.376953"/>
       <use xlink:href="#ArialMT-2d" x="366.992188"/>
       <use xlink:href="#ArialMT-31" x="400.292969"/>
       <use xlink:href="#ArialMT-35" x="455.908203"/>
      </g>
     </g>
    </g>
    <g id="xtick_4">
     <g id="line2d_7">
      <path d="M 342.997302 535.48 
L 342.997302 28.32 
" clip-path="url(#pc93ffaedf6)" style="fill: none; stroke: #ffffff; stroke-linecap: round"/>
     </g>
     <g id="line2d_8"/>
     <g id="text_4">
      <!-- 2020-12-22 -->
      <g style="fill: #262626" transform="translate(317.423864 549.637812) scale(0.1 -0.1)">
       <use xlink:href="#ArialMT-32"/>
       <use xlink:href="#ArialMT-30" x="55.615234"/>
       <use xlink:href="#ArialMT-32" x="111.230469"/>
       <use xlink:href="#ArialMT-30" x="166.845703"/>
       <use xlink:href="#ArialMT-2d" x="222.460938"/>
       <use xlink:href="#ArialMT-31" x="255.761719"/>
       <use xlink:href="#ArialMT-32" x="311.376953"/>
       <use xlink:href="#ArialMT-2d" x="366.992188"/>
       <use xlink:href="#ArialMT-32" x="400.292969"/>
       <use xlink:href="#ArialMT-32" x="455.908203"/>
      </g>
     </g>
    </g>
    <g id="xtick_5">
     <g id="line2d_9">
      <path d="M 461.547868 535.48 
L 461.547868 28.32 
" clip-path="url(#pc93ffaedf6)" style="fill: none; stroke: #ffffff; stroke-linecap: round"/>
     </g>
     <g id="line2d_10"/>
     <g id="text_5">
      <!-- 2021-01-01 -->
      <g style="fill: #262626" transform="translate(435.97443 549.637812) scale(0.1 -0.1)">
       <use xlink:href="#ArialMT-32"/>
       <use xlink:href="#ArialMT-30" x="55.615234"/>
       <use xlink:href="#ArialMT-32" x="111.230469"/>
       <use xlink:href="#ArialMT-31" x="166.845703"/>
       <use xlink:href="#ArialMT-2d" x="222.460938"/>
       <use xlink:href="#ArialMT-30" x="255.761719"/>
       <use xlink:href="#ArialMT-31" x="311.376953"/>
       <use xlink:href="#ArialMT-2d" x="366.992188"/>
       <use xlink:href="#ArialMT-30" x="400.292969"/>
       <use xlink:href="#ArialMT-31" x="455.908203"/>
      </g>
     </g>
    </g>
    <g id="xtick_6">
     <g id="line2d_11">
      <path d="M 544.533264 535.48 
L 544.533264 28.32 
" clip-path="url(#pc93ffaedf6)" style="fill: none; stroke: #ffffff; stroke-linecap: round"/>
     </g>
     <g id="line2d_12"/>
     <g id="text_6">
      <!-- 2021-01-08 -->
      <g style="fill: #262626" transform="translate(518.959826 549.637812) scale(0.1 -0.1)">
       <use xlink:href="#ArialMT-32"/>
       <use xlink:href="#ArialMT-30" x="55.615234"/>
       <use xlink:href="#ArialMT-32" x="111.230469"/>
       <use xlink:href="#ArialMT-31" x="166.845703"/>
       <use xlink:href="#ArialMT-2d" x="222.460938"/>
       <use xlink:href="#ArialMT-30" x="255.761719"/>
       <use xlink:href="#ArialMT-31" x="311.376953"/>
       <use xlink:href="#ArialMT-2d" x="366.992188"/>
       <use xlink:href="#ArialMT-30" x="400.292969"/>
       <use xlink:href="#ArialMT-38" x="455.908203"/>
      </g>
     </g>
    </g>
    <g id="xtick_7">
     <g id="line2d_13">
      <path d="M 627.51866 535.48 
L 627.51866 28.32 
" clip-path="url(#pc93ffaedf6)" style="fill: none; stroke: #ffffff; stroke-linecap: round"/>
     </g>
     <g id="line2d_14"/>
     <g id="text_7">
      <!-- 2021-01-15 -->
      <g style="fill: #262626" transform="translate(601.945223 549.637812) scale(0.1 -0.1)">
       <use xlink:href="#ArialMT-32"/>
       <use xlink:href="#ArialMT-30" x="55.615234"/>
       <use xlink:href="#ArialMT-32" x="111.230469"/>
       <use xlink:href="#ArialMT-31" x="166.845703"/>
       <use xlink:href="#ArialMT-2d" x="222.460938"/>
       <use xlink:href="#ArialMT-30" x="255.761719"/>
       <use xlink:href="#ArialMT-31" x="311.376953"/>
       <use xlink:href="#ArialMT-2d" x="366.992188"/>
       <use xlink:href="#ArialMT-31" x="400.292969"/>
       <use xlink:href="#ArialMT-35" x="455.908203"/>
      </g>
     </g>
    </g>
    <g id="text_8">
     <!-- Date -->
     <g style="fill: #262626" transform="translate(372.872969 563.498906) scale(0.11 -0.11)">
      <defs>
       <path id="ArialMT-44" d="M 494 0 
L 494 4581 
L 2072 4581 
Q 2606 4581 2888 4516 
Q 3281 4425 3559 4188 
Q 3922 3881 4101 3404 
Q 4281 2928 4281 2316 
Q 4281 1794 4159 1391 
Q 4038 988 3847 723 
Q 3656 459 3429 307 
Q 3203 156 2883 78 
Q 2563 0 2147 0 
L 494 0 
z
M 1100 541 
L 2078 541 
Q 2531 541 2789 625 
Q 3047 709 3200 863 
Q 3416 1078 3536 1442 
Q 3656 1806 3656 2325 
Q 3656 3044 3420 3430 
Q 3184 3816 2847 3947 
Q 2603 4041 2063 4041 
L 1100 4041 
L 1100 541 
z
" transform="scale(0.015625)"/>
       <path id="ArialMT-61" d="M 2588 409 
Q 2275 144 1986 34 
Q 1697 -75 1366 -75 
Q 819 -75 525 192 
Q 231 459 231 875 
Q 231 1119 342 1320 
Q 453 1522 633 1644 
Q 813 1766 1038 1828 
Q 1203 1872 1538 1913 
Q 2219 1994 2541 2106 
Q 2544 2222 2544 2253 
Q 2544 2597 2384 2738 
Q 2169 2928 1744 2928 
Q 1347 2928 1158 2789 
Q 969 2650 878 2297 
L 328 2372 
Q 403 2725 575 2942 
Q 747 3159 1072 3276 
Q 1397 3394 1825 3394 
Q 2250 3394 2515 3294 
Q 2781 3194 2906 3042 
Q 3031 2891 3081 2659 
Q 3109 2516 3109 2141 
L 3109 1391 
Q 3109 606 3145 398 
Q 3181 191 3288 0 
L 2700 0 
Q 2613 175 2588 409 
z
M 2541 1666 
Q 2234 1541 1622 1453 
Q 1275 1403 1131 1340 
Q 988 1278 909 1158 
Q 831 1038 831 891 
Q 831 666 1001 516 
Q 1172 366 1500 366 
Q 1825 366 2078 508 
Q 2331 650 2450 897 
Q 2541 1088 2541 1459 
L 2541 1666 
z
" transform="scale(0.015625)"/>
       <path id="ArialMT-74" d="M 1650 503 
L 1731 6 
Q 1494 -44 1306 -44 
Q 1000 -44 831 53 
Q 663 150 594 308 
Q 525 466 525 972 
L 525 2881 
L 113 2881 
L 113 3319 
L 525 3319 
L 525 4141 
L 1084 4478 
L 1084 3319 
L 1650 3319 
L 1650 2881 
L 1084 2881 
L 1084 941 
Q 1084 700 1114 631 
Q 1144 563 1211 522 
Q 1278 481 1403 481 
Q 1497 481 1650 503 
z
" transform="scale(0.015625)"/>
       <path id="ArialMT-65" d="M 2694 1069 
L 3275 997 
Q 3138 488 2766 206 
Q 2394 -75 1816 -75 
Q 1088 -75 661 373 
Q 234 822 234 1631 
Q 234 2469 665 2931 
Q 1097 3394 1784 3394 
Q 2450 3394 2872 2941 
Q 3294 2488 3294 1666 
Q 3294 1616 3291 1516 
L 816 1516 
Q 847 969 1125 678 
Q 1403 388 1819 388 
Q 2128 388 2347 550 
Q 2566 713 2694 1069 
z
M 847 1978 
L 2700 1978 
Q 2663 2397 2488 2606 
Q 2219 2931 1791 2931 
Q 1403 2931 1139 2672 
Q 875 2413 847 1978 
z
" transform="scale(0.015625)"/>
      </defs>
      <use xlink:href="#ArialMT-44"/>
      <use xlink:href="#ArialMT-61" x="72.216797"/>
      <use xlink:href="#ArialMT-74" x="127.832031"/>
      <use xlink:href="#ArialMT-65" x="155.615234"/>
     </g>
    </g>
   </g>
   <g id="matplotlib.axis_2">
    <g id="ytick_1">
     <g id="line2d_15">
      <path d="M 59.78 535.48 
L 709.2 535.48 
" clip-path="url(#pc93ffaedf6)" style="fill: none; stroke: #ffffff; stroke-linecap: round"/>
     </g>
     <g id="line2d_16"/>
     <g id="text_9">
      <!-- 0 -->
      <g style="fill: #262626" transform="translate(47.219062 539.058906) scale(0.1 -0.1)">
       <use xlink:href="#ArialMT-30"/>
      </g>
     </g>
    </g>
    <g id="ytick_2">
     <g id="line2d_17">
      <path d="M 59.78 438.878095 
L 709.2 438.878095 
" clip-path="url(#pc93ffaedf6)" style="fill: none; stroke: #ffffff; stroke-linecap: round"/>
     </g>
     <g id="line2d_18"/>
     <g id="text_10">
      <!-- 10000 -->
      <g style="fill: #262626" transform="translate(24.975313 442.457001) scale(0.1 -0.1)">
       <use xlink:href="#ArialMT-31"/>
       <use xlink:href="#ArialMT-30" x="55.615234"/>
       <use xlink:href="#ArialMT-30" x="111.230469"/>
       <use xlink:href="#ArialMT-30" x="166.845703"/>
       <use xlink:href="#ArialMT-30" x="222.460938"/>
      </g>
     </g>
    </g>
    <g id="ytick_3">
     <g id="line2d_19">
      <path d="M 59.78 342.27619 
L 709.2 342.27619 
" clip-path="url(#pc93ffaedf6)" style="fill: none; stroke: #ffffff; stroke-linecap: round"/>
     </g>
     <g id="line2d_20"/>
     <g id="text_11">
      <!-- 20000 -->
      <g style="fill: #262626" transform="translate(24.975313 345.855097) scale(0.1 -0.1)">
       <use xlink:href="#ArialMT-32"/>
       <use xlink:href="#ArialMT-30" x="55.615234"/>
       <use xlink:href="#ArialMT-30" x="111.230469"/>
       <use xlink:href="#ArialMT-30" x="166.845703"/>
       <use xlink:href="#ArialMT-30" x="222.460938"/>
      </g>
     </g>
    </g>
    <g id="ytick_4">
     <g id="line2d_21">
      <path d="M 59.78 245.674286 
L 709.2 245.674286 
" clip-path="url(#pc93ffaedf6)" style="fill: none; stroke: #ffffff; stroke-linecap: round"/>
     </g>
     <g id="line2d_22"/>
     <g id="text_12">
      <!-- 30000 -->
      <g style="fill: #262626" transform="translate(24.975313 249.253192) scale(0.1 -0.1)">
       <defs>
        <path id="ArialMT-33" d="M 269 1209 
L 831 1284 
Q 928 806 1161 595 
Q 1394 384 1728 384 
Q 2125 384 2398 659 
Q 2672 934 2672 1341 
Q 2672 1728 2419 1979 
Q 2166 2231 1775 2231 
Q 1616 2231 1378 2169 
L 1441 2663 
Q 1497 2656 1531 2656 
Q 1891 2656 2178 2843 
Q 2466 3031 2466 3422 
Q 2466 3731 2256 3934 
Q 2047 4138 1716 4138 
Q 1388 4138 1169 3931 
Q 950 3725 888 3313 
L 325 3413 
Q 428 3978 793 4289 
Q 1159 4600 1703 4600 
Q 2078 4600 2393 4439 
Q 2709 4278 2876 4000 
Q 3044 3722 3044 3409 
Q 3044 3113 2884 2869 
Q 2725 2625 2413 2481 
Q 2819 2388 3044 2092 
Q 3269 1797 3269 1353 
Q 3269 753 2831 336 
Q 2394 -81 1725 -81 
Q 1122 -81 723 278 
Q 325 638 269 1209 
z
" transform="scale(0.015625)"/>
       </defs>
       <use xlink:href="#ArialMT-33"/>
       <use xlink:href="#ArialMT-30" x="55.615234"/>
       <use xlink:href="#ArialMT-30" x="111.230469"/>
       <use xlink:href="#ArialMT-30" x="166.845703"/>
       <use xlink:href="#ArialMT-30" x="222.460938"/>
      </g>
     </g>
    </g>
    <g id="ytick_5">
     <g id="line2d_23">
      <path d="M 59.78 149.072381 
L 709.2 149.072381 
" clip-path="url(#pc93ffaedf6)" style="fill: none; stroke: #ffffff; stroke-linecap: round"/>
     </g>
     <g id="line2d_24"/>
     <g id="text_13">
      <!-- 40000 -->
      <g style="fill: #262626" transform="translate(24.975313 152.651287) scale(0.1 -0.1)">
       <defs>
        <path id="ArialMT-34" d="M 2069 0 
L 2069 1097 
L 81 1097 
L 81 1613 
L 2172 4581 
L 2631 4581 
L 2631 1613 
L 3250 1613 
L 3250 1097 
L 2631 1097 
L 2631 0 
L 2069 0 
z
M 2069 1613 
L 2069 3678 
L 634 1613 
L 2069 1613 
z
" transform="scale(0.015625)"/>
       </defs>
       <use xlink:href="#ArialMT-34"/>
       <use xlink:href="#ArialMT-30" x="55.615234"/>
       <use xlink:href="#ArialMT-30" x="111.230469"/>
       <use xlink:href="#ArialMT-30" x="166.845703"/>
       <use xlink:href="#ArialMT-30" x="222.460938"/>
      </g>
     </g>
    </g>
    <g id="ytick_6">
     <g id="line2d_25">
      <path d="M 59.78 52.470476 
L 709.2 52.470476 
" clip-path="url(#pc93ffaedf6)" style="fill: none; stroke: #ffffff; stroke-linecap: round"/>
     </g>
     <g id="line2d_26"/>
     <g id="text_14">
      <!-- 50000 -->
      <g style="fill: #262626" transform="translate(24.975313 56.049382) scale(0.1 -0.1)">
       <use xlink:href="#ArialMT-35"/>
       <use xlink:href="#ArialMT-30" x="55.615234"/>
       <use xlink:href="#ArialMT-30" x="111.230469"/>
       <use xlink:href="#ArialMT-30" x="166.845703"/>
       <use xlink:href="#ArialMT-30" x="222.460938"/>
      </g>
     </g>
    </g>
    <g id="text_15">
     <!-- Coupon Usage -->
     <g style="fill: #262626" transform="translate(18.660156 318.590156) rotate(-90) scale(0.11 -0.11)">
      <defs>
       <path id="ArialMT-43" d="M 3763 1606 
L 4369 1453 
Q 4178 706 3683 314 
Q 3188 -78 2472 -78 
Q 1731 -78 1267 223 
Q 803 525 561 1097 
Q 319 1669 319 2325 
Q 319 3041 592 3573 
Q 866 4106 1370 4382 
Q 1875 4659 2481 4659 
Q 3169 4659 3637 4309 
Q 4106 3959 4291 3325 
L 3694 3184 
Q 3534 3684 3231 3912 
Q 2928 4141 2469 4141 
Q 1941 4141 1586 3887 
Q 1231 3634 1087 3207 
Q 944 2781 944 2328 
Q 944 1744 1114 1308 
Q 1284 872 1643 656 
Q 2003 441 2422 441 
Q 2931 441 3284 734 
Q 3638 1028 3763 1606 
z
" transform="scale(0.015625)"/>
       <path id="ArialMT-6f" d="M 213 1659 
Q 213 2581 725 3025 
Q 1153 3394 1769 3394 
Q 2453 3394 2887 2945 
Q 3322 2497 3322 1706 
Q 3322 1066 3130 698 
Q 2938 331 2570 128 
Q 2203 -75 1769 -75 
Q 1072 -75 642 372 
Q 213 819 213 1659 
z
M 791 1659 
Q 791 1022 1069 705 
Q 1347 388 1769 388 
Q 2188 388 2466 706 
Q 2744 1025 2744 1678 
Q 2744 2294 2464 2611 
Q 2184 2928 1769 2928 
Q 1347 2928 1069 2612 
Q 791 2297 791 1659 
z
" transform="scale(0.015625)"/>
       <path id="ArialMT-75" d="M 2597 0 
L 2597 488 
Q 2209 -75 1544 -75 
Q 1250 -75 995 37 
Q 741 150 617 320 
Q 494 491 444 738 
Q 409 903 409 1263 
L 409 3319 
L 972 3319 
L 972 1478 
Q 972 1038 1006 884 
Q 1059 663 1231 536 
Q 1403 409 1656 409 
Q 1909 409 2131 539 
Q 2353 669 2445 892 
Q 2538 1116 2538 1541 
L 2538 3319 
L 3100 3319 
L 3100 0 
L 2597 0 
z
" transform="scale(0.015625)"/>
       <path id="ArialMT-70" d="M 422 -1272 
L 422 3319 
L 934 3319 
L 934 2888 
Q 1116 3141 1344 3267 
Q 1572 3394 1897 3394 
Q 2322 3394 2647 3175 
Q 2972 2956 3137 2557 
Q 3303 2159 3303 1684 
Q 3303 1175 3120 767 
Q 2938 359 2589 142 
Q 2241 -75 1856 -75 
Q 1575 -75 1351 44 
Q 1128 163 984 344 
L 984 -1272 
L 422 -1272 
z
M 931 1641 
Q 931 1000 1190 694 
Q 1450 388 1819 388 
Q 2194 388 2461 705 
Q 2728 1022 2728 1688 
Q 2728 2322 2467 2637 
Q 2206 2953 1844 2953 
Q 1484 2953 1207 2617 
Q 931 2281 931 1641 
z
" transform="scale(0.015625)"/>
       <path id="ArialMT-6e" d="M 422 0 
L 422 3319 
L 928 3319 
L 928 2847 
Q 1294 3394 1984 3394 
Q 2284 3394 2536 3286 
Q 2788 3178 2913 3003 
Q 3038 2828 3088 2588 
Q 3119 2431 3119 2041 
L 3119 0 
L 2556 0 
L 2556 2019 
Q 2556 2363 2490 2533 
Q 2425 2703 2258 2804 
Q 2091 2906 1866 2906 
Q 1506 2906 1245 2678 
Q 984 2450 984 1813 
L 984 0 
L 422 0 
z
" transform="scale(0.015625)"/>
       <path id="ArialMT-20" transform="scale(0.015625)"/>
       <path id="ArialMT-55" d="M 3500 4581 
L 4106 4581 
L 4106 1934 
Q 4106 1244 3950 837 
Q 3794 431 3386 176 
Q 2978 -78 2316 -78 
Q 1672 -78 1262 144 
Q 853 366 678 786 
Q 503 1206 503 1934 
L 503 4581 
L 1109 4581 
L 1109 1938 
Q 1109 1341 1220 1058 
Q 1331 775 1601 622 
Q 1872 469 2263 469 
Q 2931 469 3215 772 
Q 3500 1075 3500 1938 
L 3500 4581 
z
" transform="scale(0.015625)"/>
       <path id="ArialMT-73" d="M 197 991 
L 753 1078 
Q 800 744 1014 566 
Q 1228 388 1613 388 
Q 2000 388 2187 545 
Q 2375 703 2375 916 
Q 2375 1106 2209 1216 
Q 2094 1291 1634 1406 
Q 1016 1563 777 1677 
Q 538 1791 414 1992 
Q 291 2194 291 2438 
Q 291 2659 392 2848 
Q 494 3038 669 3163 
Q 800 3259 1026 3326 
Q 1253 3394 1513 3394 
Q 1903 3394 2198 3281 
Q 2494 3169 2634 2976 
Q 2775 2784 2828 2463 
L 2278 2388 
Q 2241 2644 2061 2787 
Q 1881 2931 1553 2931 
Q 1166 2931 1000 2803 
Q 834 2675 834 2503 
Q 834 2394 903 2306 
Q 972 2216 1119 2156 
Q 1203 2125 1616 2013 
Q 2213 1853 2448 1751 
Q 2684 1650 2818 1456 
Q 2953 1263 2953 975 
Q 2953 694 2789 445 
Q 2625 197 2315 61 
Q 2006 -75 1616 -75 
Q 969 -75 630 194 
Q 291 463 197 991 
z
" transform="scale(0.015625)"/>
       <path id="ArialMT-67" d="M 319 -275 
L 866 -356 
Q 900 -609 1056 -725 
Q 1266 -881 1628 -881 
Q 2019 -881 2231 -725 
Q 2444 -569 2519 -288 
Q 2563 -116 2559 434 
Q 2191 0 1641 0 
Q 956 0 581 494 
Q 206 988 206 1678 
Q 206 2153 378 2554 
Q 550 2956 876 3175 
Q 1203 3394 1644 3394 
Q 2231 3394 2613 2919 
L 2613 3319 
L 3131 3319 
L 3131 450 
Q 3131 -325 2973 -648 
Q 2816 -972 2473 -1159 
Q 2131 -1347 1631 -1347 
Q 1038 -1347 672 -1080 
Q 306 -813 319 -275 
z
M 784 1719 
Q 784 1066 1043 766 
Q 1303 466 1694 466 
Q 2081 466 2343 764 
Q 2606 1063 2606 1700 
Q 2606 2309 2336 2618 
Q 2066 2928 1684 2928 
Q 1309 2928 1046 2623 
Q 784 2319 784 1719 
z
" transform="scale(0.015625)"/>
      </defs>
      <use xlink:href="#ArialMT-43"/>
      <use xlink:href="#ArialMT-6f" x="72.216797"/>
      <use xlink:href="#ArialMT-75" x="127.832031"/>
      <use xlink:href="#ArialMT-70" x="183.447266"/>
      <use xlink:href="#ArialMT-6f" x="239.0625"/>
      <use xlink:href="#ArialMT-6e" x="294.677734"/>
      <use xlink:href="#ArialMT-20" x="350.292969"/>
      <use xlink:href="#ArialMT-55" x="378.076172"/>
      <use xlink:href="#ArialMT-73" x="450.292969"/>
      <use xlink:href="#ArialMT-61" x="500.292969"/>
      <use xlink:href="#ArialMT-67" x="555.908203"/>
      <use xlink:href="#ArialMT-65" x="611.523438"/>
     </g>
    </g>
   </g>
   <g id="patch_3">
    <path d="M 89.299091 535.48 
L 98.783136 535.48 
L 98.783136 464.777066 
L 89.299091 464.777066 
z
" clip-path="url(#pc93ffaedf6)" style="fill: #5499c7"/>
   </g>
   <g id="patch_4">
    <path d="M 101.154147 535.48 
L 110.638193 535.48 
L 110.638193 509.262243 
L 101.154147 509.262243 
z
" clip-path="url(#pc93ffaedf6)" style="fill: #5499c7"/>
   </g>
   <g id="patch_5">
    <path d="M 113.009204 535.48 
L 122.493249 535.48 
L 122.493249 461.038572 
L 113.009204 461.038572 
z
" clip-path="url(#pc93ffaedf6)" style="fill: #5499c7"/>
   </g>
   <g id="patch_6">
    <path d="M 124.864261 535.48 
L 134.348306 535.48 
L 134.348306 482.126768 
L 124.864261 482.126768 
z
" clip-path="url(#pc93ffaedf6)" style="fill: #5499c7"/>
   </g>
   <g id="patch_7">
    <path d="M 136.719317 535.48 
L 146.203363 535.48 
L 146.203363 431.893778 
L 136.719317 431.893778 
z
" clip-path="url(#pc93ffaedf6)" style="fill: #5499c7"/>
   </g>
   <g id="patch_8">
    <path d="M 148.574374 535.48 
L 158.058419 535.48 
L 158.058419 475.837984 
L 148.574374 475.837984 
z
" clip-path="url(#pc93ffaedf6)" style="fill: #5499c7"/>
   </g>
   <g id="patch_9">
    <path d="M 160.42943 535.48 
L 169.913476 535.48 
L 169.913476 433.55533 
L 160.42943 433.55533 
z
" clip-path="url(#pc93ffaedf6)" style="fill: #5499c7"/>
   </g>
   <g id="patch_10">
    <path d="M 172.284487 535.48 
L 181.768532 535.48 
L 181.768532 439.766833 
L 172.284487 439.766833 
z
" clip-path="url(#pc93ffaedf6)" style="fill: #5499c7"/>
   </g>
   <g id="patch_11">
    <path d="M 184.139544 535.48 
L 193.623589 535.48 
L 193.623589 456.681826 
L 184.139544 456.681826 
z
" clip-path="url(#pc93ffaedf6)" style="fill: #5499c7"/>
   </g>
   <g id="patch_12">
    <path d="M 195.9946 535.48 
L 205.478645 535.48 
L 205.478645 463.009251 
L 195.9946 463.009251 
z
" clip-path="url(#pc93ffaedf6)" style="fill: #5499c7"/>
   </g>
   <g id="patch_13">
    <path d="M 207.849657 535.48 
L 217.333702 535.48 
L 217.333702 426.310187 
L 207.849657 426.310187 
z
" clip-path="url(#pc93ffaedf6)" style="fill: #5499c7"/>
   </g>
   <g id="patch_14">
    <path d="M 219.704713 535.48 
L 229.188759 535.48 
L 229.188759 464.786726 
L 219.704713 464.786726 
z
" clip-path="url(#pc93ffaedf6)" style="fill: #5499c7"/>
   </g>
   <g id="patch_15">
    <path d="M 231.55977 535.48 
L 241.043815 535.48 
L 241.043815 454.092895 
L 231.55977 454.092895 
z
" clip-path="url(#pc93ffaedf6)" style="fill: #5499c7"/>
   </g>
   <g id="patch_16">
    <path d="M 243.414827 535.48 
L 252.898872 535.48 
L 252.898872 474.727062 
L 243.414827 474.727062 
z
" clip-path="url(#pc93ffaedf6)" style="fill: #5499c7"/>
   </g>
   <g id="patch_17">
    <path d="M 255.269883 535.48 
L 264.753928 535.48 
L 264.753928 482.049486 
L 255.269883 482.049486 
z
" clip-path="url(#pc93ffaedf6)" style="fill: #5499c7"/>
   </g>
   <g id="patch_18">
    <path d="M 267.12494 535.48 
L 276.608985 535.48 
L 276.608985 459.154835 
L 267.12494 459.154835 
z
" clip-path="url(#pc93ffaedf6)" style="fill: #5499c7"/>
   </g>
   <g id="patch_19">
    <path d="M 278.979996 535.48 
L 288.464042 535.48 
L 288.464042 419.83786 
L 278.979996 419.83786 
z
" clip-path="url(#pc93ffaedf6)" style="fill: #5499c7"/>
   </g>
   <g id="patch_20">
    <path d="M 290.835053 535.48 
L 300.319098 535.48 
L 300.319098 416.205628 
L 290.835053 416.205628 
z
" clip-path="url(#pc93ffaedf6)" style="fill: #5499c7"/>
   </g>
   <g id="patch_21">
    <path d="M 302.69011 535.48 
L 312.174155 535.48 
L 312.174155 463.47294 
L 302.69011 463.47294 
z
" clip-path="url(#pc93ffaedf6)" style="fill: #5499c7"/>
   </g>
   <g id="patch_22">
    <path d="M 314.545166 535.48 
L 324.029211 535.48 
L 324.029211 443.737171 
L 314.545166 443.737171 
z
" clip-path="url(#pc93ffaedf6)" style="fill: #5499c7"/>
   </g>
   <g id="patch_23">
    <path d="M 326.400223 535.48 
L 335.884268 535.48 
L 335.884268 432.888777 
L 326.400223 432.888777 
z
" clip-path="url(#pc93ffaedf6)" style="fill: #5499c7"/>
   </g>
   <g id="patch_24">
    <path d="M 338.255279 535.48 
L 347.739325 535.48 
L 347.739325 416.369851 
L 338.255279 416.369851 
z
" clip-path="url(#pc93ffaedf6)" style="fill: #5499c7"/>
   </g>
   <g id="patch_25">
    <path d="M 350.110336 535.48 
L 359.594381 535.48 
L 359.594381 462.333038 
L 350.110336 462.333038 
z
" clip-path="url(#pc93ffaedf6)" style="fill: #5499c7"/>
   </g>
   <g id="patch_26">
    <path d="M 361.965392 535.48 
L 371.449438 535.48 
L 371.449438 445.920374 
L 361.965392 445.920374 
z
" clip-path="url(#pc93ffaedf6)" style="fill: #5499c7"/>
   </g>
   <g id="patch_27">
    <path d="M 373.820449 535.48 
L 383.304494 535.48 
L 383.304494 434.917417 
L 373.820449 434.917417 
z
" clip-path="url(#pc93ffaedf6)" style="fill: #5499c7"/>
   </g>
   <g id="patch_28">
    <path d="M 385.675506 535.48 
L 395.159551 535.48 
L 395.159551 421.827859 
L 385.675506 421.827859 
z
" clip-path="url(#pc93ffaedf6)" style="fill: #5499c7"/>
   </g>
   <g id="patch_29">
    <path d="M 397.530562 535.48 
L 407.014608 535.48 
L 407.014608 461.395999 
L 397.530562 461.395999 
z
" clip-path="url(#pc93ffaedf6)" style="fill: #5499c7"/>
   </g>
   <g id="patch_30">
    <path d="M 409.385619 535.48 
L 418.869664 535.48 
L 418.869664 442.69387 
L 409.385619 442.69387 
z
" clip-path="url(#pc93ffaedf6)" style="fill: #5499c7"/>
   </g>
   <g id="patch_31">
    <path d="M 421.240675 535.48 
L 430.724721 535.48 
L 430.724721 454.440662 
L 421.240675 454.440662 
z
" clip-path="url(#pc93ffaedf6)" style="fill: #5499c7"/>
   </g>
   <g id="patch_32">
    <path d="M 433.095732 535.48 
L 442.579777 535.48 
L 442.579777 440.307803 
L 433.095732 440.307803 
z
" clip-path="url(#pc93ffaedf6)" style="fill: #5499c7"/>
   </g>
   <g id="patch_33">
    <path d="M 444.950789 535.48 
L 454.434834 535.48 
L 454.434834 438.346785 
L 444.950789 438.346785 
z
" clip-path="url(#pc93ffaedf6)" style="fill: #5499c7"/>
   </g>
   <g id="patch_34">
    <path d="M 456.805845 535.48 
L 466.28989 535.48 
L 466.28989 446.982995 
L 456.805845 446.982995 
z
" clip-path="url(#pc93ffaedf6)" style="fill: #5499c7"/>
   </g>
   <g id="patch_35">
    <path d="M 468.660902 535.48 
L 478.144947 535.48 
L 478.144947 386.809669 
L 468.660902 386.809669 
z
" clip-path="url(#pc93ffaedf6)" style="fill: #5499c7"/>
   </g>
   <g id="patch_36">
    <path d="M 480.515958 535.48 
L 490.000004 535.48 
L 490.000004 374.521906 
L 480.515958 374.521906 
z
" clip-path="url(#pc93ffaedf6)" style="fill: #5499c7"/>
   </g>
   <g id="patch_37">
    <path d="M 492.371015 535.48 
L 501.85506 535.48 
L 501.85506 393.339957 
L 492.371015 393.339957 
z
" clip-path="url(#pc93ffaedf6)" style="fill: #5499c7"/>
   </g>
   <g id="patch_38">
    <path d="M 504.226072 535.48 
L 513.710117 535.48 
L 513.710117 407.327913 
L 504.226072 407.327913 
z
" clip-path="url(#pc93ffaedf6)" style="fill: #5499c7"/>
   </g>
   <g id="patch_39">
    <path d="M 516.081128 535.48 
L 525.565173 535.48 
L 525.565173 423.160965 
L 516.081128 423.160965 
z
" clip-path="url(#pc93ffaedf6)" style="fill: #5499c7"/>
   </g>
   <g id="patch_40">
    <path d="M 527.936185 535.48 
L 537.42023 535.48 
L 537.42023 366.706812 
L 527.936185 366.706812 
z
" clip-path="url(#pc93ffaedf6)" style="fill: #5499c7"/>
   </g>
   <g id="patch_41">
    <path d="M 539.791241 535.48 
L 549.275287 535.48 
L 549.275287 405.540778 
L 539.791241 405.540778 
z
" clip-path="url(#pc93ffaedf6)" style="fill: #5499c7"/>
   </g>
   <g id="patch_42">
    <path d="M 551.646298 535.48 
L 561.130343 535.48 
L 561.130343 403.483157 
L 551.646298 403.483157 
z
" clip-path="url(#pc93ffaedf6)" style="fill: #5499c7"/>
   </g>
   <g id="patch_43">
    <path d="M 563.501355 535.48 
L 572.9854 535.48 
L 572.9854 415.336211 
L 563.501355 415.336211 
z
" clip-path="url(#pc93ffaedf6)" style="fill: #5499c7"/>
   </g>
   <g id="patch_44">
    <path d="M 575.356411 535.48 
L 584.840456 535.48 
L 584.840456 428.377468 
L 575.356411 428.377468 
z
" clip-path="url(#pc93ffaedf6)" style="fill: #5499c7"/>
   </g>
   <g id="patch_45">
    <path d="M 587.211468 535.48 
L 596.695513 535.48 
L 596.695513 421.451112 
L 587.211468 421.451112 
z
" clip-path="url(#pc93ffaedf6)" style="fill: #5499c7"/>
   </g>
   <g id="patch_46">
    <path d="M 599.066524 535.48 
L 608.55057 535.48 
L 608.55057 376.067537 
L 599.066524 376.067537 
z
" clip-path="url(#pc93ffaedf6)" style="fill: #5499c7"/>
   </g>
   <g id="patch_47">
    <path d="M 610.921581 535.48 
L 620.405626 535.48 
L 620.405626 400.150392 
L 610.921581 400.150392 
z
" clip-path="url(#pc93ffaedf6)" style="fill: #5499c7"/>
   </g>
   <g id="patch_48">
    <path d="M 622.776637 535.48 
L 632.260683 535.48 
L 632.260683 422.591014 
L 622.776637 422.591014 
z
" clip-path="url(#pc93ffaedf6)" style="fill: #5499c7"/>
   </g>
   <g id="patch_49">
    <path d="M 634.631694 535.48 
L 644.115739 535.48 
L 644.115739 403.11607 
L 634.631694 403.11607 
z
" clip-path="url(#pc93ffaedf6)" style="fill: #5499c7"/>
   </g>
   <g id="patch_50">
    <path d="M 646.486751 535.48 
L 655.970796 535.48 
L 655.970796 422.272228 
L 646.486751 422.272228 
z
" clip-path="url(#pc93ffaedf6)" style="fill: #5499c7"/>
   </g>
   <g id="patch_51">
    <path d="M 658.341807 535.48 
L 667.825853 535.48 
L 667.825853 351.231187 
L 658.341807 351.231187 
z
" clip-path="url(#pc93ffaedf6)" style="fill: #5499c7"/>
   </g>
   <g id="patch_52">
    <path d="M 670.196864 535.48 
L 679.680909 535.48 
L 679.680909 351.443711 
L 670.196864 351.443711 
z
" clip-path="url(#pc93ffaedf6)" style="fill: #5499c7"/>
   </g>
   <g id="patch_53">
    <path d="M 89.299091 464.777066 
L 98.783136 464.777066 
L 98.783136 293.975238 
L 89.299091 293.975238 
z
" clip-path="url(#pc93ffaedf6)" style="fill: #a9cce3"/>
   </g>
   <g id="patch_54">
    <path d="M 101.154147 509.262243 
L 110.638193 509.262243 
L 110.638193 293.975238 
L 101.154147 293.975238 
z
" clip-path="url(#pc93ffaedf6)" style="fill: #a9cce3"/>
   </g>
   <g id="patch_55">
    <path d="M 113.009204 461.038572 
L 122.493249 461.038572 
L 122.493249 293.975238 
L 113.009204 293.975238 
z
" clip-path="url(#pc93ffaedf6)" style="fill: #a9cce3"/>
   </g>
   <g id="patch_56">
    <path d="M 124.864261 482.126768 
L 134.348306 482.126768 
L 134.348306 293.975238 
L 124.864261 293.975238 
z
" clip-path="url(#pc93ffaedf6)" style="fill: #a9cce3"/>
   </g>
   <g id="patch_57">
    <path d="M 136.719317 431.893778 
L 146.203363 431.893778 
L 146.203363 293.975238 
L 136.719317 293.975238 
z
" clip-path="url(#pc93ffaedf6)" style="fill: #a9cce3"/>
   </g>
   <g id="patch_58">
    <path d="M 148.574374 475.837984 
L 158.058419 475.837984 
L 158.058419 293.975238 
L 148.574374 293.975238 
z
" clip-path="url(#pc93ffaedf6)" style="fill: #a9cce3"/>
   </g>
   <g id="patch_59">
    <path d="M 160.42943 433.55533 
L 169.913476 433.55533 
L 169.913476 293.975238 
L 160.42943 293.975238 
z
" clip-path="url(#pc93ffaedf6)" style="fill: #a9cce3"/>
   </g>
   <g id="patch_60">
    <path d="M 172.284487 439.766833 
L 181.768532 439.766833 
L 181.768532 293.975238 
L 172.284487 293.975238 
z
" clip-path="url(#pc93ffaedf6)" style="fill: #a9cce3"/>
   </g>
   <g id="patch_61">
    <path d="M 184.139544 456.681826 
L 193.623589 456.681826 
L 193.623589 293.975238 
L 184.139544 293.975238 
z
" clip-path="url(#pc93ffaedf6)" style="fill: #a9cce3"/>
   </g>
   <g id="patch_62">
    <path d="M 195.9946 463.009251 
L 205.478645 463.009251 
L 205.478645 293.975238 
L 195.9946 293.975238 
z
" clip-path="url(#pc93ffaedf6)" style="fill: #a9cce3"/>
   </g>
   <g id="patch_63">
    <path d="M 207.849657 426.310187 
L 217.333702 426.310187 
L 217.333702 293.975238 
L 207.849657 293.975238 
z
" clip-path="url(#pc93ffaedf6)" style="fill: #a9cce3"/>
   </g>
   <g id="patch_64">
    <path d="M 219.704713 464.786726 
L 229.188759 464.786726 
L 229.188759 293.975238 
L 219.704713 293.975238 
z
" clip-path="url(#pc93ffaedf6)" style="fill: #a9cce3"/>
   </g>
   <g id="patch_65">
    <path d="M 231.55977 454.092895 
L 241.043815 454.092895 
L 241.043815 293.975238 
L 231.55977 293.975238 
z
" clip-path="url(#pc93ffaedf6)" style="fill: #a9cce3"/>
   </g>
   <g id="patch_66">
    <path d="M 243.414827 474.727062 
L 252.898872 474.727062 
L 252.898872 293.975238 
L 243.414827 293.975238 
z
" clip-path="url(#pc93ffaedf6)" style="fill: #a9cce3"/>
   </g>
   <g id="patch_67">
    <path d="M 255.269883 482.049486 
L 264.753928 482.049486 
L 264.753928 293.975238 
L 255.269883 293.975238 
z
" clip-path="url(#pc93ffaedf6)" style="fill: #a9cce3"/>
   </g>
   <g id="patch_68">
    <path d="M 267.12494 459.154835 
L 276.608985 459.154835 
L 276.608985 293.975238 
L 267.12494 293.975238 
z
" clip-path="url(#pc93ffaedf6)" style="fill: #a9cce3"/>
   </g>
   <g id="patch_69">
    <path d="M 278.979996 419.83786 
L 288.464042 419.83786 
L 288.464042 293.975238 
L 278.979996 293.975238 
z
" clip-path="url(#pc93ffaedf6)" style="fill: #a9cce3"/>
   </g>
   <g id="patch_70">
    <path d="M 290.835053 416.205628 
L 300.319098 416.205628 
L 300.319098 293.975238 
L 290.835053 293.975238 
z
" clip-path="url(#pc93ffaedf6)" style="fill: #a9cce3"/>
   </g>
   <g id="patch_71">
    <path d="M 302.69011 463.47294 
L 312.174155 463.47294 
L 312.174155 293.975238 
L 302.69011 293.975238 
z
" clip-path="url(#pc93ffaedf6)" style="fill: #a9cce3"/>
   </g>
   <g id="patch_72">
    <path d="M 314.545166 443.737171 
L 324.029211 443.737171 
L 324.029211 293.975238 
L 314.545166 293.975238 
z
" clip-path="url(#pc93ffaedf6)" style="fill: #a9cce3"/>
   </g>
   <g id="patch_73">
    <path d="M 326.400223 432.888777 
L 335.884268 432.888777 
L 335.884268 293.975238 
L 326.400223 293.975238 
z
" clip-path="url(#pc93ffaedf6)" style="fill: #a9cce3"/>
   </g>
   <g id="patch_74">
    <path d="M 338.255279 416.369851 
L 347.739325 416.369851 
L 347.739325 293.975238 
L 338.255279 293.975238 
z
" clip-path="url(#pc93ffaedf6)" style="fill: #a9cce3"/>
   </g>
   <g id="patch_75">
    <path d="M 350.110336 462.333038 
L 359.594381 462.333038 
L 359.594381 293.975238 
L 350.110336 293.975238 
z
" clip-path="url(#pc93ffaedf6)" style="fill: #a9cce3"/>
   </g>
   <g id="patch_76">
    <path d="M 361.965392 445.920374 
L 371.449438 445.920374 
L 371.449438 293.975238 
L 361.965392 293.975238 
z
" clip-path="url(#pc93ffaedf6)" style="fill: #a9cce3"/>
   </g>
   <g id="patch_77">
    <path d="M 373.820449 434.917417 
L 383.304494 434.917417 
L 383.304494 293.975238 
L 373.820449 293.975238 
z
" clip-path="url(#pc93ffaedf6)" style="fill: #a9cce3"/>
   </g>
   <g id="patch_78">
    <path d="M 385.675506 421.827859 
L 395.159551 421.827859 
L 395.159551 293.975238 
L 385.675506 293.975238 
z
" clip-path="url(#pc93ffaedf6)" style="fill: #a9cce3"/>
   </g>
   <g id="patch_79">
    <path d="M 397.530562 461.395999 
L 407.014608 461.395999 
L 407.014608 293.975238 
L 397.530562 293.975238 
z
" clip-path="url(#pc93ffaedf6)" style="fill: #a9cce3"/>
   </g>
   <g id="patch_80">
    <path d="M 409.385619 442.69387 
L 418.869664 442.69387 
L 418.869664 293.975238 
L 409.385619 293.975238 
z
" clip-path="url(#pc93ffaedf6)" style="fill: #a9cce3"/>
   </g>
   <g id="patch_81">
    <path d="M 421.240675 454.440662 
L 430.724721 454.440662 
L 430.724721 293.975238 
L 421.240675 293.975238 
z
" clip-path="url(#pc93ffaedf6)" style="fill: #a9cce3"/>
   </g>
   <g id="patch_82">
    <path d="M 433.095732 440.307803 
L 442.579777 440.307803 
L 442.579777 293.975238 
L 433.095732 293.975238 
z
" clip-path="url(#pc93ffaedf6)" style="fill: #a9cce3"/>
   </g>
   <g id="patch_83">
    <path d="M 444.950789 438.346785 
L 454.434834 438.346785 
L 454.434834 293.975238 
L 444.950789 293.975238 
z
" clip-path="url(#pc93ffaedf6)" style="fill: #a9cce3"/>
   </g>
   <g id="patch_84">
    <path d="M 456.805845 446.982995 
L 466.28989 446.982995 
L 466.28989 293.975238 
L 456.805845 293.975238 
z
" clip-path="url(#pc93ffaedf6)" style="fill: #a9cce3"/>
   </g>
   <g id="patch_85">
    <path d="M 468.660902 386.809669 
L 478.144947 386.809669 
L 478.144947 293.975238 
L 468.660902 293.975238 
z
" clip-path="url(#pc93ffaedf6)" style="fill: #a9cce3"/>
   </g>
   <g id="patch_86">
    <path d="M 480.515958 374.521906 
L 490.000004 374.521906 
L 490.000004 293.975238 
L 480.515958 293.975238 
z
" clip-path="url(#pc93ffaedf6)" style="fill: #a9cce3"/>
   </g>
   <g id="patch_87">
    <path d="M 492.371015 393.339957 
L 501.85506 393.339957 
L 501.85506 293.975238 
L 492.371015 293.975238 
z
" clip-path="url(#pc93ffaedf6)" style="fill: #a9cce3"/>
   </g>
   <g id="patch_88">
    <path d="M 504.226072 407.327913 
L 513.710117 407.327913 
L 513.710117 293.975238 
L 504.226072 293.975238 
z
" clip-path="url(#pc93ffaedf6)" style="fill: #a9cce3"/>
   </g>
   <g id="patch_89">
    <path d="M 516.081128 423.160965 
L 525.565173 423.160965 
L 525.565173 293.975238 
L 516.081128 293.975238 
z
" clip-path="url(#pc93ffaedf6)" style="fill: #a9cce3"/>
   </g>
   <g id="patch_90">
    <path d="M 527.936185 366.706812 
L 537.42023 366.706812 
L 537.42023 293.975238 
L 527.936185 293.975238 
z
" clip-path="url(#pc93ffaedf6)" style="fill: #a9cce3"/>
   </g>
   <g id="patch_91">
    <path d="M 539.791241 405.540778 
L 549.275287 405.540778 
L 549.275287 293.975238 
L 539.791241 293.975238 
z
" clip-path="url(#pc93ffaedf6)" style="fill: #a9cce3"/>
   </g>
   <g id="patch_92">
    <path d="M 551.646298 403.483157 
L 561.130343 403.483157 
L 561.130343 293.975238 
L 551.646298 293.975238 
z
" clip-path="url(#pc93ffaedf6)" style="fill: #a9cce3"/>
   </g>
   <g id="patch_93">
    <path d="M 563.501355 415.336211 
L 572.9854 415.336211 
L 572.9854 293.975238 
L 563.501355 293.975238 
z
" clip-path="url(#pc93ffaedf6)" style="fill: #a9cce3"/>
   </g>
   <g id="patch_94">
    <path d="M 575.356411 428.377468 
L 584.840456 428.377468 
L 584.840456 293.975238 
L 575.356411 293.975238 
z
" clip-path="url(#pc93ffaedf6)" style="fill: #a9cce3"/>
   </g>
   <g id="patch_95">
    <path d="M 587.211468 421.451112 
L 596.695513 421.451112 
L 596.695513 293.975238 
L 587.211468 293.975238 
z
" clip-path="url(#pc93ffaedf6)" style="fill: #a9cce3"/>
   </g>
   <g id="patch_96">
    <path d="M 599.066524 376.067537 
L 608.55057 376.067537 
L 608.55057 293.975238 
L 599.066524 293.975238 
z
" clip-path="url(#pc93ffaedf6)" style="fill: #a9cce3"/>
   </g>
   <g id="patch_97">
    <path d="M 610.921581 400.150392 
L 620.405626 400.150392 
L 620.405626 293.975238 
L 610.921581 293.975238 
z
" clip-path="url(#pc93ffaedf6)" style="fill: #a9cce3"/>
   </g>
   <g id="patch_98">
    <path d="M 622.776637 422.591014 
L 632.260683 422.591014 
L 632.260683 293.975238 
L 622.776637 293.975238 
z
" clip-path="url(#pc93ffaedf6)" style="fill: #a9cce3"/>
   </g>
   <g id="patch_99">
    <path d="M 634.631694 403.11607 
L 644.115739 403.11607 
L 644.115739 293.975238 
L 634.631694 293.975238 
z
" clip-path="url(#pc93ffaedf6)" style="fill: #a9cce3"/>
   </g>
   <g id="patch_100">
    <path d="M 646.486751 422.272228 
L 655.970796 422.272228 
L 655.970796 293.975238 
L 646.486751 293.975238 
z
" clip-path="url(#pc93ffaedf6)" style="fill: #a9cce3"/>
   </g>
   <g id="patch_101">
    <path d="M 658.341807 351.231187 
L 667.825853 351.231187 
L 667.825853 293.975238 
L 658.341807 293.975238 
z
" clip-path="url(#pc93ffaedf6)" style="fill: #a9cce3"/>
   </g>
   <g id="patch_102">
    <path d="M 670.196864 351.443711 
L 679.680909 351.443711 
L 679.680909 293.975238 
L 670.196864 293.975238 
z
" clip-path="url(#pc93ffaedf6)" style="fill: #a9cce3"/>
   </g>
   <g id="patch_103">
    <path d="M 89.299091 293.975238 
L 98.783136 293.975238 
L 98.783136 199.962264 
L 89.299091 199.962264 
z
" clip-path="url(#pc93ffaedf6)" style="fill: #52be80"/>
   </g>
   <g id="patch_104">
    <path d="M 101.154147 293.975238 
L 110.638193 293.975238 
L 110.638193 263.207531 
L 101.154147 263.207531 
z
" clip-path="url(#pc93ffaedf6)" style="fill: #52be80"/>
   </g>
   <g id="patch_105">
    <path d="M 113.009204 293.975238 
L 122.493249 293.975238 
L 122.493249 241.752248 
L 113.009204 241.752248 
z
" clip-path="url(#pc93ffaedf6)" style="fill: #52be80"/>
   </g>
   <g id="patch_106">
    <path d="M 124.864261 293.975238 
L 134.348306 293.975238 
L 134.348306 194.832703 
L 124.864261 194.832703 
z
" clip-path="url(#pc93ffaedf6)" style="fill: #52be80"/>
   </g>
   <g id="patch_107">
    <path d="M 136.719317 293.975238 
L 146.203363 293.975238 
L 146.203363 273.968984 
L 136.719317 273.968984 
z
" clip-path="url(#pc93ffaedf6)" style="fill: #52be80"/>
   </g>
   <g id="patch_108">
    <path d="M 148.574374 293.975238 
L 158.058419 293.975238 
L 158.058419 275.099226 
L 148.574374 275.099226 
z
" clip-path="url(#pc93ffaedf6)" style="fill: #52be80"/>
   </g>
   <g id="patch_109">
    <path d="M 160.42943 293.975238 
L 169.913476 293.975238 
L 169.913476 250.97773 
L 160.42943 250.97773 
z
" clip-path="url(#pc93ffaedf6)" style="fill: #52be80"/>
   </g>
   <g id="patch_110">
    <path d="M 172.284487 293.975238 
L 181.768532 293.975238 
L 181.768532 223.494488 
L 172.284487 223.494488 
z
" clip-path="url(#pc93ffaedf6)" style="fill: #52be80"/>
   </g>
   <g id="patch_111">
    <path d="M 184.139544 293.975238 
L 193.623589 293.975238 
L 193.623589 240.448123 
L 184.139544 240.448123 
z
" clip-path="url(#pc93ffaedf6)" style="fill: #52be80"/>
   </g>
   <g id="patch_112">
    <path d="M 195.9946 293.975238 
L 205.478645 293.975238 
L 205.478645 259.266174 
L 195.9946 259.266174 
z
" clip-path="url(#pc93ffaedf6)" style="fill: #52be80"/>
   </g>
   <g id="patch_113">
    <path d="M 207.849657 293.975238 
L 217.333702 293.975238 
L 217.333702 248.475741 
L 207.849657 248.475741 
z
" clip-path="url(#pc93ffaedf6)" style="fill: #52be80"/>
   </g>
   <g id="patch_114">
    <path d="M 219.704713 293.975238 
L 229.188759 293.975238 
L 229.188759 259.06331 
L 219.704713 259.06331 
z
" clip-path="url(#pc93ffaedf6)" style="fill: #52be80"/>
   </g>
   <g id="patch_115">
    <path d="M 231.55977 293.975238 
L 241.043815 293.975238 
L 241.043815 260.850445 
L 231.55977 260.850445 
z
" clip-path="url(#pc93ffaedf6)" style="fill: #52be80"/>
   </g>
   <g id="patch_116">
    <path d="M 243.414827 293.975238 
L 252.898872 293.975238 
L 252.898872 219.350267 
L 243.414827 219.350267 
z
" clip-path="url(#pc93ffaedf6)" style="fill: #52be80"/>
   </g>
   <g id="patch_117">
    <path d="M 255.269883 293.975238 
L 264.753928 293.975238 
L 264.753928 201.478914 
L 255.269883 201.478914 
z
" clip-path="url(#pc93ffaedf6)" style="fill: #52be80"/>
   </g>
   <g id="patch_118">
    <path d="M 267.12494 293.975238 
L 276.608985 293.975238 
L 276.608985 244.051374 
L 267.12494 244.051374 
z
" clip-path="url(#pc93ffaedf6)" style="fill: #52be80"/>
   </g>
   <g id="patch_119">
    <path d="M 278.979996 293.975238 
L 288.464042 293.975238 
L 288.464042 228.846234 
L 278.979996 228.846234 
z
" clip-path="url(#pc93ffaedf6)" style="fill: #52be80"/>
   </g>
   <g id="patch_120">
    <path d="M 290.835053 293.975238 
L 300.319098 293.975238 
L 300.319098 251.567002 
L 290.835053 251.567002 
z
" clip-path="url(#pc93ffaedf6)" style="fill: #52be80"/>
   </g>
   <g id="patch_121">
    <path d="M 302.69011 293.975238 
L 312.174155 293.975238 
L 312.174155 216.47153 
L 302.69011 216.47153 
z
" clip-path="url(#pc93ffaedf6)" style="fill: #52be80"/>
   </g>
   <g id="patch_122">
    <path d="M 314.545166 293.975238 
L 324.029211 293.975238 
L 324.029211 195.335033 
L 314.545166 195.335033 
z
" clip-path="url(#pc93ffaedf6)" style="fill: #52be80"/>
   </g>
   <g id="patch_123">
    <path d="M 326.400223 293.975238 
L 335.884268 293.975238 
L 335.884268 185.02761 
L 326.400223 185.02761 
z
" clip-path="url(#pc93ffaedf6)" style="fill: #52be80"/>
   </g>
   <g id="patch_124">
    <path d="M 338.255279 293.975238 
L 347.739325 293.975238 
L 347.739325 188.659842 
L 338.255279 188.659842 
z
" clip-path="url(#pc93ffaedf6)" style="fill: #52be80"/>
   </g>
   <g id="patch_125">
    <path d="M 350.110336 293.975238 
L 359.594381 293.975238 
L 359.594381 230.855554 
L 350.110336 230.855554 
z
" clip-path="url(#pc93ffaedf6)" style="fill: #52be80"/>
   </g>
   <g id="patch_126">
    <path d="M 361.965392 293.975238 
L 371.449438 293.975238 
L 371.449438 228.739972 
L 361.965392 228.739972 
z
" clip-path="url(#pc93ffaedf6)" style="fill: #52be80"/>
   </g>
   <g id="patch_127">
    <path d="M 373.820449 293.975238 
L 383.304494 293.975238 
L 383.304494 186.03227 
L 373.820449 186.03227 
z
" clip-path="url(#pc93ffaedf6)" style="fill: #52be80"/>
   </g>
   <g id="patch_128">
    <path d="M 385.675506 293.975238 
L 395.159551 293.975238 
L 395.159551 212.076143 
L 385.675506 212.076143 
z
" clip-path="url(#pc93ffaedf6)" style="fill: #52be80"/>
   </g>
   <g id="patch_129">
    <path d="M 397.530562 293.975238 
L 407.014608 293.975238 
L 407.014608 224.518469 
L 397.530562 224.518469 
z
" clip-path="url(#pc93ffaedf6)" style="fill: #52be80"/>
   </g>
   <g id="patch_130">
    <path d="M 409.385619 293.975238 
L 418.869664 293.975238 
L 418.869664 181.076592 
L 409.385619 181.076592 
z
" clip-path="url(#pc93ffaedf6)" style="fill: #52be80"/>
   </g>
   <g id="patch_131">
    <path d="M 421.240675 293.975238 
L 430.724721 293.975238 
L 430.724721 244.041714 
L 421.240675 244.041714 
z
" clip-path="url(#pc93ffaedf6)" style="fill: #52be80"/>
   </g>
   <g id="patch_132">
    <path d="M 433.095732 293.975238 
L 442.579777 293.975238 
L 442.579777 237.405163 
L 433.095732 237.405163 
z
" clip-path="url(#pc93ffaedf6)" style="fill: #52be80"/>
   </g>
   <g id="patch_133">
    <path d="M 444.950789 293.975238 
L 454.434834 293.975238 
L 454.434834 223.0791 
L 444.950789 223.0791 
z
" clip-path="url(#pc93ffaedf6)" style="fill: #52be80"/>
   </g>
   <g id="patch_134">
    <path d="M 456.805845 293.975238 
L 466.28989 293.975238 
L 466.28989 170.914072 
L 456.805845 170.914072 
z
" clip-path="url(#pc93ffaedf6)" style="fill: #52be80"/>
   </g>
   <g id="patch_135">
    <path d="M 468.660902 293.975238 
L 478.144947 293.975238 
L 478.144947 169.764509 
L 468.660902 169.764509 
z
" clip-path="url(#pc93ffaedf6)" style="fill: #52be80"/>
   </g>
   <g id="patch_136">
    <path d="M 480.515958 293.975238 
L 490.000004 293.975238 
L 490.000004 243.210937 
L 480.515958 243.210937 
z
" clip-path="url(#pc93ffaedf6)" style="fill: #52be80"/>
   </g>
   <g id="patch_137">
    <path d="M 492.371015 293.975238 
L 501.85506 293.975238 
L 501.85506 168.083636 
L 492.371015 168.083636 
z
" clip-path="url(#pc93ffaedf6)" style="fill: #52be80"/>
   </g>
   <g id="patch_138">
    <path d="M 504.226072 293.975238 
L 513.710117 293.975238 
L 513.710117 197.817702 
L 504.226072 197.817702 
z
" clip-path="url(#pc93ffaedf6)" style="fill: #52be80"/>
   </g>
   <g id="patch_139">
    <path d="M 516.081128 293.975238 
L 525.565173 293.975238 
L 525.565173 226.054439 
L 516.081128 226.054439 
z
" clip-path="url(#pc93ffaedf6)" style="fill: #52be80"/>
   </g>
   <g id="patch_140">
    <path d="M 527.936185 293.975238 
L 537.42023 293.975238 
L 537.42023 229.63837 
L 527.936185 229.63837 
z
" clip-path="url(#pc93ffaedf6)" style="fill: #52be80"/>
   </g>
   <g id="patch_141">
    <path d="M 539.791241 293.975238 
L 549.275287 293.975238 
L 549.275287 218.113762 
L 539.791241 218.113762 
z
" clip-path="url(#pc93ffaedf6)" style="fill: #52be80"/>
   </g>
   <g id="patch_142">
    <path d="M 551.646298 293.975238 
L 561.130343 293.975238 
L 561.130343 169.851451 
L 551.646298 169.851451 
z
" clip-path="url(#pc93ffaedf6)" style="fill: #52be80"/>
   </g>
   <g id="patch_143">
    <path d="M 563.501355 293.975238 
L 572.9854 293.975238 
L 572.9854 232.19832 
L 563.501355 232.19832 
z
" clip-path="url(#pc93ffaedf6)" style="fill: #52be80"/>
   </g>
   <g id="patch_144">
    <path d="M 575.356411 293.975238 
L 584.840456 293.975238 
L 584.840456 170.421402 
L 575.356411 170.421402 
z
" clip-path="url(#pc93ffaedf6)" style="fill: #52be80"/>
   </g>
   <g id="patch_145">
    <path d="M 587.211468 293.975238 
L 596.695513 293.975238 
L 596.695513 208.733717 
L 587.211468 208.733717 
z
" clip-path="url(#pc93ffaedf6)" style="fill: #52be80"/>
   </g>
   <g id="patch_146">
    <path d="M 599.066524 293.975238 
L 608.55057 293.975238 
L 608.55057 181.173194 
L 599.066524 181.173194 
z
" clip-path="url(#pc93ffaedf6)" style="fill: #52be80"/>
   </g>
   <g id="patch_147">
    <path d="M 610.921581 293.975238 
L 620.405626 293.975238 
L 620.405626 225.967497 
L 610.921581 225.967497 
z
" clip-path="url(#pc93ffaedf6)" style="fill: #52be80"/>
   </g>
   <g id="patch_148">
    <path d="M 622.776637 293.975238 
L 632.260683 293.975238 
L 632.260683 215.051482 
L 622.776637 215.051482 
z
" clip-path="url(#pc93ffaedf6)" style="fill: #52be80"/>
   </g>
   <g id="patch_149">
    <path d="M 634.631694 293.975238 
L 644.115739 293.975238 
L 644.115739 237.26992 
L 634.631694 237.26992 
z
" clip-path="url(#pc93ffaedf6)" style="fill: #52be80"/>
   </g>
   <g id="patch_150">
    <path d="M 646.486751 293.975238 
L 655.970796 293.975238 
L 655.970796 229.271282 
L 646.486751 229.271282 
z
" clip-path="url(#pc93ffaedf6)" style="fill: #52be80"/>
   </g>
   <g id="patch_151">
    <path d="M 658.341807 293.975238 
L 667.825853 293.975238 
L 667.825853 163.949074 
L 658.341807 163.949074 
z
" clip-path="url(#pc93ffaedf6)" style="fill: #52be80"/>
   </g>
   <g id="patch_152">
    <path d="M 670.196864 293.975238 
L 679.680909 293.975238 
L 679.680909 160.577668 
L 670.196864 160.577668 
z
" clip-path="url(#pc93ffaedf6)" style="fill: #52be80"/>
   </g>
   <g id="patch_153">
    <path d="M 89.299091 199.962264 
L 98.783136 199.962264 
L 98.783136 52.470476 
L 89.299091 52.470476 
z
" clip-path="url(#pc93ffaedf6)" style="fill: #a9dfbf"/>
   </g>
   <g id="patch_154">
    <path d="M 101.154147 263.207531 
L 110.638193 263.207531 
L 110.638193 52.470476 
L 101.154147 52.470476 
z
" clip-path="url(#pc93ffaedf6)" style="fill: #a9dfbf"/>
   </g>
   <g id="patch_155">
    <path d="M 113.009204 241.752248 
L 122.493249 241.752248 
L 122.493249 52.470476 
L 113.009204 52.470476 
z
" clip-path="url(#pc93ffaedf6)" style="fill: #a9dfbf"/>
   </g>
   <g id="patch_156">
    <path d="M 124.864261 194.832703 
L 134.348306 194.832703 
L 134.348306 52.470476 
L 124.864261 52.470476 
z
" clip-path="url(#pc93ffaedf6)" style="fill: #a9dfbf"/>
   </g>
   <g id="patch_157">
    <path d="M 136.719317 273.968984 
L 146.203363 273.968984 
L 146.203363 52.470476 
L 136.719317 52.470476 
z
" clip-path="url(#pc93ffaedf6)" style="fill: #a9dfbf"/>
   </g>
   <g id="patch_158">
    <path d="M 148.574374 275.099226 
L 158.058419 275.099226 
L 158.058419 52.470476 
L 148.574374 52.470476 
z
" clip-path="url(#pc93ffaedf6)" style="fill: #a9dfbf"/>
   </g>
   <g id="patch_159">
    <path d="M 160.42943 250.97773 
L 169.913476 250.97773 
L 169.913476 52.470476 
L 160.42943 52.470476 
z
" clip-path="url(#pc93ffaedf6)" style="fill: #a9dfbf"/>
   </g>
   <g id="patch_160">
    <path d="M 172.284487 223.494488 
L 181.768532 223.494488 
L 181.768532 52.470476 
L 172.284487 52.470476 
z
" clip-path="url(#pc93ffaedf6)" style="fill: #a9dfbf"/>
   </g>
   <g id="patch_161">
    <path d="M 184.139544 240.448123 
L 193.623589 240.448123 
L 193.623589 52.470476 
L 184.139544 52.470476 
z
" clip-path="url(#pc93ffaedf6)" style="fill: #a9dfbf"/>
   </g>
   <g id="patch_162">
    <path d="M 195.9946 259.266174 
L 205.478645 259.266174 
L 205.478645 52.470476 
L 195.9946 52.470476 
z
" clip-path="url(#pc93ffaedf6)" style="fill: #a9dfbf"/>
   </g>
   <g id="patch_163">
    <path d="M 207.849657 248.475741 
L 217.333702 248.475741 
L 217.333702 52.470476 
L 207.849657 52.470476 
z
" clip-path="url(#pc93ffaedf6)" style="fill: #a9dfbf"/>
   </g>
   <g id="patch_164">
    <path d="M 219.704713 259.06331 
L 229.188759 259.06331 
L 229.188759 52.470476 
L 219.704713 52.470476 
z
" clip-path="url(#pc93ffaedf6)" style="fill: #a9dfbf"/>
   </g>
   <g id="patch_165">
    <path d="M 231.55977 260.850445 
L 241.043815 260.850445 
L 241.043815 52.470476 
L 231.55977 52.470476 
z
" clip-path="url(#pc93ffaedf6)" style="fill: #a9dfbf"/>
   </g>
   <g id="patch_166">
    <path d="M 243.414827 219.350267 
L 252.898872 219.350267 
L 252.898872 52.470476 
L 243.414827 52.470476 
z
" clip-path="url(#pc93ffaedf6)" style="fill: #a9dfbf"/>
   </g>
   <g id="patch_167">
    <path d="M 255.269883 201.478914 
L 264.753928 201.478914 
L 264.753928 52.470476 
L 255.269883 52.470476 
z
" clip-path="url(#pc93ffaedf6)" style="fill: #a9dfbf"/>
   </g>
   <g id="patch_168">
    <path d="M 267.12494 244.051374 
L 276.608985 244.051374 
L 276.608985 52.470476 
L 267.12494 52.470476 
z
" clip-path="url(#pc93ffaedf6)" style="fill: #a9dfbf"/>
   </g>
   <g id="patch_169">
    <path d="M 278.979996 228.846234 
L 288.464042 228.846234 
L 288.464042 52.470476 
L 278.979996 52.470476 
z
" clip-path="url(#pc93ffaedf6)" style="fill: #a9dfbf"/>
   </g>
   <g id="patch_170">
    <path d="M 290.835053 251.567002 
L 300.319098 251.567002 
L 300.319098 52.470476 
L 290.835053 52.470476 
z
" clip-path="url(#pc93ffaedf6)" style="fill: #a9dfbf"/>
   </g>
   <g id="patch_171">
    <path d="M 302.69011 216.47153 
L 312.174155 216.47153 
L 312.174155 52.470476 
L 302.69011 52.470476 
z
" clip-path="url(#pc93ffaedf6)" style="fill: #a9dfbf"/>
   </g>
   <g id="patch_172">
    <path d="M 314.545166 195.335033 
L 324.029211 195.335033 
L 324.029211 52.470476 
L 314.545166 52.470476 
z
" clip-path="url(#pc93ffaedf6)" style="fill: #a9dfbf"/>
   </g>
   <g id="patch_173">
    <path d="M 326.400223 185.02761 
L 335.884268 185.02761 
L 335.884268 52.470476 
L 326.400223 52.470476 
z
" clip-path="url(#pc93ffaedf6)" style="fill: #a9dfbf"/>
   </g>
   <g id="patch_174">
    <path d="M 338.255279 188.659842 
L 347.739325 188.659842 
L 347.739325 52.470476 
L 338.255279 52.470476 
z
" clip-path="url(#pc93ffaedf6)" style="fill: #a9dfbf"/>
   </g>
   <g id="patch_175">
    <path d="M 350.110336 230.855554 
L 359.594381 230.855554 
L 359.594381 52.470476 
L 350.110336 52.470476 
z
" clip-path="url(#pc93ffaedf6)" style="fill: #a9dfbf"/>
   </g>
   <g id="patch_176">
    <path d="M 361.965392 228.739972 
L 371.449438 228.739972 
L 371.449438 52.470476 
L 361.965392 52.470476 
z
" clip-path="url(#pc93ffaedf6)" style="fill: #a9dfbf"/>
   </g>
   <g id="patch_177">
    <path d="M 373.820449 186.03227 
L 383.304494 186.03227 
L 383.304494 52.470476 
L 373.820449 52.470476 
z
" clip-path="url(#pc93ffaedf6)" style="fill: #a9dfbf"/>
   </g>
   <g id="patch_178">
    <path d="M 385.675506 212.076143 
L 395.159551 212.076143 
L 395.159551 52.470476 
L 385.675506 52.470476 
z
" clip-path="url(#pc93ffaedf6)" style="fill: #a9dfbf"/>
   </g>
   <g id="patch_179">
    <path d="M 397.530562 224.518469 
L 407.014608 224.518469 
L 407.014608 52.470476 
L 397.530562 52.470476 
z
" clip-path="url(#pc93ffaedf6)" style="fill: #a9dfbf"/>
   </g>
   <g id="patch_180">
    <path d="M 409.385619 181.076592 
L 418.869664 181.076592 
L 418.869664 52.470476 
L 409.385619 52.470476 
z
" clip-path="url(#pc93ffaedf6)" style="fill: #a9dfbf"/>
   </g>
   <g id="patch_181">
    <path d="M 421.240675 244.041714 
L 430.724721 244.041714 
L 430.724721 52.470476 
L 421.240675 52.470476 
z
" clip-path="url(#pc93ffaedf6)" style="fill: #a9dfbf"/>
   </g>
   <g id="patch_182">
    <path d="M 433.095732 237.405163 
L 442.579777 237.405163 
L 442.579777 52.470476 
L 433.095732 52.470476 
z
" clip-path="url(#pc93ffaedf6)" style="fill: #a9dfbf"/>
   </g>
   <g id="patch_183">
    <path d="M 444.950789 223.0791 
L 454.434834 223.0791 
L 454.434834 52.470476 
L 444.950789 52.470476 
z
" clip-path="url(#pc93ffaedf6)" style="fill: #a9dfbf"/>
   </g>
   <g id="patch_184">
    <path d="M 456.805845 170.914072 
L 466.28989 170.914072 
L 466.28989 52.470476 
L 456.805845 52.470476 
z
" clip-path="url(#pc93ffaedf6)" style="fill: #a9dfbf"/>
   </g>
   <g id="patch_185">
    <path d="M 468.660902 169.764509 
L 478.144947 169.764509 
L 478.144947 52.470476 
L 468.660902 52.470476 
z
" clip-path="url(#pc93ffaedf6)" style="fill: #a9dfbf"/>
   </g>
   <g id="patch_186">
    <path d="M 480.515958 243.210937 
L 490.000004 243.210937 
L 490.000004 52.470476 
L 480.515958 52.470476 
z
" clip-path="url(#pc93ffaedf6)" style="fill: #a9dfbf"/>
   </g>
   <g id="patch_187">
    <path d="M 492.371015 168.083636 
L 501.85506 168.083636 
L 501.85506 52.470476 
L 492.371015 52.470476 
z
" clip-path="url(#pc93ffaedf6)" style="fill: #a9dfbf"/>
   </g>
   <g id="patch_188">
    <path d="M 504.226072 197.817702 
L 513.710117 197.817702 
L 513.710117 52.470476 
L 504.226072 52.470476 
z
" clip-path="url(#pc93ffaedf6)" style="fill: #a9dfbf"/>
   </g>
   <g id="patch_189">
    <path d="M 516.081128 226.054439 
L 525.565173 226.054439 
L 525.565173 52.470476 
L 516.081128 52.470476 
z
" clip-path="url(#pc93ffaedf6)" style="fill: #a9dfbf"/>
   </g>
   <g id="patch_190">
    <path d="M 527.936185 229.63837 
L 537.42023 229.63837 
L 537.42023 52.470476 
L 527.936185 52.470476 
z
" clip-path="url(#pc93ffaedf6)" style="fill: #a9dfbf"/>
   </g>
   <g id="patch_191">
    <path d="M 539.791241 218.113762 
L 549.275287 218.113762 
L 549.275287 52.470476 
L 539.791241 52.470476 
z
" clip-path="url(#pc93ffaedf6)" style="fill: #a9dfbf"/>
   </g>
   <g id="patch_192">
    <path d="M 551.646298 169.851451 
L 561.130343 169.851451 
L 561.130343 52.470476 
L 551.646298 52.470476 
z
" clip-path="url(#pc93ffaedf6)" style="fill: #a9dfbf"/>
   </g>
   <g id="patch_193">
    <path d="M 563.501355 232.19832 
L 572.9854 232.19832 
L 572.9854 52.470476 
L 563.501355 52.470476 
z
" clip-path="url(#pc93ffaedf6)" style="fill: #a9dfbf"/>
   </g>
   <g id="patch_194">
    <path d="M 575.356411 170.421402 
L 584.840456 170.421402 
L 584.840456 52.470476 
L 575.356411 52.470476 
z
" clip-path="url(#pc93ffaedf6)" style="fill: #a9dfbf"/>
   </g>
   <g id="patch_195">
    <path d="M 587.211468 208.733717 
L 596.695513 208.733717 
L 596.695513 52.470476 
L 587.211468 52.470476 
z
" clip-path="url(#pc93ffaedf6)" style="fill: #a9dfbf"/>
   </g>
   <g id="patch_196">
    <path d="M 599.066524 181.173194 
L 608.55057 181.173194 
L 608.55057 52.470476 
L 599.066524 52.470476 
z
" clip-path="url(#pc93ffaedf6)" style="fill: #a9dfbf"/>
   </g>
   <g id="patch_197">
    <path d="M 610.921581 225.967497 
L 620.405626 225.967497 
L 620.405626 52.470476 
L 610.921581 52.470476 
z
" clip-path="url(#pc93ffaedf6)" style="fill: #a9dfbf"/>
   </g>
   <g id="patch_198">
    <path d="M 622.776637 215.051482 
L 632.260683 215.051482 
L 632.260683 52.470476 
L 622.776637 52.470476 
z
" clip-path="url(#pc93ffaedf6)" style="fill: #a9dfbf"/>
   </g>
   <g id="patch_199">
    <path d="M 634.631694 237.26992 
L 644.115739 237.26992 
L 644.115739 52.470476 
L 634.631694 52.470476 
z
" clip-path="url(#pc93ffaedf6)" style="fill: #a9dfbf"/>
   </g>
   <g id="patch_200">
    <path d="M 646.486751 229.271282 
L 655.970796 229.271282 
L 655.970796 52.470476 
L 646.486751 52.470476 
z
" clip-path="url(#pc93ffaedf6)" style="fill: #a9dfbf"/>
   </g>
   <g id="patch_201">
    <path d="M 658.341807 163.949074 
L 667.825853 163.949074 
L 667.825853 52.470476 
L 658.341807 52.470476 
z
" clip-path="url(#pc93ffaedf6)" style="fill: #a9dfbf"/>
   </g>
   <g id="patch_202">
    <path d="M 670.196864 160.577668 
L 679.680909 160.577668 
L 679.680909 52.470476 
L 670.196864 52.470476 
z
" clip-path="url(#pc93ffaedf6)" style="fill: #a9dfbf"/>
   </g>
   <g id="patch_203">
    <path d="M 59.78 535.48 
L 59.78 28.32 
" style="fill: none"/>
   </g>
   <g id="patch_204">
    <path d="M 709.2 535.48 
L 709.2 28.32 
" style="fill: none"/>
   </g>
   <g id="patch_205">
    <path d="M 59.78 535.48 
L 709.2 535.48 
" style="fill: none"/>
   </g>
   <g id="patch_206">
    <path d="M 59.78 28.32 
L 709.2 28.32 
" style="fill: none"/>
   </g>
   <g id="text_16">
    <g id="patch_207">
     <path d="M 92.251 94.164125 
L 255.0085 94.164125 
Q 258.6085 94.164125 258.6085 90.564125 
L 258.6085 53.678 
Q 258.6085 50.078 255.0085 50.078 
L 92.251 50.078 
Q 88.651 50.078 88.651 53.678 
L 88.651 90.564125 
Q 88.651 94.164125 92.251 94.164125 
z
" style="fill: #fffff0; stroke: #000000; stroke-width: 0.3; stroke-linejoin: miter"/>
    </g>
    <!-- Fisher's Exact pvalue: 0.0 -->
    <g style="fill: #262626" transform="translate(92.251 62.303) scale(0.12 -0.12)">
     <defs>
      <path id="ArialMT-46" d="M 525 0 
L 525 4581 
L 3616 4581 
L 3616 4041 
L 1131 4041 
L 1131 2622 
L 3281 2622 
L 3281 2081 
L 1131 2081 
L 1131 0 
L 525 0 
z
" transform="scale(0.015625)"/>
      <path id="ArialMT-69" d="M 425 3934 
L 425 4581 
L 988 4581 
L 988 3934 
L 425 3934 
z
M 425 0 
L 425 3319 
L 988 3319 
L 988 0 
L 425 0 
z
" transform="scale(0.015625)"/>
      <path id="ArialMT-68" d="M 422 0 
L 422 4581 
L 984 4581 
L 984 2938 
Q 1378 3394 1978 3394 
Q 2347 3394 2619 3248 
Q 2891 3103 3008 2847 
Q 3125 2591 3125 2103 
L 3125 0 
L 2563 0 
L 2563 2103 
Q 2563 2525 2380 2717 
Q 2197 2909 1863 2909 
Q 1613 2909 1392 2779 
Q 1172 2650 1078 2428 
Q 984 2206 984 1816 
L 984 0 
L 422 0 
z
" transform="scale(0.015625)"/>
      <path id="ArialMT-72" d="M 416 0 
L 416 3319 
L 922 3319 
L 922 2816 
Q 1116 3169 1280 3281 
Q 1444 3394 1641 3394 
Q 1925 3394 2219 3213 
L 2025 2691 
Q 1819 2813 1613 2813 
Q 1428 2813 1281 2702 
Q 1134 2591 1072 2394 
Q 978 2094 978 1738 
L 978 0 
L 416 0 
z
" transform="scale(0.015625)"/>
      <path id="ArialMT-27" d="M 425 2959 
L 281 3816 
L 281 4581 
L 922 4581 
L 922 3816 
L 772 2959 
L 425 2959 
z
" transform="scale(0.015625)"/>
      <path id="ArialMT-45" d="M 506 0 
L 506 4581 
L 3819 4581 
L 3819 4041 
L 1113 4041 
L 1113 2638 
L 3647 2638 
L 3647 2100 
L 1113 2100 
L 1113 541 
L 3925 541 
L 3925 0 
L 506 0 
z
" transform="scale(0.015625)"/>
      <path id="ArialMT-78" d="M 47 0 
L 1259 1725 
L 138 3319 
L 841 3319 
L 1350 2541 
Q 1494 2319 1581 2169 
Q 1719 2375 1834 2534 
L 2394 3319 
L 3066 3319 
L 1919 1756 
L 3153 0 
L 2463 0 
L 1781 1031 
L 1600 1309 
L 728 0 
L 47 0 
z
" transform="scale(0.015625)"/>
      <path id="ArialMT-63" d="M 2588 1216 
L 3141 1144 
Q 3050 572 2676 248 
Q 2303 -75 1759 -75 
Q 1078 -75 664 370 
Q 250 816 250 1647 
Q 250 2184 428 2587 
Q 606 2991 970 3192 
Q 1334 3394 1763 3394 
Q 2303 3394 2647 3120 
Q 2991 2847 3088 2344 
L 2541 2259 
Q 2463 2594 2264 2762 
Q 2066 2931 1784 2931 
Q 1359 2931 1093 2626 
Q 828 2322 828 1663 
Q 828 994 1084 691 
Q 1341 388 1753 388 
Q 2084 388 2306 591 
Q 2528 794 2588 1216 
z
" transform="scale(0.015625)"/>
      <path id="ArialMT-76" d="M 1344 0 
L 81 3319 
L 675 3319 
L 1388 1331 
Q 1503 1009 1600 663 
Q 1675 925 1809 1294 
L 2547 3319 
L 3125 3319 
L 1869 0 
L 1344 0 
z
" transform="scale(0.015625)"/>
      <path id="ArialMT-6c" d="M 409 0 
L 409 4581 
L 972 4581 
L 972 0 
L 409 0 
z
" transform="scale(0.015625)"/>
      <path id="ArialMT-3a" d="M 578 2678 
L 578 3319 
L 1219 3319 
L 1219 2678 
L 578 2678 
z
M 578 0 
L 578 641 
L 1219 641 
L 1219 0 
L 578 0 
z
" transform="scale(0.015625)"/>
      <path id="ArialMT-2e" d="M 581 0 
L 581 641 
L 1222 641 
L 1222 0 
L 581 0 
z
" transform="scale(0.015625)"/>
     </defs>
     <use xlink:href="#ArialMT-46"/>
     <use xlink:href="#ArialMT-69" x="61.083984"/>
     <use xlink:href="#ArialMT-73" x="83.300781"/>
     <use xlink:href="#ArialMT-68" x="133.300781"/>
     <use xlink:href="#ArialMT-65" x="188.916016"/>
     <use xlink:href="#ArialMT-72" x="244.53125"/>
     <use xlink:href="#ArialMT-27" x="277.832031"/>
     <use xlink:href="#ArialMT-73" x="296.923828"/>
     <use xlink:href="#ArialMT-20" x="346.923828"/>
     <use xlink:href="#ArialMT-45" x="374.707031"/>
     <use xlink:href="#ArialMT-78" x="441.40625"/>
     <use xlink:href="#ArialMT-61" x="491.40625"/>
     <use xlink:href="#ArialMT-63" x="547.021484"/>
     <use xlink:href="#ArialMT-74" x="597.021484"/>
     <use xlink:href="#ArialMT-20" x="624.804688"/>
     <use xlink:href="#ArialMT-70" x="652.587891"/>
     <use xlink:href="#ArialMT-76" x="708.203125"/>
     <use xlink:href="#ArialMT-61" x="758.203125"/>
     <use xlink:href="#ArialMT-6c" x="813.818359"/>
     <use xlink:href="#ArialMT-75" x="836.035156"/>
     <use xlink:href="#ArialMT-65" x="891.650391"/>
     <use xlink:href="#ArialMT-3a" x="947.265625"/>
     <use xlink:href="#ArialMT-20" x="975.048828"/>
     <use xlink:href="#ArialMT-30" x="1002.832031"/>
     <use xlink:href="#ArialMT-2e" x="1058.447266"/>
     <use xlink:href="#ArialMT-30" x="1086.230469"/>
    </g>
    <!-- Chisq Contingency pvalue: 0.0 -->
    <g style="fill: #262626" transform="translate(92.251 75.17075) scale(0.12 -0.12)">
     <defs>
      <path id="ArialMT-71" d="M 2538 -1272 
L 2538 353 
Q 2406 169 2170 47 
Q 1934 -75 1669 -75 
Q 1078 -75 651 397 
Q 225 869 225 1691 
Q 225 2191 398 2587 
Q 572 2984 901 3189 
Q 1231 3394 1625 3394 
Q 2241 3394 2594 2875 
L 2594 3319 
L 3100 3319 
L 3100 -1272 
L 2538 -1272 
z
M 803 1669 
Q 803 1028 1072 708 
Q 1341 388 1716 388 
Q 2075 388 2334 692 
Q 2594 997 2594 1619 
Q 2594 2281 2320 2615 
Q 2047 2950 1678 2950 
Q 1313 2950 1058 2639 
Q 803 2328 803 1669 
z
" transform="scale(0.015625)"/>
      <path id="ArialMT-79" d="M 397 -1278 
L 334 -750 
Q 519 -800 656 -800 
Q 844 -800 956 -737 
Q 1069 -675 1141 -563 
Q 1194 -478 1313 -144 
Q 1328 -97 1363 -6 
L 103 3319 
L 709 3319 
L 1400 1397 
Q 1534 1031 1641 628 
Q 1738 1016 1872 1384 
L 2581 3319 
L 3144 3319 
L 1881 -56 
Q 1678 -603 1566 -809 
Q 1416 -1088 1222 -1217 
Q 1028 -1347 759 -1347 
Q 597 -1347 397 -1278 
z
" transform="scale(0.015625)"/>
     </defs>
     <use xlink:href="#ArialMT-43"/>
     <use xlink:href="#ArialMT-68" x="72.216797"/>
     <use xlink:href="#ArialMT-69" x="127.832031"/>
     <use xlink:href="#ArialMT-73" x="150.048828"/>
     <use xlink:href="#ArialMT-71" x="200.048828"/>
     <use xlink:href="#ArialMT-20" x="255.664062"/>
     <use xlink:href="#ArialMT-43" x="283.447266"/>
     <use xlink:href="#ArialMT-6f" x="355.664062"/>
     <use xlink:href="#ArialMT-6e" x="411.279297"/>
     <use xlink:href="#ArialMT-74" x="466.894531"/>
     <use xlink:href="#ArialMT-69" x="494.677734"/>
     <use xlink:href="#ArialMT-6e" x="516.894531"/>
     <use xlink:href="#ArialMT-67" x="572.509766"/>
     <use xlink:href="#ArialMT-65" x="628.125"/>
     <use xlink:href="#ArialMT-6e" x="683.740234"/>
     <use xlink:href="#ArialMT-63" x="739.355469"/>
     <use xlink:href="#ArialMT-79" x="789.355469"/>
     <use xlink:href="#ArialMT-20" x="839.355469"/>
     <use xlink:href="#ArialMT-70" x="867.138672"/>
     <use xlink:href="#ArialMT-76" x="922.753906"/>
     <use xlink:href="#ArialMT-61" x="972.753906"/>
     <use xlink:href="#ArialMT-6c" x="1028.369141"/>
     <use xlink:href="#ArialMT-75" x="1050.585938"/>
     <use xlink:href="#ArialMT-65" x="1106.201172"/>
     <use xlink:href="#ArialMT-3a" x="1161.816406"/>
     <use xlink:href="#ArialMT-20" x="1189.599609"/>
     <use xlink:href="#ArialMT-30" x="1217.382812"/>
     <use xlink:href="#ArialMT-2e" x="1272.998047"/>
     <use xlink:href="#ArialMT-30" x="1300.78125"/>
    </g>
    <!-- Chisq DF: 1 -->
    <g style="fill: #262626" transform="translate(92.251 88.179125) scale(0.12 -0.12)">
     <use xlink:href="#ArialMT-43"/>
     <use xlink:href="#ArialMT-68" x="72.216797"/>
     <use xlink:href="#ArialMT-69" x="127.832031"/>
     <use xlink:href="#ArialMT-73" x="150.048828"/>
     <use xlink:href="#ArialMT-71" x="200.048828"/>
     <use xlink:href="#ArialMT-20" x="255.664062"/>
     <use xlink:href="#ArialMT-44" x="283.447266"/>
     <use xlink:href="#ArialMT-46" x="355.664062"/>
     <use xlink:href="#ArialMT-3a" x="416.748047"/>
     <use xlink:href="#ArialMT-20" x="444.53125"/>
     <use xlink:href="#ArialMT-31" x="472.314453"/>
    </g>
   </g>
   <g id="text_17">
    <!-- Coupon Usage Comparison -->
    <g style="fill: #262626" transform="translate(285.77375 22.32) scale(0.16 -0.16)">
     <defs>
      <path id="ArialMT-6d" d="M 422 0 
L 422 3319 
L 925 3319 
L 925 2853 
Q 1081 3097 1340 3245 
Q 1600 3394 1931 3394 
Q 2300 3394 2536 3241 
Q 2772 3088 2869 2813 
Q 3263 3394 3894 3394 
Q 4388 3394 4653 3120 
Q 4919 2847 4919 2278 
L 4919 0 
L 4359 0 
L 4359 2091 
Q 4359 2428 4304 2576 
Q 4250 2725 4106 2815 
Q 3963 2906 3769 2906 
Q 3419 2906 3187 2673 
Q 2956 2441 2956 1928 
L 2956 0 
L 2394 0 
L 2394 2156 
Q 2394 2531 2256 2718 
Q 2119 2906 1806 2906 
Q 1569 2906 1367 2781 
Q 1166 2656 1075 2415 
Q 984 2175 984 1722 
L 984 0 
L 422 0 
z
" transform="scale(0.015625)"/>
     </defs>
     <use xlink:href="#ArialMT-43"/>
     <use xlink:href="#ArialMT-6f" x="72.216797"/>
     <use xlink:href="#ArialMT-75" x="127.832031"/>
     <use xlink:href="#ArialMT-70" x="183.447266"/>
     <use xlink:href="#ArialMT-6f" x="239.0625"/>
     <use xlink:href="#ArialMT-6e" x="294.677734"/>
     <use xlink:href="#ArialMT-20" x="350.292969"/>
     <use xlink:href="#ArialMT-55" x="378.076172"/>
     <use xlink:href="#ArialMT-73" x="450.292969"/>
     <use xlink:href="#ArialMT-61" x="500.292969"/>
     <use xlink:href="#ArialMT-67" x="555.908203"/>
     <use xlink:href="#ArialMT-65" x="611.523438"/>
     <use xlink:href="#ArialMT-20" x="667.138672"/>
     <use xlink:href="#ArialMT-43" x="694.921875"/>
     <use xlink:href="#ArialMT-6f" x="767.138672"/>
     <use xlink:href="#ArialMT-6d" x="822.753906"/>
     <use xlink:href="#ArialMT-70" x="906.054688"/>
     <use xlink:href="#ArialMT-61" x="961.669922"/>
     <use xlink:href="#ArialMT-72" x="1017.285156"/>
     <use xlink:href="#ArialMT-69" x="1050.585938"/>
     <use xlink:href="#ArialMT-73" x="1072.802734"/>
     <use xlink:href="#ArialMT-6f" x="1122.802734"/>
     <use xlink:href="#ArialMT-6e" x="1178.417969"/>
    </g>
   </g>
   <g id="legend_1">
    <g id="patch_208">
     <path d="M 559.917188 95.38875 
L 704.2 95.38875 
Q 706.2 95.38875 706.2 93.38875 
L 706.2 37.32 
Q 706.2 35.32 704.2 35.32 
L 559.917188 35.32 
Q 557.917188 35.32 557.917188 37.32 
L 557.917188 93.38875 
Q 557.917188 95.38875 559.917188 95.38875 
z
" style="fill: #4d4d48; opacity: 0.5; stroke: #4d4d48; stroke-width: 0.3; stroke-linejoin: miter"/>
    </g>
    <g id="patch_209">
     <path d="M 557.917188 93.38875 
L 702.2 93.38875 
Q 704.2 93.38875 704.2 91.38875 
L 704.2 35.32 
Q 704.2 33.32 702.2 33.32 
L 557.917188 33.32 
Q 555.917188 33.32 555.917188 35.32 
L 555.917188 91.38875 
Q 555.917188 93.38875 557.917188 93.38875 
z
" style="fill: #fffff0; stroke: #cccccc; stroke-width: 0.3; stroke-linejoin: miter"/>
    </g>
    <g id="patch_210">
     <path d="M 559.917188 44.599687 
L 579.917188 44.599687 
L 579.917188 37.599687 
L 559.917188 37.599687 
z
" style="fill: #5499c7"/>
    </g>
    <g id="text_18">
     <!-- Test Coupons Used -->
     <g style="fill: #262626" transform="translate(587.917188 44.599687) scale(0.1 -0.1)">
      <defs>
       <path id="ArialMT-54" d="M 1659 0 
L 1659 4041 
L 150 4041 
L 150 4581 
L 3781 4581 
L 3781 4041 
L 2266 4041 
L 2266 0 
L 1659 0 
z
" transform="scale(0.015625)"/>
       <path id="ArialMT-64" d="M 2575 0 
L 2575 419 
Q 2259 -75 1647 -75 
Q 1250 -75 917 144 
Q 584 363 401 755 
Q 219 1147 219 1656 
Q 219 2153 384 2558 
Q 550 2963 881 3178 
Q 1213 3394 1622 3394 
Q 1922 3394 2156 3267 
Q 2391 3141 2538 2938 
L 2538 4581 
L 3097 4581 
L 3097 0 
L 2575 0 
z
M 797 1656 
Q 797 1019 1065 703 
Q 1334 388 1700 388 
Q 2069 388 2326 689 
Q 2584 991 2584 1609 
Q 2584 2291 2321 2609 
Q 2059 2928 1675 2928 
Q 1300 2928 1048 2622 
Q 797 2316 797 1656 
z
" transform="scale(0.015625)"/>
      </defs>
      <use xlink:href="#ArialMT-54"/>
      <use xlink:href="#ArialMT-65" x="49.958984"/>
      <use xlink:href="#ArialMT-73" x="105.574219"/>
      <use xlink:href="#ArialMT-74" x="155.574219"/>
      <use xlink:href="#ArialMT-20" x="183.357422"/>
      <use xlink:href="#ArialMT-43" x="211.140625"/>
      <use xlink:href="#ArialMT-6f" x="283.357422"/>
      <use xlink:href="#ArialMT-75" x="338.972656"/>
      <use xlink:href="#ArialMT-70" x="394.587891"/>
      <use xlink:href="#ArialMT-6f" x="450.203125"/>
      <use xlink:href="#ArialMT-6e" x="505.818359"/>
      <use xlink:href="#ArialMT-73" x="561.433594"/>
      <use xlink:href="#ArialMT-20" x="611.433594"/>
      <use xlink:href="#ArialMT-55" x="639.216797"/>
      <use xlink:href="#ArialMT-73" x="711.433594"/>
      <use xlink:href="#ArialMT-65" x="761.433594"/>
      <use xlink:href="#ArialMT-64" x="817.048828"/>
     </g>
    </g>
    <g id="patch_211">
     <path d="M 559.917188 58.866875 
L 579.917188 58.866875 
L 579.917188 51.866875 
L 559.917188 51.866875 
z
" style="fill: #a9cce3"/>
    </g>
    <g id="text_19">
     <!-- Test Unused Coupons -->
     <g style="fill: #262626" transform="translate(587.917188 58.866875) scale(0.1 -0.1)">
      <use xlink:href="#ArialMT-54"/>
      <use xlink:href="#ArialMT-65" x="49.958984"/>
      <use xlink:href="#ArialMT-73" x="105.574219"/>
      <use xlink:href="#ArialMT-74" x="155.574219"/>
      <use xlink:href="#ArialMT-20" x="183.357422"/>
      <use xlink:href="#ArialMT-55" x="211.140625"/>
      <use xlink:href="#ArialMT-6e" x="283.357422"/>
      <use xlink:href="#ArialMT-75" x="338.972656"/>
      <use xlink:href="#ArialMT-73" x="394.587891"/>
      <use xlink:href="#ArialMT-65" x="444.587891"/>
      <use xlink:href="#ArialMT-64" x="500.203125"/>
      <use xlink:href="#ArialMT-20" x="555.818359"/>
      <use xlink:href="#ArialMT-43" x="583.601562"/>
      <use xlink:href="#ArialMT-6f" x="655.818359"/>
      <use xlink:href="#ArialMT-75" x="711.433594"/>
      <use xlink:href="#ArialMT-70" x="767.048828"/>
      <use xlink:href="#ArialMT-6f" x="822.664062"/>
      <use xlink:href="#ArialMT-6e" x="878.279297"/>
      <use xlink:href="#ArialMT-73" x="933.894531"/>
     </g>
    </g>
    <g id="patch_212">
     <path d="M 559.917188 73.134062 
L 579.917188 73.134062 
L 579.917188 66.134062 
L 559.917188 66.134062 
z
" style="fill: #52be80"/>
    </g>
    <g id="text_20">
     <!-- Control Coupons Used -->
     <g style="fill: #262626" transform="translate(587.917188 73.134062) scale(0.1 -0.1)">
      <use xlink:href="#ArialMT-43"/>
      <use xlink:href="#ArialMT-6f" x="72.216797"/>
      <use xlink:href="#ArialMT-6e" x="127.832031"/>
      <use xlink:href="#ArialMT-74" x="183.447266"/>
      <use xlink:href="#ArialMT-72" x="211.230469"/>
      <use xlink:href="#ArialMT-6f" x="244.53125"/>
      <use xlink:href="#ArialMT-6c" x="300.146484"/>
      <use xlink:href="#ArialMT-20" x="322.363281"/>
      <use xlink:href="#ArialMT-43" x="350.146484"/>
      <use xlink:href="#ArialMT-6f" x="422.363281"/>
      <use xlink:href="#ArialMT-75" x="477.978516"/>
      <use xlink:href="#ArialMT-70" x="533.59375"/>
      <use xlink:href="#ArialMT-6f" x="589.208984"/>
      <use xlink:href="#ArialMT-6e" x="644.824219"/>
      <use xlink:href="#ArialMT-73" x="700.439453"/>
      <use xlink:href="#ArialMT-20" x="750.439453"/>
      <use xlink:href="#ArialMT-55" x="778.222656"/>
      <use xlink:href="#ArialMT-73" x="850.439453"/>
      <use xlink:href="#ArialMT-65" x="900.439453"/>
      <use xlink:href="#ArialMT-64" x="956.054688"/>
     </g>
    </g>
    <g id="patch_213">
     <path d="M 559.917188 87.40125 
L 579.917188 87.40125 
L 579.917188 80.40125 
L 559.917188 80.40125 
z
" style="fill: #a9dfbf"/>
    </g>
    <g id="text_21">
     <!-- Control Unused Coupons -->
     <g style="fill: #262626" transform="translate(587.917188 87.40125) scale(0.1 -0.1)">
      <use xlink:href="#ArialMT-43"/>
      <use xlink:href="#ArialMT-6f" x="72.216797"/>
      <use xlink:href="#ArialMT-6e" x="127.832031"/>
      <use xlink:href="#ArialMT-74" x="183.447266"/>
      <use xlink:href="#ArialMT-72" x="211.230469"/>
      <use xlink:href="#ArialMT-6f" x="244.53125"/>
      <use xlink:href="#ArialMT-6c" x="300.146484"/>
      <use xlink:href="#ArialMT-20" x="322.363281"/>
      <use xlink:href="#ArialMT-55" x="350.146484"/>
      <use xlink:href="#ArialMT-6e" x="422.363281"/>
      <use xlink:href="#ArialMT-75" x="477.978516"/>
      <use xlink:href="#ArialMT-73" x="533.59375"/>
      <use xlink:href="#ArialMT-65" x="583.59375"/>
      <use xlink:href="#ArialMT-64" x="639.208984"/>
      <use xlink:href="#ArialMT-20" x="694.824219"/>
      <use xlink:href="#ArialMT-43" x="722.607422"/>
      <use xlink:href="#ArialMT-6f" x="794.824219"/>
      <use xlink:href="#ArialMT-75" x="850.439453"/>
      <use xlink:href="#ArialMT-70" x="906.054688"/>
      <use xlink:href="#ArialMT-6f" x="961.669922"/>
      <use xlink:href="#ArialMT-6e" x="1017.285156"/>
      <use xlink:href="#ArialMT-73" x="1072.900391"/>
     </g>
    </g>
   </g>
  </g>
 </g>
 <defs>
  <clipPath id="pc93ffaedf6">
   <rect x="59.78" y="28.32" width="649.42" height="507.16"/>
  </clipPath>
 </defs>
</svg>
