<?xml version="1.0" encoding="utf-8" standalone="no"?>
<!DOCTYPE svg PUBLIC "-//W3C//DTD SVG 1.1//EN"
  "http://www.w3.org/Graphics/SVG/1.1/DTD/svg11.dtd">
<svg xmlns:xlink="http://www.w3.org/1999/xlink" width="720pt" height="432pt" viewBox="0 0 720 432" xmlns="http://www.w3.org/2000/svg" version="1.1">
 <metadata>
  <rdf:RDF xmlns:dc="http://purl.org/dc/elements/1.1/" xmlns:cc="http://creativecommons.org/ns#" xmlns:rdf="http://www.w3.org/1999/02/22-rdf-syntax-ns#">
   <cc:Work>
    <dc:type rdf:resource="http://purl.org/dc/dcmitype/StillImage"/>
    <dc:date>2024-07-25T16:09:25.071704</dc:date>
    <dc:format>image/svg+xml</dc:format>
    <dc:creator>
     <cc:Agent>
      <dc:title>Matplotlib v3.8.4, https://matplotlib.org/</dc:title>
     </cc:Agent>
    </dc:creator>
   </cc:Work>
  </rdf:RDF>
 </metadata>
 <defs>
  <style type="text/css">*{stroke-linejoin: round; stroke-linecap: butt}</style>
 </defs>
 <g id="figure_1">
  <g id="patch_1">
   <path d="M 0 432 
L 720 432 
L 720 0 
L 0 0 
z
" style="fill: #ffffff"/>
  </g>
  <g id="axes_1">
   <g id="patch_2">
    <path d="M 43.04 391.48 
L 709.2 391.48 
L 709.2 25.49625 
L 43.04 25.49625 
z
" style="fill: #eaeaf2"/>
   </g>
   <g id="patch_3">
    <path d="M 73.32 391.48 
L 73.32 -8062.744625 
L 278.663738 -8062.744625 
L 278.663738 391.48 
z
" clip-path="url(#p16ad76599a)" style="fill: #1e90ff; opacity: 0.5"/>
   </g>
   <g id="patch_4">
    <path d="M 278.663738 391.48 
L 278.663738 -8062.744625 
L 335.337339 -8062.744625 
L 335.337339 391.48 
z
" clip-path="url(#p16ad76599a)" style="fill: #228b22; opacity: 0.5"/>
   </g>
   <g id="patch_5">
    <path d="M 335.337339 391.48 
L 335.337339 -8062.744625 
L 387.01514 -8062.744625 
L 387.01514 391.48 
z
" clip-path="url(#p16ad76599a)" style="fill: #ffff00; opacity: 0.5"/>
   </g>
   <g id="patch_6">
    <path d="M 387.01514 391.48 
L 387.01514 -8062.744625 
L 430.075377 -8062.744625 
L 430.075377 391.48 
z
" clip-path="url(#p16ad76599a)" style="fill: #ff8c00; opacity: 0.5"/>
   </g>
   <g id="patch_7">
    <path d="M 430.075377 391.48 
L 430.075377 -8062.744625 
L 678.92 -8062.744625 
L 678.92 391.48 
z
" clip-path="url(#p16ad76599a)" style="fill: #ff0000; opacity: 0.5"/>
   </g>
   <g id="matplotlib.axis_1">
    <g id="xtick_1">
     <g id="line2d_1">
      <path d="M 65.322624 391.48 
L 65.322624 25.49625 
" clip-path="url(#p16ad76599a)" style="fill: none; stroke: #ffffff; stroke-linecap: round"/>
     </g>
     <g id="line2d_2"/>
     <g id="text_1">
      <!-- 8500 -->
      <g style="fill: #262626" transform="translate(54.200749 405.637812) scale(0.1 -0.1)">
       <defs>
        <path id="ArialMT-38" d="M 1131 2484 
Q 781 2613 612 2850 
Q 444 3088 444 3419 
Q 444 3919 803 4259 
Q 1163 4600 1759 4600 
Q 2359 4600 2725 4251 
Q 3091 3903 3091 3403 
Q 3091 3084 2923 2848 
Q 2756 2613 2416 2484 
Q 2838 2347 3058 2040 
Q 3278 1734 3278 1309 
Q 3278 722 2862 322 
Q 2447 -78 1769 -78 
Q 1091 -78 675 323 
Q 259 725 259 1325 
Q 259 1772 486 2073 
Q 713 2375 1131 2484 
z
M 1019 3438 
Q 1019 3113 1228 2906 
Q 1438 2700 1772 2700 
Q 2097 2700 2305 2904 
Q 2513 3109 2513 3406 
Q 2513 3716 2298 3927 
Q 2084 4138 1766 4138 
Q 1444 4138 1231 3931 
Q 1019 3725 1019 3438 
z
M 838 1322 
Q 838 1081 952 856 
Q 1066 631 1291 507 
Q 1516 384 1775 384 
Q 2178 384 2440 643 
Q 2703 903 2703 1303 
Q 2703 1709 2433 1975 
Q 2163 2241 1756 2241 
Q 1359 2241 1098 1978 
Q 838 1716 838 1322 
z
" transform="scale(0.015625)"/>
        <path id="ArialMT-35" d="M 266 1200 
L 856 1250 
Q 922 819 1161 601 
Q 1400 384 1738 384 
Q 2144 384 2425 690 
Q 2706 997 2706 1503 
Q 2706 1984 2436 2262 
Q 2166 2541 1728 2541 
Q 1456 2541 1237 2417 
Q 1019 2294 894 2097 
L 366 2166 
L 809 4519 
L 3088 4519 
L 3088 3981 
L 1259 3981 
L 1013 2750 
Q 1425 3038 1878 3038 
Q 2478 3038 2890 2622 
Q 3303 2206 3303 1553 
Q 3303 931 2941 478 
Q 2500 -78 1738 -78 
Q 1113 -78 717 272 
Q 322 622 266 1200 
z
" transform="scale(0.015625)"/>
        <path id="ArialMT-30" d="M 266 2259 
Q 266 3072 433 3567 
Q 600 4063 929 4331 
Q 1259 4600 1759 4600 
Q 2128 4600 2406 4451 
Q 2684 4303 2865 4023 
Q 3047 3744 3150 3342 
Q 3253 2941 3253 2259 
Q 3253 1453 3087 958 
Q 2922 463 2592 192 
Q 2263 -78 1759 -78 
Q 1097 -78 719 397 
Q 266 969 266 2259 
z
M 844 2259 
Q 844 1131 1108 757 
Q 1372 384 1759 384 
Q 2147 384 2411 759 
Q 2675 1134 2675 2259 
Q 2675 3391 2411 3762 
Q 2147 4134 1753 4134 
Q 1366 4134 1134 3806 
Q 844 3388 844 2259 
z
" transform="scale(0.015625)"/>
       </defs>
       <use xlink:href="#ArialMT-38"/>
       <use xlink:href="#ArialMT-35" x="55.615234"/>
       <use xlink:href="#ArialMT-30" x="111.230469"/>
       <use xlink:href="#ArialMT-30" x="166.845703"/>
      </g>
     </g>
    </g>
    <g id="xtick_2">
     <g id="line2d_3">
      <path d="M 150.964953 391.48 
L 150.964953 25.49625 
" clip-path="url(#p16ad76599a)" style="fill: none; stroke: #ffffff; stroke-linecap: round"/>
     </g>
     <g id="line2d_4"/>
     <g id="text_2">
      <!-- 9000 -->
      <g style="fill: #262626" transform="translate(139.843078 405.637812) scale(0.1 -0.1)">
       <defs>
        <path id="ArialMT-39" d="M 350 1059 
L 891 1109 
Q 959 728 1153 556 
Q 1347 384 1650 384 
Q 1909 384 2104 503 
Q 2300 622 2425 820 
Q 2550 1019 2634 1356 
Q 2719 1694 2719 2044 
Q 2719 2081 2716 2156 
Q 2547 1888 2255 1720 
Q 1963 1553 1622 1553 
Q 1053 1553 659 1965 
Q 266 2378 266 3053 
Q 266 3750 677 4175 
Q 1088 4600 1706 4600 
Q 2153 4600 2523 4359 
Q 2894 4119 3086 3673 
Q 3278 3228 3278 2384 
Q 3278 1506 3087 986 
Q 2897 466 2520 194 
Q 2144 -78 1638 -78 
Q 1100 -78 759 220 
Q 419 519 350 1059 
z
M 2653 3081 
Q 2653 3566 2395 3850 
Q 2138 4134 1775 4134 
Q 1400 4134 1122 3828 
Q 844 3522 844 3034 
Q 844 2597 1108 2323 
Q 1372 2050 1759 2050 
Q 2150 2050 2401 2323 
Q 2653 2597 2653 3081 
z
" transform="scale(0.015625)"/>
       </defs>
       <use xlink:href="#ArialMT-39"/>
       <use xlink:href="#ArialMT-30" x="55.615234"/>
       <use xlink:href="#ArialMT-30" x="111.230469"/>
       <use xlink:href="#ArialMT-30" x="166.845703"/>
      </g>
     </g>
    </g>
    <g id="xtick_3">
     <g id="line2d_5">
      <path d="M 236.607282 391.48 
L 236.607282 25.49625 
" clip-path="url(#p16ad76599a)" style="fill: none; stroke: #ffffff; stroke-linecap: round"/>
     </g>
     <g id="line2d_6"/>
     <g id="text_3">
      <!-- 9500 -->
      <g style="fill: #262626" transform="translate(225.485407 405.637812) scale(0.1 -0.1)">
       <use xlink:href="#ArialMT-39"/>
       <use xlink:href="#ArialMT-35" x="55.615234"/>
       <use xlink:href="#ArialMT-30" x="111.230469"/>
       <use xlink:href="#ArialMT-30" x="166.845703"/>
      </g>
     </g>
    </g>
    <g id="xtick_4">
     <g id="line2d_7">
      <path d="M 322.249611 391.48 
L 322.249611 25.49625 
" clip-path="url(#p16ad76599a)" style="fill: none; stroke: #ffffff; stroke-linecap: round"/>
     </g>
     <g id="line2d_8"/>
     <g id="text_4">
      <!-- 10000 -->
      <g style="fill: #262626" transform="translate(308.347267 405.637812) scale(0.1 -0.1)">
       <defs>
        <path id="ArialMT-31" d="M 2384 0 
L 1822 0 
L 1822 3584 
Q 1619 3391 1289 3197 
Q 959 3003 697 2906 
L 697 3450 
Q 1169 3672 1522 3987 
Q 1875 4303 2022 4600 
L 2384 4600 
L 2384 0 
z
" transform="scale(0.015625)"/>
       </defs>
       <use xlink:href="#ArialMT-31"/>
       <use xlink:href="#ArialMT-30" x="55.615234"/>
       <use xlink:href="#ArialMT-30" x="111.230469"/>
       <use xlink:href="#ArialMT-30" x="166.845703"/>
       <use xlink:href="#ArialMT-30" x="222.460938"/>
      </g>
     </g>
    </g>
    <g id="xtick_5">
     <g id="line2d_9">
      <path d="M 407.891939 391.48 
L 407.891939 25.49625 
" clip-path="url(#p16ad76599a)" style="fill: none; stroke: #ffffff; stroke-linecap: round"/>
     </g>
     <g id="line2d_10"/>
     <g id="text_5">
      <!-- 10500 -->
      <g style="fill: #262626" transform="translate(393.989596 405.637812) scale(0.1 -0.1)">
       <use xlink:href="#ArialMT-31"/>
       <use xlink:href="#ArialMT-30" x="55.615234"/>
       <use xlink:href="#ArialMT-35" x="111.230469"/>
       <use xlink:href="#ArialMT-30" x="166.845703"/>
       <use xlink:href="#ArialMT-30" x="222.460938"/>
      </g>
     </g>
    </g>
    <g id="xtick_6">
     <g id="line2d_11">
      <path d="M 493.534268 391.48 
L 493.534268 25.49625 
" clip-path="url(#p16ad76599a)" style="fill: none; stroke: #ffffff; stroke-linecap: round"/>
     </g>
     <g id="line2d_12"/>
     <g id="text_6">
      <!-- 11000 -->
      <g style="fill: #262626" transform="translate(480.000675 405.637812) scale(0.1 -0.1)">
       <use xlink:href="#ArialMT-31"/>
       <use xlink:href="#ArialMT-31" x="48.240234"/>
       <use xlink:href="#ArialMT-30" x="103.855469"/>
       <use xlink:href="#ArialMT-30" x="159.470703"/>
       <use xlink:href="#ArialMT-30" x="215.085938"/>
      </g>
     </g>
    </g>
    <g id="xtick_7">
     <g id="line2d_13">
      <path d="M 579.176597 391.48 
L 579.176597 25.49625 
" clip-path="url(#p16ad76599a)" style="fill: none; stroke: #ffffff; stroke-linecap: round"/>
     </g>
     <g id="line2d_14"/>
     <g id="text_7">
      <!-- 11500 -->
      <g style="fill: #262626" transform="translate(565.643003 405.637812) scale(0.1 -0.1)">
       <use xlink:href="#ArialMT-31"/>
       <use xlink:href="#ArialMT-31" x="48.240234"/>
       <use xlink:href="#ArialMT-35" x="103.855469"/>
       <use xlink:href="#ArialMT-30" x="159.470703"/>
       <use xlink:href="#ArialMT-30" x="215.085938"/>
      </g>
     </g>
    </g>
    <g id="xtick_8">
     <g id="line2d_15">
      <path d="M 664.818926 391.48 
L 664.818926 25.49625 
" clip-path="url(#p16ad76599a)" style="fill: none; stroke: #ffffff; stroke-linecap: round"/>
     </g>
     <g id="line2d_16"/>
     <g id="text_8">
      <!-- 12000 -->
      <g style="fill: #262626" transform="translate(650.916582 405.637812) scale(0.1 -0.1)">
       <defs>
        <path id="ArialMT-32" d="M 3222 541 
L 3222 0 
L 194 0 
Q 188 203 259 391 
Q 375 700 629 1000 
Q 884 1300 1366 1694 
Q 2113 2306 2375 2664 
Q 2638 3022 2638 3341 
Q 2638 3675 2398 3904 
Q 2159 4134 1775 4134 
Q 1369 4134 1125 3890 
Q 881 3647 878 3216 
L 300 3275 
Q 359 3922 746 4261 
Q 1134 4600 1788 4600 
Q 2447 4600 2831 4234 
Q 3216 3869 3216 3328 
Q 3216 3053 3103 2787 
Q 2991 2522 2730 2228 
Q 2469 1934 1863 1422 
Q 1356 997 1212 845 
Q 1069 694 975 541 
L 3222 541 
z
" transform="scale(0.015625)"/>
       </defs>
       <use xlink:href="#ArialMT-31"/>
       <use xlink:href="#ArialMT-32" x="55.615234"/>
       <use xlink:href="#ArialMT-30" x="111.230469"/>
       <use xlink:href="#ArialMT-30" x="166.845703"/>
       <use xlink:href="#ArialMT-30" x="222.460938"/>
      </g>
     </g>
    </g>
    <g id="text_9">
     <!-- Total Lifetime Spend -->
     <g style="fill: #262626" transform="translate(326.29 419.632969) scale(0.11 -0.11)">
      <defs>
       <path id="ArialMT-54" d="M 1659 0 
L 1659 4041 
L 150 4041 
L 150 4581 
L 3781 4581 
L 3781 4041 
L 2266 4041 
L 2266 0 
L 1659 0 
z
" transform="scale(0.015625)"/>
       <path id="ArialMT-6f" d="M 213 1659 
Q 213 2581 725 3025 
Q 1153 3394 1769 3394 
Q 2453 3394 2887 2945 
Q 3322 2497 3322 1706 
Q 3322 1066 3130 698 
Q 2938 331 2570 128 
Q 2203 -75 1769 -75 
Q 1072 -75 642 372 
Q 213 819 213 1659 
z
M 791 1659 
Q 791 1022 1069 705 
Q 1347 388 1769 388 
Q 2188 388 2466 706 
Q 2744 1025 2744 1678 
Q 2744 2294 2464 2611 
Q 2184 2928 1769 2928 
Q 1347 2928 1069 2612 
Q 791 2297 791 1659 
z
" transform="scale(0.015625)"/>
       <path id="ArialMT-74" d="M 1650 503 
L 1731 6 
Q 1494 -44 1306 -44 
Q 1000 -44 831 53 
Q 663 150 594 308 
Q 525 466 525 972 
L 525 2881 
L 113 2881 
L 113 3319 
L 525 3319 
L 525 4141 
L 1084 4478 
L 1084 3319 
L 1650 3319 
L 1650 2881 
L 1084 2881 
L 1084 941 
Q 1084 700 1114 631 
Q 1144 563 1211 522 
Q 1278 481 1403 481 
Q 1497 481 1650 503 
z
" transform="scale(0.015625)"/>
       <path id="ArialMT-61" d="M 2588 409 
Q 2275 144 1986 34 
Q 1697 -75 1366 -75 
Q 819 -75 525 192 
Q 231 459 231 875 
Q 231 1119 342 1320 
Q 453 1522 633 1644 
Q 813 1766 1038 1828 
Q 1203 1872 1538 1913 
Q 2219 1994 2541 2106 
Q 2544 2222 2544 2253 
Q 2544 2597 2384 2738 
Q 2169 2928 1744 2928 
Q 1347 2928 1158 2789 
Q 969 2650 878 2297 
L 328 2372 
Q 403 2725 575 2942 
Q 747 3159 1072 3276 
Q 1397 3394 1825 3394 
Q 2250 3394 2515 3294 
Q 2781 3194 2906 3042 
Q 3031 2891 3081 2659 
Q 3109 2516 3109 2141 
L 3109 1391 
Q 3109 606 3145 398 
Q 3181 191 3288 0 
L 2700 0 
Q 2613 175 2588 409 
z
M 2541 1666 
Q 2234 1541 1622 1453 
Q 1275 1403 1131 1340 
Q 988 1278 909 1158 
Q 831 1038 831 891 
Q 831 666 1001 516 
Q 1172 366 1500 366 
Q 1825 366 2078 508 
Q 2331 650 2450 897 
Q 2541 1088 2541 1459 
L 2541 1666 
z
" transform="scale(0.015625)"/>
       <path id="ArialMT-6c" d="M 409 0 
L 409 4581 
L 972 4581 
L 972 0 
L 409 0 
z
" transform="scale(0.015625)"/>
       <path id="ArialMT-20" transform="scale(0.015625)"/>
       <path id="ArialMT-4c" d="M 469 0 
L 469 4581 
L 1075 4581 
L 1075 541 
L 3331 541 
L 3331 0 
L 469 0 
z
" transform="scale(0.015625)"/>
       <path id="ArialMT-69" d="M 425 3934 
L 425 4581 
L 988 4581 
L 988 3934 
L 425 3934 
z
M 425 0 
L 425 3319 
L 988 3319 
L 988 0 
L 425 0 
z
" transform="scale(0.015625)"/>
       <path id="ArialMT-66" d="M 556 0 
L 556 2881 
L 59 2881 
L 59 3319 
L 556 3319 
L 556 3672 
Q 556 4006 616 4169 
Q 697 4388 901 4523 
Q 1106 4659 1475 4659 
Q 1713 4659 2000 4603 
L 1916 4113 
Q 1741 4144 1584 4144 
Q 1328 4144 1222 4034 
Q 1116 3925 1116 3625 
L 1116 3319 
L 1763 3319 
L 1763 2881 
L 1116 2881 
L 1116 0 
L 556 0 
z
" transform="scale(0.015625)"/>
       <path id="ArialMT-65" d="M 2694 1069 
L 3275 997 
Q 3138 488 2766 206 
Q 2394 -75 1816 -75 
Q 1088 -75 661 373 
Q 234 822 234 1631 
Q 234 2469 665 2931 
Q 1097 3394 1784 3394 
Q 2450 3394 2872 2941 
Q 3294 2488 3294 1666 
Q 3294 1616 3291 1516 
L 816 1516 
Q 847 969 1125 678 
Q 1403 388 1819 388 
Q 2128 388 2347 550 
Q 2566 713 2694 1069 
z
M 847 1978 
L 2700 1978 
Q 2663 2397 2488 2606 
Q 2219 2931 1791 2931 
Q 1403 2931 1139 2672 
Q 875 2413 847 1978 
z
" transform="scale(0.015625)"/>
       <path id="ArialMT-6d" d="M 422 0 
L 422 3319 
L 925 3319 
L 925 2853 
Q 1081 3097 1340 3245 
Q 1600 3394 1931 3394 
Q 2300 3394 2536 3241 
Q 2772 3088 2869 2813 
Q 3263 3394 3894 3394 
Q 4388 3394 4653 3120 
Q 4919 2847 4919 2278 
L 4919 0 
L 4359 0 
L 4359 2091 
Q 4359 2428 4304 2576 
Q 4250 2725 4106 2815 
Q 3963 2906 3769 2906 
Q 3419 2906 3187 2673 
Q 2956 2441 2956 1928 
L 2956 0 
L 2394 0 
L 2394 2156 
Q 2394 2531 2256 2718 
Q 2119 2906 1806 2906 
Q 1569 2906 1367 2781 
Q 1166 2656 1075 2415 
Q 984 2175 984 1722 
L 984 0 
L 422 0 
z
" transform="scale(0.015625)"/>
       <path id="ArialMT-53" d="M 288 1472 
L 859 1522 
Q 900 1178 1048 958 
Q 1197 738 1509 602 
Q 1822 466 2213 466 
Q 2559 466 2825 569 
Q 3091 672 3220 851 
Q 3350 1031 3350 1244 
Q 3350 1459 3225 1620 
Q 3100 1781 2813 1891 
Q 2628 1963 1997 2114 
Q 1366 2266 1113 2400 
Q 784 2572 623 2826 
Q 463 3081 463 3397 
Q 463 3744 659 4045 
Q 856 4347 1234 4503 
Q 1613 4659 2075 4659 
Q 2584 4659 2973 4495 
Q 3363 4331 3572 4012 
Q 3781 3694 3797 3291 
L 3216 3247 
Q 3169 3681 2898 3903 
Q 2628 4125 2100 4125 
Q 1550 4125 1298 3923 
Q 1047 3722 1047 3438 
Q 1047 3191 1225 3031 
Q 1400 2872 2139 2705 
Q 2878 2538 3153 2413 
Q 3553 2228 3743 1945 
Q 3934 1663 3934 1294 
Q 3934 928 3725 604 
Q 3516 281 3123 101 
Q 2731 -78 2241 -78 
Q 1619 -78 1198 103 
Q 778 284 539 648 
Q 300 1013 288 1472 
z
" transform="scale(0.015625)"/>
       <path id="ArialMT-70" d="M 422 -1272 
L 422 3319 
L 934 3319 
L 934 2888 
Q 1116 3141 1344 3267 
Q 1572 3394 1897 3394 
Q 2322 3394 2647 3175 
Q 2972 2956 3137 2557 
Q 3303 2159 3303 1684 
Q 3303 1175 3120 767 
Q 2938 359 2589 142 
Q 2241 -75 1856 -75 
Q 1575 -75 1351 44 
Q 1128 163 984 344 
L 984 -1272 
L 422 -1272 
z
M 931 1641 
Q 931 1000 1190 694 
Q 1450 388 1819 388 
Q 2194 388 2461 705 
Q 2728 1022 2728 1688 
Q 2728 2322 2467 2637 
Q 2206 2953 1844 2953 
Q 1484 2953 1207 2617 
Q 931 2281 931 1641 
z
" transform="scale(0.015625)"/>
       <path id="ArialMT-6e" d="M 422 0 
L 422 3319 
L 928 3319 
L 928 2847 
Q 1294 3394 1984 3394 
Q 2284 3394 2536 3286 
Q 2788 3178 2913 3003 
Q 3038 2828 3088 2588 
Q 3119 2431 3119 2041 
L 3119 0 
L 2556 0 
L 2556 2019 
Q 2556 2363 2490 2533 
Q 2425 2703 2258 2804 
Q 2091 2906 1866 2906 
Q 1506 2906 1245 2678 
Q 984 2450 984 1813 
L 984 0 
L 422 0 
z
" transform="scale(0.015625)"/>
       <path id="ArialMT-64" d="M 2575 0 
L 2575 419 
Q 2259 -75 1647 -75 
Q 1250 -75 917 144 
Q 584 363 401 755 
Q 219 1147 219 1656 
Q 219 2153 384 2558 
Q 550 2963 881 3178 
Q 1213 3394 1622 3394 
Q 1922 3394 2156 3267 
Q 2391 3141 2538 2938 
L 2538 4581 
L 3097 4581 
L 3097 0 
L 2575 0 
z
M 797 1656 
Q 797 1019 1065 703 
Q 1334 388 1700 388 
Q 2069 388 2326 689 
Q 2584 991 2584 1609 
Q 2584 2291 2321 2609 
Q 2059 2928 1675 2928 
Q 1300 2928 1048 2622 
Q 797 2316 797 1656 
z
" transform="scale(0.015625)"/>
      </defs>
      <use xlink:href="#ArialMT-54"/>
      <use xlink:href="#ArialMT-6f" x="49.958984"/>
      <use xlink:href="#ArialMT-74" x="105.574219"/>
      <use xlink:href="#ArialMT-61" x="133.357422"/>
      <use xlink:href="#ArialMT-6c" x="188.972656"/>
      <use xlink:href="#ArialMT-20" x="211.189453"/>
      <use xlink:href="#ArialMT-4c" x="238.972656"/>
      <use xlink:href="#ArialMT-69" x="294.587891"/>
      <use xlink:href="#ArialMT-66" x="316.804688"/>
      <use xlink:href="#ArialMT-65" x="344.587891"/>
      <use xlink:href="#ArialMT-74" x="400.203125"/>
      <use xlink:href="#ArialMT-69" x="427.986328"/>
      <use xlink:href="#ArialMT-6d" x="450.203125"/>
      <use xlink:href="#ArialMT-65" x="533.503906"/>
      <use xlink:href="#ArialMT-20" x="589.119141"/>
      <use xlink:href="#ArialMT-53" x="616.902344"/>
      <use xlink:href="#ArialMT-70" x="683.601562"/>
      <use xlink:href="#ArialMT-65" x="739.216797"/>
      <use xlink:href="#ArialMT-6e" x="794.832031"/>
      <use xlink:href="#ArialMT-64" x="850.447266"/>
     </g>
    </g>
   </g>
   <g id="matplotlib.axis_2">
    <g id="ytick_1">
     <g id="line2d_17">
      <path d="M 43.04 391.48 
L 709.2 391.48 
" clip-path="url(#p16ad76599a)" style="fill: none; stroke: #ffffff; stroke-linecap: round"/>
     </g>
     <g id="line2d_18"/>
     <g id="text_10">
      <!-- 0 -->
      <g style="fill: #262626" transform="translate(30.479062 395.058906) scale(0.1 -0.1)">
       <use xlink:href="#ArialMT-30"/>
      </g>
     </g>
    </g>
    <g id="ytick_2">
     <g id="line2d_19">
      <path d="M 43.04 312.262738 
L 709.2 312.262738 
" clip-path="url(#p16ad76599a)" style="fill: none; stroke: #ffffff; stroke-linecap: round"/>
     </g>
     <g id="line2d_20"/>
     <g id="text_11">
      <!-- 5 -->
      <g style="fill: #262626" transform="translate(30.479062 315.841644) scale(0.1 -0.1)">
       <use xlink:href="#ArialMT-35"/>
      </g>
     </g>
    </g>
    <g id="ytick_3">
     <g id="line2d_21">
      <path d="M 43.04 233.045476 
L 709.2 233.045476 
" clip-path="url(#p16ad76599a)" style="fill: none; stroke: #ffffff; stroke-linecap: round"/>
     </g>
     <g id="line2d_22"/>
     <g id="text_12">
      <!-- 10 -->
      <g style="fill: #262626" transform="translate(24.918125 236.624382) scale(0.1 -0.1)">
       <use xlink:href="#ArialMT-31"/>
       <use xlink:href="#ArialMT-30" x="55.615234"/>
      </g>
     </g>
    </g>
    <g id="ytick_4">
     <g id="line2d_23">
      <path d="M 43.04 153.828214 
L 709.2 153.828214 
" clip-path="url(#p16ad76599a)" style="fill: none; stroke: #ffffff; stroke-linecap: round"/>
     </g>
     <g id="line2d_24"/>
     <g id="text_13">
      <!-- 15 -->
      <g style="fill: #262626" transform="translate(24.918125 157.407121) scale(0.1 -0.1)">
       <use xlink:href="#ArialMT-31"/>
       <use xlink:href="#ArialMT-35" x="55.615234"/>
      </g>
     </g>
    </g>
    <g id="ytick_5">
     <g id="line2d_25">
      <path d="M 43.04 74.610952 
L 709.2 74.610952 
" clip-path="url(#p16ad76599a)" style="fill: none; stroke: #ffffff; stroke-linecap: round"/>
     </g>
     <g id="line2d_26"/>
     <g id="text_14">
      <!-- 20 -->
      <g style="fill: #262626" transform="translate(24.918125 78.189859) scale(0.1 -0.1)">
       <use xlink:href="#ArialMT-32"/>
       <use xlink:href="#ArialMT-30" x="55.615234"/>
      </g>
     </g>
    </g>
    <g id="text_15">
     <!-- Customer count -->
     <g style="fill: #262626" transform="translate(18.731875 247.307813) rotate(-90) scale(0.11 -0.11)">
      <defs>
       <path id="ArialMT-43" d="M 3763 1606 
L 4369 1453 
Q 4178 706 3683 314 
Q 3188 -78 2472 -78 
Q 1731 -78 1267 223 
Q 803 525 561 1097 
Q 319 1669 319 2325 
Q 319 3041 592 3573 
Q 866 4106 1370 4382 
Q 1875 4659 2481 4659 
Q 3169 4659 3637 4309 
Q 4106 3959 4291 3325 
L 3694 3184 
Q 3534 3684 3231 3912 
Q 2928 4141 2469 4141 
Q 1941 4141 1586 3887 
Q 1231 3634 1087 3207 
Q 944 2781 944 2328 
Q 944 1744 1114 1308 
Q 1284 872 1643 656 
Q 2003 441 2422 441 
Q 2931 441 3284 734 
Q 3638 1028 3763 1606 
z
" transform="scale(0.015625)"/>
       <path id="ArialMT-75" d="M 2597 0 
L 2597 488 
Q 2209 -75 1544 -75 
Q 1250 -75 995 37 
Q 741 150 617 320 
Q 494 491 444 738 
Q 409 903 409 1263 
L 409 3319 
L 972 3319 
L 972 1478 
Q 972 1038 1006 884 
Q 1059 663 1231 536 
Q 1403 409 1656 409 
Q 1909 409 2131 539 
Q 2353 669 2445 892 
Q 2538 1116 2538 1541 
L 2538 3319 
L 3100 3319 
L 3100 0 
L 2597 0 
z
" transform="scale(0.015625)"/>
       <path id="ArialMT-73" d="M 197 991 
L 753 1078 
Q 800 744 1014 566 
Q 1228 388 1613 388 
Q 2000 388 2187 545 
Q 2375 703 2375 916 
Q 2375 1106 2209 1216 
Q 2094 1291 1634 1406 
Q 1016 1563 777 1677 
Q 538 1791 414 1992 
Q 291 2194 291 2438 
Q 291 2659 392 2848 
Q 494 3038 669 3163 
Q 800 3259 1026 3326 
Q 1253 3394 1513 3394 
Q 1903 3394 2198 3281 
Q 2494 3169 2634 2976 
Q 2775 2784 2828 2463 
L 2278 2388 
Q 2241 2644 2061 2787 
Q 1881 2931 1553 2931 
Q 1166 2931 1000 2803 
Q 834 2675 834 2503 
Q 834 2394 903 2306 
Q 972 2216 1119 2156 
Q 1203 2125 1616 2013 
Q 2213 1853 2448 1751 
Q 2684 1650 2818 1456 
Q 2953 1263 2953 975 
Q 2953 694 2789 445 
Q 2625 197 2315 61 
Q 2006 -75 1616 -75 
Q 969 -75 630 194 
Q 291 463 197 991 
z
" transform="scale(0.015625)"/>
       <path id="ArialMT-72" d="M 416 0 
L 416 3319 
L 922 3319 
L 922 2816 
Q 1116 3169 1280 3281 
Q 1444 3394 1641 3394 
Q 1925 3394 2219 3213 
L 2025 2691 
Q 1819 2813 1613 2813 
Q 1428 2813 1281 2702 
Q 1134 2591 1072 2394 
Q 978 2094 978 1738 
L 978 0 
L 416 0 
z
" transform="scale(0.015625)"/>
       <path id="ArialMT-63" d="M 2588 1216 
L 3141 1144 
Q 3050 572 2676 248 
Q 2303 -75 1759 -75 
Q 1078 -75 664 370 
Q 250 816 250 1647 
Q 250 2184 428 2587 
Q 606 2991 970 3192 
Q 1334 3394 1763 3394 
Q 2303 3394 2647 3120 
Q 2991 2847 3088 2344 
L 2541 2259 
Q 2463 2594 2264 2762 
Q 2066 2931 1784 2931 
Q 1359 2931 1093 2626 
Q 828 2322 828 1663 
Q 828 994 1084 691 
Q 1341 388 1753 388 
Q 2084 388 2306 591 
Q 2528 794 2588 1216 
z
" transform="scale(0.015625)"/>
      </defs>
      <use xlink:href="#ArialMT-43"/>
      <use xlink:href="#ArialMT-75" x="72.216797"/>
      <use xlink:href="#ArialMT-73" x="127.832031"/>
      <use xlink:href="#ArialMT-74" x="177.832031"/>
      <use xlink:href="#ArialMT-6f" x="205.615234"/>
      <use xlink:href="#ArialMT-6d" x="261.230469"/>
      <use xlink:href="#ArialMT-65" x="344.53125"/>
      <use xlink:href="#ArialMT-72" x="400.146484"/>
      <use xlink:href="#ArialMT-20" x="433.447266"/>
      <use xlink:href="#ArialMT-63" x="461.230469"/>
      <use xlink:href="#ArialMT-6f" x="511.230469"/>
      <use xlink:href="#ArialMT-75" x="566.845703"/>
      <use xlink:href="#ArialMT-6e" x="622.460938"/>
      <use xlink:href="#ArialMT-74" x="678.076172"/>
     </g>
    </g>
   </g>
   <g id="patch_8">
    <path d="M 100.847273 391.48 
L 107.729091 391.48 
L 107.729091 359.793095 
L 100.847273 359.793095 
z
" clip-path="url(#p16ad76599a)" style="fill: #666666"/>
   </g>
   <g id="patch_9">
    <path d="M 107.729091 391.48 
L 114.610909 391.48 
L 114.610909 391.48 
L 107.729091 391.48 
z
" clip-path="url(#p16ad76599a)" style="fill: #666666"/>
   </g>
   <g id="patch_10">
    <path d="M 114.610909 391.48 
L 121.492727 391.48 
L 121.492727 391.48 
L 114.610909 391.48 
z
" clip-path="url(#p16ad76599a)" style="fill: #666666"/>
   </g>
   <g id="patch_11">
    <path d="M 121.492727 391.48 
L 128.374545 391.48 
L 128.374545 391.48 
L 121.492727 391.48 
z
" clip-path="url(#p16ad76599a)" style="fill: #666666"/>
   </g>
   <g id="patch_12">
    <path d="M 128.374545 391.48 
L 135.256364 391.48 
L 135.256364 391.48 
L 128.374545 391.48 
z
" clip-path="url(#p16ad76599a)" style="fill: #666666"/>
   </g>
   <g id="patch_13">
    <path d="M 135.256364 391.48 
L 142.138182 391.48 
L 142.138182 391.48 
L 135.256364 391.48 
z
" clip-path="url(#p16ad76599a)" style="fill: #666666"/>
   </g>
   <g id="patch_14">
    <path d="M 142.138182 391.48 
L 149.02 391.48 
L 149.02 375.636548 
L 142.138182 375.636548 
z
" clip-path="url(#p16ad76599a)" style="fill: #666666"/>
   </g>
   <g id="patch_15">
    <path d="M 149.02 391.48 
L 155.901818 391.48 
L 155.901818 375.636548 
L 149.02 375.636548 
z
" clip-path="url(#p16ad76599a)" style="fill: #666666"/>
   </g>
   <g id="patch_16">
    <path d="M 155.901818 391.48 
L 162.783636 391.48 
L 162.783636 375.636548 
L 155.901818 375.636548 
z
" clip-path="url(#p16ad76599a)" style="fill: #666666"/>
   </g>
   <g id="patch_17">
    <path d="M 162.783636 391.48 
L 169.665455 391.48 
L 169.665455 375.636548 
L 162.783636 375.636548 
z
" clip-path="url(#p16ad76599a)" style="fill: #666666"/>
   </g>
   <g id="patch_18">
    <path d="M 169.665455 391.48 
L 176.547273 391.48 
L 176.547273 328.10619 
L 169.665455 328.10619 
z
" clip-path="url(#p16ad76599a)" style="fill: #666666"/>
   </g>
   <g id="patch_19">
    <path d="M 176.547273 391.48 
L 183.429091 391.48 
L 183.429091 375.636548 
L 176.547273 375.636548 
z
" clip-path="url(#p16ad76599a)" style="fill: #666666"/>
   </g>
   <g id="patch_20">
    <path d="M 183.429091 391.48 
L 190.310909 391.48 
L 190.310909 359.793095 
L 183.429091 359.793095 
z
" clip-path="url(#p16ad76599a)" style="fill: #666666"/>
   </g>
   <g id="patch_21">
    <path d="M 190.310909 391.48 
L 197.192727 391.48 
L 197.192727 391.48 
L 190.310909 391.48 
z
" clip-path="url(#p16ad76599a)" style="fill: #666666"/>
   </g>
   <g id="patch_22">
    <path d="M 197.192727 391.48 
L 204.074545 391.48 
L 204.074545 343.949643 
L 197.192727 343.949643 
z
" clip-path="url(#p16ad76599a)" style="fill: #666666"/>
   </g>
   <g id="patch_23">
    <path d="M 204.074545 391.48 
L 210.956364 391.48 
L 210.956364 328.10619 
L 204.074545 328.10619 
z
" clip-path="url(#p16ad76599a)" style="fill: #666666"/>
   </g>
   <g id="patch_24">
    <path d="M 210.956364 391.48 
L 217.838182 391.48 
L 217.838182 296.419286 
L 210.956364 296.419286 
z
" clip-path="url(#p16ad76599a)" style="fill: #666666"/>
   </g>
   <g id="patch_25">
    <path d="M 217.838182 391.48 
L 224.72 391.48 
L 224.72 312.262738 
L 217.838182 312.262738 
z
" clip-path="url(#p16ad76599a)" style="fill: #666666"/>
   </g>
   <g id="patch_26">
    <path d="M 224.72 391.48 
L 231.601818 391.48 
L 231.601818 312.262738 
L 224.72 312.262738 
z
" clip-path="url(#p16ad76599a)" style="fill: #666666"/>
   </g>
   <g id="patch_27">
    <path d="M 231.601818 391.48 
L 238.483636 391.48 
L 238.483636 280.575833 
L 231.601818 280.575833 
z
" clip-path="url(#p16ad76599a)" style="fill: #666666"/>
   </g>
   <g id="patch_28">
    <path d="M 238.483636 391.48 
L 245.365455 391.48 
L 245.365455 217.202024 
L 238.483636 217.202024 
z
" clip-path="url(#p16ad76599a)" style="fill: #666666"/>
   </g>
   <g id="patch_29">
    <path d="M 245.365455 391.48 
L 252.247273 391.48 
L 252.247273 248.888929 
L 245.365455 248.888929 
z
" clip-path="url(#p16ad76599a)" style="fill: #666666"/>
   </g>
   <g id="patch_30">
    <path d="M 252.247273 391.48 
L 259.129091 391.48 
L 259.129091 312.262738 
L 252.247273 312.262738 
z
" clip-path="url(#p16ad76599a)" style="fill: #666666"/>
   </g>
   <g id="patch_31">
    <path d="M 259.129091 391.48 
L 266.010909 391.48 
L 266.010909 280.575833 
L 259.129091 280.575833 
z
" clip-path="url(#p16ad76599a)" style="fill: #666666"/>
   </g>
   <g id="patch_32">
    <path d="M 266.010909 391.48 
L 272.892727 391.48 
L 272.892727 137.984762 
L 266.010909 137.984762 
z
" clip-path="url(#p16ad76599a)" style="fill: #666666"/>
   </g>
   <g id="patch_33">
    <path d="M 272.892727 391.48 
L 279.774545 391.48 
L 279.774545 233.045476 
L 272.892727 233.045476 
z
" clip-path="url(#p16ad76599a)" style="fill: #666666"/>
   </g>
   <g id="patch_34">
    <path d="M 279.774545 391.48 
L 286.656364 391.48 
L 286.656364 248.888929 
L 279.774545 248.888929 
z
" clip-path="url(#p16ad76599a)" style="fill: #666666"/>
   </g>
   <g id="patch_35">
    <path d="M 286.656364 391.48 
L 293.538182 391.48 
L 293.538182 201.358571 
L 286.656364 201.358571 
z
" clip-path="url(#p16ad76599a)" style="fill: #666666"/>
   </g>
   <g id="patch_36">
    <path d="M 293.538182 391.48 
L 300.42 391.48 
L 300.42 153.828214 
L 293.538182 153.828214 
z
" clip-path="url(#p16ad76599a)" style="fill: #666666"/>
   </g>
   <g id="patch_37">
    <path d="M 300.42 391.48 
L 307.301818 391.48 
L 307.301818 201.358571 
L 300.42 201.358571 
z
" clip-path="url(#p16ad76599a)" style="fill: #666666"/>
   </g>
   <g id="patch_38">
    <path d="M 307.301818 391.48 
L 314.183636 391.48 
L 314.183636 137.984762 
L 307.301818 137.984762 
z
" clip-path="url(#p16ad76599a)" style="fill: #666666"/>
   </g>
   <g id="patch_39">
    <path d="M 314.183636 391.48 
L 321.065455 391.48 
L 321.065455 264.732381 
L 314.183636 264.732381 
z
" clip-path="url(#p16ad76599a)" style="fill: #666666"/>
   </g>
   <g id="patch_40">
    <path d="M 321.065455 391.48 
L 327.947273 391.48 
L 327.947273 201.358571 
L 321.065455 201.358571 
z
" clip-path="url(#p16ad76599a)" style="fill: #666666"/>
   </g>
   <g id="patch_41">
    <path d="M 327.947273 391.48 
L 334.829091 391.48 
L 334.829091 153.828214 
L 327.947273 153.828214 
z
" clip-path="url(#p16ad76599a)" style="fill: #666666"/>
   </g>
   <g id="patch_42">
    <path d="M 334.829091 391.48 
L 341.710909 391.48 
L 341.710909 217.202024 
L 334.829091 217.202024 
z
" clip-path="url(#p16ad76599a)" style="fill: #666666"/>
   </g>
   <g id="patch_43">
    <path d="M 341.710909 391.48 
L 348.592727 391.48 
L 348.592727 185.515119 
L 341.710909 185.515119 
z
" clip-path="url(#p16ad76599a)" style="fill: #666666"/>
   </g>
   <g id="patch_44">
    <path d="M 348.592727 391.48 
L 355.474545 391.48 
L 355.474545 153.828214 
L 348.592727 153.828214 
z
" clip-path="url(#p16ad76599a)" style="fill: #666666"/>
   </g>
   <g id="patch_45">
    <path d="M 355.474545 391.48 
L 362.356364 391.48 
L 362.356364 233.045476 
L 355.474545 233.045476 
z
" clip-path="url(#p16ad76599a)" style="fill: #666666"/>
   </g>
   <g id="patch_46">
    <path d="M 362.356364 391.48 
L 369.238182 391.48 
L 369.238182 106.297857 
L 362.356364 106.297857 
z
" clip-path="url(#p16ad76599a)" style="fill: #666666"/>
   </g>
   <g id="patch_47">
    <path d="M 369.238182 391.48 
L 376.12 391.48 
L 376.12 201.358571 
L 369.238182 201.358571 
z
" clip-path="url(#p16ad76599a)" style="fill: #666666"/>
   </g>
   <g id="patch_48">
    <path d="M 376.12 391.48 
L 383.001818 391.48 
L 383.001818 122.14131 
L 376.12 122.14131 
z
" clip-path="url(#p16ad76599a)" style="fill: #666666"/>
   </g>
   <g id="patch_49">
    <path d="M 383.001818 391.48 
L 389.883636 391.48 
L 389.883636 153.828214 
L 383.001818 153.828214 
z
" clip-path="url(#p16ad76599a)" style="fill: #666666"/>
   </g>
   <g id="patch_50">
    <path d="M 389.883636 391.48 
L 396.765455 391.48 
L 396.765455 42.924048 
L 389.883636 42.924048 
z
" clip-path="url(#p16ad76599a)" style="fill: #666666"/>
   </g>
   <g id="patch_51">
    <path d="M 396.765455 391.48 
L 403.647273 391.48 
L 403.647273 185.515119 
L 396.765455 185.515119 
z
" clip-path="url(#p16ad76599a)" style="fill: #666666"/>
   </g>
   <g id="patch_52">
    <path d="M 403.647273 391.48 
L 410.529091 391.48 
L 410.529091 90.454405 
L 403.647273 90.454405 
z
" clip-path="url(#p16ad76599a)" style="fill: #666666"/>
   </g>
   <g id="patch_53">
    <path d="M 410.529091 391.48 
L 417.410909 391.48 
L 417.410909 137.984762 
L 410.529091 137.984762 
z
" clip-path="url(#p16ad76599a)" style="fill: #666666"/>
   </g>
   <g id="patch_54">
    <path d="M 417.410909 391.48 
L 424.292727 391.48 
L 424.292727 296.419286 
L 417.410909 296.419286 
z
" clip-path="url(#p16ad76599a)" style="fill: #666666"/>
   </g>
   <g id="patch_55">
    <path d="M 424.292727 391.48 
L 431.174545 391.48 
L 431.174545 153.828214 
L 424.292727 153.828214 
z
" clip-path="url(#p16ad76599a)" style="fill: #666666"/>
   </g>
   <g id="patch_56">
    <path d="M 431.174545 391.48 
L 438.056364 391.48 
L 438.056364 233.045476 
L 431.174545 233.045476 
z
" clip-path="url(#p16ad76599a)" style="fill: #666666"/>
   </g>
   <g id="patch_57">
    <path d="M 438.056364 391.48 
L 444.938182 391.48 
L 444.938182 185.515119 
L 438.056364 185.515119 
z
" clip-path="url(#p16ad76599a)" style="fill: #666666"/>
   </g>
   <g id="patch_58">
    <path d="M 444.938182 391.48 
L 451.82 391.48 
L 451.82 296.419286 
L 444.938182 296.419286 
z
" clip-path="url(#p16ad76599a)" style="fill: #666666"/>
   </g>
   <g id="patch_59">
    <path d="M 451.82 391.48 
L 458.701818 391.48 
L 458.701818 233.045476 
L 451.82 233.045476 
z
" clip-path="url(#p16ad76599a)" style="fill: #666666"/>
   </g>
   <g id="patch_60">
    <path d="M 458.701818 391.48 
L 465.583636 391.48 
L 465.583636 328.10619 
L 458.701818 328.10619 
z
" clip-path="url(#p16ad76599a)" style="fill: #666666"/>
   </g>
   <g id="patch_61">
    <path d="M 465.583636 391.48 
L 472.465455 391.48 
L 472.465455 280.575833 
L 465.583636 280.575833 
z
" clip-path="url(#p16ad76599a)" style="fill: #666666"/>
   </g>
   <g id="patch_62">
    <path d="M 472.465455 391.48 
L 479.347273 391.48 
L 479.347273 328.10619 
L 472.465455 328.10619 
z
" clip-path="url(#p16ad76599a)" style="fill: #666666"/>
   </g>
   <g id="patch_63">
    <path d="M 479.347273 391.48 
L 486.229091 391.48 
L 486.229091 264.732381 
L 479.347273 264.732381 
z
" clip-path="url(#p16ad76599a)" style="fill: #666666"/>
   </g>
   <g id="patch_64">
    <path d="M 486.229091 391.48 
L 493.110909 391.48 
L 493.110909 343.949643 
L 486.229091 343.949643 
z
" clip-path="url(#p16ad76599a)" style="fill: #666666"/>
   </g>
   <g id="patch_65">
    <path d="M 493.110909 391.48 
L 499.992727 391.48 
L 499.992727 328.10619 
L 493.110909 328.10619 
z
" clip-path="url(#p16ad76599a)" style="fill: #666666"/>
   </g>
   <g id="patch_66">
    <path d="M 499.992727 391.48 
L 506.874545 391.48 
L 506.874545 328.10619 
L 499.992727 328.10619 
z
" clip-path="url(#p16ad76599a)" style="fill: #666666"/>
   </g>
   <g id="patch_67">
    <path d="M 506.874545 391.48 
L 513.756364 391.48 
L 513.756364 359.793095 
L 506.874545 359.793095 
z
" clip-path="url(#p16ad76599a)" style="fill: #666666"/>
   </g>
   <g id="patch_68">
    <path d="M 513.756364 391.48 
L 520.638182 391.48 
L 520.638182 328.10619 
L 513.756364 328.10619 
z
" clip-path="url(#p16ad76599a)" style="fill: #666666"/>
   </g>
   <g id="patch_69">
    <path d="M 520.638182 391.48 
L 527.52 391.48 
L 527.52 391.48 
L 520.638182 391.48 
z
" clip-path="url(#p16ad76599a)" style="fill: #666666"/>
   </g>
   <g id="patch_70">
    <path d="M 527.52 391.48 
L 534.401818 391.48 
L 534.401818 391.48 
L 527.52 391.48 
z
" clip-path="url(#p16ad76599a)" style="fill: #666666"/>
   </g>
   <g id="patch_71">
    <path d="M 534.401818 391.48 
L 541.283636 391.48 
L 541.283636 328.10619 
L 534.401818 328.10619 
z
" clip-path="url(#p16ad76599a)" style="fill: #666666"/>
   </g>
   <g id="patch_72">
    <path d="M 541.283636 391.48 
L 548.165455 391.48 
L 548.165455 391.48 
L 541.283636 391.48 
z
" clip-path="url(#p16ad76599a)" style="fill: #666666"/>
   </g>
   <g id="patch_73">
    <path d="M 548.165455 391.48 
L 555.047273 391.48 
L 555.047273 343.949643 
L 548.165455 343.949643 
z
" clip-path="url(#p16ad76599a)" style="fill: #666666"/>
   </g>
   <g id="patch_74">
    <path d="M 555.047273 391.48 
L 561.929091 391.48 
L 561.929091 375.636548 
L 555.047273 375.636548 
z
" clip-path="url(#p16ad76599a)" style="fill: #666666"/>
   </g>
   <g id="patch_75">
    <path d="M 561.929091 391.48 
L 568.810909 391.48 
L 568.810909 375.636548 
L 561.929091 375.636548 
z
" clip-path="url(#p16ad76599a)" style="fill: #666666"/>
   </g>
   <g id="patch_76">
    <path d="M 568.810909 391.48 
L 575.692727 391.48 
L 575.692727 375.636548 
L 568.810909 375.636548 
z
" clip-path="url(#p16ad76599a)" style="fill: #666666"/>
   </g>
   <g id="patch_77">
    <path d="M 575.692727 391.48 
L 582.574545 391.48 
L 582.574545 375.636548 
L 575.692727 375.636548 
z
" clip-path="url(#p16ad76599a)" style="fill: #666666"/>
   </g>
   <g id="patch_78">
    <path d="M 582.574545 391.48 
L 589.456364 391.48 
L 589.456364 359.793095 
L 582.574545 359.793095 
z
" clip-path="url(#p16ad76599a)" style="fill: #666666"/>
   </g>
   <g id="patch_79">
    <path d="M 589.456364 391.48 
L 596.338182 391.48 
L 596.338182 391.48 
L 589.456364 391.48 
z
" clip-path="url(#p16ad76599a)" style="fill: #666666"/>
   </g>
   <g id="patch_80">
    <path d="M 596.338182 391.48 
L 603.22 391.48 
L 603.22 391.48 
L 596.338182 391.48 
z
" clip-path="url(#p16ad76599a)" style="fill: #666666"/>
   </g>
   <g id="patch_81">
    <path d="M 603.22 391.48 
L 610.101818 391.48 
L 610.101818 375.636548 
L 603.22 375.636548 
z
" clip-path="url(#p16ad76599a)" style="fill: #666666"/>
   </g>
   <g id="patch_82">
    <path d="M 610.101818 391.48 
L 616.983636 391.48 
L 616.983636 375.636548 
L 610.101818 375.636548 
z
" clip-path="url(#p16ad76599a)" style="fill: #666666"/>
   </g>
   <g id="patch_83">
    <path d="M 616.983636 391.48 
L 623.865455 391.48 
L 623.865455 343.949643 
L 616.983636 343.949643 
z
" clip-path="url(#p16ad76599a)" style="fill: #666666"/>
   </g>
   <g id="patch_84">
    <path d="M 623.865455 391.48 
L 630.747273 391.48 
L 630.747273 391.48 
L 623.865455 391.48 
z
" clip-path="url(#p16ad76599a)" style="fill: #666666"/>
   </g>
   <g id="patch_85">
    <path d="M 630.747273 391.48 
L 637.629091 391.48 
L 637.629091 391.48 
L 630.747273 391.48 
z
" clip-path="url(#p16ad76599a)" style="fill: #666666"/>
   </g>
   <g id="patch_86">
    <path d="M 637.629091 391.48 
L 644.510909 391.48 
L 644.510909 391.48 
L 637.629091 391.48 
z
" clip-path="url(#p16ad76599a)" style="fill: #666666"/>
   </g>
   <g id="patch_87">
    <path d="M 644.510909 391.48 
L 651.392727 391.48 
L 651.392727 375.636548 
L 644.510909 375.636548 
z
" clip-path="url(#p16ad76599a)" style="fill: #666666"/>
   </g>
   <g id="patch_88">
    <path d="M 43.04 391.48 
L 43.04 25.49625 
" style="fill: none"/>
   </g>
   <g id="patch_89">
    <path d="M 709.2 391.48 
L 709.2 25.49625 
" style="fill: none"/>
   </g>
   <g id="patch_90">
    <path d="M 43.04 391.48 
L 709.2 391.48 
" style="fill: none"/>
   </g>
   <g id="patch_91">
    <path d="M 43.04 25.49625 
L 709.2 25.49625 
" style="fill: none"/>
   </g>
   <g id="text_16">
    <!-- Distribution of monetary -->
    <g style="fill: #262626" transform="translate(312.76375 19.49625) scale(0.12 -0.12)">
     <defs>
      <path id="ArialMT-44" d="M 494 0 
L 494 4581 
L 2072 4581 
Q 2606 4581 2888 4516 
Q 3281 4425 3559 4188 
Q 3922 3881 4101 3404 
Q 4281 2928 4281 2316 
Q 4281 1794 4159 1391 
Q 4038 988 3847 723 
Q 3656 459 3429 307 
Q 3203 156 2883 78 
Q 2563 0 2147 0 
L 494 0 
z
M 1100 541 
L 2078 541 
Q 2531 541 2789 625 
Q 3047 709 3200 863 
Q 3416 1078 3536 1442 
Q 3656 1806 3656 2325 
Q 3656 3044 3420 3430 
Q 3184 3816 2847 3947 
Q 2603 4041 2063 4041 
L 1100 4041 
L 1100 541 
z
" transform="scale(0.015625)"/>
      <path id="ArialMT-62" d="M 941 0 
L 419 0 
L 419 4581 
L 981 4581 
L 981 2947 
Q 1338 3394 1891 3394 
Q 2197 3394 2470 3270 
Q 2744 3147 2920 2923 
Q 3097 2700 3197 2384 
Q 3297 2069 3297 1709 
Q 3297 856 2875 390 
Q 2453 -75 1863 -75 
Q 1275 -75 941 416 
L 941 0 
z
M 934 1684 
Q 934 1088 1097 822 
Q 1363 388 1816 388 
Q 2184 388 2453 708 
Q 2722 1028 2722 1663 
Q 2722 2313 2464 2622 
Q 2206 2931 1841 2931 
Q 1472 2931 1203 2611 
Q 934 2291 934 1684 
z
" transform="scale(0.015625)"/>
      <path id="ArialMT-79" d="M 397 -1278 
L 334 -750 
Q 519 -800 656 -800 
Q 844 -800 956 -737 
Q 1069 -675 1141 -563 
Q 1194 -478 1313 -144 
Q 1328 -97 1363 -6 
L 103 3319 
L 709 3319 
L 1400 1397 
Q 1534 1031 1641 628 
Q 1738 1016 1872 1384 
L 2581 3319 
L 3144 3319 
L 1881 -56 
Q 1678 -603 1566 -809 
Q 1416 -1088 1222 -1217 
Q 1028 -1347 759 -1347 
Q 597 -1347 397 -1278 
z
" transform="scale(0.015625)"/>
     </defs>
     <use xlink:href="#ArialMT-44"/>
     <use xlink:href="#ArialMT-69" x="72.216797"/>
     <use xlink:href="#ArialMT-73" x="94.433594"/>
     <use xlink:href="#ArialMT-74" x="144.433594"/>
     <use xlink:href="#ArialMT-72" x="172.216797"/>
     <use xlink:href="#ArialMT-69" x="205.517578"/>
     <use xlink:href="#ArialMT-62" x="227.734375"/>
     <use xlink:href="#ArialMT-75" x="283.349609"/>
     <use xlink:href="#ArialMT-74" x="338.964844"/>
     <use xlink:href="#ArialMT-69" x="366.748047"/>
     <use xlink:href="#ArialMT-6f" x="388.964844"/>
     <use xlink:href="#ArialMT-6e" x="444.580078"/>
     <use xlink:href="#ArialMT-20" x="500.195312"/>
     <use xlink:href="#ArialMT-6f" x="527.978516"/>
     <use xlink:href="#ArialMT-66" x="583.59375"/>
     <use xlink:href="#ArialMT-20" x="611.376953"/>
     <use xlink:href="#ArialMT-6d" x="639.160156"/>
     <use xlink:href="#ArialMT-6f" x="722.460938"/>
     <use xlink:href="#ArialMT-6e" x="778.076172"/>
     <use xlink:href="#ArialMT-65" x="833.691406"/>
     <use xlink:href="#ArialMT-74" x="889.306641"/>
     <use xlink:href="#ArialMT-61" x="917.089844"/>
     <use xlink:href="#ArialMT-72" x="972.705078"/>
     <use xlink:href="#ArialMT-79" x="1006.005859"/>
    </g>
   </g>
  </g>
 </g>
 <defs>
  <clipPath id="p16ad76599a">
   <rect x="43.04" y="25.49625" width="666.16" height="365.98375"/>
  </clipPath>
 </defs>
</svg>
