<?xml version="1.0" encoding="utf-8" standalone="no"?>
<!DOCTYPE svg PUBLIC "-//W3C//DTD SVG 1.1//EN"
  "http://www.w3.org/Graphics/SVG/1.1/DTD/svg11.dtd">
<svg xmlns:xlink="http://www.w3.org/1999/xlink" width="720pt" height="432pt" viewBox="0 0 720 432" xmlns="http://www.w3.org/2000/svg" version="1.1">
 <metadata>
  <rdf:RDF xmlns:dc="http://purl.org/dc/elements/1.1/" xmlns:cc="http://creativecommons.org/ns#" xmlns:rdf="http://www.w3.org/1999/02/22-rdf-syntax-ns#">
   <cc:Work>
    <dc:type rdf:resource="http://purl.org/dc/dcmitype/StillImage"/>
    <dc:date>2024-07-25T16:09:23.306488</dc:date>
    <dc:format>image/svg+xml</dc:format>
    <dc:creator>
     <cc:Agent>
      <dc:title>Matplotlib v3.8.4, https://matplotlib.org/</dc:title>
     </cc:Agent>
    </dc:creator>
   </cc:Work>
  </rdf:RDF>
 </metadata>
 <defs>
  <style type="text/css">*{stroke-linejoin: round; stroke-linecap: butt}</style>
 </defs>
 <g id="figure_1">
  <g id="patch_1">
   <path d="M 0 432 
L 720 432 
L 720 0 
L 0 0 
z
" style="fill: #ffffff"/>
  </g>
  <g id="axes_1">
   <g id="patch_2">
    <path d="M 43.04 391.48 
L 709.2 391.48 
L 709.2 25.49625 
L 43.04 25.49625 
z
" style="fill: #eaeaf2"/>
   </g>
   <g id="patch_3">
    <path d="M 73.32 391.48 
L 73.32 -18822.666875 
L 93.83603 -18822.666875 
L 93.83603 391.48 
z
" clip-path="url(#pf090562a0c)" style="fill: #ff0000; opacity: 0.5"/>
   </g>
   <g id="patch_4">
    <path d="M 93.83603 391.48 
L 93.83603 -18822.666875 
L 118.970941 -18822.666875 
L 118.970941 391.48 
z
" clip-path="url(#pf090562a0c)" style="fill: #ff8c00; opacity: 0.5"/>
   </g>
   <g id="patch_5">
    <path d="M 118.970941 391.48 
L 118.970941 -18822.666875 
L 157.738411 -18822.666875 
L 157.738411 391.48 
z
" clip-path="url(#pf090562a0c)" style="fill: #ffff00; opacity: 0.5"/>
   </g>
   <g id="patch_6">
    <path d="M 157.738411 391.48 
L 157.738411 -18822.666875 
L 218.343351 -18822.666875 
L 218.343351 391.48 
z
" clip-path="url(#pf090562a0c)" style="fill: #228b22; opacity: 0.5"/>
   </g>
   <g id="patch_7">
    <path d="M 218.343351 391.48 
L 218.343351 -18822.666875 
L 678.92 -18822.666875 
L 678.92 391.48 
z
" clip-path="url(#pf090562a0c)" style="fill: #1e90ff; opacity: 0.5"/>
   </g>
   <g id="matplotlib.axis_1">
    <g id="xtick_1">
     <g id="line2d_1">
      <path d="M 73.32 391.48 
L 73.32 25.49625 
" clip-path="url(#pf090562a0c)" style="fill: none; stroke: #ffffff; stroke-linecap: round"/>
     </g>
     <g id="line2d_2"/>
     <g id="text_1">
      <!-- 0 -->
      <g style="fill: #262626" transform="translate(70.539531 405.637812) scale(0.1 -0.1)">
       <defs>
        <path id="ArialMT-30" d="M 266 2259 
Q 266 3072 433 3567 
Q 600 4063 929 4331 
Q 1259 4600 1759 4600 
Q 2128 4600 2406 4451 
Q 2684 4303 2865 4023 
Q 3047 3744 3150 3342 
Q 3253 2941 3253 2259 
Q 3253 1453 3087 958 
Q 2922 463 2592 192 
Q 2263 -78 1759 -78 
Q 1097 -78 719 397 
Q 266 969 266 2259 
z
M 844 2259 
Q 844 1131 1108 757 
Q 1372 384 1759 384 
Q 2147 384 2411 759 
Q 2675 1134 2675 2259 
Q 2675 3391 2411 3762 
Q 2147 4134 1753 4134 
Q 1366 4134 1134 3806 
Q 844 3388 844 2259 
z
" transform="scale(0.015625)"/>
       </defs>
       <use xlink:href="#ArialMT-30"/>
      </g>
     </g>
    </g>
    <g id="xtick_2">
     <g id="line2d_3">
      <path d="M 164.57221 391.48 
L 164.57221 25.49625 
" clip-path="url(#pf090562a0c)" style="fill: none; stroke: #ffffff; stroke-linecap: round"/>
     </g>
     <g id="line2d_4"/>
     <g id="text_2">
      <!-- 10 -->
      <g style="fill: #262626" transform="translate(159.011272 405.637812) scale(0.1 -0.1)">
       <defs>
        <path id="ArialMT-31" d="M 2384 0 
L 1822 0 
L 1822 3584 
Q 1619 3391 1289 3197 
Q 959 3003 697 2906 
L 697 3450 
Q 1169 3672 1522 3987 
Q 1875 4303 2022 4600 
L 2384 4600 
L 2384 0 
z
" transform="scale(0.015625)"/>
       </defs>
       <use xlink:href="#ArialMT-31"/>
       <use xlink:href="#ArialMT-30" x="55.615234"/>
      </g>
     </g>
    </g>
    <g id="xtick_3">
     <g id="line2d_5">
      <path d="M 255.824419 391.48 
L 255.824419 25.49625 
" clip-path="url(#pf090562a0c)" style="fill: none; stroke: #ffffff; stroke-linecap: round"/>
     </g>
     <g id="line2d_6"/>
     <g id="text_3">
      <!-- 20 -->
      <g style="fill: #262626" transform="translate(250.263482 405.637812) scale(0.1 -0.1)">
       <defs>
        <path id="ArialMT-32" d="M 3222 541 
L 3222 0 
L 194 0 
Q 188 203 259 391 
Q 375 700 629 1000 
Q 884 1300 1366 1694 
Q 2113 2306 2375 2664 
Q 2638 3022 2638 3341 
Q 2638 3675 2398 3904 
Q 2159 4134 1775 4134 
Q 1369 4134 1125 3890 
Q 881 3647 878 3216 
L 300 3275 
Q 359 3922 746 4261 
Q 1134 4600 1788 4600 
Q 2447 4600 2831 4234 
Q 3216 3869 3216 3328 
Q 3216 3053 3103 2787 
Q 2991 2522 2730 2228 
Q 2469 1934 1863 1422 
Q 1356 997 1212 845 
Q 1069 694 975 541 
L 3222 541 
z
" transform="scale(0.015625)"/>
       </defs>
       <use xlink:href="#ArialMT-32"/>
       <use xlink:href="#ArialMT-30" x="55.615234"/>
      </g>
     </g>
    </g>
    <g id="xtick_4">
     <g id="line2d_7">
      <path d="M 347.076629 391.48 
L 347.076629 25.49625 
" clip-path="url(#pf090562a0c)" style="fill: none; stroke: #ffffff; stroke-linecap: round"/>
     </g>
     <g id="line2d_8"/>
     <g id="text_4">
      <!-- 30 -->
      <g style="fill: #262626" transform="translate(341.515692 405.637812) scale(0.1 -0.1)">
       <defs>
        <path id="ArialMT-33" d="M 269 1209 
L 831 1284 
Q 928 806 1161 595 
Q 1394 384 1728 384 
Q 2125 384 2398 659 
Q 2672 934 2672 1341 
Q 2672 1728 2419 1979 
Q 2166 2231 1775 2231 
Q 1616 2231 1378 2169 
L 1441 2663 
Q 1497 2656 1531 2656 
Q 1891 2656 2178 2843 
Q 2466 3031 2466 3422 
Q 2466 3731 2256 3934 
Q 2047 4138 1716 4138 
Q 1388 4138 1169 3931 
Q 950 3725 888 3313 
L 325 3413 
Q 428 3978 793 4289 
Q 1159 4600 1703 4600 
Q 2078 4600 2393 4439 
Q 2709 4278 2876 4000 
Q 3044 3722 3044 3409 
Q 3044 3113 2884 2869 
Q 2725 2625 2413 2481 
Q 2819 2388 3044 2092 
Q 3269 1797 3269 1353 
Q 3269 753 2831 336 
Q 2394 -81 1725 -81 
Q 1122 -81 723 278 
Q 325 638 269 1209 
z
" transform="scale(0.015625)"/>
       </defs>
       <use xlink:href="#ArialMT-33"/>
       <use xlink:href="#ArialMT-30" x="55.615234"/>
      </g>
     </g>
    </g>
    <g id="xtick_5">
     <g id="line2d_9">
      <path d="M 438.328839 391.48 
L 438.328839 25.49625 
" clip-path="url(#pf090562a0c)" style="fill: none; stroke: #ffffff; stroke-linecap: round"/>
     </g>
     <g id="line2d_10"/>
     <g id="text_5">
      <!-- 40 -->
      <g style="fill: #262626" transform="translate(432.767901 405.637812) scale(0.1 -0.1)">
       <defs>
        <path id="ArialMT-34" d="M 2069 0 
L 2069 1097 
L 81 1097 
L 81 1613 
L 2172 4581 
L 2631 4581 
L 2631 1613 
L 3250 1613 
L 3250 1097 
L 2631 1097 
L 2631 0 
L 2069 0 
z
M 2069 1613 
L 2069 3678 
L 634 1613 
L 2069 1613 
z
" transform="scale(0.015625)"/>
       </defs>
       <use xlink:href="#ArialMT-34"/>
       <use xlink:href="#ArialMT-30" x="55.615234"/>
      </g>
     </g>
    </g>
    <g id="xtick_6">
     <g id="line2d_11">
      <path d="M 529.581049 391.48 
L 529.581049 25.49625 
" clip-path="url(#pf090562a0c)" style="fill: none; stroke: #ffffff; stroke-linecap: round"/>
     </g>
     <g id="line2d_12"/>
     <g id="text_6">
      <!-- 50 -->
      <g style="fill: #262626" transform="translate(524.020111 405.637812) scale(0.1 -0.1)">
       <defs>
        <path id="ArialMT-35" d="M 266 1200 
L 856 1250 
Q 922 819 1161 601 
Q 1400 384 1738 384 
Q 2144 384 2425 690 
Q 2706 997 2706 1503 
Q 2706 1984 2436 2262 
Q 2166 2541 1728 2541 
Q 1456 2541 1237 2417 
Q 1019 2294 894 2097 
L 366 2166 
L 809 4519 
L 3088 4519 
L 3088 3981 
L 1259 3981 
L 1013 2750 
Q 1425 3038 1878 3038 
Q 2478 3038 2890 2622 
Q 3303 2206 3303 1553 
Q 3303 931 2941 478 
Q 2500 -78 1738 -78 
Q 1113 -78 717 272 
Q 322 622 266 1200 
z
" transform="scale(0.015625)"/>
       </defs>
       <use xlink:href="#ArialMT-35"/>
       <use xlink:href="#ArialMT-30" x="55.615234"/>
      </g>
     </g>
    </g>
    <g id="xtick_7">
     <g id="line2d_13">
      <path d="M 620.833258 391.48 
L 620.833258 25.49625 
" clip-path="url(#pf090562a0c)" style="fill: none; stroke: #ffffff; stroke-linecap: round"/>
     </g>
     <g id="line2d_14"/>
     <g id="text_7">
      <!-- 60 -->
      <g style="fill: #262626" transform="translate(615.272321 405.637812) scale(0.1 -0.1)">
       <defs>
        <path id="ArialMT-36" d="M 3184 3459 
L 2625 3416 
Q 2550 3747 2413 3897 
Q 2184 4138 1850 4138 
Q 1581 4138 1378 3988 
Q 1113 3794 959 3422 
Q 806 3050 800 2363 
Q 1003 2672 1297 2822 
Q 1591 2972 1913 2972 
Q 2475 2972 2870 2558 
Q 3266 2144 3266 1488 
Q 3266 1056 3080 686 
Q 2894 316 2569 119 
Q 2244 -78 1831 -78 
Q 1128 -78 684 439 
Q 241 956 241 2144 
Q 241 3472 731 4075 
Q 1159 4600 1884 4600 
Q 2425 4600 2770 4297 
Q 3116 3994 3184 3459 
z
M 888 1484 
Q 888 1194 1011 928 
Q 1134 663 1356 523 
Q 1578 384 1822 384 
Q 2178 384 2434 671 
Q 2691 959 2691 1453 
Q 2691 1928 2437 2201 
Q 2184 2475 1800 2475 
Q 1419 2475 1153 2201 
Q 888 1928 888 1484 
z
" transform="scale(0.015625)"/>
       </defs>
       <use xlink:href="#ArialMT-36"/>
       <use xlink:href="#ArialMT-30" x="55.615234"/>
      </g>
     </g>
    </g>
    <g id="text_8">
     <!-- Days since last purchase -->
     <g style="fill: #262626" transform="translate(314.984063 419.498906) scale(0.11 -0.11)">
      <defs>
       <path id="ArialMT-44" d="M 494 0 
L 494 4581 
L 2072 4581 
Q 2606 4581 2888 4516 
Q 3281 4425 3559 4188 
Q 3922 3881 4101 3404 
Q 4281 2928 4281 2316 
Q 4281 1794 4159 1391 
Q 4038 988 3847 723 
Q 3656 459 3429 307 
Q 3203 156 2883 78 
Q 2563 0 2147 0 
L 494 0 
z
M 1100 541 
L 2078 541 
Q 2531 541 2789 625 
Q 3047 709 3200 863 
Q 3416 1078 3536 1442 
Q 3656 1806 3656 2325 
Q 3656 3044 3420 3430 
Q 3184 3816 2847 3947 
Q 2603 4041 2063 4041 
L 1100 4041 
L 1100 541 
z
" transform="scale(0.015625)"/>
       <path id="ArialMT-61" d="M 2588 409 
Q 2275 144 1986 34 
Q 1697 -75 1366 -75 
Q 819 -75 525 192 
Q 231 459 231 875 
Q 231 1119 342 1320 
Q 453 1522 633 1644 
Q 813 1766 1038 1828 
Q 1203 1872 1538 1913 
Q 2219 1994 2541 2106 
Q 2544 2222 2544 2253 
Q 2544 2597 2384 2738 
Q 2169 2928 1744 2928 
Q 1347 2928 1158 2789 
Q 969 2650 878 2297 
L 328 2372 
Q 403 2725 575 2942 
Q 747 3159 1072 3276 
Q 1397 3394 1825 3394 
Q 2250 3394 2515 3294 
Q 2781 3194 2906 3042 
Q 3031 2891 3081 2659 
Q 3109 2516 3109 2141 
L 3109 1391 
Q 3109 606 3145 398 
Q 3181 191 3288 0 
L 2700 0 
Q 2613 175 2588 409 
z
M 2541 1666 
Q 2234 1541 1622 1453 
Q 1275 1403 1131 1340 
Q 988 1278 909 1158 
Q 831 1038 831 891 
Q 831 666 1001 516 
Q 1172 366 1500 366 
Q 1825 366 2078 508 
Q 2331 650 2450 897 
Q 2541 1088 2541 1459 
L 2541 1666 
z
" transform="scale(0.015625)"/>
       <path id="ArialMT-79" d="M 397 -1278 
L 334 -750 
Q 519 -800 656 -800 
Q 844 -800 956 -737 
Q 1069 -675 1141 -563 
Q 1194 -478 1313 -144 
Q 1328 -97 1363 -6 
L 103 3319 
L 709 3319 
L 1400 1397 
Q 1534 1031 1641 628 
Q 1738 1016 1872 1384 
L 2581 3319 
L 3144 3319 
L 1881 -56 
Q 1678 -603 1566 -809 
Q 1416 -1088 1222 -1217 
Q 1028 -1347 759 -1347 
Q 597 -1347 397 -1278 
z
" transform="scale(0.015625)"/>
       <path id="ArialMT-73" d="M 197 991 
L 753 1078 
Q 800 744 1014 566 
Q 1228 388 1613 388 
Q 2000 388 2187 545 
Q 2375 703 2375 916 
Q 2375 1106 2209 1216 
Q 2094 1291 1634 1406 
Q 1016 1563 777 1677 
Q 538 1791 414 1992 
Q 291 2194 291 2438 
Q 291 2659 392 2848 
Q 494 3038 669 3163 
Q 800 3259 1026 3326 
Q 1253 3394 1513 3394 
Q 1903 3394 2198 3281 
Q 2494 3169 2634 2976 
Q 2775 2784 2828 2463 
L 2278 2388 
Q 2241 2644 2061 2787 
Q 1881 2931 1553 2931 
Q 1166 2931 1000 2803 
Q 834 2675 834 2503 
Q 834 2394 903 2306 
Q 972 2216 1119 2156 
Q 1203 2125 1616 2013 
Q 2213 1853 2448 1751 
Q 2684 1650 2818 1456 
Q 2953 1263 2953 975 
Q 2953 694 2789 445 
Q 2625 197 2315 61 
Q 2006 -75 1616 -75 
Q 969 -75 630 194 
Q 291 463 197 991 
z
" transform="scale(0.015625)"/>
       <path id="ArialMT-20" transform="scale(0.015625)"/>
       <path id="ArialMT-69" d="M 425 3934 
L 425 4581 
L 988 4581 
L 988 3934 
L 425 3934 
z
M 425 0 
L 425 3319 
L 988 3319 
L 988 0 
L 425 0 
z
" transform="scale(0.015625)"/>
       <path id="ArialMT-6e" d="M 422 0 
L 422 3319 
L 928 3319 
L 928 2847 
Q 1294 3394 1984 3394 
Q 2284 3394 2536 3286 
Q 2788 3178 2913 3003 
Q 3038 2828 3088 2588 
Q 3119 2431 3119 2041 
L 3119 0 
L 2556 0 
L 2556 2019 
Q 2556 2363 2490 2533 
Q 2425 2703 2258 2804 
Q 2091 2906 1866 2906 
Q 1506 2906 1245 2678 
Q 984 2450 984 1813 
L 984 0 
L 422 0 
z
" transform="scale(0.015625)"/>
       <path id="ArialMT-63" d="M 2588 1216 
L 3141 1144 
Q 3050 572 2676 248 
Q 2303 -75 1759 -75 
Q 1078 -75 664 370 
Q 250 816 250 1647 
Q 250 2184 428 2587 
Q 606 2991 970 3192 
Q 1334 3394 1763 3394 
Q 2303 3394 2647 3120 
Q 2991 2847 3088 2344 
L 2541 2259 
Q 2463 2594 2264 2762 
Q 2066 2931 1784 2931 
Q 1359 2931 1093 2626 
Q 828 2322 828 1663 
Q 828 994 1084 691 
Q 1341 388 1753 388 
Q 2084 388 2306 591 
Q 2528 794 2588 1216 
z
" transform="scale(0.015625)"/>
       <path id="ArialMT-65" d="M 2694 1069 
L 3275 997 
Q 3138 488 2766 206 
Q 2394 -75 1816 -75 
Q 1088 -75 661 373 
Q 234 822 234 1631 
Q 234 2469 665 2931 
Q 1097 3394 1784 3394 
Q 2450 3394 2872 2941 
Q 3294 2488 3294 1666 
Q 3294 1616 3291 1516 
L 816 1516 
Q 847 969 1125 678 
Q 1403 388 1819 388 
Q 2128 388 2347 550 
Q 2566 713 2694 1069 
z
M 847 1978 
L 2700 1978 
Q 2663 2397 2488 2606 
Q 2219 2931 1791 2931 
Q 1403 2931 1139 2672 
Q 875 2413 847 1978 
z
" transform="scale(0.015625)"/>
       <path id="ArialMT-6c" d="M 409 0 
L 409 4581 
L 972 4581 
L 972 0 
L 409 0 
z
" transform="scale(0.015625)"/>
       <path id="ArialMT-74" d="M 1650 503 
L 1731 6 
Q 1494 -44 1306 -44 
Q 1000 -44 831 53 
Q 663 150 594 308 
Q 525 466 525 972 
L 525 2881 
L 113 2881 
L 113 3319 
L 525 3319 
L 525 4141 
L 1084 4478 
L 1084 3319 
L 1650 3319 
L 1650 2881 
L 1084 2881 
L 1084 941 
Q 1084 700 1114 631 
Q 1144 563 1211 522 
Q 1278 481 1403 481 
Q 1497 481 1650 503 
z
" transform="scale(0.015625)"/>
       <path id="ArialMT-70" d="M 422 -1272 
L 422 3319 
L 934 3319 
L 934 2888 
Q 1116 3141 1344 3267 
Q 1572 3394 1897 3394 
Q 2322 3394 2647 3175 
Q 2972 2956 3137 2557 
Q 3303 2159 3303 1684 
Q 3303 1175 3120 767 
Q 2938 359 2589 142 
Q 2241 -75 1856 -75 
Q 1575 -75 1351 44 
Q 1128 163 984 344 
L 984 -1272 
L 422 -1272 
z
M 931 1641 
Q 931 1000 1190 694 
Q 1450 388 1819 388 
Q 2194 388 2461 705 
Q 2728 1022 2728 1688 
Q 2728 2322 2467 2637 
Q 2206 2953 1844 2953 
Q 1484 2953 1207 2617 
Q 931 2281 931 1641 
z
" transform="scale(0.015625)"/>
       <path id="ArialMT-75" d="M 2597 0 
L 2597 488 
Q 2209 -75 1544 -75 
Q 1250 -75 995 37 
Q 741 150 617 320 
Q 494 491 444 738 
Q 409 903 409 1263 
L 409 3319 
L 972 3319 
L 972 1478 
Q 972 1038 1006 884 
Q 1059 663 1231 536 
Q 1403 409 1656 409 
Q 1909 409 2131 539 
Q 2353 669 2445 892 
Q 2538 1116 2538 1541 
L 2538 3319 
L 3100 3319 
L 3100 0 
L 2597 0 
z
" transform="scale(0.015625)"/>
       <path id="ArialMT-72" d="M 416 0 
L 416 3319 
L 922 3319 
L 922 2816 
Q 1116 3169 1280 3281 
Q 1444 3394 1641 3394 
Q 1925 3394 2219 3213 
L 2025 2691 
Q 1819 2813 1613 2813 
Q 1428 2813 1281 2702 
Q 1134 2591 1072 2394 
Q 978 2094 978 1738 
L 978 0 
L 416 0 
z
" transform="scale(0.015625)"/>
       <path id="ArialMT-68" d="M 422 0 
L 422 4581 
L 984 4581 
L 984 2938 
Q 1378 3394 1978 3394 
Q 2347 3394 2619 3248 
Q 2891 3103 3008 2847 
Q 3125 2591 3125 2103 
L 3125 0 
L 2563 0 
L 2563 2103 
Q 2563 2525 2380 2717 
Q 2197 2909 1863 2909 
Q 1613 2909 1392 2779 
Q 1172 2650 1078 2428 
Q 984 2206 984 1816 
L 984 0 
L 422 0 
z
" transform="scale(0.015625)"/>
      </defs>
      <use xlink:href="#ArialMT-44"/>
      <use xlink:href="#ArialMT-61" x="72.216797"/>
      <use xlink:href="#ArialMT-79" x="127.832031"/>
      <use xlink:href="#ArialMT-73" x="177.832031"/>
      <use xlink:href="#ArialMT-20" x="227.832031"/>
      <use xlink:href="#ArialMT-73" x="255.615234"/>
      <use xlink:href="#ArialMT-69" x="305.615234"/>
      <use xlink:href="#ArialMT-6e" x="327.832031"/>
      <use xlink:href="#ArialMT-63" x="383.447266"/>
      <use xlink:href="#ArialMT-65" x="433.447266"/>
      <use xlink:href="#ArialMT-20" x="489.0625"/>
      <use xlink:href="#ArialMT-6c" x="516.845703"/>
      <use xlink:href="#ArialMT-61" x="539.0625"/>
      <use xlink:href="#ArialMT-73" x="594.677734"/>
      <use xlink:href="#ArialMT-74" x="644.677734"/>
      <use xlink:href="#ArialMT-20" x="672.460938"/>
      <use xlink:href="#ArialMT-70" x="700.244141"/>
      <use xlink:href="#ArialMT-75" x="755.859375"/>
      <use xlink:href="#ArialMT-72" x="811.474609"/>
      <use xlink:href="#ArialMT-63" x="844.775391"/>
      <use xlink:href="#ArialMT-68" x="894.775391"/>
      <use xlink:href="#ArialMT-61" x="950.390625"/>
      <use xlink:href="#ArialMT-73" x="1006.005859"/>
      <use xlink:href="#ArialMT-65" x="1056.005859"/>
     </g>
    </g>
   </g>
   <g id="matplotlib.axis_2">
    <g id="ytick_1">
     <g id="line2d_15">
      <path d="M 43.04 391.48 
L 709.2 391.48 
" clip-path="url(#pf090562a0c)" style="fill: none; stroke: #ffffff; stroke-linecap: round"/>
     </g>
     <g id="line2d_16"/>
     <g id="text_9">
      <!-- 0 -->
      <g style="fill: #262626" transform="translate(30.479062 395.058906) scale(0.1 -0.1)">
       <use xlink:href="#ArialMT-30"/>
      </g>
     </g>
    </g>
    <g id="ytick_2">
     <g id="line2d_17">
      <path d="M 43.04 321.76881 
L 709.2 321.76881 
" clip-path="url(#pf090562a0c)" style="fill: none; stroke: #ffffff; stroke-linecap: round"/>
     </g>
     <g id="line2d_18"/>
     <g id="text_10">
      <!-- 10 -->
      <g style="fill: #262626" transform="translate(24.918125 325.347716) scale(0.1 -0.1)">
       <use xlink:href="#ArialMT-31"/>
       <use xlink:href="#ArialMT-30" x="55.615234"/>
      </g>
     </g>
    </g>
    <g id="ytick_3">
     <g id="line2d_19">
      <path d="M 43.04 252.057619 
L 709.2 252.057619 
" clip-path="url(#pf090562a0c)" style="fill: none; stroke: #ffffff; stroke-linecap: round"/>
     </g>
     <g id="line2d_20"/>
     <g id="text_11">
      <!-- 20 -->
      <g style="fill: #262626" transform="translate(24.918125 255.636525) scale(0.1 -0.1)">
       <use xlink:href="#ArialMT-32"/>
       <use xlink:href="#ArialMT-30" x="55.615234"/>
      </g>
     </g>
    </g>
    <g id="ytick_4">
     <g id="line2d_21">
      <path d="M 43.04 182.346429 
L 709.2 182.346429 
" clip-path="url(#pf090562a0c)" style="fill: none; stroke: #ffffff; stroke-linecap: round"/>
     </g>
     <g id="line2d_22"/>
     <g id="text_12">
      <!-- 30 -->
      <g style="fill: #262626" transform="translate(24.918125 185.925335) scale(0.1 -0.1)">
       <use xlink:href="#ArialMT-33"/>
       <use xlink:href="#ArialMT-30" x="55.615234"/>
      </g>
     </g>
    </g>
    <g id="ytick_5">
     <g id="line2d_23">
      <path d="M 43.04 112.635238 
L 709.2 112.635238 
" clip-path="url(#pf090562a0c)" style="fill: none; stroke: #ffffff; stroke-linecap: round"/>
     </g>
     <g id="line2d_24"/>
     <g id="text_13">
      <!-- 40 -->
      <g style="fill: #262626" transform="translate(24.918125 116.214144) scale(0.1 -0.1)">
       <use xlink:href="#ArialMT-34"/>
       <use xlink:href="#ArialMT-30" x="55.615234"/>
      </g>
     </g>
    </g>
    <g id="ytick_6">
     <g id="line2d_25">
      <path d="M 43.04 42.924048 
L 709.2 42.924048 
" clip-path="url(#pf090562a0c)" style="fill: none; stroke: #ffffff; stroke-linecap: round"/>
     </g>
     <g id="line2d_26"/>
     <g id="text_14">
      <!-- 50 -->
      <g style="fill: #262626" transform="translate(24.918125 46.502954) scale(0.1 -0.1)">
       <use xlink:href="#ArialMT-35"/>
       <use xlink:href="#ArialMT-30" x="55.615234"/>
      </g>
     </g>
    </g>
    <g id="text_15">
     <!-- Customer count -->
     <g style="fill: #262626" transform="translate(18.731875 247.307813) rotate(-90) scale(0.11 -0.11)">
      <defs>
       <path id="ArialMT-43" d="M 3763 1606 
L 4369 1453 
Q 4178 706 3683 314 
Q 3188 -78 2472 -78 
Q 1731 -78 1267 223 
Q 803 525 561 1097 
Q 319 1669 319 2325 
Q 319 3041 592 3573 
Q 866 4106 1370 4382 
Q 1875 4659 2481 4659 
Q 3169 4659 3637 4309 
Q 4106 3959 4291 3325 
L 3694 3184 
Q 3534 3684 3231 3912 
Q 2928 4141 2469 4141 
Q 1941 4141 1586 3887 
Q 1231 3634 1087 3207 
Q 944 2781 944 2328 
Q 944 1744 1114 1308 
Q 1284 872 1643 656 
Q 2003 441 2422 441 
Q 2931 441 3284 734 
Q 3638 1028 3763 1606 
z
" transform="scale(0.015625)"/>
       <path id="ArialMT-6f" d="M 213 1659 
Q 213 2581 725 3025 
Q 1153 3394 1769 3394 
Q 2453 3394 2887 2945 
Q 3322 2497 3322 1706 
Q 3322 1066 3130 698 
Q 2938 331 2570 128 
Q 2203 -75 1769 -75 
Q 1072 -75 642 372 
Q 213 819 213 1659 
z
M 791 1659 
Q 791 1022 1069 705 
Q 1347 388 1769 388 
Q 2188 388 2466 706 
Q 2744 1025 2744 1678 
Q 2744 2294 2464 2611 
Q 2184 2928 1769 2928 
Q 1347 2928 1069 2612 
Q 791 2297 791 1659 
z
" transform="scale(0.015625)"/>
       <path id="ArialMT-6d" d="M 422 0 
L 422 3319 
L 925 3319 
L 925 2853 
Q 1081 3097 1340 3245 
Q 1600 3394 1931 3394 
Q 2300 3394 2536 3241 
Q 2772 3088 2869 2813 
Q 3263 3394 3894 3394 
Q 4388 3394 4653 3120 
Q 4919 2847 4919 2278 
L 4919 0 
L 4359 0 
L 4359 2091 
Q 4359 2428 4304 2576 
Q 4250 2725 4106 2815 
Q 3963 2906 3769 2906 
Q 3419 2906 3187 2673 
Q 2956 2441 2956 1928 
L 2956 0 
L 2394 0 
L 2394 2156 
Q 2394 2531 2256 2718 
Q 2119 2906 1806 2906 
Q 1569 2906 1367 2781 
Q 1166 2656 1075 2415 
Q 984 2175 984 1722 
L 984 0 
L 422 0 
z
" transform="scale(0.015625)"/>
      </defs>
      <use xlink:href="#ArialMT-43"/>
      <use xlink:href="#ArialMT-75" x="72.216797"/>
      <use xlink:href="#ArialMT-73" x="127.832031"/>
      <use xlink:href="#ArialMT-74" x="177.832031"/>
      <use xlink:href="#ArialMT-6f" x="205.615234"/>
      <use xlink:href="#ArialMT-6d" x="261.230469"/>
      <use xlink:href="#ArialMT-65" x="344.53125"/>
      <use xlink:href="#ArialMT-72" x="400.146484"/>
      <use xlink:href="#ArialMT-20" x="433.447266"/>
      <use xlink:href="#ArialMT-63" x="461.230469"/>
      <use xlink:href="#ArialMT-6f" x="511.230469"/>
      <use xlink:href="#ArialMT-75" x="566.845703"/>
      <use xlink:href="#ArialMT-6e" x="622.460938"/>
      <use xlink:href="#ArialMT-74" x="678.076172"/>
     </g>
    </g>
   </g>
   <g id="patch_8">
    <path d="M 73.332292 391.48 
L 80.541669 391.48 
L 80.541669 42.924048 
L 73.332292 42.924048 
z
" clip-path="url(#pf090562a0c)" style="fill: #666666"/>
   </g>
   <g id="patch_9">
    <path d="M 80.541669 391.48 
L 87.751047 391.48 
L 87.751047 161.433071 
L 80.541669 161.433071 
z
" clip-path="url(#pf090562a0c)" style="fill: #666666"/>
   </g>
   <g id="patch_10">
    <path d="M 87.751047 391.48 
L 94.960424 391.48 
L 94.960424 238.115381 
L 87.751047 238.115381 
z
" clip-path="url(#pf090562a0c)" style="fill: #666666"/>
   </g>
   <g id="patch_11">
    <path d="M 94.960424 391.48 
L 102.169802 391.48 
L 102.169802 231.144262 
L 94.960424 231.144262 
z
" clip-path="url(#pf090562a0c)" style="fill: #666666"/>
   </g>
   <g id="patch_12">
    <path d="M 102.169802 391.48 
L 109.379179 391.48 
L 109.379179 140.519714 
L 102.169802 140.519714 
z
" clip-path="url(#pf090562a0c)" style="fill: #666666"/>
   </g>
   <g id="patch_13">
    <path d="M 109.379179 391.48 
L 116.588557 391.48 
L 116.588557 203.259786 
L 109.379179 203.259786 
z
" clip-path="url(#pf090562a0c)" style="fill: #666666"/>
   </g>
   <g id="patch_14">
    <path d="M 116.588557 391.48 
L 123.797934 391.48 
L 123.797934 224.173143 
L 116.588557 224.173143 
z
" clip-path="url(#pf090562a0c)" style="fill: #666666"/>
   </g>
   <g id="patch_15">
    <path d="M 123.797934 391.48 
L 131.007312 391.48 
L 131.007312 231.144262 
L 123.797934 231.144262 
z
" clip-path="url(#pf090562a0c)" style="fill: #666666"/>
   </g>
   <g id="patch_16">
    <path d="M 131.007312 391.48 
L 138.216689 391.48 
L 138.216689 224.173143 
L 131.007312 224.173143 
z
" clip-path="url(#pf090562a0c)" style="fill: #666666"/>
   </g>
   <g id="patch_17">
    <path d="M 138.216689 391.48 
L 145.426067 391.48 
L 145.426067 265.999857 
L 138.216689 265.999857 
z
" clip-path="url(#pf090562a0c)" style="fill: #666666"/>
   </g>
   <g id="patch_18">
    <path d="M 145.426067 391.48 
L 152.635444 391.48 
L 152.635444 307.826571 
L 145.426067 307.826571 
z
" clip-path="url(#pf090562a0c)" style="fill: #666666"/>
   </g>
   <g id="patch_19">
    <path d="M 152.635444 391.48 
L 159.844822 391.48 
L 159.844822 307.826571 
L 152.635444 307.826571 
z
" clip-path="url(#pf090562a0c)" style="fill: #666666"/>
   </g>
   <g id="patch_20">
    <path d="M 159.844822 391.48 
L 167.054199 391.48 
L 167.054199 279.942095 
L 159.844822 279.942095 
z
" clip-path="url(#pf090562a0c)" style="fill: #666666"/>
   </g>
   <g id="patch_21">
    <path d="M 167.054199 391.48 
L 174.263577 391.48 
L 174.263577 293.884333 
L 167.054199 293.884333 
z
" clip-path="url(#pf090562a0c)" style="fill: #666666"/>
   </g>
   <g id="patch_22">
    <path d="M 174.263577 391.48 
L 181.472954 391.48 
L 181.472954 293.884333 
L 174.263577 293.884333 
z
" clip-path="url(#pf090562a0c)" style="fill: #666666"/>
   </g>
   <g id="patch_23">
    <path d="M 181.472954 391.48 
L 188.682332 391.48 
L 188.682332 307.826571 
L 181.472954 307.826571 
z
" clip-path="url(#pf090562a0c)" style="fill: #666666"/>
   </g>
   <g id="patch_24">
    <path d="M 188.682332 391.48 
L 195.891709 391.48 
L 195.891709 349.653286 
L 188.682332 349.653286 
z
" clip-path="url(#pf090562a0c)" style="fill: #666666"/>
   </g>
   <g id="patch_25">
    <path d="M 195.891709 391.48 
L 203.101086 391.48 
L 203.101086 328.739929 
L 195.891709 328.739929 
z
" clip-path="url(#pf090562a0c)" style="fill: #666666"/>
   </g>
   <g id="patch_26">
    <path d="M 203.101086 391.48 
L 210.310464 391.48 
L 210.310464 293.884333 
L 203.101086 293.884333 
z
" clip-path="url(#pf090562a0c)" style="fill: #666666"/>
   </g>
   <g id="patch_27">
    <path d="M 210.310464 391.48 
L 217.519841 391.48 
L 217.519841 328.739929 
L 210.310464 328.739929 
z
" clip-path="url(#pf090562a0c)" style="fill: #666666"/>
   </g>
   <g id="patch_28">
    <path d="M 217.519841 391.48 
L 224.729219 391.48 
L 224.729219 328.739929 
L 217.519841 328.739929 
z
" clip-path="url(#pf090562a0c)" style="fill: #666666"/>
   </g>
   <g id="patch_29">
    <path d="M 224.729219 391.48 
L 231.938596 391.48 
L 231.938596 370.566643 
L 224.729219 370.566643 
z
" clip-path="url(#pf090562a0c)" style="fill: #666666"/>
   </g>
   <g id="patch_30">
    <path d="M 231.938596 391.48 
L 239.147974 391.48 
L 239.147974 335.711048 
L 231.938596 335.711048 
z
" clip-path="url(#pf090562a0c)" style="fill: #666666"/>
   </g>
   <g id="patch_31">
    <path d="M 239.147974 391.48 
L 246.357351 391.48 
L 246.357351 335.711048 
L 239.147974 335.711048 
z
" clip-path="url(#pf090562a0c)" style="fill: #666666"/>
   </g>
   <g id="patch_32">
    <path d="M 246.357351 391.48 
L 253.566729 391.48 
L 253.566729 356.624405 
L 246.357351 356.624405 
z
" clip-path="url(#pf090562a0c)" style="fill: #666666"/>
   </g>
   <g id="patch_33">
    <path d="M 253.566729 391.48 
L 260.776106 391.48 
L 260.776106 377.537762 
L 253.566729 377.537762 
z
" clip-path="url(#pf090562a0c)" style="fill: #666666"/>
   </g>
   <g id="patch_34">
    <path d="M 260.776106 391.48 
L 267.985484 391.48 
L 267.985484 370.566643 
L 260.776106 370.566643 
z
" clip-path="url(#pf090562a0c)" style="fill: #666666"/>
   </g>
   <g id="patch_35">
    <path d="M 267.985484 391.48 
L 275.194861 391.48 
L 275.194861 370.566643 
L 267.985484 370.566643 
z
" clip-path="url(#pf090562a0c)" style="fill: #666666"/>
   </g>
   <g id="patch_36">
    <path d="M 275.194861 391.48 
L 282.404239 391.48 
L 282.404239 342.682167 
L 275.194861 342.682167 
z
" clip-path="url(#pf090562a0c)" style="fill: #666666"/>
   </g>
   <g id="patch_37">
    <path d="M 282.404239 391.48 
L 289.613616 391.48 
L 289.613616 370.566643 
L 282.404239 370.566643 
z
" clip-path="url(#pf090562a0c)" style="fill: #666666"/>
   </g>
   <g id="patch_38">
    <path d="M 289.613616 391.48 
L 296.822994 391.48 
L 296.822994 363.595524 
L 289.613616 363.595524 
z
" clip-path="url(#pf090562a0c)" style="fill: #666666"/>
   </g>
   <g id="patch_39">
    <path d="M 296.822994 391.48 
L 304.032371 391.48 
L 304.032371 370.566643 
L 296.822994 370.566643 
z
" clip-path="url(#pf090562a0c)" style="fill: #666666"/>
   </g>
   <g id="patch_40">
    <path d="M 304.032371 391.48 
L 311.241749 391.48 
L 311.241749 384.508881 
L 304.032371 384.508881 
z
" clip-path="url(#pf090562a0c)" style="fill: #666666"/>
   </g>
   <g id="patch_41">
    <path d="M 311.241749 391.48 
L 318.451126 391.48 
L 318.451126 370.566643 
L 311.241749 370.566643 
z
" clip-path="url(#pf090562a0c)" style="fill: #666666"/>
   </g>
   <g id="patch_42">
    <path d="M 318.451126 391.48 
L 325.660504 391.48 
L 325.660504 391.48 
L 318.451126 391.48 
z
" clip-path="url(#pf090562a0c)" style="fill: #666666"/>
   </g>
   <g id="patch_43">
    <path d="M 325.660504 391.48 
L 332.869881 391.48 
L 332.869881 391.48 
L 325.660504 391.48 
z
" clip-path="url(#pf090562a0c)" style="fill: #666666"/>
   </g>
   <g id="patch_44">
    <path d="M 332.869881 391.48 
L 340.079259 391.48 
L 340.079259 370.566643 
L 332.869881 370.566643 
z
" clip-path="url(#pf090562a0c)" style="fill: #666666"/>
   </g>
   <g id="patch_45">
    <path d="M 340.079259 391.48 
L 347.288636 391.48 
L 347.288636 377.537762 
L 340.079259 377.537762 
z
" clip-path="url(#pf090562a0c)" style="fill: #666666"/>
   </g>
   <g id="patch_46">
    <path d="M 347.288636 391.48 
L 354.498014 391.48 
L 354.498014 377.537762 
L 347.288636 377.537762 
z
" clip-path="url(#pf090562a0c)" style="fill: #666666"/>
   </g>
   <g id="patch_47">
    <path d="M 354.498014 391.48 
L 361.707391 391.48 
L 361.707391 384.508881 
L 354.498014 384.508881 
z
" clip-path="url(#pf090562a0c)" style="fill: #666666"/>
   </g>
   <g id="patch_48">
    <path d="M 361.707391 391.48 
L 368.916768 391.48 
L 368.916768 349.653286 
L 361.707391 349.653286 
z
" clip-path="url(#pf090562a0c)" style="fill: #666666"/>
   </g>
   <g id="patch_49">
    <path d="M 368.916768 391.48 
L 376.126146 391.48 
L 376.126146 370.566643 
L 368.916768 370.566643 
z
" clip-path="url(#pf090562a0c)" style="fill: #666666"/>
   </g>
   <g id="patch_50">
    <path d="M 376.126146 391.48 
L 383.335523 391.48 
L 383.335523 356.624405 
L 376.126146 356.624405 
z
" clip-path="url(#pf090562a0c)" style="fill: #666666"/>
   </g>
   <g id="patch_51">
    <path d="M 383.335523 391.48 
L 390.544901 391.48 
L 390.544901 377.537762 
L 383.335523 377.537762 
z
" clip-path="url(#pf090562a0c)" style="fill: #666666"/>
   </g>
   <g id="patch_52">
    <path d="M 390.544901 391.48 
L 397.754278 391.48 
L 397.754278 391.48 
L 390.544901 391.48 
z
" clip-path="url(#pf090562a0c)" style="fill: #666666"/>
   </g>
   <g id="patch_53">
    <path d="M 397.754278 391.48 
L 404.963656 391.48 
L 404.963656 391.48 
L 397.754278 391.48 
z
" clip-path="url(#pf090562a0c)" style="fill: #666666"/>
   </g>
   <g id="patch_54">
    <path d="M 404.963656 391.48 
L 412.173033 391.48 
L 412.173033 391.48 
L 404.963656 391.48 
z
" clip-path="url(#pf090562a0c)" style="fill: #666666"/>
   </g>
   <g id="patch_55">
    <path d="M 412.173033 391.48 
L 419.382411 391.48 
L 419.382411 384.508881 
L 412.173033 384.508881 
z
" clip-path="url(#pf090562a0c)" style="fill: #666666"/>
   </g>
   <g id="patch_56">
    <path d="M 419.382411 391.48 
L 426.591788 391.48 
L 426.591788 377.537762 
L 419.382411 377.537762 
z
" clip-path="url(#pf090562a0c)" style="fill: #666666"/>
   </g>
   <g id="patch_57">
    <path d="M 426.591788 391.48 
L 433.801166 391.48 
L 433.801166 384.508881 
L 426.591788 384.508881 
z
" clip-path="url(#pf090562a0c)" style="fill: #666666"/>
   </g>
   <g id="patch_58">
    <path d="M 433.801166 391.48 
L 441.010543 391.48 
L 441.010543 384.508881 
L 433.801166 384.508881 
z
" clip-path="url(#pf090562a0c)" style="fill: #666666"/>
   </g>
   <g id="patch_59">
    <path d="M 441.010543 391.48 
L 448.219921 391.48 
L 448.219921 363.595524 
L 441.010543 363.595524 
z
" clip-path="url(#pf090562a0c)" style="fill: #666666"/>
   </g>
   <g id="patch_60">
    <path d="M 448.219921 391.48 
L 455.429298 391.48 
L 455.429298 391.48 
L 448.219921 391.48 
z
" clip-path="url(#pf090562a0c)" style="fill: #666666"/>
   </g>
   <g id="patch_61">
    <path d="M 455.429298 391.48 
L 462.638676 391.48 
L 462.638676 384.508881 
L 455.429298 384.508881 
z
" clip-path="url(#pf090562a0c)" style="fill: #666666"/>
   </g>
   <g id="patch_62">
    <path d="M 462.638676 391.48 
L 469.848053 391.48 
L 469.848053 391.48 
L 462.638676 391.48 
z
" clip-path="url(#pf090562a0c)" style="fill: #666666"/>
   </g>
   <g id="patch_63">
    <path d="M 469.848053 391.48 
L 477.057431 391.48 
L 477.057431 391.48 
L 469.848053 391.48 
z
" clip-path="url(#pf090562a0c)" style="fill: #666666"/>
   </g>
   <g id="patch_64">
    <path d="M 477.057431 391.48 
L 484.266808 391.48 
L 484.266808 391.48 
L 477.057431 391.48 
z
" clip-path="url(#pf090562a0c)" style="fill: #666666"/>
   </g>
   <g id="patch_65">
    <path d="M 484.266808 391.48 
L 491.476186 391.48 
L 491.476186 384.508881 
L 484.266808 384.508881 
z
" clip-path="url(#pf090562a0c)" style="fill: #666666"/>
   </g>
   <g id="patch_66">
    <path d="M 491.476186 391.48 
L 498.685563 391.48 
L 498.685563 391.48 
L 491.476186 391.48 
z
" clip-path="url(#pf090562a0c)" style="fill: #666666"/>
   </g>
   <g id="patch_67">
    <path d="M 498.685563 391.48 
L 505.894941 391.48 
L 505.894941 391.48 
L 498.685563 391.48 
z
" clip-path="url(#pf090562a0c)" style="fill: #666666"/>
   </g>
   <g id="patch_68">
    <path d="M 505.894941 391.48 
L 513.104318 391.48 
L 513.104318 391.48 
L 505.894941 391.48 
z
" clip-path="url(#pf090562a0c)" style="fill: #666666"/>
   </g>
   <g id="patch_69">
    <path d="M 513.104318 391.48 
L 520.313695 391.48 
L 520.313695 384.508881 
L 513.104318 384.508881 
z
" clip-path="url(#pf090562a0c)" style="fill: #666666"/>
   </g>
   <g id="patch_70">
    <path d="M 520.313695 391.48 
L 527.523073 391.48 
L 527.523073 391.48 
L 520.313695 391.48 
z
" clip-path="url(#pf090562a0c)" style="fill: #666666"/>
   </g>
   <g id="patch_71">
    <path d="M 527.523073 391.48 
L 534.73245 391.48 
L 534.73245 391.48 
L 527.523073 391.48 
z
" clip-path="url(#pf090562a0c)" style="fill: #666666"/>
   </g>
   <g id="patch_72">
    <path d="M 534.73245 391.48 
L 541.941828 391.48 
L 541.941828 384.508881 
L 534.73245 384.508881 
z
" clip-path="url(#pf090562a0c)" style="fill: #666666"/>
   </g>
   <g id="patch_73">
    <path d="M 541.941828 391.48 
L 549.151205 391.48 
L 549.151205 391.48 
L 541.941828 391.48 
z
" clip-path="url(#pf090562a0c)" style="fill: #666666"/>
   </g>
   <g id="patch_74">
    <path d="M 549.151205 391.48 
L 556.360583 391.48 
L 556.360583 384.508881 
L 549.151205 384.508881 
z
" clip-path="url(#pf090562a0c)" style="fill: #666666"/>
   </g>
   <g id="patch_75">
    <path d="M 556.360583 391.48 
L 563.56996 391.48 
L 563.56996 391.48 
L 556.360583 391.48 
z
" clip-path="url(#pf090562a0c)" style="fill: #666666"/>
   </g>
   <g id="patch_76">
    <path d="M 563.56996 391.48 
L 570.779338 391.48 
L 570.779338 384.508881 
L 563.56996 384.508881 
z
" clip-path="url(#pf090562a0c)" style="fill: #666666"/>
   </g>
   <g id="patch_77">
    <path d="M 570.779338 391.48 
L 577.988715 391.48 
L 577.988715 391.48 
L 570.779338 391.48 
z
" clip-path="url(#pf090562a0c)" style="fill: #666666"/>
   </g>
   <g id="patch_78">
    <path d="M 577.988715 391.48 
L 585.198093 391.48 
L 585.198093 391.48 
L 577.988715 391.48 
z
" clip-path="url(#pf090562a0c)" style="fill: #666666"/>
   </g>
   <g id="patch_79">
    <path d="M 585.198093 391.48 
L 592.40747 391.48 
L 592.40747 391.48 
L 585.198093 391.48 
z
" clip-path="url(#pf090562a0c)" style="fill: #666666"/>
   </g>
   <g id="patch_80">
    <path d="M 592.40747 391.48 
L 599.616848 391.48 
L 599.616848 391.48 
L 592.40747 391.48 
z
" clip-path="url(#pf090562a0c)" style="fill: #666666"/>
   </g>
   <g id="patch_81">
    <path d="M 599.616848 391.48 
L 606.826225 391.48 
L 606.826225 391.48 
L 599.616848 391.48 
z
" clip-path="url(#pf090562a0c)" style="fill: #666666"/>
   </g>
   <g id="patch_82">
    <path d="M 606.826225 391.48 
L 614.035603 391.48 
L 614.035603 391.48 
L 606.826225 391.48 
z
" clip-path="url(#pf090562a0c)" style="fill: #666666"/>
   </g>
   <g id="patch_83">
    <path d="M 614.035603 391.48 
L 621.24498 391.48 
L 621.24498 391.48 
L 614.035603 391.48 
z
" clip-path="url(#pf090562a0c)" style="fill: #666666"/>
   </g>
   <g id="patch_84">
    <path d="M 621.24498 391.48 
L 628.454358 391.48 
L 628.454358 391.48 
L 621.24498 391.48 
z
" clip-path="url(#pf090562a0c)" style="fill: #666666"/>
   </g>
   <g id="patch_85">
    <path d="M 628.454358 391.48 
L 635.663735 391.48 
L 635.663735 391.48 
L 628.454358 391.48 
z
" clip-path="url(#pf090562a0c)" style="fill: #666666"/>
   </g>
   <g id="patch_86">
    <path d="M 635.663735 391.48 
L 642.873113 391.48 
L 642.873113 391.48 
L 635.663735 391.48 
z
" clip-path="url(#pf090562a0c)" style="fill: #666666"/>
   </g>
   <g id="patch_87">
    <path d="M 642.873113 391.48 
L 650.08249 391.48 
L 650.08249 384.508881 
L 642.873113 384.508881 
z
" clip-path="url(#pf090562a0c)" style="fill: #666666"/>
   </g>
   <g id="patch_88">
    <path d="M 43.04 391.48 
L 43.04 25.49625 
" style="fill: none"/>
   </g>
   <g id="patch_89">
    <path d="M 709.2 391.48 
L 709.2 25.49625 
" style="fill: none"/>
   </g>
   <g id="patch_90">
    <path d="M 43.04 391.48 
L 709.2 391.48 
" style="fill: none"/>
   </g>
   <g id="patch_91">
    <path d="M 43.04 25.49625 
L 709.2 25.49625 
" style="fill: none"/>
   </g>
   <g id="text_16">
    <!-- Distribution of recency -->
    <g style="fill: #262626" transform="translate(316.765 19.49625) scale(0.12 -0.12)">
     <defs>
      <path id="ArialMT-62" d="M 941 0 
L 419 0 
L 419 4581 
L 981 4581 
L 981 2947 
Q 1338 3394 1891 3394 
Q 2197 3394 2470 3270 
Q 2744 3147 2920 2923 
Q 3097 2700 3197 2384 
Q 3297 2069 3297 1709 
Q 3297 856 2875 390 
Q 2453 -75 1863 -75 
Q 1275 -75 941 416 
L 941 0 
z
M 934 1684 
Q 934 1088 1097 822 
Q 1363 388 1816 388 
Q 2184 388 2453 708 
Q 2722 1028 2722 1663 
Q 2722 2313 2464 2622 
Q 2206 2931 1841 2931 
Q 1472 2931 1203 2611 
Q 934 2291 934 1684 
z
" transform="scale(0.015625)"/>
      <path id="ArialMT-66" d="M 556 0 
L 556 2881 
L 59 2881 
L 59 3319 
L 556 3319 
L 556 3672 
Q 556 4006 616 4169 
Q 697 4388 901 4523 
Q 1106 4659 1475 4659 
Q 1713 4659 2000 4603 
L 1916 4113 
Q 1741 4144 1584 4144 
Q 1328 4144 1222 4034 
Q 1116 3925 1116 3625 
L 1116 3319 
L 1763 3319 
L 1763 2881 
L 1116 2881 
L 1116 0 
L 556 0 
z
" transform="scale(0.015625)"/>
     </defs>
     <use xlink:href="#ArialMT-44"/>
     <use xlink:href="#ArialMT-69" x="72.216797"/>
     <use xlink:href="#ArialMT-73" x="94.433594"/>
     <use xlink:href="#ArialMT-74" x="144.433594"/>
     <use xlink:href="#ArialMT-72" x="172.216797"/>
     <use xlink:href="#ArialMT-69" x="205.517578"/>
     <use xlink:href="#ArialMT-62" x="227.734375"/>
     <use xlink:href="#ArialMT-75" x="283.349609"/>
     <use xlink:href="#ArialMT-74" x="338.964844"/>
     <use xlink:href="#ArialMT-69" x="366.748047"/>
     <use xlink:href="#ArialMT-6f" x="388.964844"/>
     <use xlink:href="#ArialMT-6e" x="444.580078"/>
     <use xlink:href="#ArialMT-20" x="500.195312"/>
     <use xlink:href="#ArialMT-6f" x="527.978516"/>
     <use xlink:href="#ArialMT-66" x="583.59375"/>
     <use xlink:href="#ArialMT-20" x="611.376953"/>
     <use xlink:href="#ArialMT-72" x="639.160156"/>
     <use xlink:href="#ArialMT-65" x="672.460938"/>
     <use xlink:href="#ArialMT-63" x="728.076172"/>
     <use xlink:href="#ArialMT-65" x="778.076172"/>
     <use xlink:href="#ArialMT-6e" x="833.691406"/>
     <use xlink:href="#ArialMT-63" x="889.306641"/>
     <use xlink:href="#ArialMT-79" x="939.306641"/>
    </g>
   </g>
  </g>
 </g>
 <defs>
  <clipPath id="pf090562a0c">
   <rect x="43.04" y="25.49625" width="666.16" height="365.98375"/>
  </clipPath>
 </defs>
</svg>
