<?xml version="1.0" encoding="utf-8" standalone="no"?>
<!DOCTYPE svg PUBLIC "-//W3C//DTD SVG 1.1//EN"
  "http://www.w3.org/Graphics/SVG/1.1/DTD/svg11.dtd">
<svg xmlns:xlink="http://www.w3.org/1999/xlink" width="576pt" height="576pt" viewBox="0 0 576 576" xmlns="http://www.w3.org/2000/svg" version="1.1">
 <metadata>
  <rdf:RDF xmlns:dc="http://purl.org/dc/elements/1.1/" xmlns:cc="http://creativecommons.org/ns#" xmlns:rdf="http://www.w3.org/1999/02/22-rdf-syntax-ns#">
   <cc:Work>
    <dc:type rdf:resource="http://purl.org/dc/dcmitype/StillImage"/>
    <dc:date>2024-07-25T16:14:41.213368</dc:date>
    <dc:format>image/svg+xml</dc:format>
    <dc:creator>
     <cc:Agent>
      <dc:title>Matplotlib v3.8.4, https://matplotlib.org/</dc:title>
     </cc:Agent>
    </dc:creator>
   </cc:Work>
  </rdf:RDF>
 </metadata>
 <defs>
  <style type="text/css">*{stroke-linejoin: round; stroke-linecap: butt}</style>
 </defs>
 <g id="figure_1">
  <g id="patch_1">
   <path d="M 0 576 
L 576 576 
L 576 0 
L 0 0 
z
" style="fill: #ffffff"/>
  </g>
  <g id="axes_1">
   <g id="patch_2">
    <path d="M 65.36 535.48 
L 561.638685 535.48 
L 561.638685 25.49625 
L 65.36 25.49625 
z
" style="fill: #eaeaf2"/>
   </g>
   <g id="matplotlib.axis_1">
    <g id="xtick_1">
     <g id="line2d_1">
      <path d="M 87.918122 535.48 
L 87.918122 25.49625 
" clip-path="url(#p66e56ffd5e)" style="fill: none; stroke: #ffffff; stroke-linecap: round"/>
     </g>
     <g id="line2d_2"/>
     <g id="text_1">
      <!-- 2020-12 -->
      <g style="fill: #262626" transform="translate(69.570466 549.637812) scale(0.1 -0.1)">
       <defs>
        <path id="ArialMT-32" d="M 3222 541 
L 3222 0 
L 194 0 
Q 188 203 259 391 
Q 375 700 629 1000 
Q 884 1300 1366 1694 
Q 2113 2306 2375 2664 
Q 2638 3022 2638 3341 
Q 2638 3675 2398 3904 
Q 2159 4134 1775 4134 
Q 1369 4134 1125 3890 
Q 881 3647 878 3216 
L 300 3275 
Q 359 3922 746 4261 
Q 1134 4600 1788 4600 
Q 2447 4600 2831 4234 
Q 3216 3869 3216 3328 
Q 3216 3053 3103 2787 
Q 2991 2522 2730 2228 
Q 2469 1934 1863 1422 
Q 1356 997 1212 845 
Q 1069 694 975 541 
L 3222 541 
z
" transform="scale(0.015625)"/>
        <path id="ArialMT-30" d="M 266 2259 
Q 266 3072 433 3567 
Q 600 4063 929 4331 
Q 1259 4600 1759 4600 
Q 2128 4600 2406 4451 
Q 2684 4303 2865 4023 
Q 3047 3744 3150 3342 
Q 3253 2941 3253 2259 
Q 3253 1453 3087 958 
Q 2922 463 2592 192 
Q 2263 -78 1759 -78 
Q 1097 -78 719 397 
Q 266 969 266 2259 
z
M 844 2259 
Q 844 1131 1108 757 
Q 1372 384 1759 384 
Q 2147 384 2411 759 
Q 2675 1134 2675 2259 
Q 2675 3391 2411 3762 
Q 2147 4134 1753 4134 
Q 1366 4134 1134 3806 
Q 844 3388 844 2259 
z
" transform="scale(0.015625)"/>
        <path id="ArialMT-2d" d="M 203 1375 
L 203 1941 
L 1931 1941 
L 1931 1375 
L 203 1375 
z
" transform="scale(0.015625)"/>
        <path id="ArialMT-31" d="M 2384 0 
L 1822 0 
L 1822 3584 
Q 1619 3391 1289 3197 
Q 959 3003 697 2906 
L 697 3450 
Q 1169 3672 1522 3987 
Q 1875 4303 2022 4600 
L 2384 4600 
L 2384 0 
z
" transform="scale(0.015625)"/>
       </defs>
       <use xlink:href="#ArialMT-32"/>
       <use xlink:href="#ArialMT-30" x="55.615234"/>
       <use xlink:href="#ArialMT-32" x="111.230469"/>
       <use xlink:href="#ArialMT-30" x="166.845703"/>
       <use xlink:href="#ArialMT-2d" x="222.460938"/>
       <use xlink:href="#ArialMT-31" x="255.761719"/>
       <use xlink:href="#ArialMT-32" x="311.376953"/>
      </g>
     </g>
    </g>
    <g id="xtick_2">
     <g id="line2d_3">
      <path d="M 181.784133 535.48 
L 181.784133 25.49625 
" clip-path="url(#p66e56ffd5e)" style="fill: none; stroke: #ffffff; stroke-linecap: round"/>
     </g>
     <g id="line2d_4"/>
     <g id="text_2">
      <!-- 2021-01 -->
      <g style="fill: #262626" transform="translate(163.436477 549.637812) scale(0.1 -0.1)">
       <use xlink:href="#ArialMT-32"/>
       <use xlink:href="#ArialMT-30" x="55.615234"/>
       <use xlink:href="#ArialMT-32" x="111.230469"/>
       <use xlink:href="#ArialMT-31" x="166.845703"/>
       <use xlink:href="#ArialMT-2d" x="222.460938"/>
       <use xlink:href="#ArialMT-30" x="255.761719"/>
       <use xlink:href="#ArialMT-31" x="311.376953"/>
      </g>
     </g>
    </g>
    <g id="xtick_3">
     <g id="line2d_5">
      <path d="M 275.650145 535.48 
L 275.650145 25.49625 
" clip-path="url(#p66e56ffd5e)" style="fill: none; stroke: #ffffff; stroke-linecap: round"/>
     </g>
     <g id="line2d_6"/>
     <g id="text_3">
      <!-- 2021-02 -->
      <g style="fill: #262626" transform="translate(257.302488 549.637812) scale(0.1 -0.1)">
       <use xlink:href="#ArialMT-32"/>
       <use xlink:href="#ArialMT-30" x="55.615234"/>
       <use xlink:href="#ArialMT-32" x="111.230469"/>
       <use xlink:href="#ArialMT-31" x="166.845703"/>
       <use xlink:href="#ArialMT-2d" x="222.460938"/>
       <use xlink:href="#ArialMT-30" x="255.761719"/>
       <use xlink:href="#ArialMT-32" x="311.376953"/>
      </g>
     </g>
    </g>
    <g id="xtick_4">
     <g id="line2d_7">
      <path d="M 360.432348 535.48 
L 360.432348 25.49625 
" clip-path="url(#p66e56ffd5e)" style="fill: none; stroke: #ffffff; stroke-linecap: round"/>
     </g>
     <g id="line2d_8"/>
     <g id="text_4">
      <!-- 2021-03 -->
      <g style="fill: #262626" transform="translate(342.084692 549.637812) scale(0.1 -0.1)">
       <defs>
        <path id="ArialMT-33" d="M 269 1209 
L 831 1284 
Q 928 806 1161 595 
Q 1394 384 1728 384 
Q 2125 384 2398 659 
Q 2672 934 2672 1341 
Q 2672 1728 2419 1979 
Q 2166 2231 1775 2231 
Q 1616 2231 1378 2169 
L 1441 2663 
Q 1497 2656 1531 2656 
Q 1891 2656 2178 2843 
Q 2466 3031 2466 3422 
Q 2466 3731 2256 3934 
Q 2047 4138 1716 4138 
Q 1388 4138 1169 3931 
Q 950 3725 888 3313 
L 325 3413 
Q 428 3978 793 4289 
Q 1159 4600 1703 4600 
Q 2078 4600 2393 4439 
Q 2709 4278 2876 4000 
Q 3044 3722 3044 3409 
Q 3044 3113 2884 2869 
Q 2725 2625 2413 2481 
Q 2819 2388 3044 2092 
Q 3269 1797 3269 1353 
Q 3269 753 2831 336 
Q 2394 -81 1725 -81 
Q 1122 -81 723 278 
Q 325 638 269 1209 
z
" transform="scale(0.015625)"/>
       </defs>
       <use xlink:href="#ArialMT-32"/>
       <use xlink:href="#ArialMT-30" x="55.615234"/>
       <use xlink:href="#ArialMT-32" x="111.230469"/>
       <use xlink:href="#ArialMT-31" x="166.845703"/>
       <use xlink:href="#ArialMT-2d" x="222.460938"/>
       <use xlink:href="#ArialMT-30" x="255.761719"/>
       <use xlink:href="#ArialMT-33" x="311.376953"/>
      </g>
     </g>
    </g>
    <g id="xtick_5">
     <g id="line2d_9">
      <path d="M 454.298359 535.48 
L 454.298359 25.49625 
" clip-path="url(#p66e56ffd5e)" style="fill: none; stroke: #ffffff; stroke-linecap: round"/>
     </g>
     <g id="line2d_10"/>
     <g id="text_5">
      <!-- 2021-04 -->
      <g style="fill: #262626" transform="translate(435.950703 549.637812) scale(0.1 -0.1)">
       <defs>
        <path id="ArialMT-34" d="M 2069 0 
L 2069 1097 
L 81 1097 
L 81 1613 
L 2172 4581 
L 2631 4581 
L 2631 1613 
L 3250 1613 
L 3250 1097 
L 2631 1097 
L 2631 0 
L 2069 0 
z
M 2069 1613 
L 2069 3678 
L 634 1613 
L 2069 1613 
z
" transform="scale(0.015625)"/>
       </defs>
       <use xlink:href="#ArialMT-32"/>
       <use xlink:href="#ArialMT-30" x="55.615234"/>
       <use xlink:href="#ArialMT-32" x="111.230469"/>
       <use xlink:href="#ArialMT-31" x="166.845703"/>
       <use xlink:href="#ArialMT-2d" x="222.460938"/>
       <use xlink:href="#ArialMT-30" x="255.761719"/>
       <use xlink:href="#ArialMT-34" x="311.376953"/>
      </g>
     </g>
    </g>
    <g id="xtick_6">
     <g id="line2d_11">
      <path d="M 545.136435 535.48 
L 545.136435 25.49625 
" clip-path="url(#p66e56ffd5e)" style="fill: none; stroke: #ffffff; stroke-linecap: round"/>
     </g>
     <g id="line2d_12"/>
     <g id="text_6">
      <!-- 2021-05 -->
      <g style="fill: #262626" transform="translate(526.788779 549.637812) scale(0.1 -0.1)">
       <defs>
        <path id="ArialMT-35" d="M 266 1200 
L 856 1250 
Q 922 819 1161 601 
Q 1400 384 1738 384 
Q 2144 384 2425 690 
Q 2706 997 2706 1503 
Q 2706 1984 2436 2262 
Q 2166 2541 1728 2541 
Q 1456 2541 1237 2417 
Q 1019 2294 894 2097 
L 366 2166 
L 809 4519 
L 3088 4519 
L 3088 3981 
L 1259 3981 
L 1013 2750 
Q 1425 3038 1878 3038 
Q 2478 3038 2890 2622 
Q 3303 2206 3303 1553 
Q 3303 931 2941 478 
Q 2500 -78 1738 -78 
Q 1113 -78 717 272 
Q 322 622 266 1200 
z
" transform="scale(0.015625)"/>
       </defs>
       <use xlink:href="#ArialMT-32"/>
       <use xlink:href="#ArialMT-30" x="55.615234"/>
       <use xlink:href="#ArialMT-32" x="111.230469"/>
       <use xlink:href="#ArialMT-31" x="166.845703"/>
       <use xlink:href="#ArialMT-2d" x="222.460938"/>
       <use xlink:href="#ArialMT-30" x="255.761719"/>
       <use xlink:href="#ArialMT-35" x="311.376953"/>
      </g>
     </g>
    </g>
    <g id="text_7">
     <!-- Date -->
     <g style="fill: #262626" transform="translate(301.882311 563.498906) scale(0.11 -0.11)">
      <defs>
       <path id="ArialMT-44" d="M 494 0 
L 494 4581 
L 2072 4581 
Q 2606 4581 2888 4516 
Q 3281 4425 3559 4188 
Q 3922 3881 4101 3404 
Q 4281 2928 4281 2316 
Q 4281 1794 4159 1391 
Q 4038 988 3847 723 
Q 3656 459 3429 307 
Q 3203 156 2883 78 
Q 2563 0 2147 0 
L 494 0 
z
M 1100 541 
L 2078 541 
Q 2531 541 2789 625 
Q 3047 709 3200 863 
Q 3416 1078 3536 1442 
Q 3656 1806 3656 2325 
Q 3656 3044 3420 3430 
Q 3184 3816 2847 3947 
Q 2603 4041 2063 4041 
L 1100 4041 
L 1100 541 
z
" transform="scale(0.015625)"/>
       <path id="ArialMT-61" d="M 2588 409 
Q 2275 144 1986 34 
Q 1697 -75 1366 -75 
Q 819 -75 525 192 
Q 231 459 231 875 
Q 231 1119 342 1320 
Q 453 1522 633 1644 
Q 813 1766 1038 1828 
Q 1203 1872 1538 1913 
Q 2219 1994 2541 2106 
Q 2544 2222 2544 2253 
Q 2544 2597 2384 2738 
Q 2169 2928 1744 2928 
Q 1347 2928 1158 2789 
Q 969 2650 878 2297 
L 328 2372 
Q 403 2725 575 2942 
Q 747 3159 1072 3276 
Q 1397 3394 1825 3394 
Q 2250 3394 2515 3294 
Q 2781 3194 2906 3042 
Q 3031 2891 3081 2659 
Q 3109 2516 3109 2141 
L 3109 1391 
Q 3109 606 3145 398 
Q 3181 191 3288 0 
L 2700 0 
Q 2613 175 2588 409 
z
M 2541 1666 
Q 2234 1541 1622 1453 
Q 1275 1403 1131 1340 
Q 988 1278 909 1158 
Q 831 1038 831 891 
Q 831 666 1001 516 
Q 1172 366 1500 366 
Q 1825 366 2078 508 
Q 2331 650 2450 897 
Q 2541 1088 2541 1459 
L 2541 1666 
z
" transform="scale(0.015625)"/>
       <path id="ArialMT-74" d="M 1650 503 
L 1731 6 
Q 1494 -44 1306 -44 
Q 1000 -44 831 53 
Q 663 150 594 308 
Q 525 466 525 972 
L 525 2881 
L 113 2881 
L 113 3319 
L 525 3319 
L 525 4141 
L 1084 4478 
L 1084 3319 
L 1650 3319 
L 1650 2881 
L 1084 2881 
L 1084 941 
Q 1084 700 1114 631 
Q 1144 563 1211 522 
Q 1278 481 1403 481 
Q 1497 481 1650 503 
z
" transform="scale(0.015625)"/>
       <path id="ArialMT-65" d="M 2694 1069 
L 3275 997 
Q 3138 488 2766 206 
Q 2394 -75 1816 -75 
Q 1088 -75 661 373 
Q 234 822 234 1631 
Q 234 2469 665 2931 
Q 1097 3394 1784 3394 
Q 2450 3394 2872 2941 
Q 3294 2488 3294 1666 
Q 3294 1616 3291 1516 
L 816 1516 
Q 847 969 1125 678 
Q 1403 388 1819 388 
Q 2128 388 2347 550 
Q 2566 713 2694 1069 
z
M 847 1978 
L 2700 1978 
Q 2663 2397 2488 2606 
Q 2219 2931 1791 2931 
Q 1403 2931 1139 2672 
Q 875 2413 847 1978 
z
" transform="scale(0.015625)"/>
      </defs>
      <use xlink:href="#ArialMT-44"/>
      <use xlink:href="#ArialMT-61" x="72.216797"/>
      <use xlink:href="#ArialMT-74" x="127.832031"/>
      <use xlink:href="#ArialMT-65" x="155.615234"/>
     </g>
    </g>
   </g>
   <g id="matplotlib.axis_2">
    <g id="ytick_1">
     <g id="line2d_13">
      <path d="M 65.36 512.29892 
L 561.638685 512.29892 
" clip-path="url(#p66e56ffd5e)" style="fill: none; stroke: #ffffff; stroke-linecap: round"/>
     </g>
     <g id="line2d_14"/>
     <g id="text_8">
      <!-- 0 -->
      <g style="fill: #262626" transform="translate(52.799063 515.877827) scale(0.1 -0.1)">
       <use xlink:href="#ArialMT-30"/>
      </g>
     </g>
    </g>
    <g id="ytick_2">
     <g id="line2d_15">
      <path d="M 65.36 426.236633 
L 561.638685 426.236633 
" clip-path="url(#p66e56ffd5e)" style="fill: none; stroke: #ffffff; stroke-linecap: round"/>
     </g>
     <g id="line2d_16"/>
     <g id="text_9">
      <!-- 20000 -->
      <g style="fill: #262626" transform="translate(30.555313 429.81554) scale(0.1 -0.1)">
       <use xlink:href="#ArialMT-32"/>
       <use xlink:href="#ArialMT-30" x="55.615234"/>
       <use xlink:href="#ArialMT-30" x="111.230469"/>
       <use xlink:href="#ArialMT-30" x="166.845703"/>
       <use xlink:href="#ArialMT-30" x="222.460938"/>
      </g>
     </g>
    </g>
    <g id="ytick_3">
     <g id="line2d_17">
      <path d="M 65.36 340.174347 
L 561.638685 340.174347 
" clip-path="url(#p66e56ffd5e)" style="fill: none; stroke: #ffffff; stroke-linecap: round"/>
     </g>
     <g id="line2d_18"/>
     <g id="text_10">
      <!-- 40000 -->
      <g style="fill: #262626" transform="translate(30.555313 343.753253) scale(0.1 -0.1)">
       <use xlink:href="#ArialMT-34"/>
       <use xlink:href="#ArialMT-30" x="55.615234"/>
       <use xlink:href="#ArialMT-30" x="111.230469"/>
       <use xlink:href="#ArialMT-30" x="166.845703"/>
       <use xlink:href="#ArialMT-30" x="222.460938"/>
      </g>
     </g>
    </g>
    <g id="ytick_4">
     <g id="line2d_19">
      <path d="M 65.36 254.11206 
L 561.638685 254.11206 
" clip-path="url(#p66e56ffd5e)" style="fill: none; stroke: #ffffff; stroke-linecap: round"/>
     </g>
     <g id="line2d_20"/>
     <g id="text_11">
      <!-- 60000 -->
      <g style="fill: #262626" transform="translate(30.555313 257.690966) scale(0.1 -0.1)">
       <defs>
        <path id="ArialMT-36" d="M 3184 3459 
L 2625 3416 
Q 2550 3747 2413 3897 
Q 2184 4138 1850 4138 
Q 1581 4138 1378 3988 
Q 1113 3794 959 3422 
Q 806 3050 800 2363 
Q 1003 2672 1297 2822 
Q 1591 2972 1913 2972 
Q 2475 2972 2870 2558 
Q 3266 2144 3266 1488 
Q 3266 1056 3080 686 
Q 2894 316 2569 119 
Q 2244 -78 1831 -78 
Q 1128 -78 684 439 
Q 241 956 241 2144 
Q 241 3472 731 4075 
Q 1159 4600 1884 4600 
Q 2425 4600 2770 4297 
Q 3116 3994 3184 3459 
z
M 888 1484 
Q 888 1194 1011 928 
Q 1134 663 1356 523 
Q 1578 384 1822 384 
Q 2178 384 2434 671 
Q 2691 959 2691 1453 
Q 2691 1928 2437 2201 
Q 2184 2475 1800 2475 
Q 1419 2475 1153 2201 
Q 888 1928 888 1484 
z
" transform="scale(0.015625)"/>
       </defs>
       <use xlink:href="#ArialMT-36"/>
       <use xlink:href="#ArialMT-30" x="55.615234"/>
       <use xlink:href="#ArialMT-30" x="111.230469"/>
       <use xlink:href="#ArialMT-30" x="166.845703"/>
       <use xlink:href="#ArialMT-30" x="222.460938"/>
      </g>
     </g>
    </g>
    <g id="ytick_5">
     <g id="line2d_21">
      <path d="M 65.36 168.049773 
L 561.638685 168.049773 
" clip-path="url(#p66e56ffd5e)" style="fill: none; stroke: #ffffff; stroke-linecap: round"/>
     </g>
     <g id="line2d_22"/>
     <g id="text_12">
      <!-- 80000 -->
      <g style="fill: #262626" transform="translate(30.555313 171.628679) scale(0.1 -0.1)">
       <defs>
        <path id="ArialMT-38" d="M 1131 2484 
Q 781 2613 612 2850 
Q 444 3088 444 3419 
Q 444 3919 803 4259 
Q 1163 4600 1759 4600 
Q 2359 4600 2725 4251 
Q 3091 3903 3091 3403 
Q 3091 3084 2923 2848 
Q 2756 2613 2416 2484 
Q 2838 2347 3058 2040 
Q 3278 1734 3278 1309 
Q 3278 722 2862 322 
Q 2447 -78 1769 -78 
Q 1091 -78 675 323 
Q 259 725 259 1325 
Q 259 1772 486 2073 
Q 713 2375 1131 2484 
z
M 1019 3438 
Q 1019 3113 1228 2906 
Q 1438 2700 1772 2700 
Q 2097 2700 2305 2904 
Q 2513 3109 2513 3406 
Q 2513 3716 2298 3927 
Q 2084 4138 1766 4138 
Q 1444 4138 1231 3931 
Q 1019 3725 1019 3438 
z
M 838 1322 
Q 838 1081 952 856 
Q 1066 631 1291 507 
Q 1516 384 1775 384 
Q 2178 384 2440 643 
Q 2703 903 2703 1303 
Q 2703 1709 2433 1975 
Q 2163 2241 1756 2241 
Q 1359 2241 1098 1978 
Q 838 1716 838 1322 
z
" transform="scale(0.015625)"/>
       </defs>
       <use xlink:href="#ArialMT-38"/>
       <use xlink:href="#ArialMT-30" x="55.615234"/>
       <use xlink:href="#ArialMT-30" x="111.230469"/>
       <use xlink:href="#ArialMT-30" x="166.845703"/>
       <use xlink:href="#ArialMT-30" x="222.460938"/>
      </g>
     </g>
    </g>
    <g id="ytick_6">
     <g id="line2d_23">
      <path d="M 65.36 81.987486 
L 561.638685 81.987486 
" clip-path="url(#p66e56ffd5e)" style="fill: none; stroke: #ffffff; stroke-linecap: round"/>
     </g>
     <g id="line2d_24"/>
     <g id="text_13">
      <!-- 100000 -->
      <g style="fill: #262626" transform="translate(24.994375 85.566392) scale(0.1 -0.1)">
       <use xlink:href="#ArialMT-31"/>
       <use xlink:href="#ArialMT-30" x="55.615234"/>
       <use xlink:href="#ArialMT-30" x="111.230469"/>
       <use xlink:href="#ArialMT-30" x="166.845703"/>
       <use xlink:href="#ArialMT-30" x="222.460938"/>
       <use xlink:href="#ArialMT-30" x="278.076172"/>
      </g>
     </g>
    </g>
    <g id="text_14">
     <!-- Sales -->
     <g style="fill: #262626" transform="translate(18.808125 294.245859) rotate(-90) scale(0.11 -0.11)">
      <defs>
       <path id="ArialMT-53" d="M 288 1472 
L 859 1522 
Q 900 1178 1048 958 
Q 1197 738 1509 602 
Q 1822 466 2213 466 
Q 2559 466 2825 569 
Q 3091 672 3220 851 
Q 3350 1031 3350 1244 
Q 3350 1459 3225 1620 
Q 3100 1781 2813 1891 
Q 2628 1963 1997 2114 
Q 1366 2266 1113 2400 
Q 784 2572 623 2826 
Q 463 3081 463 3397 
Q 463 3744 659 4045 
Q 856 4347 1234 4503 
Q 1613 4659 2075 4659 
Q 2584 4659 2973 4495 
Q 3363 4331 3572 4012 
Q 3781 3694 3797 3291 
L 3216 3247 
Q 3169 3681 2898 3903 
Q 2628 4125 2100 4125 
Q 1550 4125 1298 3923 
Q 1047 3722 1047 3438 
Q 1047 3191 1225 3031 
Q 1400 2872 2139 2705 
Q 2878 2538 3153 2413 
Q 3553 2228 3743 1945 
Q 3934 1663 3934 1294 
Q 3934 928 3725 604 
Q 3516 281 3123 101 
Q 2731 -78 2241 -78 
Q 1619 -78 1198 103 
Q 778 284 539 648 
Q 300 1013 288 1472 
z
" transform="scale(0.015625)"/>
       <path id="ArialMT-6c" d="M 409 0 
L 409 4581 
L 972 4581 
L 972 0 
L 409 0 
z
" transform="scale(0.015625)"/>
       <path id="ArialMT-73" d="M 197 991 
L 753 1078 
Q 800 744 1014 566 
Q 1228 388 1613 388 
Q 2000 388 2187 545 
Q 2375 703 2375 916 
Q 2375 1106 2209 1216 
Q 2094 1291 1634 1406 
Q 1016 1563 777 1677 
Q 538 1791 414 1992 
Q 291 2194 291 2438 
Q 291 2659 392 2848 
Q 494 3038 669 3163 
Q 800 3259 1026 3326 
Q 1253 3394 1513 3394 
Q 1903 3394 2198 3281 
Q 2494 3169 2634 2976 
Q 2775 2784 2828 2463 
L 2278 2388 
Q 2241 2644 2061 2787 
Q 1881 2931 1553 2931 
Q 1166 2931 1000 2803 
Q 834 2675 834 2503 
Q 834 2394 903 2306 
Q 972 2216 1119 2156 
Q 1203 2125 1616 2013 
Q 2213 1853 2448 1751 
Q 2684 1650 2818 1456 
Q 2953 1263 2953 975 
Q 2953 694 2789 445 
Q 2625 197 2315 61 
Q 2006 -75 1616 -75 
Q 969 -75 630 194 
Q 291 463 197 991 
z
" transform="scale(0.015625)"/>
      </defs>
      <use xlink:href="#ArialMT-53"/>
      <use xlink:href="#ArialMT-61" x="66.699219"/>
      <use xlink:href="#ArialMT-6c" x="122.314453"/>
      <use xlink:href="#ArialMT-65" x="144.53125"/>
      <use xlink:href="#ArialMT-73" x="200.146484"/>
     </g>
    </g>
   </g>
   <g id="line2d_25">
    <path d="M 87.918122 488.684822 
L 90.946058 443.261576 
L 93.973994 464.039044 
L 97.00193 437.583684 
L 100.029865 460.837304 
L 103.057801 478.432083 
L 106.085737 472.422852 
L 109.113673 437.400756 
L 112.141609 430.727381 
L 115.169545 450.692628 
L 118.197481 418.240492 
L 121.225416 460.204681 
L 124.253352 426.73533 
L 127.281288 446.330672 
L 130.309224 432.927478 
L 133.33716 416.812262 
L 136.365096 431.815925 
L 139.393031 420.026184 
L 142.420967 390.518554 
L 145.448903 418.600142 
L 148.476839 388.671622 
L 151.504775 424.154414 
L 154.532711 389.444395 
L 157.560647 369.213752 
L 160.588582 442.414045 
L 163.616518 407.408953 
L 166.644454 378.228206 
L 169.67239 390.75919 
L 172.700326 377.065319 
L 175.728262 393.372549 
L 178.756197 377.425022 
L 181.784133 379.541061 
L 184.812069 351.338353 
L 187.840005 366.44947 
L 190.867941 362.263513 
L 193.895877 374.201225 
L 196.923813 373.092425 
L 199.951748 369.451251 
L 202.979684 350.861788 
L 206.00762 364.076692 
L 209.035556 347.738314 
L 212.063492 310.586205 
L 218.119363 351.936975 
L 221.147299 319.788304 
L 227.203171 377.364455 
L 230.231107 354.843557 
L 233.259043 368.973778 
L 236.286979 336.979225 
L 239.314914 327.240637 
L 242.34285 292.559511 
L 245.370786 316.116218 
L 248.398722 324.114288 
L 251.426658 301.235777 
L 254.454594 357.537632 
L 257.482529 307.583509 
L 260.510465 294.643685 
L 263.538401 335.626873 
L 266.566337 282.272615 
L 269.594273 295.290412 
L 272.622209 307.31148 
L 275.650145 284.441419 
L 278.67808 250.149663 
L 281.706016 288.022509 
L 284.733952 284.1624 
L 287.761888 295.288795 
L 290.789824 300.2749 
L 293.81776 265.164644 
L 296.845695 295.245275 
L 299.873631 274.707023 
L 302.901567 282.766976 
L 305.929503 261.667415 
L 308.957439 261.906126 
L 311.985375 245.701003 
L 315.013311 273.092683 
L 318.041246 265.867358 
L 321.069182 277.019068 
L 324.097118 264.094351 
L 327.125054 245.609775 
L 330.15299 235.682266 
L 333.180926 265.622204 
L 336.208861 228.351097 
L 339.236797 216.364344 
L 342.264733 232.033953 
L 345.292669 201.122188 
L 348.320605 249.872932 
L 351.348541 256.415556 
L 354.376477 264.181986 
L 357.404412 198.194174 
L 360.432348 211.917229 
L 363.460284 223.089495 
L 366.48822 214.016613 
L 369.516156 238.656693 
L 372.544092 166.927907 
L 375.572027 209.21002 
L 378.599963 207.018716 
L 381.627899 192.50806 
L 384.655835 194.672323 
L 387.683771 197.076076 
L 390.711707 214.142906 
L 393.739643 187.131404 
L 396.767578 157.242151 
L 399.795514 165.057745 
L 402.82345 157.684766 
L 405.851386 195.85922 
L 408.879322 202.547532 
L 411.907258 183.245326 
L 414.935193 177.155306 
L 417.963129 154.4712 
L 420.991065 205.856828 
L 424.019001 140.89046 
L 427.046937 170.993139 
L 430.074873 173.624381 
L 433.102809 182.38143 
L 436.130744 192.252472 
L 439.15868 141.692694 
L 442.186616 153.637628 
L 445.214552 177.460957 
L 448.242488 174.984836 
L 451.270424 153.833829 
L 454.298359 112.437509 
L 457.326295 147.207974 
L 460.354231 168.712903 
L 463.382167 141.78937 
L 466.410103 139.736598 
L 469.438039 184.102904 
L 472.465975 130.356496 
L 475.49391 131.201726 
L 478.521846 110.673333 
L 481.549782 85.776248 
L 484.577718 97.189416 
L 487.605654 121.635779 
L 490.63359 135.280576 
L 493.661525 61.447992 
L 496.689461 107.55664 
L 499.717397 105.858396 
L 502.745333 104.020059 
L 505.773269 97.141961 
L 508.801205 101.197852 
L 511.829141 106.935631 
L 514.857076 103.841393 
L 517.885012 91.311021 
L 520.912948 98.624448 
L 523.940884 99.329896 
L 526.96882 80.890201 
L 529.996756 85.313277 
L 533.024691 48.67733 
L 536.052627 126.558867 
L 539.080563 51.514271 
L 539.080563 51.514271 
" clip-path="url(#p66e56ffd5e)" style="fill: none; stroke: #8b0000; stroke-width: 1.75; stroke-linecap: round"/>
   </g>
   <g id="line2d_26">
    <path d="M 87.918122 482.913758 
L 90.946058 463.791305 
L 93.973994 512.29892 
L 97.00193 477.822897 
L 100.029865 460.551365 
L 103.057801 477.496716 
L 106.085737 419.39858 
L 109.113673 476.375887 
L 112.141609 454.877628 
L 115.169545 441.49893 
L 118.197481 413.795748 
L 121.225416 467.182633 
L 124.253352 414.52905 
L 127.281288 434.528409 
L 130.309224 451.406502 
L 133.33716 421.126368 
L 136.365096 423.893944 
L 139.393031 437.045139 
L 142.420967 421.744874 
L 145.448903 428.231733 
L 148.476839 416.246356 
L 151.504775 403.296992 
L 154.532711 383.080839 
L 157.560647 435.435562 
L 160.588582 367.836387 
L 163.616518 444.614725 
L 166.644454 407.42763 
L 169.67239 390.77027 
L 172.700326 394.395315 
L 175.728262 409.5684 
L 178.756197 399.214512 
L 181.784133 402.404899 
L 184.812069 401.944882 
L 187.840005 371.754699 
L 190.867941 378.967146 
L 193.895877 396.971903 
L 196.923813 363.808518 
L 199.951748 372.951823 
L 202.979684 360.836094 
L 206.00762 362.058218 
L 209.035556 387.977024 
L 212.063492 380.445698 
L 215.091428 352.801733 
L 218.119363 353.12711 
L 221.147299 363.02506 
L 224.175235 358.022384 
L 227.203171 333.227584 
L 230.231107 367.097495 
L 233.259043 342.722289 
L 236.286979 354.905544 
L 239.314914 352.879457 
L 242.34285 325.061536 
L 245.370786 328.028885 
L 248.398722 325.933439 
L 251.426658 314.080933 
L 254.454594 336.627517 
L 257.482529 321.502881 
L 260.510465 338.390231 
L 263.538401 323.779051 
L 266.566337 330.250297 
L 269.594273 323.525966 
L 272.622209 311.55356 
L 275.650145 336.596219 
L 278.67808 277.909156 
L 281.706016 335.580701 
L 284.733952 337.285724 
L 287.761888 289.022475 
L 290.789824 293.792375 
L 293.81776 294.71067 
L 296.845695 292.302836 
L 299.873631 302.381266 
L 302.901567 317.192559 
L 305.929503 296.024224 
L 308.957439 308.278666 
L 311.985375 273.957856 
L 315.013311 293.361702 
L 318.041246 304.173013 
L 321.069182 292.085386 
L 324.097118 275.540047 
L 327.125054 292.12602 
L 330.15299 294.80553 
L 333.180926 271.839272 
L 336.208861 269.48849 
L 339.236797 281.722474 
L 342.264733 278.701204 
L 345.292669 262.760585 
L 348.320605 292.968722 
L 351.348541 289.856137 
L 354.376477 274.187944 
L 360.432348 249.603546 
L 363.460284 224.729138 
L 366.48822 234.364216 
L 369.516156 251.742993 
L 372.544092 246.688164 
L 375.572027 263.406919 
L 378.599963 242.026407 
L 381.627899 244.9315 
L 384.655835 230.766776 
L 387.683771 250.708407 
L 390.711707 222.307254 
L 393.739643 200.357901 
L 396.767578 229.817905 
L 399.795514 217.607112 
L 402.82345 209.695898 
L 405.851386 228.503087 
L 408.879322 214.06851 
L 411.907258 215.837993 
L 414.935193 211.864424 
L 417.963129 226.39839 
L 420.991065 208.629194 
L 424.019001 197.134556 
L 427.046937 176.351828 
L 430.074873 183.550452 
L 433.102809 158.105522 
L 436.130744 212.3327 
L 439.15868 178.256133 
L 442.186616 189.271518 
L 445.214552 148.092372 
L 448.242488 203.821639 
L 451.270424 202.104118 
L 454.298359 195.124372 
L 457.326295 222.318864 
L 460.354231 189.046437 
L 463.382167 191.239557 
L 466.410103 171.301466 
L 469.438039 165.269918 
L 472.465975 133.231478 
L 475.49391 148.831649 
L 478.521846 176.080833 
L 481.549782 179.980569 
L 484.577718 150.732117 
L 487.605654 183.496654 
L 490.63359 120.141237 
L 493.661525 130.440928 
L 496.689461 160.03874 
L 499.717397 181.80077 
L 502.745333 120.085196 
L 505.773269 146.193544 
L 508.801205 117.680491 
L 511.829141 170.198097 
L 514.857076 148.603876 
L 517.885012 134.570022 
L 520.912948 131.435821 
L 523.940884 138.73462 
L 526.96882 115.632663 
L 529.996756 146.040948 
L 533.024691 125.798561 
L 536.052627 118.386108 
L 539.080563 108.427906 
L 539.080563 108.427906 
" clip-path="url(#p66e56ffd5e)" style="fill: none; stroke: #008000; stroke-width: 1.75; stroke-linecap: round"/>
   </g>
   <g id="patch_3">
    <path d="M 65.36 535.48 
L 65.36 25.49625 
" style="fill: none"/>
   </g>
   <g id="patch_4">
    <path d="M 561.638685 535.48 
L 561.638685 25.49625 
" style="fill: none"/>
   </g>
   <g id="patch_5">
    <path d="M 65.36 535.48 
L 561.638685 535.48 
" style="fill: none"/>
   </g>
   <g id="patch_6">
    <path d="M 65.36 25.49625 
L 561.638685 25.49625 
" style="fill: none"/>
   </g>
   <g id="text_15">
    <g id="patch_7">
     <path d="M 90.173934 103.951062 
L 341.011434 103.951062 
Q 344.611434 103.951062 344.611434 100.351062 
L 344.611434 50.995437 
Q 344.611434 47.395437 341.011434 47.395437 
L 90.173934 47.395437 
Q 86.573934 47.395437 86.573934 50.995437 
L 86.573934 100.351062 
Q 86.573934 103.951062 90.173934 103.951062 
z
" style="fill: #fffff0; opacity: 0.8; stroke: #000000; stroke-width: 0.3; stroke-linejoin: miter"/>
    </g>
    <!-- Anova pvalue: 0.04315914106678389 -->
    <g style="fill: #262626" transform="translate(90.173934 59.620437) scale(0.12 -0.12)">
     <defs>
      <path id="ArialMT-41" d="M -9 0 
L 1750 4581 
L 2403 4581 
L 4278 0 
L 3588 0 
L 3053 1388 
L 1138 1388 
L 634 0 
L -9 0 
z
M 1313 1881 
L 2866 1881 
L 2388 3150 
Q 2169 3728 2063 4100 
Q 1975 3659 1816 3225 
L 1313 1881 
z
" transform="scale(0.015625)"/>
      <path id="ArialMT-6e" d="M 422 0 
L 422 3319 
L 928 3319 
L 928 2847 
Q 1294 3394 1984 3394 
Q 2284 3394 2536 3286 
Q 2788 3178 2913 3003 
Q 3038 2828 3088 2588 
Q 3119 2431 3119 2041 
L 3119 0 
L 2556 0 
L 2556 2019 
Q 2556 2363 2490 2533 
Q 2425 2703 2258 2804 
Q 2091 2906 1866 2906 
Q 1506 2906 1245 2678 
Q 984 2450 984 1813 
L 984 0 
L 422 0 
z
" transform="scale(0.015625)"/>
      <path id="ArialMT-6f" d="M 213 1659 
Q 213 2581 725 3025 
Q 1153 3394 1769 3394 
Q 2453 3394 2887 2945 
Q 3322 2497 3322 1706 
Q 3322 1066 3130 698 
Q 2938 331 2570 128 
Q 2203 -75 1769 -75 
Q 1072 -75 642 372 
Q 213 819 213 1659 
z
M 791 1659 
Q 791 1022 1069 705 
Q 1347 388 1769 388 
Q 2188 388 2466 706 
Q 2744 1025 2744 1678 
Q 2744 2294 2464 2611 
Q 2184 2928 1769 2928 
Q 1347 2928 1069 2612 
Q 791 2297 791 1659 
z
" transform="scale(0.015625)"/>
      <path id="ArialMT-76" d="M 1344 0 
L 81 3319 
L 675 3319 
L 1388 1331 
Q 1503 1009 1600 663 
Q 1675 925 1809 1294 
L 2547 3319 
L 3125 3319 
L 1869 0 
L 1344 0 
z
" transform="scale(0.015625)"/>
      <path id="ArialMT-20" transform="scale(0.015625)"/>
      <path id="ArialMT-70" d="M 422 -1272 
L 422 3319 
L 934 3319 
L 934 2888 
Q 1116 3141 1344 3267 
Q 1572 3394 1897 3394 
Q 2322 3394 2647 3175 
Q 2972 2956 3137 2557 
Q 3303 2159 3303 1684 
Q 3303 1175 3120 767 
Q 2938 359 2589 142 
Q 2241 -75 1856 -75 
Q 1575 -75 1351 44 
Q 1128 163 984 344 
L 984 -1272 
L 422 -1272 
z
M 931 1641 
Q 931 1000 1190 694 
Q 1450 388 1819 388 
Q 2194 388 2461 705 
Q 2728 1022 2728 1688 
Q 2728 2322 2467 2637 
Q 2206 2953 1844 2953 
Q 1484 2953 1207 2617 
Q 931 2281 931 1641 
z
" transform="scale(0.015625)"/>
      <path id="ArialMT-75" d="M 2597 0 
L 2597 488 
Q 2209 -75 1544 -75 
Q 1250 -75 995 37 
Q 741 150 617 320 
Q 494 491 444 738 
Q 409 903 409 1263 
L 409 3319 
L 972 3319 
L 972 1478 
Q 972 1038 1006 884 
Q 1059 663 1231 536 
Q 1403 409 1656 409 
Q 1909 409 2131 539 
Q 2353 669 2445 892 
Q 2538 1116 2538 1541 
L 2538 3319 
L 3100 3319 
L 3100 0 
L 2597 0 
z
" transform="scale(0.015625)"/>
      <path id="ArialMT-3a" d="M 578 2678 
L 578 3319 
L 1219 3319 
L 1219 2678 
L 578 2678 
z
M 578 0 
L 578 641 
L 1219 641 
L 1219 0 
L 578 0 
z
" transform="scale(0.015625)"/>
      <path id="ArialMT-2e" d="M 581 0 
L 581 641 
L 1222 641 
L 1222 0 
L 581 0 
z
" transform="scale(0.015625)"/>
      <path id="ArialMT-39" d="M 350 1059 
L 891 1109 
Q 959 728 1153 556 
Q 1347 384 1650 384 
Q 1909 384 2104 503 
Q 2300 622 2425 820 
Q 2550 1019 2634 1356 
Q 2719 1694 2719 2044 
Q 2719 2081 2716 2156 
Q 2547 1888 2255 1720 
Q 1963 1553 1622 1553 
Q 1053 1553 659 1965 
Q 266 2378 266 3053 
Q 266 3750 677 4175 
Q 1088 4600 1706 4600 
Q 2153 4600 2523 4359 
Q 2894 4119 3086 3673 
Q 3278 3228 3278 2384 
Q 3278 1506 3087 986 
Q 2897 466 2520 194 
Q 2144 -78 1638 -78 
Q 1100 -78 759 220 
Q 419 519 350 1059 
z
M 2653 3081 
Q 2653 3566 2395 3850 
Q 2138 4134 1775 4134 
Q 1400 4134 1122 3828 
Q 844 3522 844 3034 
Q 844 2597 1108 2323 
Q 1372 2050 1759 2050 
Q 2150 2050 2401 2323 
Q 2653 2597 2653 3081 
z
" transform="scale(0.015625)"/>
      <path id="ArialMT-37" d="M 303 3981 
L 303 4522 
L 3269 4522 
L 3269 4084 
Q 2831 3619 2401 2847 
Q 1972 2075 1738 1259 
Q 1569 684 1522 0 
L 944 0 
Q 953 541 1156 1306 
Q 1359 2072 1739 2783 
Q 2119 3494 2547 3981 
L 303 3981 
z
" transform="scale(0.015625)"/>
     </defs>
     <use xlink:href="#ArialMT-41"/>
     <use xlink:href="#ArialMT-6e" x="66.699219"/>
     <use xlink:href="#ArialMT-6f" x="122.314453"/>
     <use xlink:href="#ArialMT-76" x="177.929688"/>
     <use xlink:href="#ArialMT-61" x="227.929688"/>
     <use xlink:href="#ArialMT-20" x="283.544922"/>
     <use xlink:href="#ArialMT-70" x="311.328125"/>
     <use xlink:href="#ArialMT-76" x="366.943359"/>
     <use xlink:href="#ArialMT-61" x="416.943359"/>
     <use xlink:href="#ArialMT-6c" x="472.558594"/>
     <use xlink:href="#ArialMT-75" x="494.775391"/>
     <use xlink:href="#ArialMT-65" x="550.390625"/>
     <use xlink:href="#ArialMT-3a" x="606.005859"/>
     <use xlink:href="#ArialMT-20" x="633.789062"/>
     <use xlink:href="#ArialMT-30" x="661.572266"/>
     <use xlink:href="#ArialMT-2e" x="717.1875"/>
     <use xlink:href="#ArialMT-30" x="744.970703"/>
     <use xlink:href="#ArialMT-34" x="800.585938"/>
     <use xlink:href="#ArialMT-33" x="856.201172"/>
     <use xlink:href="#ArialMT-31" x="911.816406"/>
     <use xlink:href="#ArialMT-35" x="967.431641"/>
     <use xlink:href="#ArialMT-39" x="1023.046875"/>
     <use xlink:href="#ArialMT-31" x="1078.662109"/>
     <use xlink:href="#ArialMT-34" x="1134.277344"/>
     <use xlink:href="#ArialMT-31" x="1189.892578"/>
     <use xlink:href="#ArialMT-30" x="1245.507812"/>
     <use xlink:href="#ArialMT-36" x="1301.123047"/>
     <use xlink:href="#ArialMT-36" x="1356.738281"/>
     <use xlink:href="#ArialMT-37" x="1412.353516"/>
     <use xlink:href="#ArialMT-38" x="1467.96875"/>
     <use xlink:href="#ArialMT-33" x="1523.583984"/>
     <use xlink:href="#ArialMT-38" x="1579.199219"/>
     <use xlink:href="#ArialMT-39" x="1634.814453"/>
    </g>
    <!-- T-test pvalue: 0.043169620362539796 -->
    <g style="fill: #262626" transform="translate(90.173934 72.355437) scale(0.12 -0.12)">
     <defs>
      <path id="ArialMT-54" d="M 1659 0 
L 1659 4041 
L 150 4041 
L 150 4581 
L 3781 4581 
L 3781 4041 
L 2266 4041 
L 2266 0 
L 1659 0 
z
" transform="scale(0.015625)"/>
     </defs>
     <use xlink:href="#ArialMT-54"/>
     <use xlink:href="#ArialMT-2d" x="55.583984"/>
     <use xlink:href="#ArialMT-74" x="88.884766"/>
     <use xlink:href="#ArialMT-65" x="116.667969"/>
     <use xlink:href="#ArialMT-73" x="172.283203"/>
     <use xlink:href="#ArialMT-74" x="222.283203"/>
     <use xlink:href="#ArialMT-20" x="250.066406"/>
     <use xlink:href="#ArialMT-70" x="277.849609"/>
     <use xlink:href="#ArialMT-76" x="333.464844"/>
     <use xlink:href="#ArialMT-61" x="383.464844"/>
     <use xlink:href="#ArialMT-6c" x="439.080078"/>
     <use xlink:href="#ArialMT-75" x="461.296875"/>
     <use xlink:href="#ArialMT-65" x="516.912109"/>
     <use xlink:href="#ArialMT-3a" x="572.527344"/>
     <use xlink:href="#ArialMT-20" x="600.310547"/>
     <use xlink:href="#ArialMT-30" x="628.09375"/>
     <use xlink:href="#ArialMT-2e" x="683.708984"/>
     <use xlink:href="#ArialMT-30" x="711.492188"/>
     <use xlink:href="#ArialMT-34" x="767.107422"/>
     <use xlink:href="#ArialMT-33" x="822.722656"/>
     <use xlink:href="#ArialMT-31" x="878.337891"/>
     <use xlink:href="#ArialMT-36" x="933.953125"/>
     <use xlink:href="#ArialMT-39" x="989.568359"/>
     <use xlink:href="#ArialMT-36" x="1045.183594"/>
     <use xlink:href="#ArialMT-32" x="1100.798828"/>
     <use xlink:href="#ArialMT-30" x="1156.414062"/>
     <use xlink:href="#ArialMT-33" x="1212.029297"/>
     <use xlink:href="#ArialMT-36" x="1267.644531"/>
     <use xlink:href="#ArialMT-32" x="1323.259766"/>
     <use xlink:href="#ArialMT-35" x="1378.875"/>
     <use xlink:href="#ArialMT-33" x="1434.490234"/>
     <use xlink:href="#ArialMT-39" x="1490.105469"/>
     <use xlink:href="#ArialMT-37" x="1545.720703"/>
     <use xlink:href="#ArialMT-39" x="1601.335938"/>
     <use xlink:href="#ArialMT-36" x="1656.951172"/>
    </g>
    <!-- MannWhitneyU pvalue: 0.05383989476762064 -->
    <g style="fill: #262626" transform="translate(90.173934 85.090437) scale(0.12 -0.12)">
     <defs>
      <path id="ArialMT-4d" d="M 475 0 
L 475 4581 
L 1388 4581 
L 2472 1338 
Q 2622 884 2691 659 
Q 2769 909 2934 1394 
L 4031 4581 
L 4847 4581 
L 4847 0 
L 4263 0 
L 4263 3834 
L 2931 0 
L 2384 0 
L 1059 3900 
L 1059 0 
L 475 0 
z
" transform="scale(0.015625)"/>
      <path id="ArialMT-57" d="M 1294 0 
L 78 4581 
L 700 4581 
L 1397 1578 
Q 1509 1106 1591 641 
Q 1766 1375 1797 1488 
L 2669 4581 
L 3400 4581 
L 4056 2263 
Q 4303 1400 4413 641 
Q 4500 1075 4641 1638 
L 5359 4581 
L 5969 4581 
L 4713 0 
L 4128 0 
L 3163 3491 
Q 3041 3928 3019 4028 
Q 2947 3713 2884 3491 
L 1913 0 
L 1294 0 
z
" transform="scale(0.015625)"/>
      <path id="ArialMT-68" d="M 422 0 
L 422 4581 
L 984 4581 
L 984 2938 
Q 1378 3394 1978 3394 
Q 2347 3394 2619 3248 
Q 2891 3103 3008 2847 
Q 3125 2591 3125 2103 
L 3125 0 
L 2563 0 
L 2563 2103 
Q 2563 2525 2380 2717 
Q 2197 2909 1863 2909 
Q 1613 2909 1392 2779 
Q 1172 2650 1078 2428 
Q 984 2206 984 1816 
L 984 0 
L 422 0 
z
" transform="scale(0.015625)"/>
      <path id="ArialMT-69" d="M 425 3934 
L 425 4581 
L 988 4581 
L 988 3934 
L 425 3934 
z
M 425 0 
L 425 3319 
L 988 3319 
L 988 0 
L 425 0 
z
" transform="scale(0.015625)"/>
      <path id="ArialMT-79" d="M 397 -1278 
L 334 -750 
Q 519 -800 656 -800 
Q 844 -800 956 -737 
Q 1069 -675 1141 -563 
Q 1194 -478 1313 -144 
Q 1328 -97 1363 -6 
L 103 3319 
L 709 3319 
L 1400 1397 
Q 1534 1031 1641 628 
Q 1738 1016 1872 1384 
L 2581 3319 
L 3144 3319 
L 1881 -56 
Q 1678 -603 1566 -809 
Q 1416 -1088 1222 -1217 
Q 1028 -1347 759 -1347 
Q 597 -1347 397 -1278 
z
" transform="scale(0.015625)"/>
      <path id="ArialMT-55" d="M 3500 4581 
L 4106 4581 
L 4106 1934 
Q 4106 1244 3950 837 
Q 3794 431 3386 176 
Q 2978 -78 2316 -78 
Q 1672 -78 1262 144 
Q 853 366 678 786 
Q 503 1206 503 1934 
L 503 4581 
L 1109 4581 
L 1109 1938 
Q 1109 1341 1220 1058 
Q 1331 775 1601 622 
Q 1872 469 2263 469 
Q 2931 469 3215 772 
Q 3500 1075 3500 1938 
L 3500 4581 
z
" transform="scale(0.015625)"/>
     </defs>
     <use xlink:href="#ArialMT-4d"/>
     <use xlink:href="#ArialMT-61" x="83.300781"/>
     <use xlink:href="#ArialMT-6e" x="138.916016"/>
     <use xlink:href="#ArialMT-6e" x="194.53125"/>
     <use xlink:href="#ArialMT-57" x="250.146484"/>
     <use xlink:href="#ArialMT-68" x="344.53125"/>
     <use xlink:href="#ArialMT-69" x="400.146484"/>
     <use xlink:href="#ArialMT-74" x="422.363281"/>
     <use xlink:href="#ArialMT-6e" x="450.146484"/>
     <use xlink:href="#ArialMT-65" x="505.761719"/>
     <use xlink:href="#ArialMT-79" x="561.376953"/>
     <use xlink:href="#ArialMT-55" x="611.376953"/>
     <use xlink:href="#ArialMT-20" x="683.59375"/>
     <use xlink:href="#ArialMT-70" x="711.376953"/>
     <use xlink:href="#ArialMT-76" x="766.992188"/>
     <use xlink:href="#ArialMT-61" x="816.992188"/>
     <use xlink:href="#ArialMT-6c" x="872.607422"/>
     <use xlink:href="#ArialMT-75" x="894.824219"/>
     <use xlink:href="#ArialMT-65" x="950.439453"/>
     <use xlink:href="#ArialMT-3a" x="1006.054688"/>
     <use xlink:href="#ArialMT-20" x="1033.837891"/>
     <use xlink:href="#ArialMT-30" x="1061.621094"/>
     <use xlink:href="#ArialMT-2e" x="1117.236328"/>
     <use xlink:href="#ArialMT-30" x="1145.019531"/>
     <use xlink:href="#ArialMT-35" x="1200.634766"/>
     <use xlink:href="#ArialMT-33" x="1256.25"/>
     <use xlink:href="#ArialMT-38" x="1311.865234"/>
     <use xlink:href="#ArialMT-33" x="1367.480469"/>
     <use xlink:href="#ArialMT-39" x="1423.095703"/>
     <use xlink:href="#ArialMT-38" x="1478.710938"/>
     <use xlink:href="#ArialMT-39" x="1534.326172"/>
     <use xlink:href="#ArialMT-34" x="1589.941406"/>
     <use xlink:href="#ArialMT-37" x="1645.556641"/>
     <use xlink:href="#ArialMT-36" x="1701.171875"/>
     <use xlink:href="#ArialMT-37" x="1756.787109"/>
     <use xlink:href="#ArialMT-36" x="1812.402344"/>
     <use xlink:href="#ArialMT-32" x="1868.017578"/>
     <use xlink:href="#ArialMT-30" x="1923.632812"/>
     <use xlink:href="#ArialMT-36" x="1979.248047"/>
     <use xlink:href="#ArialMT-34" x="2034.863281"/>
    </g>
    <!-- Wilcoxon pvalue: 2.050045546566148e-17 -->
    <g style="fill: #262626" transform="translate(90.173934 97.966062) scale(0.12 -0.12)">
     <defs>
      <path id="ArialMT-63" d="M 2588 1216 
L 3141 1144 
Q 3050 572 2676 248 
Q 2303 -75 1759 -75 
Q 1078 -75 664 370 
Q 250 816 250 1647 
Q 250 2184 428 2587 
Q 606 2991 970 3192 
Q 1334 3394 1763 3394 
Q 2303 3394 2647 3120 
Q 2991 2847 3088 2344 
L 2541 2259 
Q 2463 2594 2264 2762 
Q 2066 2931 1784 2931 
Q 1359 2931 1093 2626 
Q 828 2322 828 1663 
Q 828 994 1084 691 
Q 1341 388 1753 388 
Q 2084 388 2306 591 
Q 2528 794 2588 1216 
z
" transform="scale(0.015625)"/>
      <path id="ArialMT-78" d="M 47 0 
L 1259 1725 
L 138 3319 
L 841 3319 
L 1350 2541 
Q 1494 2319 1581 2169 
Q 1719 2375 1834 2534 
L 2394 3319 
L 3066 3319 
L 1919 1756 
L 3153 0 
L 2463 0 
L 1781 1031 
L 1600 1309 
L 728 0 
L 47 0 
z
" transform="scale(0.015625)"/>
     </defs>
     <use xlink:href="#ArialMT-57"/>
     <use xlink:href="#ArialMT-69" x="94.384766"/>
     <use xlink:href="#ArialMT-6c" x="116.601562"/>
     <use xlink:href="#ArialMT-63" x="138.818359"/>
     <use xlink:href="#ArialMT-6f" x="188.818359"/>
     <use xlink:href="#ArialMT-78" x="244.433594"/>
     <use xlink:href="#ArialMT-6f" x="294.433594"/>
     <use xlink:href="#ArialMT-6e" x="350.048828"/>
     <use xlink:href="#ArialMT-20" x="405.664062"/>
     <use xlink:href="#ArialMT-70" x="433.447266"/>
     <use xlink:href="#ArialMT-76" x="489.0625"/>
     <use xlink:href="#ArialMT-61" x="539.0625"/>
     <use xlink:href="#ArialMT-6c" x="594.677734"/>
     <use xlink:href="#ArialMT-75" x="616.894531"/>
     <use xlink:href="#ArialMT-65" x="672.509766"/>
     <use xlink:href="#ArialMT-3a" x="728.125"/>
     <use xlink:href="#ArialMT-20" x="755.908203"/>
     <use xlink:href="#ArialMT-32" x="783.691406"/>
     <use xlink:href="#ArialMT-2e" x="839.306641"/>
     <use xlink:href="#ArialMT-30" x="867.089844"/>
     <use xlink:href="#ArialMT-35" x="922.705078"/>
     <use xlink:href="#ArialMT-30" x="978.320312"/>
     <use xlink:href="#ArialMT-30" x="1033.935547"/>
     <use xlink:href="#ArialMT-34" x="1089.550781"/>
     <use xlink:href="#ArialMT-35" x="1145.166016"/>
     <use xlink:href="#ArialMT-35" x="1200.78125"/>
     <use xlink:href="#ArialMT-34" x="1256.396484"/>
     <use xlink:href="#ArialMT-36" x="1312.011719"/>
     <use xlink:href="#ArialMT-35" x="1367.626953"/>
     <use xlink:href="#ArialMT-36" x="1423.242188"/>
     <use xlink:href="#ArialMT-36" x="1478.857422"/>
     <use xlink:href="#ArialMT-31" x="1534.472656"/>
     <use xlink:href="#ArialMT-34" x="1590.087891"/>
     <use xlink:href="#ArialMT-38" x="1645.703125"/>
     <use xlink:href="#ArialMT-65" x="1701.318359"/>
     <use xlink:href="#ArialMT-2d" x="1756.933594"/>
     <use xlink:href="#ArialMT-31" x="1790.234375"/>
     <use xlink:href="#ArialMT-37" x="1845.849609"/>
    </g>
   </g>
   <g id="text_16">
    <g id="patch_8">
     <path d="M 90.173934 256.486437 
L 212.833309 256.486437 
Q 215.833309 256.486437 215.833309 253.486437 
L 215.833309 127.375812 
Q 215.833309 124.375812 212.833309 124.375812 
L 90.173934 124.375812 
Q 87.173934 124.375812 87.173934 127.375812 
L 87.173934 253.486437 
Q 87.173934 256.486437 90.173934 256.486437 
z
" style="fill: #fffff0; opacity: 0.8; stroke: #000000; stroke-width: 0.3; stroke-linejoin: miter"/>
    </g>
    <!-- Series Test_High_Value: -->
    <g style="fill: #262626" transform="translate(90.173934 134.772687) scale(0.1 -0.1)">
     <defs>
      <path id="ArialMT-72" d="M 416 0 
L 416 3319 
L 922 3319 
L 922 2816 
Q 1116 3169 1280 3281 
Q 1444 3394 1641 3394 
Q 1925 3394 2219 3213 
L 2025 2691 
Q 1819 2813 1613 2813 
Q 1428 2813 1281 2702 
Q 1134 2591 1072 2394 
Q 978 2094 978 1738 
L 978 0 
L 416 0 
z
" transform="scale(0.015625)"/>
      <path id="ArialMT-5f" d="M -97 -1272 
L -97 -866 
L 3631 -866 
L 3631 -1272 
L -97 -1272 
z
" transform="scale(0.015625)"/>
      <path id="ArialMT-48" d="M 513 0 
L 513 4581 
L 1119 4581 
L 1119 2700 
L 3500 2700 
L 3500 4581 
L 4106 4581 
L 4106 0 
L 3500 0 
L 3500 2159 
L 1119 2159 
L 1119 0 
L 513 0 
z
" transform="scale(0.015625)"/>
      <path id="ArialMT-67" d="M 319 -275 
L 866 -356 
Q 900 -609 1056 -725 
Q 1266 -881 1628 -881 
Q 2019 -881 2231 -725 
Q 2444 -569 2519 -288 
Q 2563 -116 2559 434 
Q 2191 0 1641 0 
Q 956 0 581 494 
Q 206 988 206 1678 
Q 206 2153 378 2554 
Q 550 2956 876 3175 
Q 1203 3394 1644 3394 
Q 2231 3394 2613 2919 
L 2613 3319 
L 3131 3319 
L 3131 450 
Q 3131 -325 2973 -648 
Q 2816 -972 2473 -1159 
Q 2131 -1347 1631 -1347 
Q 1038 -1347 672 -1080 
Q 306 -813 319 -275 
z
M 784 1719 
Q 784 1066 1043 766 
Q 1303 466 1694 466 
Q 2081 466 2343 764 
Q 2606 1063 2606 1700 
Q 2606 2309 2336 2618 
Q 2066 2928 1684 2928 
Q 1309 2928 1046 2623 
Q 784 2319 784 1719 
z
" transform="scale(0.015625)"/>
      <path id="ArialMT-56" d="M 1803 0 
L 28 4581 
L 684 4581 
L 1875 1253 
Q 2019 853 2116 503 
Q 2222 878 2363 1253 
L 3600 4581 
L 4219 4581 
L 2425 0 
L 1803 0 
z
" transform="scale(0.015625)"/>
     </defs>
     <use xlink:href="#ArialMT-53"/>
     <use xlink:href="#ArialMT-65" x="66.699219"/>
     <use xlink:href="#ArialMT-72" x="122.314453"/>
     <use xlink:href="#ArialMT-69" x="155.615234"/>
     <use xlink:href="#ArialMT-65" x="177.832031"/>
     <use xlink:href="#ArialMT-73" x="233.447266"/>
     <use xlink:href="#ArialMT-20" x="283.447266"/>
     <use xlink:href="#ArialMT-54" x="309.480469"/>
     <use xlink:href="#ArialMT-65" x="359.439453"/>
     <use xlink:href="#ArialMT-73" x="415.054688"/>
     <use xlink:href="#ArialMT-74" x="465.054688"/>
     <use xlink:href="#ArialMT-5f" x="492.837891"/>
     <use xlink:href="#ArialMT-48" x="548.453125"/>
     <use xlink:href="#ArialMT-69" x="620.669922"/>
     <use xlink:href="#ArialMT-67" x="642.886719"/>
     <use xlink:href="#ArialMT-68" x="698.501953"/>
     <use xlink:href="#ArialMT-5f" x="754.117188"/>
     <use xlink:href="#ArialMT-56" x="809.732422"/>
     <use xlink:href="#ArialMT-61" x="869.056641"/>
     <use xlink:href="#ArialMT-6c" x="924.671875"/>
     <use xlink:href="#ArialMT-75" x="946.888672"/>
     <use xlink:href="#ArialMT-65" x="1002.503906"/>
     <use xlink:href="#ArialMT-3a" x="1058.119141"/>
    </g>
    <!--    Mean: 57389.57 -->
    <g style="fill: #262626" transform="translate(90.173934 145.46675) scale(0.1 -0.1)">
     <use xlink:href="#ArialMT-20"/>
     <use xlink:href="#ArialMT-20" x="27.783203"/>
     <use xlink:href="#ArialMT-20" x="55.566406"/>
     <use xlink:href="#ArialMT-4d" x="83.349609"/>
     <use xlink:href="#ArialMT-65" x="166.650391"/>
     <use xlink:href="#ArialMT-61" x="222.265625"/>
     <use xlink:href="#ArialMT-6e" x="277.880859"/>
     <use xlink:href="#ArialMT-3a" x="333.496094"/>
     <use xlink:href="#ArialMT-20" x="361.279297"/>
     <use xlink:href="#ArialMT-35" x="389.0625"/>
     <use xlink:href="#ArialMT-37" x="444.677734"/>
     <use xlink:href="#ArialMT-33" x="500.292969"/>
     <use xlink:href="#ArialMT-38" x="555.908203"/>
     <use xlink:href="#ArialMT-39" x="611.523438"/>
     <use xlink:href="#ArialMT-2e" x="667.138672"/>
     <use xlink:href="#ArialMT-35" x="694.921875"/>
     <use xlink:href="#ArialMT-37" x="750.537109"/>
    </g>
    <!--    Median: 57545.67 -->
    <g style="fill: #262626" transform="translate(90.173934 156.043625) scale(0.1 -0.1)">
     <defs>
      <path id="ArialMT-64" d="M 2575 0 
L 2575 419 
Q 2259 -75 1647 -75 
Q 1250 -75 917 144 
Q 584 363 401 755 
Q 219 1147 219 1656 
Q 219 2153 384 2558 
Q 550 2963 881 3178 
Q 1213 3394 1622 3394 
Q 1922 3394 2156 3267 
Q 2391 3141 2538 2938 
L 2538 4581 
L 3097 4581 
L 3097 0 
L 2575 0 
z
M 797 1656 
Q 797 1019 1065 703 
Q 1334 388 1700 388 
Q 2069 388 2326 689 
Q 2584 991 2584 1609 
Q 2584 2291 2321 2609 
Q 2059 2928 1675 2928 
Q 1300 2928 1048 2622 
Q 797 2316 797 1656 
z
" transform="scale(0.015625)"/>
     </defs>
     <use xlink:href="#ArialMT-20"/>
     <use xlink:href="#ArialMT-20" x="27.783203"/>
     <use xlink:href="#ArialMT-20" x="55.566406"/>
     <use xlink:href="#ArialMT-4d" x="83.349609"/>
     <use xlink:href="#ArialMT-65" x="166.650391"/>
     <use xlink:href="#ArialMT-64" x="222.265625"/>
     <use xlink:href="#ArialMT-69" x="277.880859"/>
     <use xlink:href="#ArialMT-61" x="300.097656"/>
     <use xlink:href="#ArialMT-6e" x="355.712891"/>
     <use xlink:href="#ArialMT-3a" x="411.328125"/>
     <use xlink:href="#ArialMT-20" x="439.111328"/>
     <use xlink:href="#ArialMT-35" x="466.894531"/>
     <use xlink:href="#ArialMT-37" x="522.509766"/>
     <use xlink:href="#ArialMT-35" x="578.125"/>
     <use xlink:href="#ArialMT-34" x="633.740234"/>
     <use xlink:href="#ArialMT-35" x="689.355469"/>
     <use xlink:href="#ArialMT-2e" x="744.970703"/>
     <use xlink:href="#ArialMT-36" x="772.753906"/>
     <use xlink:href="#ArialMT-37" x="828.369141"/>
    </g>
    <!--    Stddev: 26705.01 -->
    <g style="fill: #262626" transform="translate(90.173934 166.6205) scale(0.1 -0.1)">
     <use xlink:href="#ArialMT-20"/>
     <use xlink:href="#ArialMT-20" x="27.783203"/>
     <use xlink:href="#ArialMT-20" x="55.566406"/>
     <use xlink:href="#ArialMT-53" x="83.349609"/>
     <use xlink:href="#ArialMT-74" x="150.048828"/>
     <use xlink:href="#ArialMT-64" x="177.832031"/>
     <use xlink:href="#ArialMT-64" x="233.447266"/>
     <use xlink:href="#ArialMT-65" x="289.0625"/>
     <use xlink:href="#ArialMT-76" x="344.677734"/>
     <use xlink:href="#ArialMT-3a" x="394.677734"/>
     <use xlink:href="#ArialMT-20" x="422.460938"/>
     <use xlink:href="#ArialMT-32" x="450.244141"/>
     <use xlink:href="#ArialMT-36" x="505.859375"/>
     <use xlink:href="#ArialMT-37" x="561.474609"/>
     <use xlink:href="#ArialMT-30" x="617.089844"/>
     <use xlink:href="#ArialMT-35" x="672.705078"/>
     <use xlink:href="#ArialMT-2e" x="728.320312"/>
     <use xlink:href="#ArialMT-30" x="756.103516"/>
     <use xlink:href="#ArialMT-31" x="811.71875"/>
    </g>
    <!--    Variance: 713157674.03 -->
    <g style="fill: #262626" transform="translate(90.173934 177.197375) scale(0.1 -0.1)">
     <use xlink:href="#ArialMT-20"/>
     <use xlink:href="#ArialMT-20" x="27.783203"/>
     <use xlink:href="#ArialMT-20" x="55.566406"/>
     <use xlink:href="#ArialMT-56" x="83.349609"/>
     <use xlink:href="#ArialMT-61" x="142.673828"/>
     <use xlink:href="#ArialMT-72" x="198.289062"/>
     <use xlink:href="#ArialMT-69" x="231.589844"/>
     <use xlink:href="#ArialMT-61" x="253.806641"/>
     <use xlink:href="#ArialMT-6e" x="309.421875"/>
     <use xlink:href="#ArialMT-63" x="365.037109"/>
     <use xlink:href="#ArialMT-65" x="415.037109"/>
     <use xlink:href="#ArialMT-3a" x="470.652344"/>
     <use xlink:href="#ArialMT-20" x="498.435547"/>
     <use xlink:href="#ArialMT-37" x="526.21875"/>
     <use xlink:href="#ArialMT-31" x="581.833984"/>
     <use xlink:href="#ArialMT-33" x="637.449219"/>
     <use xlink:href="#ArialMT-31" x="693.064453"/>
     <use xlink:href="#ArialMT-35" x="748.679688"/>
     <use xlink:href="#ArialMT-37" x="804.294922"/>
     <use xlink:href="#ArialMT-36" x="859.910156"/>
     <use xlink:href="#ArialMT-37" x="915.525391"/>
     <use xlink:href="#ArialMT-34" x="971.140625"/>
     <use xlink:href="#ArialMT-2e" x="1026.755859"/>
     <use xlink:href="#ArialMT-30" x="1054.539062"/>
     <use xlink:href="#ArialMT-33" x="1110.154297"/>
    </g>
    <!--    Sum: 8608434.97 -->
    <g style="fill: #262626" transform="translate(90.173934 187.77425) scale(0.1 -0.1)">
     <defs>
      <path id="ArialMT-6d" d="M 422 0 
L 422 3319 
L 925 3319 
L 925 2853 
Q 1081 3097 1340 3245 
Q 1600 3394 1931 3394 
Q 2300 3394 2536 3241 
Q 2772 3088 2869 2813 
Q 3263 3394 3894 3394 
Q 4388 3394 4653 3120 
Q 4919 2847 4919 2278 
L 4919 0 
L 4359 0 
L 4359 2091 
Q 4359 2428 4304 2576 
Q 4250 2725 4106 2815 
Q 3963 2906 3769 2906 
Q 3419 2906 3187 2673 
Q 2956 2441 2956 1928 
L 2956 0 
L 2394 0 
L 2394 2156 
Q 2394 2531 2256 2718 
Q 2119 2906 1806 2906 
Q 1569 2906 1367 2781 
Q 1166 2656 1075 2415 
Q 984 2175 984 1722 
L 984 0 
L 422 0 
z
" transform="scale(0.015625)"/>
     </defs>
     <use xlink:href="#ArialMT-20"/>
     <use xlink:href="#ArialMT-20" x="27.783203"/>
     <use xlink:href="#ArialMT-20" x="55.566406"/>
     <use xlink:href="#ArialMT-53" x="83.349609"/>
     <use xlink:href="#ArialMT-75" x="150.048828"/>
     <use xlink:href="#ArialMT-6d" x="205.664062"/>
     <use xlink:href="#ArialMT-3a" x="288.964844"/>
     <use xlink:href="#ArialMT-20" x="316.748047"/>
     <use xlink:href="#ArialMT-38" x="344.53125"/>
     <use xlink:href="#ArialMT-36" x="400.146484"/>
     <use xlink:href="#ArialMT-30" x="455.761719"/>
     <use xlink:href="#ArialMT-38" x="511.376953"/>
     <use xlink:href="#ArialMT-34" x="566.992188"/>
     <use xlink:href="#ArialMT-33" x="622.607422"/>
     <use xlink:href="#ArialMT-34" x="678.222656"/>
     <use xlink:href="#ArialMT-2e" x="733.837891"/>
     <use xlink:href="#ArialMT-39" x="761.621094"/>
     <use xlink:href="#ArialMT-37" x="817.236328"/>
    </g>
    <!-- Series Control_High_Value: -->
    <g style="fill: #262626" transform="translate(90.173934 198.497375) scale(0.1 -0.1)">
     <defs>
      <path id="ArialMT-43" d="M 3763 1606 
L 4369 1453 
Q 4178 706 3683 314 
Q 3188 -78 2472 -78 
Q 1731 -78 1267 223 
Q 803 525 561 1097 
Q 319 1669 319 2325 
Q 319 3041 592 3573 
Q 866 4106 1370 4382 
Q 1875 4659 2481 4659 
Q 3169 4659 3637 4309 
Q 4106 3959 4291 3325 
L 3694 3184 
Q 3534 3684 3231 3912 
Q 2928 4141 2469 4141 
Q 1941 4141 1586 3887 
Q 1231 3634 1087 3207 
Q 944 2781 944 2328 
Q 944 1744 1114 1308 
Q 1284 872 1643 656 
Q 2003 441 2422 441 
Q 2931 441 3284 734 
Q 3638 1028 3763 1606 
z
" transform="scale(0.015625)"/>
     </defs>
     <use xlink:href="#ArialMT-53"/>
     <use xlink:href="#ArialMT-65" x="66.699219"/>
     <use xlink:href="#ArialMT-72" x="122.314453"/>
     <use xlink:href="#ArialMT-69" x="155.615234"/>
     <use xlink:href="#ArialMT-65" x="177.832031"/>
     <use xlink:href="#ArialMT-73" x="233.447266"/>
     <use xlink:href="#ArialMT-20" x="283.447266"/>
     <use xlink:href="#ArialMT-43" x="311.230469"/>
     <use xlink:href="#ArialMT-6f" x="383.447266"/>
     <use xlink:href="#ArialMT-6e" x="439.0625"/>
     <use xlink:href="#ArialMT-74" x="494.677734"/>
     <use xlink:href="#ArialMT-72" x="522.460938"/>
     <use xlink:href="#ArialMT-6f" x="555.761719"/>
     <use xlink:href="#ArialMT-6c" x="611.376953"/>
     <use xlink:href="#ArialMT-5f" x="633.59375"/>
     <use xlink:href="#ArialMT-48" x="689.208984"/>
     <use xlink:href="#ArialMT-69" x="761.425781"/>
     <use xlink:href="#ArialMT-67" x="783.642578"/>
     <use xlink:href="#ArialMT-68" x="839.257812"/>
     <use xlink:href="#ArialMT-5f" x="894.873047"/>
     <use xlink:href="#ArialMT-56" x="950.488281"/>
     <use xlink:href="#ArialMT-61" x="1009.8125"/>
     <use xlink:href="#ArialMT-6c" x="1065.427734"/>
     <use xlink:href="#ArialMT-75" x="1087.644531"/>
     <use xlink:href="#ArialMT-65" x="1143.259766"/>
     <use xlink:href="#ArialMT-3a" x="1198.875"/>
    </g>
    <!--    Mean: 51421.83 -->
    <g style="fill: #262626" transform="translate(90.173934 209.191437) scale(0.1 -0.1)">
     <use xlink:href="#ArialMT-20"/>
     <use xlink:href="#ArialMT-20" x="27.783203"/>
     <use xlink:href="#ArialMT-20" x="55.566406"/>
     <use xlink:href="#ArialMT-4d" x="83.349609"/>
     <use xlink:href="#ArialMT-65" x="166.650391"/>
     <use xlink:href="#ArialMT-61" x="222.265625"/>
     <use xlink:href="#ArialMT-6e" x="277.880859"/>
     <use xlink:href="#ArialMT-3a" x="333.496094"/>
     <use xlink:href="#ArialMT-20" x="361.279297"/>
     <use xlink:href="#ArialMT-35" x="389.0625"/>
     <use xlink:href="#ArialMT-31" x="444.677734"/>
     <use xlink:href="#ArialMT-34" x="500.292969"/>
     <use xlink:href="#ArialMT-32" x="555.908203"/>
     <use xlink:href="#ArialMT-31" x="611.523438"/>
     <use xlink:href="#ArialMT-2e" x="667.138672"/>
     <use xlink:href="#ArialMT-38" x="694.921875"/>
     <use xlink:href="#ArialMT-33" x="750.537109"/>
    </g>
    <!--    Median: 51047.48 -->
    <g style="fill: #262626" transform="translate(90.173934 219.768312) scale(0.1 -0.1)">
     <use xlink:href="#ArialMT-20"/>
     <use xlink:href="#ArialMT-20" x="27.783203"/>
     <use xlink:href="#ArialMT-20" x="55.566406"/>
     <use xlink:href="#ArialMT-4d" x="83.349609"/>
     <use xlink:href="#ArialMT-65" x="166.650391"/>
     <use xlink:href="#ArialMT-64" x="222.265625"/>
     <use xlink:href="#ArialMT-69" x="277.880859"/>
     <use xlink:href="#ArialMT-61" x="300.097656"/>
     <use xlink:href="#ArialMT-6e" x="355.712891"/>
     <use xlink:href="#ArialMT-3a" x="411.328125"/>
     <use xlink:href="#ArialMT-20" x="439.111328"/>
     <use xlink:href="#ArialMT-35" x="466.894531"/>
     <use xlink:href="#ArialMT-31" x="522.509766"/>
     <use xlink:href="#ArialMT-30" x="578.125"/>
     <use xlink:href="#ArialMT-34" x="633.740234"/>
     <use xlink:href="#ArialMT-37" x="689.355469"/>
     <use xlink:href="#ArialMT-2e" x="744.970703"/>
     <use xlink:href="#ArialMT-34" x="772.753906"/>
     <use xlink:href="#ArialMT-38" x="828.369141"/>
    </g>
    <!--    Stddev: 23947.40 -->
    <g style="fill: #262626" transform="translate(90.173934 230.345187) scale(0.1 -0.1)">
     <use xlink:href="#ArialMT-20"/>
     <use xlink:href="#ArialMT-20" x="27.783203"/>
     <use xlink:href="#ArialMT-20" x="55.566406"/>
     <use xlink:href="#ArialMT-53" x="83.349609"/>
     <use xlink:href="#ArialMT-74" x="150.048828"/>
     <use xlink:href="#ArialMT-64" x="177.832031"/>
     <use xlink:href="#ArialMT-64" x="233.447266"/>
     <use xlink:href="#ArialMT-65" x="289.0625"/>
     <use xlink:href="#ArialMT-76" x="344.677734"/>
     <use xlink:href="#ArialMT-3a" x="394.677734"/>
     <use xlink:href="#ArialMT-20" x="422.460938"/>
     <use xlink:href="#ArialMT-32" x="450.244141"/>
     <use xlink:href="#ArialMT-33" x="505.859375"/>
     <use xlink:href="#ArialMT-39" x="561.474609"/>
     <use xlink:href="#ArialMT-34" x="617.089844"/>
     <use xlink:href="#ArialMT-37" x="672.705078"/>
     <use xlink:href="#ArialMT-2e" x="728.320312"/>
     <use xlink:href="#ArialMT-34" x="756.103516"/>
     <use xlink:href="#ArialMT-30" x="811.71875"/>
    </g>
    <!--    Variance: 573478205.96 -->
    <g style="fill: #262626" transform="translate(90.173934 240.922062) scale(0.1 -0.1)">
     <use xlink:href="#ArialMT-20"/>
     <use xlink:href="#ArialMT-20" x="27.783203"/>
     <use xlink:href="#ArialMT-20" x="55.566406"/>
     <use xlink:href="#ArialMT-56" x="83.349609"/>
     <use xlink:href="#ArialMT-61" x="142.673828"/>
     <use xlink:href="#ArialMT-72" x="198.289062"/>
     <use xlink:href="#ArialMT-69" x="231.589844"/>
     <use xlink:href="#ArialMT-61" x="253.806641"/>
     <use xlink:href="#ArialMT-6e" x="309.421875"/>
     <use xlink:href="#ArialMT-63" x="365.037109"/>
     <use xlink:href="#ArialMT-65" x="415.037109"/>
     <use xlink:href="#ArialMT-3a" x="470.652344"/>
     <use xlink:href="#ArialMT-20" x="498.435547"/>
     <use xlink:href="#ArialMT-35" x="526.21875"/>
     <use xlink:href="#ArialMT-37" x="581.833984"/>
     <use xlink:href="#ArialMT-33" x="637.449219"/>
     <use xlink:href="#ArialMT-34" x="693.064453"/>
     <use xlink:href="#ArialMT-37" x="748.679688"/>
     <use xlink:href="#ArialMT-38" x="804.294922"/>
     <use xlink:href="#ArialMT-32" x="859.910156"/>
     <use xlink:href="#ArialMT-30" x="915.525391"/>
     <use xlink:href="#ArialMT-35" x="971.140625"/>
     <use xlink:href="#ArialMT-2e" x="1026.755859"/>
     <use xlink:href="#ArialMT-39" x="1054.539062"/>
     <use xlink:href="#ArialMT-36" x="1110.154297"/>
    </g>
    <!--    Sum: 7713274.55 -->
    <g style="fill: #262626" transform="translate(90.173934 251.498937) scale(0.1 -0.1)">
     <use xlink:href="#ArialMT-20"/>
     <use xlink:href="#ArialMT-20" x="27.783203"/>
     <use xlink:href="#ArialMT-20" x="55.566406"/>
     <use xlink:href="#ArialMT-53" x="83.349609"/>
     <use xlink:href="#ArialMT-75" x="150.048828"/>
     <use xlink:href="#ArialMT-6d" x="205.664062"/>
     <use xlink:href="#ArialMT-3a" x="288.964844"/>
     <use xlink:href="#ArialMT-20" x="316.748047"/>
     <use xlink:href="#ArialMT-37" x="344.53125"/>
     <use xlink:href="#ArialMT-37" x="400.146484"/>
     <use xlink:href="#ArialMT-31" x="455.761719"/>
     <use xlink:href="#ArialMT-33" x="511.376953"/>
     <use xlink:href="#ArialMT-32" x="566.992188"/>
     <use xlink:href="#ArialMT-37" x="622.607422"/>
     <use xlink:href="#ArialMT-34" x="678.222656"/>
     <use xlink:href="#ArialMT-2e" x="733.837891"/>
     <use xlink:href="#ArialMT-35" x="761.621094"/>
     <use xlink:href="#ArialMT-35" x="817.236328"/>
    </g>
   </g>
   <g id="text_17">
    <!-- Comparison of Sales between tests Test_High_Value and Control_High_Value -->
    <g style="fill: #262626" transform="translate(106.045593 19.49625) scale(0.12 -0.12)">
     <defs>
      <path id="ArialMT-66" d="M 556 0 
L 556 2881 
L 59 2881 
L 59 3319 
L 556 3319 
L 556 3672 
Q 556 4006 616 4169 
Q 697 4388 901 4523 
Q 1106 4659 1475 4659 
Q 1713 4659 2000 4603 
L 1916 4113 
Q 1741 4144 1584 4144 
Q 1328 4144 1222 4034 
Q 1116 3925 1116 3625 
L 1116 3319 
L 1763 3319 
L 1763 2881 
L 1116 2881 
L 1116 0 
L 556 0 
z
" transform="scale(0.015625)"/>
      <path id="ArialMT-62" d="M 941 0 
L 419 0 
L 419 4581 
L 981 4581 
L 981 2947 
Q 1338 3394 1891 3394 
Q 2197 3394 2470 3270 
Q 2744 3147 2920 2923 
Q 3097 2700 3197 2384 
Q 3297 2069 3297 1709 
Q 3297 856 2875 390 
Q 2453 -75 1863 -75 
Q 1275 -75 941 416 
L 941 0 
z
M 934 1684 
Q 934 1088 1097 822 
Q 1363 388 1816 388 
Q 2184 388 2453 708 
Q 2722 1028 2722 1663 
Q 2722 2313 2464 2622 
Q 2206 2931 1841 2931 
Q 1472 2931 1203 2611 
Q 934 2291 934 1684 
z
" transform="scale(0.015625)"/>
      <path id="ArialMT-77" d="M 1034 0 
L 19 3319 
L 600 3319 
L 1128 1403 
L 1325 691 
Q 1338 744 1497 1375 
L 2025 3319 
L 2603 3319 
L 3100 1394 
L 3266 759 
L 3456 1400 
L 4025 3319 
L 4572 3319 
L 3534 0 
L 2950 0 
L 2422 1988 
L 2294 2553 
L 1622 0 
L 1034 0 
z
" transform="scale(0.015625)"/>
     </defs>
     <use xlink:href="#ArialMT-43"/>
     <use xlink:href="#ArialMT-6f" x="72.216797"/>
     <use xlink:href="#ArialMT-6d" x="127.832031"/>
     <use xlink:href="#ArialMT-70" x="211.132812"/>
     <use xlink:href="#ArialMT-61" x="266.748047"/>
     <use xlink:href="#ArialMT-72" x="322.363281"/>
     <use xlink:href="#ArialMT-69" x="355.664062"/>
     <use xlink:href="#ArialMT-73" x="377.880859"/>
     <use xlink:href="#ArialMT-6f" x="427.880859"/>
     <use xlink:href="#ArialMT-6e" x="483.496094"/>
     <use xlink:href="#ArialMT-20" x="539.111328"/>
     <use xlink:href="#ArialMT-6f" x="566.894531"/>
     <use xlink:href="#ArialMT-66" x="622.509766"/>
     <use xlink:href="#ArialMT-20" x="650.292969"/>
     <use xlink:href="#ArialMT-53" x="678.076172"/>
     <use xlink:href="#ArialMT-61" x="744.775391"/>
     <use xlink:href="#ArialMT-6c" x="800.390625"/>
     <use xlink:href="#ArialMT-65" x="822.607422"/>
     <use xlink:href="#ArialMT-73" x="878.222656"/>
     <use xlink:href="#ArialMT-20" x="928.222656"/>
     <use xlink:href="#ArialMT-62" x="956.005859"/>
     <use xlink:href="#ArialMT-65" x="1011.621094"/>
     <use xlink:href="#ArialMT-74" x="1067.236328"/>
     <use xlink:href="#ArialMT-77" x="1095.019531"/>
     <use xlink:href="#ArialMT-65" x="1167.236328"/>
     <use xlink:href="#ArialMT-65" x="1222.851562"/>
     <use xlink:href="#ArialMT-6e" x="1278.466797"/>
     <use xlink:href="#ArialMT-20" x="1334.082031"/>
     <use xlink:href="#ArialMT-74" x="1361.865234"/>
     <use xlink:href="#ArialMT-65" x="1389.648438"/>
     <use xlink:href="#ArialMT-73" x="1445.263672"/>
     <use xlink:href="#ArialMT-74" x="1495.263672"/>
     <use xlink:href="#ArialMT-73" x="1523.046875"/>
     <use xlink:href="#ArialMT-20" x="1573.046875"/>
     <use xlink:href="#ArialMT-54" x="1599.080078"/>
     <use xlink:href="#ArialMT-65" x="1649.039062"/>
     <use xlink:href="#ArialMT-73" x="1704.654297"/>
     <use xlink:href="#ArialMT-74" x="1754.654297"/>
     <use xlink:href="#ArialMT-5f" x="1782.4375"/>
     <use xlink:href="#ArialMT-48" x="1838.052734"/>
     <use xlink:href="#ArialMT-69" x="1910.269531"/>
     <use xlink:href="#ArialMT-67" x="1932.486328"/>
     <use xlink:href="#ArialMT-68" x="1988.101562"/>
     <use xlink:href="#ArialMT-5f" x="2043.716797"/>
     <use xlink:href="#ArialMT-56" x="2099.332031"/>
     <use xlink:href="#ArialMT-61" x="2158.65625"/>
     <use xlink:href="#ArialMT-6c" x="2214.271484"/>
     <use xlink:href="#ArialMT-75" x="2236.488281"/>
     <use xlink:href="#ArialMT-65" x="2292.103516"/>
     <use xlink:href="#ArialMT-20" x="2347.71875"/>
     <use xlink:href="#ArialMT-61" x="2375.501953"/>
     <use xlink:href="#ArialMT-6e" x="2431.117188"/>
     <use xlink:href="#ArialMT-64" x="2486.732422"/>
     <use xlink:href="#ArialMT-20" x="2542.347656"/>
     <use xlink:href="#ArialMT-43" x="2570.130859"/>
     <use xlink:href="#ArialMT-6f" x="2642.347656"/>
     <use xlink:href="#ArialMT-6e" x="2697.962891"/>
     <use xlink:href="#ArialMT-74" x="2753.578125"/>
     <use xlink:href="#ArialMT-72" x="2781.361328"/>
     <use xlink:href="#ArialMT-6f" x="2814.662109"/>
     <use xlink:href="#ArialMT-6c" x="2870.277344"/>
     <use xlink:href="#ArialMT-5f" x="2892.494141"/>
     <use xlink:href="#ArialMT-48" x="2948.109375"/>
     <use xlink:href="#ArialMT-69" x="3020.326172"/>
     <use xlink:href="#ArialMT-67" x="3042.542969"/>
     <use xlink:href="#ArialMT-68" x="3098.158203"/>
     <use xlink:href="#ArialMT-5f" x="3153.773438"/>
     <use xlink:href="#ArialMT-56" x="3209.388672"/>
     <use xlink:href="#ArialMT-61" x="3268.712891"/>
     <use xlink:href="#ArialMT-6c" x="3324.328125"/>
     <use xlink:href="#ArialMT-75" x="3346.544922"/>
     <use xlink:href="#ArialMT-65" x="3402.160156"/>
    </g>
   </g>
   <g id="legend_1">
    <g id="line2d_27">
     <path d="M 435.87931 506.490937 
L 445.87931 506.490937 
L 455.87931 506.490937 
" style="fill: none; stroke: #8b0000; stroke-width: 1.75; stroke-linecap: round"/>
    </g>
    <g id="text_18">
     <!-- Test_High_Value -->
     <g style="fill: #262626" transform="translate(463.87931 509.990937) scale(0.1 -0.1)">
      <use xlink:href="#ArialMT-54"/>
      <use xlink:href="#ArialMT-65" x="49.958984"/>
      <use xlink:href="#ArialMT-73" x="105.574219"/>
      <use xlink:href="#ArialMT-74" x="155.574219"/>
      <use xlink:href="#ArialMT-5f" x="183.357422"/>
      <use xlink:href="#ArialMT-48" x="238.972656"/>
      <use xlink:href="#ArialMT-69" x="311.189453"/>
      <use xlink:href="#ArialMT-67" x="333.40625"/>
      <use xlink:href="#ArialMT-68" x="389.021484"/>
      <use xlink:href="#ArialMT-5f" x="444.636719"/>
      <use xlink:href="#ArialMT-56" x="500.251953"/>
      <use xlink:href="#ArialMT-61" x="559.576172"/>
      <use xlink:href="#ArialMT-6c" x="615.191406"/>
      <use xlink:href="#ArialMT-75" x="637.408203"/>
      <use xlink:href="#ArialMT-65" x="693.023438"/>
     </g>
    </g>
    <g id="line2d_28">
     <path d="M 435.87931 520.875313 
L 445.87931 520.875313 
L 455.87931 520.875313 
" style="fill: none; stroke: #008000; stroke-width: 1.75; stroke-linecap: round"/>
    </g>
    <g id="text_19">
     <!-- Control_High_Value -->
     <g style="fill: #262626" transform="translate(463.87931 524.375313) scale(0.1 -0.1)">
      <use xlink:href="#ArialMT-43"/>
      <use xlink:href="#ArialMT-6f" x="72.216797"/>
      <use xlink:href="#ArialMT-6e" x="127.832031"/>
      <use xlink:href="#ArialMT-74" x="183.447266"/>
      <use xlink:href="#ArialMT-72" x="211.230469"/>
      <use xlink:href="#ArialMT-6f" x="244.53125"/>
      <use xlink:href="#ArialMT-6c" x="300.146484"/>
      <use xlink:href="#ArialMT-5f" x="322.363281"/>
      <use xlink:href="#ArialMT-48" x="377.978516"/>
      <use xlink:href="#ArialMT-69" x="450.195312"/>
      <use xlink:href="#ArialMT-67" x="472.412109"/>
      <use xlink:href="#ArialMT-68" x="528.027344"/>
      <use xlink:href="#ArialMT-5f" x="583.642578"/>
      <use xlink:href="#ArialMT-56" x="639.257812"/>
      <use xlink:href="#ArialMT-61" x="698.582031"/>
      <use xlink:href="#ArialMT-6c" x="754.197266"/>
      <use xlink:href="#ArialMT-75" x="776.414062"/>
      <use xlink:href="#ArialMT-65" x="832.029297"/>
     </g>
    </g>
   </g>
  </g>
 </g>
 <defs>
  <clipPath id="p66e56ffd5e">
   <rect x="65.36" y="25.49625" width="496.278685" height="509.98375"/>
  </clipPath>
 </defs>
</svg>
