<?xml version="1.0" encoding="utf-8" standalone="no"?>
<!DOCTYPE svg PUBLIC "-//W3C//DTD SVG 1.1//EN"
  "http://www.w3.org/Graphics/SVG/1.1/DTD/svg11.dtd">
<svg xmlns:xlink="http://www.w3.org/1999/xlink" width="1152pt" height="864pt" viewBox="0 0 1152 864" xmlns="http://www.w3.org/2000/svg" version="1.1">
 <metadata>
  <rdf:RDF xmlns:dc="http://purl.org/dc/elements/1.1/" xmlns:cc="http://creativecommons.org/ns#" xmlns:rdf="http://www.w3.org/1999/02/22-rdf-syntax-ns#">
   <cc:Work>
    <dc:type rdf:resource="http://purl.org/dc/dcmitype/StillImage"/>
    <dc:date>2024-07-18T15:11:56.913283</dc:date>
    <dc:format>image/svg+xml</dc:format>
    <dc:creator>
     <cc:Agent>
      <dc:title>Matplotlib v3.8.4, https://matplotlib.org/</dc:title>
     </cc:Agent>
    </dc:creator>
   </cc:Work>
  </rdf:RDF>
 </metadata>
 <defs>
  <style type="text/css">*{stroke-linejoin: round; stroke-linecap: butt}</style>
 </defs>
 <g id="figure_1">
  <g id="patch_1">
   <path d="M 0 864 
L 1152 864 
L 1152 0 
L 0 0 
z
" style="fill: #ffffff"/>
  </g>
  <g id="axes_1">
   <g id="patch_2">
    <path d="M 144 768.96 
L 1036.8 768.96 
L 1036.8 103.68 
L 144 103.68 
z
" style="fill: #eaeaf2"/>
   </g>
   <g id="matplotlib.axis_1">
    <g id="xtick_1">
     <g id="line2d_1">
      <path d="M 247.112024 768.96 
L 247.112024 103.68 
" clip-path="url(#peac937d283)" style="fill: none; stroke: #ffffff; stroke-linecap: round"/>
     </g>
     <g id="line2d_2"/>
     <g id="text_1">
      <!-- 1980 -->
      <g style="fill: #262626" transform="translate(235.990149 783.117813) scale(0.1 -0.1)">
       <defs>
        <path id="ArialMT-31" d="M 2384 0 
L 1822 0 
L 1822 3584 
Q 1619 3391 1289 3197 
Q 959 3003 697 2906 
L 697 3450 
Q 1169 3672 1522 3987 
Q 1875 4303 2022 4600 
L 2384 4600 
L 2384 0 
z
" transform="scale(0.015625)"/>
        <path id="ArialMT-39" d="M 350 1059 
L 891 1109 
Q 959 728 1153 556 
Q 1347 384 1650 384 
Q 1909 384 2104 503 
Q 2300 622 2425 820 
Q 2550 1019 2634 1356 
Q 2719 1694 2719 2044 
Q 2719 2081 2716 2156 
Q 2547 1888 2255 1720 
Q 1963 1553 1622 1553 
Q 1053 1553 659 1965 
Q 266 2378 266 3053 
Q 266 3750 677 4175 
Q 1088 4600 1706 4600 
Q 2153 4600 2523 4359 
Q 2894 4119 3086 3673 
Q 3278 3228 3278 2384 
Q 3278 1506 3087 986 
Q 2897 466 2520 194 
Q 2144 -78 1638 -78 
Q 1100 -78 759 220 
Q 419 519 350 1059 
z
M 2653 3081 
Q 2653 3566 2395 3850 
Q 2138 4134 1775 4134 
Q 1400 4134 1122 3828 
Q 844 3522 844 3034 
Q 844 2597 1108 2323 
Q 1372 2050 1759 2050 
Q 2150 2050 2401 2323 
Q 2653 2597 2653 3081 
z
" transform="scale(0.015625)"/>
        <path id="ArialMT-38" d="M 1131 2484 
Q 781 2613 612 2850 
Q 444 3088 444 3419 
Q 444 3919 803 4259 
Q 1163 4600 1759 4600 
Q 2359 4600 2725 4251 
Q 3091 3903 3091 3403 
Q 3091 3084 2923 2848 
Q 2756 2613 2416 2484 
Q 2838 2347 3058 2040 
Q 3278 1734 3278 1309 
Q 3278 722 2862 322 
Q 2447 -78 1769 -78 
Q 1091 -78 675 323 
Q 259 725 259 1325 
Q 259 1772 486 2073 
Q 713 2375 1131 2484 
z
M 1019 3438 
Q 1019 3113 1228 2906 
Q 1438 2700 1772 2700 
Q 2097 2700 2305 2904 
Q 2513 3109 2513 3406 
Q 2513 3716 2298 3927 
Q 2084 4138 1766 4138 
Q 1444 4138 1231 3931 
Q 1019 3725 1019 3438 
z
M 838 1322 
Q 838 1081 952 856 
Q 1066 631 1291 507 
Q 1516 384 1775 384 
Q 2178 384 2440 643 
Q 2703 903 2703 1303 
Q 2703 1709 2433 1975 
Q 2163 2241 1756 2241 
Q 1359 2241 1098 1978 
Q 838 1716 838 1322 
z
" transform="scale(0.015625)"/>
        <path id="ArialMT-30" d="M 266 2259 
Q 266 3072 433 3567 
Q 600 4063 929 4331 
Q 1259 4600 1759 4600 
Q 2128 4600 2406 4451 
Q 2684 4303 2865 4023 
Q 3047 3744 3150 3342 
Q 3253 2941 3253 2259 
Q 3253 1453 3087 958 
Q 2922 463 2592 192 
Q 2263 -78 1759 -78 
Q 1097 -78 719 397 
Q 266 969 266 2259 
z
M 844 2259 
Q 844 1131 1108 757 
Q 1372 384 1759 384 
Q 2147 384 2411 759 
Q 2675 1134 2675 2259 
Q 2675 3391 2411 3762 
Q 2147 4134 1753 4134 
Q 1366 4134 1134 3806 
Q 844 3388 844 2259 
z
" transform="scale(0.015625)"/>
       </defs>
       <use xlink:href="#ArialMT-31"/>
       <use xlink:href="#ArialMT-39" x="55.615234"/>
       <use xlink:href="#ArialMT-38" x="111.230469"/>
       <use xlink:href="#ArialMT-30" x="166.845703"/>
      </g>
     </g>
    </g>
    <g id="xtick_2">
     <g id="line2d_3">
      <path d="M 351.443245 768.96 
L 351.443245 103.68 
" clip-path="url(#peac937d283)" style="fill: none; stroke: #ffffff; stroke-linecap: round"/>
     </g>
     <g id="line2d_4"/>
     <g id="text_2">
      <!-- 1985 -->
      <g style="fill: #262626" transform="translate(340.32137 783.117813) scale(0.1 -0.1)">
       <defs>
        <path id="ArialMT-35" d="M 266 1200 
L 856 1250 
Q 922 819 1161 601 
Q 1400 384 1738 384 
Q 2144 384 2425 690 
Q 2706 997 2706 1503 
Q 2706 1984 2436 2262 
Q 2166 2541 1728 2541 
Q 1456 2541 1237 2417 
Q 1019 2294 894 2097 
L 366 2166 
L 809 4519 
L 3088 4519 
L 3088 3981 
L 1259 3981 
L 1013 2750 
Q 1425 3038 1878 3038 
Q 2478 3038 2890 2622 
Q 3303 2206 3303 1553 
Q 3303 931 2941 478 
Q 2500 -78 1738 -78 
Q 1113 -78 717 272 
Q 322 622 266 1200 
z
" transform="scale(0.015625)"/>
       </defs>
       <use xlink:href="#ArialMT-31"/>
       <use xlink:href="#ArialMT-39" x="55.615234"/>
       <use xlink:href="#ArialMT-38" x="111.230469"/>
       <use xlink:href="#ArialMT-35" x="166.845703"/>
      </g>
     </g>
    </g>
    <g id="xtick_3">
     <g id="line2d_5">
      <path d="M 455.71736 768.96 
L 455.71736 103.68 
" clip-path="url(#peac937d283)" style="fill: none; stroke: #ffffff; stroke-linecap: round"/>
     </g>
     <g id="line2d_6"/>
     <g id="text_3">
      <!-- 1990 -->
      <g style="fill: #262626" transform="translate(444.595485 783.117813) scale(0.1 -0.1)">
       <use xlink:href="#ArialMT-31"/>
       <use xlink:href="#ArialMT-39" x="55.615234"/>
       <use xlink:href="#ArialMT-39" x="111.230469"/>
       <use xlink:href="#ArialMT-30" x="166.845703"/>
      </g>
     </g>
    </g>
    <g id="xtick_4">
     <g id="line2d_7">
      <path d="M 559.991475 768.96 
L 559.991475 103.68 
" clip-path="url(#peac937d283)" style="fill: none; stroke: #ffffff; stroke-linecap: round"/>
     </g>
     <g id="line2d_8"/>
     <g id="text_4">
      <!-- 1995 -->
      <g style="fill: #262626" transform="translate(548.8696 783.117813) scale(0.1 -0.1)">
       <use xlink:href="#ArialMT-31"/>
       <use xlink:href="#ArialMT-39" x="55.615234"/>
       <use xlink:href="#ArialMT-39" x="111.230469"/>
       <use xlink:href="#ArialMT-35" x="166.845703"/>
      </g>
     </g>
    </g>
    <g id="xtick_5">
     <g id="line2d_9">
      <path d="M 664.26559 768.96 
L 664.26559 103.68 
" clip-path="url(#peac937d283)" style="fill: none; stroke: #ffffff; stroke-linecap: round"/>
     </g>
     <g id="line2d_10"/>
     <g id="text_5">
      <!-- 2000 -->
      <g style="fill: #262626" transform="translate(653.143715 783.117813) scale(0.1 -0.1)">
       <defs>
        <path id="ArialMT-32" d="M 3222 541 
L 3222 0 
L 194 0 
Q 188 203 259 391 
Q 375 700 629 1000 
Q 884 1300 1366 1694 
Q 2113 2306 2375 2664 
Q 2638 3022 2638 3341 
Q 2638 3675 2398 3904 
Q 2159 4134 1775 4134 
Q 1369 4134 1125 3890 
Q 881 3647 878 3216 
L 300 3275 
Q 359 3922 746 4261 
Q 1134 4600 1788 4600 
Q 2447 4600 2831 4234 
Q 3216 3869 3216 3328 
Q 3216 3053 3103 2787 
Q 2991 2522 2730 2228 
Q 2469 1934 1863 1422 
Q 1356 997 1212 845 
Q 1069 694 975 541 
L 3222 541 
z
" transform="scale(0.015625)"/>
       </defs>
       <use xlink:href="#ArialMT-32"/>
       <use xlink:href="#ArialMT-30" x="55.615234"/>
       <use xlink:href="#ArialMT-30" x="111.230469"/>
       <use xlink:href="#ArialMT-30" x="166.845703"/>
      </g>
     </g>
    </g>
    <g id="xtick_6">
     <g id="line2d_11">
      <path d="M 768.596811 768.96 
L 768.596811 103.68 
" clip-path="url(#peac937d283)" style="fill: none; stroke: #ffffff; stroke-linecap: round"/>
     </g>
     <g id="line2d_12"/>
     <g id="text_6">
      <!-- 2005 -->
      <g style="fill: #262626" transform="translate(757.474936 783.117813) scale(0.1 -0.1)">
       <use xlink:href="#ArialMT-32"/>
       <use xlink:href="#ArialMT-30" x="55.615234"/>
       <use xlink:href="#ArialMT-30" x="111.230469"/>
       <use xlink:href="#ArialMT-35" x="166.845703"/>
      </g>
     </g>
    </g>
    <g id="xtick_7">
     <g id="line2d_13">
      <path d="M 872.870926 768.96 
L 872.870926 103.68 
" clip-path="url(#peac937d283)" style="fill: none; stroke: #ffffff; stroke-linecap: round"/>
     </g>
     <g id="line2d_14"/>
     <g id="text_7">
      <!-- 2010 -->
      <g style="fill: #262626" transform="translate(861.749051 783.117813) scale(0.1 -0.1)">
       <use xlink:href="#ArialMT-32"/>
       <use xlink:href="#ArialMT-30" x="55.615234"/>
       <use xlink:href="#ArialMT-31" x="111.230469"/>
       <use xlink:href="#ArialMT-30" x="166.845703"/>
      </g>
     </g>
    </g>
    <g id="xtick_8">
     <g id="line2d_15">
      <path d="M 977.145041 768.96 
L 977.145041 103.68 
" clip-path="url(#peac937d283)" style="fill: none; stroke: #ffffff; stroke-linecap: round"/>
     </g>
     <g id="line2d_16"/>
     <g id="text_8">
      <!-- 2015 -->
      <g style="fill: #262626" transform="translate(966.023166 783.117813) scale(0.1 -0.1)">
       <use xlink:href="#ArialMT-32"/>
       <use xlink:href="#ArialMT-30" x="55.615234"/>
       <use xlink:href="#ArialMT-31" x="111.230469"/>
       <use xlink:href="#ArialMT-35" x="166.845703"/>
      </g>
     </g>
    </g>
   </g>
   <g id="matplotlib.axis_2">
    <g id="ytick_1">
     <g id="line2d_17">
      <path d="M 144 741.08665 
L 1036.8 741.08665 
" clip-path="url(#peac937d283)" style="fill: none; stroke: #ffffff; stroke-linecap: round"/>
     </g>
     <g id="line2d_18"/>
     <g id="text_9">
      <!-- 0.0 -->
      <g style="fill: #262626" transform="translate(123.1 744.665556) scale(0.1 -0.1)">
       <defs>
        <path id="ArialMT-2e" d="M 581 0 
L 581 641 
L 1222 641 
L 1222 0 
L 581 0 
z
" transform="scale(0.015625)"/>
       </defs>
       <use xlink:href="#ArialMT-30"/>
       <use xlink:href="#ArialMT-2e" x="55.615234"/>
       <use xlink:href="#ArialMT-30" x="83.398438"/>
      </g>
     </g>
    </g>
    <g id="ytick_2">
     <g id="line2d_19">
      <path d="M 144 644.646161 
L 1036.8 644.646161 
" clip-path="url(#peac937d283)" style="fill: none; stroke: #ffffff; stroke-linecap: round"/>
     </g>
     <g id="line2d_20"/>
     <g id="text_10">
      <!-- 0.2 -->
      <g style="fill: #262626" transform="translate(123.1 648.225068) scale(0.1 -0.1)">
       <use xlink:href="#ArialMT-30"/>
       <use xlink:href="#ArialMT-2e" x="55.615234"/>
       <use xlink:href="#ArialMT-32" x="83.398438"/>
      </g>
     </g>
    </g>
    <g id="ytick_3">
     <g id="line2d_21">
      <path d="M 144 548.205673 
L 1036.8 548.205673 
" clip-path="url(#peac937d283)" style="fill: none; stroke: #ffffff; stroke-linecap: round"/>
     </g>
     <g id="line2d_22"/>
     <g id="text_11">
      <!-- 0.4 -->
      <g style="fill: #262626" transform="translate(123.1 551.78458) scale(0.1 -0.1)">
       <defs>
        <path id="ArialMT-34" d="M 2069 0 
L 2069 1097 
L 81 1097 
L 81 1613 
L 2172 4581 
L 2631 4581 
L 2631 1613 
L 3250 1613 
L 3250 1097 
L 2631 1097 
L 2631 0 
L 2069 0 
z
M 2069 1613 
L 2069 3678 
L 634 1613 
L 2069 1613 
z
" transform="scale(0.015625)"/>
       </defs>
       <use xlink:href="#ArialMT-30"/>
       <use xlink:href="#ArialMT-2e" x="55.615234"/>
       <use xlink:href="#ArialMT-34" x="83.398438"/>
      </g>
     </g>
    </g>
    <g id="ytick_4">
     <g id="line2d_23">
      <path d="M 144 451.765185 
L 1036.8 451.765185 
" clip-path="url(#peac937d283)" style="fill: none; stroke: #ffffff; stroke-linecap: round"/>
     </g>
     <g id="line2d_24"/>
     <g id="text_12">
      <!-- 0.6 -->
      <g style="fill: #262626" transform="translate(123.1 455.344092) scale(0.1 -0.1)">
       <defs>
        <path id="ArialMT-36" d="M 3184 3459 
L 2625 3416 
Q 2550 3747 2413 3897 
Q 2184 4138 1850 4138 
Q 1581 4138 1378 3988 
Q 1113 3794 959 3422 
Q 806 3050 800 2363 
Q 1003 2672 1297 2822 
Q 1591 2972 1913 2972 
Q 2475 2972 2870 2558 
Q 3266 2144 3266 1488 
Q 3266 1056 3080 686 
Q 2894 316 2569 119 
Q 2244 -78 1831 -78 
Q 1128 -78 684 439 
Q 241 956 241 2144 
Q 241 3472 731 4075 
Q 1159 4600 1884 4600 
Q 2425 4600 2770 4297 
Q 3116 3994 3184 3459 
z
M 888 1484 
Q 888 1194 1011 928 
Q 1134 663 1356 523 
Q 1578 384 1822 384 
Q 2178 384 2434 671 
Q 2691 959 2691 1453 
Q 2691 1928 2437 2201 
Q 2184 2475 1800 2475 
Q 1419 2475 1153 2201 
Q 888 1928 888 1484 
z
" transform="scale(0.015625)"/>
       </defs>
       <use xlink:href="#ArialMT-30"/>
       <use xlink:href="#ArialMT-2e" x="55.615234"/>
       <use xlink:href="#ArialMT-36" x="83.398438"/>
      </g>
     </g>
    </g>
    <g id="ytick_5">
     <g id="line2d_25">
      <path d="M 144 355.324697 
L 1036.8 355.324697 
" clip-path="url(#peac937d283)" style="fill: none; stroke: #ffffff; stroke-linecap: round"/>
     </g>
     <g id="line2d_26"/>
     <g id="text_13">
      <!-- 0.8 -->
      <g style="fill: #262626" transform="translate(123.1 358.903603) scale(0.1 -0.1)">
       <use xlink:href="#ArialMT-30"/>
       <use xlink:href="#ArialMT-2e" x="55.615234"/>
       <use xlink:href="#ArialMT-38" x="83.398438"/>
      </g>
     </g>
    </g>
    <g id="ytick_6">
     <g id="line2d_27">
      <path d="M 144 258.884209 
L 1036.8 258.884209 
" clip-path="url(#peac937d283)" style="fill: none; stroke: #ffffff; stroke-linecap: round"/>
     </g>
     <g id="line2d_28"/>
     <g id="text_14">
      <!-- 1.0 -->
      <g style="fill: #262626" transform="translate(123.1 262.463115) scale(0.1 -0.1)">
       <use xlink:href="#ArialMT-31"/>
       <use xlink:href="#ArialMT-2e" x="55.615234"/>
       <use xlink:href="#ArialMT-30" x="83.398438"/>
      </g>
     </g>
    </g>
    <g id="ytick_7">
     <g id="line2d_29">
      <path d="M 144 162.443721 
L 1036.8 162.443721 
" clip-path="url(#peac937d283)" style="fill: none; stroke: #ffffff; stroke-linecap: round"/>
     </g>
     <g id="line2d_30"/>
     <g id="text_15">
      <!-- 1.2 -->
      <g style="fill: #262626" transform="translate(123.1 166.022627) scale(0.1 -0.1)">
       <use xlink:href="#ArialMT-31"/>
       <use xlink:href="#ArialMT-2e" x="55.615234"/>
       <use xlink:href="#ArialMT-32" x="83.398438"/>
      </g>
     </g>
    </g>
    <g id="text_16">
     <!-- Passengers -->
     <g style="fill: #262626" transform="translate(116.784844 465.362578) rotate(-90) scale(0.11 -0.11)">
      <defs>
       <path id="ArialMT-50" d="M 494 0 
L 494 4581 
L 2222 4581 
Q 2678 4581 2919 4538 
Q 3256 4481 3484 4323 
Q 3713 4166 3852 3881 
Q 3991 3597 3991 3256 
Q 3991 2672 3619 2267 
Q 3247 1863 2275 1863 
L 1100 1863 
L 1100 0 
L 494 0 
z
M 1100 2403 
L 2284 2403 
Q 2872 2403 3119 2622 
Q 3366 2841 3366 3238 
Q 3366 3525 3220 3729 
Q 3075 3934 2838 4000 
Q 2684 4041 2272 4041 
L 1100 4041 
L 1100 2403 
z
" transform="scale(0.015625)"/>
       <path id="ArialMT-61" d="M 2588 409 
Q 2275 144 1986 34 
Q 1697 -75 1366 -75 
Q 819 -75 525 192 
Q 231 459 231 875 
Q 231 1119 342 1320 
Q 453 1522 633 1644 
Q 813 1766 1038 1828 
Q 1203 1872 1538 1913 
Q 2219 1994 2541 2106 
Q 2544 2222 2544 2253 
Q 2544 2597 2384 2738 
Q 2169 2928 1744 2928 
Q 1347 2928 1158 2789 
Q 969 2650 878 2297 
L 328 2372 
Q 403 2725 575 2942 
Q 747 3159 1072 3276 
Q 1397 3394 1825 3394 
Q 2250 3394 2515 3294 
Q 2781 3194 2906 3042 
Q 3031 2891 3081 2659 
Q 3109 2516 3109 2141 
L 3109 1391 
Q 3109 606 3145 398 
Q 3181 191 3288 0 
L 2700 0 
Q 2613 175 2588 409 
z
M 2541 1666 
Q 2234 1541 1622 1453 
Q 1275 1403 1131 1340 
Q 988 1278 909 1158 
Q 831 1038 831 891 
Q 831 666 1001 516 
Q 1172 366 1500 366 
Q 1825 366 2078 508 
Q 2331 650 2450 897 
Q 2541 1088 2541 1459 
L 2541 1666 
z
" transform="scale(0.015625)"/>
       <path id="ArialMT-73" d="M 197 991 
L 753 1078 
Q 800 744 1014 566 
Q 1228 388 1613 388 
Q 2000 388 2187 545 
Q 2375 703 2375 916 
Q 2375 1106 2209 1216 
Q 2094 1291 1634 1406 
Q 1016 1563 777 1677 
Q 538 1791 414 1992 
Q 291 2194 291 2438 
Q 291 2659 392 2848 
Q 494 3038 669 3163 
Q 800 3259 1026 3326 
Q 1253 3394 1513 3394 
Q 1903 3394 2198 3281 
Q 2494 3169 2634 2976 
Q 2775 2784 2828 2463 
L 2278 2388 
Q 2241 2644 2061 2787 
Q 1881 2931 1553 2931 
Q 1166 2931 1000 2803 
Q 834 2675 834 2503 
Q 834 2394 903 2306 
Q 972 2216 1119 2156 
Q 1203 2125 1616 2013 
Q 2213 1853 2448 1751 
Q 2684 1650 2818 1456 
Q 2953 1263 2953 975 
Q 2953 694 2789 445 
Q 2625 197 2315 61 
Q 2006 -75 1616 -75 
Q 969 -75 630 194 
Q 291 463 197 991 
z
" transform="scale(0.015625)"/>
       <path id="ArialMT-65" d="M 2694 1069 
L 3275 997 
Q 3138 488 2766 206 
Q 2394 -75 1816 -75 
Q 1088 -75 661 373 
Q 234 822 234 1631 
Q 234 2469 665 2931 
Q 1097 3394 1784 3394 
Q 2450 3394 2872 2941 
Q 3294 2488 3294 1666 
Q 3294 1616 3291 1516 
L 816 1516 
Q 847 969 1125 678 
Q 1403 388 1819 388 
Q 2128 388 2347 550 
Q 2566 713 2694 1069 
z
M 847 1978 
L 2700 1978 
Q 2663 2397 2488 2606 
Q 2219 2931 1791 2931 
Q 1403 2931 1139 2672 
Q 875 2413 847 1978 
z
" transform="scale(0.015625)"/>
       <path id="ArialMT-6e" d="M 422 0 
L 422 3319 
L 928 3319 
L 928 2847 
Q 1294 3394 1984 3394 
Q 2284 3394 2536 3286 
Q 2788 3178 2913 3003 
Q 3038 2828 3088 2588 
Q 3119 2431 3119 2041 
L 3119 0 
L 2556 0 
L 2556 2019 
Q 2556 2363 2490 2533 
Q 2425 2703 2258 2804 
Q 2091 2906 1866 2906 
Q 1506 2906 1245 2678 
Q 984 2450 984 1813 
L 984 0 
L 422 0 
z
" transform="scale(0.015625)"/>
       <path id="ArialMT-67" d="M 319 -275 
L 866 -356 
Q 900 -609 1056 -725 
Q 1266 -881 1628 -881 
Q 2019 -881 2231 -725 
Q 2444 -569 2519 -288 
Q 2563 -116 2559 434 
Q 2191 0 1641 0 
Q 956 0 581 494 
Q 206 988 206 1678 
Q 206 2153 378 2554 
Q 550 2956 876 3175 
Q 1203 3394 1644 3394 
Q 2231 3394 2613 2919 
L 2613 3319 
L 3131 3319 
L 3131 450 
Q 3131 -325 2973 -648 
Q 2816 -972 2473 -1159 
Q 2131 -1347 1631 -1347 
Q 1038 -1347 672 -1080 
Q 306 -813 319 -275 
z
M 784 1719 
Q 784 1066 1043 766 
Q 1303 466 1694 466 
Q 2081 466 2343 764 
Q 2606 1063 2606 1700 
Q 2606 2309 2336 2618 
Q 2066 2928 1684 2928 
Q 1309 2928 1046 2623 
Q 784 2319 784 1719 
z
" transform="scale(0.015625)"/>
       <path id="ArialMT-72" d="M 416 0 
L 416 3319 
L 922 3319 
L 922 2816 
Q 1116 3169 1280 3281 
Q 1444 3394 1641 3394 
Q 1925 3394 2219 3213 
L 2025 2691 
Q 1819 2813 1613 2813 
Q 1428 2813 1281 2702 
Q 1134 2591 1072 2394 
Q 978 2094 978 1738 
L 978 0 
L 416 0 
z
" transform="scale(0.015625)"/>
      </defs>
      <use xlink:href="#ArialMT-50"/>
      <use xlink:href="#ArialMT-61" x="66.699219"/>
      <use xlink:href="#ArialMT-73" x="122.314453"/>
      <use xlink:href="#ArialMT-73" x="172.314453"/>
      <use xlink:href="#ArialMT-65" x="222.314453"/>
      <use xlink:href="#ArialMT-6e" x="277.929688"/>
      <use xlink:href="#ArialMT-67" x="333.544922"/>
      <use xlink:href="#ArialMT-65" x="389.160156"/>
      <use xlink:href="#ArialMT-72" x="444.775391"/>
      <use xlink:href="#ArialMT-73" x="478.076172"/>
     </g>
    </g>
    <g id="text_17">
     <!-- 1e6 -->
     <g style="fill: #262626" transform="translate(144 100.68) scale(0.1 -0.1)">
      <use xlink:href="#ArialMT-31"/>
      <use xlink:href="#ArialMT-65" x="55.615234"/>
      <use xlink:href="#ArialMT-36" x="111.230469"/>
     </g>
    </g>
   </g>
   <g id="line2d_31">
    <path d="M 184.581818 736.402535 
L 186.35208 734.954963 
L 189.721287 729.883158 
L 191.434443 730.913142 
L 193.204705 731.37461 
L 194.917861 728.643898 
L 196.688123 727.584499 
L 198.458384 731.44019 
L 200.171541 731.870314 
L 201.941802 733.030976 
L 203.654959 736.692821 
L 205.42522 736.973945 
L 207.195482 736.219298 
L 208.794428 731.833667 
L 210.564689 731.522646 
L 212.277846 726.98271 
L 214.048107 727.580641 
L 215.761263 723.47517 
L 217.531525 723.390784 
L 219.301786 728.715746 
L 221.014943 728.519007 
L 222.785204 732.897406 
L 224.498361 734.460224 
L 226.268622 733.592259 
L 229.63783 731.298904 
L 231.408091 721.772513 
L 233.121248 718.410598 
L 234.891509 720.910335 
L 236.604665 717.969865 
L 238.374927 721.096947 
L 240.145188 728.054646 
L 241.858345 727.432605 
L 243.628606 733.615887 
L 245.341763 735.031634 
L 247.112024 735.70961 
L 248.882286 734.818018 
L 250.538337 733.044477 
L 252.308598 731.900693 
L 254.021755 729.685455 
L 255.792016 730.014799 
L 257.505173 729.188304 
L 259.275434 730.078932 
L 261.045696 734.028652 
L 262.758852 733.811179 
L 264.529114 735.163275 
L 266.24227 737.99091 
L 268.012531 738.72 
L 269.782793 738.635132 
L 271.381739 737.685676 
L 273.152 735.43379 
L 274.865157 734.418272 
L 276.635418 730.404419 
L 278.348575 724.779527 
L 280.118836 725.004234 
L 281.889098 732.027995 
L 285.372516 736.531283 
L 287.085672 737.329328 
L 288.855933 736.120929 
L 290.626195 735.546144 
L 292.225141 733.037244 
L 293.995402 731.980256 
L 295.708559 729.367684 
L 297.47882 728.397492 
L 299.191977 726.022645 
L 300.962238 725.510546 
L 302.7325 730.440102 
L 304.445656 732.617246 
L 306.215918 730.794521 
L 307.929074 734.452508 
L 309.699335 734.745205 
L 311.469597 734.141488 
L 313.068543 731.019709 
L 314.838804 729.657005 
L 316.551961 728.147711 
L 320.035379 716.797148 
L 321.80564 715.873731 
L 323.575902 722.484726 
L 325.289058 725.972496 
L 327.05932 727.703121 
L 328.772476 729.069683 
L 330.542737 727.764843 
L 332.312999 727.148588 
L 333.96905 722.334761 
L 335.739312 718.894247 
L 337.452468 717.87246 
L 339.22273 714.595894 
L 340.935886 695.327567 
L 342.706147 688.829889 
L 344.476409 702.216311 
L 347.959827 717.446675 
L 349.672983 717.445711 
L 351.443245 720.453207 
L 353.213506 725.57275 
L 354.812452 715.839494 
L 356.582714 709.434881 
L 358.29587 708.115576 
L 360.066132 702.845103 
L 361.779288 692.880389 
L 363.549549 688.040041 
L 365.319811 698.263697 
L 367.032967 706.411472 
L 368.803229 715.771504 
L 370.516385 713.055257 
L 372.286647 714.75261 
L 374.056908 718.932341 
L 375.655854 708.857685 
L 377.426116 708.130042 
L 379.139272 711.768259 
L 380.909534 705.580155 
L 382.62269 696.101019 
L 384.392951 688.011591 
L 386.163213 705.461533 
L 389.646631 718.246167 
L 391.359787 710.420503 
L 393.130049 717.332875 
L 394.90031 718.61264 
L 396.499256 713.18497 
L 398.269518 713.496955 
L 399.982674 712.425019 
L 401.752936 710.528034 
L 403.466092 699.91717 
L 405.236353 690.558102 
L 407.006615 701.542192 
L 408.719771 706.240772 
L 410.490033 715.334628 
L 412.203189 698.183652 
L 413.973451 705.110972 
L 415.743712 704.136441 
L 417.399763 698.434397 
L 419.170025 700.437466 
L 420.883181 695.690665 
L 422.653443 687.648975 
L 424.366599 681.059197 
L 426.136861 673.152523 
L 427.907122 689.773077 
L 431.39054 702.496953 
L 434.873958 698.922868 
L 436.644219 699.290306 
L 438.243165 686.780046 
L 440.013427 689.258567 
L 441.726583 678.971742 
L 443.496845 654.46959 
L 445.210001 639.172682 
L 446.980263 637.800333 
L 448.750524 664.381261 
L 450.46368 673.855574 
L 452.233942 678.787541 
L 453.947098 678.641434 
L 455.71736 677.757074 
L 457.487621 681.535613 
L 459.086567 661.99243 
L 462.569985 630.040732 
L 464.340247 612.088335 
L 466.053403 588.521655 
L 467.823665 583.737725 
L 469.593926 627.105565 
L 471.307083 638.2266 
L 473.077344 651.639061 
L 474.7905 656.545953 
L 476.560762 662.919705 
L 478.331023 674.555732 
L 479.929969 652.439517 
L 481.700231 646.762548 
L 483.413387 627.854426 
L 485.183649 612.03915 
L 486.896805 590.362704 
L 488.667067 579.118225 
L 490.437328 613.691658 
L 492.150485 619.732208 
L 493.920746 638.365475 
L 495.633902 631.779072 
L 497.404164 634.888795 
L 499.174425 643.382309 
L 500.830477 619.685917 
L 502.600738 612.823694 
L 504.313894 606.917196 
L 506.084156 591.409083 
L 507.797312 564.832496 
L 509.567574 552.843014 
L 511.337835 597.971376 
L 513.050992 604.865425 
L 514.821253 628.78363 
L 516.53441 635.720594 
L 518.304671 628.122048 
L 520.074933 644.475944 
L 521.673879 621.295508 
L 523.44414 615.165751 
L 525.157296 607.293796 
L 526.927558 576.324344 
L 528.640714 560.753545 
L 530.410976 553.356078 
L 532.181237 591.089383 
L 533.894394 594.257453 
L 535.664655 620.998472 
L 537.377812 621.458493 
L 539.148073 627.050594 
L 540.918335 642.325321 
L 542.517281 604.842279 
L 544.287542 609.046602 
L 546.000698 595.856919 
L 547.77096 568.640448 
L 549.484116 548.36914 
L 551.254378 541.193485 
L 553.024639 581.204715 
L 554.737796 587.360029 
L 556.508057 615.477736 
L 558.221214 611.916671 
L 559.991475 620.570758 
L 561.761737 632.103112 
L 563.360683 590.004428 
L 565.130944 591.890321 
L 566.8441 593.530774 
L 570.327518 548.047029 
L 572.09778 536.307328 
L 573.868041 568.262402 
L 575.581198 583.103628 
L 577.351459 604.591051 
L 579.064616 600.346223 
L 580.834877 609.802213 
L 582.605139 604.42662 
L 584.26119 561.090605 
L 586.031451 564.132338 
L 587.744608 560.066407 
L 589.514869 537.440022 
L 591.228026 504.813722 
L 592.998287 490.899289 
L 594.768549 547.514195 
L 596.481705 551.932134 
L 598.251967 578.364543 
L 599.965123 570.329121 
L 603.505646 590.591268 
L 605.104592 544.500912 
L 606.874853 542.730265 
L 608.58801 510.393287 
L 610.358271 485.45667 
L 612.071428 445.743441 
L 613.841689 430.8728 
L 615.611951 489.79167 
L 617.325107 504.430854 
L 619.095369 531.616945 
L 620.808525 527.227938 
L 624.349048 552.029057 
L 625.947994 489.74586 
L 627.718255 482.087039 
L 631.201673 441.268603 
L 632.91483 414.022236 
L 634.685091 401.054848 
L 636.455353 453.181414 
L 638.168509 464.606718 
L 639.938771 506.742532 
L 641.651927 498.152096 
L 643.422188 503.171823 
L 645.19245 516.54619 
L 646.791396 447.525661 
L 648.561657 453.578749 
L 650.274814 437.420145 
L 653.758232 373.076016 
L 655.528493 350.240355 
L 657.298755 416.353685 
L 659.011911 418.205824 
L 662.495329 486.55802 
L 664.26559 488.92033 
L 666.035852 491.499149 
L 667.691903 409.155849 
L 669.462165 412.51246 
L 671.175321 399.171847 
L 672.945582 369.028408 
L 674.658739 331.680383 
L 676.429 325.829338 
L 678.199262 378.263067 
L 679.912418 421.559542 
L 681.68268 448.506461 
L 683.395836 457.974988 
L 685.166098 471.46653 
L 686.936359 505.018176 
L 688.535305 421.758692 
L 690.305567 409.139454 
L 692.018723 412.224585 
L 693.788984 360.546467 
L 695.502141 334.241842 
L 697.272402 332.767749 
L 699.042664 495.684666 
L 700.75582 535.348227 
L 702.526082 530.301497 
L 704.239238 490.150911 
L 706.0095 503.19304 
L 707.779761 513.136054 
L 709.378707 444.205698 
L 711.148969 466.156999 
L 712.862125 434.470513 
L 714.632386 393.343466 
L 716.345543 374.95323 
L 718.115804 364.979354 
L 719.886066 444.466569 
L 721.599222 453.409978 
L 723.369484 487.764008 
L 725.08264 457.710741 
L 726.852902 475.534872 
L 728.623163 507.676076 
L 730.222109 461.787763 
L 731.992371 480.249848 
L 733.705527 447.055996 
L 735.475788 395.379325 
L 737.188945 359.00342 
L 738.959206 338.027131 
L 740.729468 427.071598 
L 742.442624 420.408525 
L 744.212886 452.1143 
L 745.926042 431.279779 
L 747.696304 439.053365 
L 749.466565 467.181197 
L 751.122616 402.316289 
L 754.606034 383.316067 
L 758.089452 297.220267 
L 759.859714 298.906529 
L 761.629975 392.38967 
L 763.343131 386.508247 
L 765.113393 416.93281 
L 766.826549 404.865212 
L 768.596811 409.037709 
L 770.367072 454.571603 
L 771.966018 370.493339 
L 773.73628 374.836537 
L 775.449436 361.416361 
L 777.219698 333.038265 
L 778.932854 263.177257 
L 780.703116 275.071263 
L 782.473377 358.017798 
L 784.186533 372.446741 
L 785.956795 414.964942 
L 787.669951 389.870644 
L 789.440213 404.007373 
L 791.210474 443.888891 
L 792.80942 348.250787 
L 794.579682 331.341394 
L 796.292838 318.731318 
L 798.0631 281.271904 
L 799.776256 239.442771 
L 801.546518 248.340853 
L 803.316779 343.933629 
L 805.029935 350.420698 
L 806.800197 386.719934 
L 808.513353 360.562862 
L 810.283615 382.119722 
L 812.053876 411.93237 
L 813.652822 322.100467 
L 815.423084 310.060836 
L 817.13624 294.229648 
L 818.906502 264.952727 
L 820.619658 214.498921 
L 822.38992 209.785874 
L 824.160181 311.206549 
L 825.873337 310.660696 
L 827.643599 350.194545 
L 829.356755 326.126375 
L 831.127017 347.538092 
L 832.897278 375.85977 
L 834.55333 273.236483 
L 836.323591 284.877814 
L 838.036747 253.001821 
L 839.807009 248.149418 
L 841.520165 193.265137 
L 843.290427 188.363067 
L 845.060688 318.019105 
L 846.773845 318.354236 
L 848.544106 370.284546 
L 850.257263 351.057206 
L 852.027524 373.711558 
L 853.797786 414.322648 
L 855.396732 322.86524 
L 857.166993 273.892278 
L 858.880149 293.328894 
L 860.650411 279.525367 
L 862.363567 210.515447 
L 864.133829 188.226121 
L 865.90409 326.364583 
L 867.617247 317.767396 
L 869.387508 361.658908 
L 871.100665 314.66153 
L 872.870926 319.947433 
L 874.641188 396.524074 
L 876.240134 270.000422 
L 878.010395 295.686864 
L 881.493813 224.966572 
L 883.206969 165.167683 
L 884.977231 179.67185 
L 886.747492 295.561973 
L 888.460649 279.13864 
L 890.23091 337.500084 
L 891.944067 334.530681 
L 893.714328 333.766873 
L 895.48459 398.848289 
L 897.083536 285.166653 
L 898.853797 251.018523 
L 900.566953 246.147796 
L 902.337215 223.491032 
L 904.050371 161.435918 
L 905.820633 210.308582 
L 907.590894 287.710753 
L 909.304051 296.057677 
L 911.074312 341.481147 
L 912.787469 308.506216 
L 914.55773 337.773493 
L 916.327992 374.069353 
L 917.984043 277.857911 
L 919.754304 264.779616 
L 921.467461 268.006997 
L 923.237722 244.290834 
L 924.950879 199.85588 
L 926.72114 207.901427 
L 928.491402 303.39921 
L 930.204558 343.942791 
L 931.974819 370.057911 
L 933.687976 325.827892 
L 935.458237 327.125016 
L 937.228499 396.020654 
L 938.827445 274.524445 
L 940.597706 277.526155 
L 942.310863 258.962326 
L 944.081124 235.242306 
L 945.794281 204.281534 
L 947.564542 203.79692 
L 949.334804 300.747578 
L 951.04796 298.947517 
L 952.818221 356.810363 
L 954.531378 310.457207 
L 956.301639 334.981541 
L 958.071901 400.91308 
L 959.670847 272.252307 
L 961.441108 256.754803 
L 963.154265 248.450313 
L 964.924526 217.219507 
L 966.637683 133.92 
L 968.407944 176.684123 
L 970.178206 284.671431 
L 971.891362 283.578278 
L 973.661623 324.070264 
L 975.37478 246.3807 
L 977.145041 326.686212 
L 978.915303 376.095567 
L 980.514249 275.008576 
L 982.28451 259.627765 
L 983.997667 250.696894 
L 985.767928 230.788684 
L 987.481085 159.113149 
L 989.251346 165.598772 
L 991.021608 278.825691 
L 992.734764 290.654117 
L 994.505025 323.017134 
L 996.218182 265.881931 
L 996.218182 265.881931 
" clip-path="url(#peac937d283)" style="fill: none; stroke: #0000ff; stroke-width: 1.75; stroke-linecap: round"/>
   </g>
   <g id="line2d_32">
    <path d="M 184.581818 736.402535 
L 186.35208 735.678749 
L 187.951026 734.113761 
L 189.721287 731.99846 
L 191.434443 731.455801 
L 193.204705 731.415206 
L 194.917861 730.029552 
L 196.688123 728.807025 
L 198.458384 730.123608 
L 201.941802 732.013968 
L 203.654959 734.353395 
L 205.42522 735.66367 
L 207.195482 735.941484 
L 208.794428 733.887575 
L 210.564689 732.705111 
L 212.277846 729.843911 
L 214.048107 728.712276 
L 215.761263 726.093723 
L 217.531525 724.742254 
L 219.301786 726.729 
L 221.014943 727.624004 
L 222.785204 730.260705 
L 224.498361 732.360464 
L 226.268622 732.976362 
L 228.038884 732.677459 
L 229.63783 731.988182 
L 231.408091 726.880347 
L 233.121248 722.645472 
L 234.891509 721.777904 
L 236.604665 719.873884 
L 238.374927 720.485416 
L 240.145188 724.270031 
L 241.858345 725.851318 
L 243.628606 729.733603 
L 245.341763 732.382618 
L 247.112024 734.046114 
L 248.882286 734.432066 
L 250.538337 733.738272 
L 252.308598 732.819482 
L 254.021755 731.252469 
L 255.792016 730.633634 
L 257.505173 729.910969 
L 259.275434 729.994951 
L 261.045696 732.011802 
L 262.758852 732.91149 
L 264.529114 734.037383 
L 266.24227 736.014146 
L 268.012531 737.367073 
L 269.782793 738.001103 
L 271.381739 737.843389 
L 274.865157 735.528431 
L 276.635418 732.966425 
L 278.348575 728.872976 
L 280.118836 726.938605 
L 283.602254 731.885689 
L 285.372516 734.208486 
L 287.085672 735.768907 
L 288.855933 735.944918 
L 290.626195 735.745531 
L 292.225141 734.391387 
L 293.995402 733.185822 
L 295.708559 731.276753 
L 297.47882 729.837123 
L 299.191977 727.929884 
L 300.962238 726.720215 
L 302.7325 728.580159 
L 304.445656 730.598702 
L 306.215918 730.696611 
L 307.929074 732.57456 
L 309.699335 733.659883 
L 311.469597 733.900685 
L 313.068543 732.460197 
L 316.551961 729.603156 
L 318.322222 725.984148 
L 320.035379 721.390648 
L 321.80564 718.632189 
L 323.575902 720.558458 
L 325.289058 723.265477 
L 327.05932 725.484299 
L 328.772476 727.276991 
L 330.542737 727.520917 
L 332.312999 727.334752 
L 333.96905 724.834757 
L 335.739312 721.864502 
L 337.452468 719.868481 
L 339.22273 717.232187 
L 340.935886 706.279877 
L 342.706147 697.554883 
L 344.476409 699.885597 
L 346.189565 704.742455 
L 347.959827 711.094565 
L 351.443245 717.361672 
L 353.213506 721.467211 
L 354.812452 718.653353 
L 356.582714 714.044117 
L 358.29587 711.079846 
L 360.066132 706.962475 
L 361.779288 699.921432 
L 363.549549 693.980737 
L 365.319811 696.122217 
L 367.032967 701.266845 
L 368.803229 708.519174 
L 370.516385 710.787216 
L 372.286647 712.769913 
L 374.056908 715.851127 
L 375.655854 712.354406 
L 377.426116 710.242224 
L 379.139272 711.005241 
L 380.909534 708.292698 
L 382.62269 702.196859 
L 384.392951 695.104225 
L 386.163213 700.282879 
L 389.646631 712.155035 
L 391.359787 711.287769 
L 393.130049 714.310322 
L 394.90031 716.461481 
L 396.499256 714.823226 
L 398.269518 714.16009 
L 399.982674 713.292554 
L 401.752936 711.910294 
L 403.466092 705.913732 
L 405.236353 698.235917 
L 407.006615 699.889055 
L 408.719771 703.064913 
L 410.490033 709.199771 
L 412.203189 703.691711 
L 413.973451 704.401342 
L 415.743712 704.268891 
L 417.399763 701.351644 
L 419.170025 700.894555 
L 420.883181 698.29261 
L 422.653443 692.970793 
L 424.366599 687.014995 
L 426.136861 680.083759 
L 427.907122 684.928418 
L 431.39054 696.49812 
L 433.103696 698.631983 
L 436.644219 699.033866 
L 438.243165 692.906956 
L 440.013427 691.082762 
L 441.726583 685.027252 
L 445.210001 654.460551 
L 446.980263 646.130442 
L 450.46368 664.555713 
L 452.233942 671.671627 
L 453.947098 675.15653 
L 455.71736 676.456802 
L 457.487621 678.996207 
L 459.086567 670.494319 
L 460.856829 658.352855 
L 462.569985 644.196793 
L 464.340247 628.142564 
L 466.053403 608.33211 
L 467.823665 596.034917 
L 469.593926 611.570241 
L 473.077344 638.268741 
L 474.7905 647.407347 
L 476.560762 655.163526 
L 478.331023 664.859629 
L 479.929969 658.649573 
L 481.700231 652.706061 
L 483.413387 640.280243 
L 485.183649 626.159697 
L 486.896805 608.2612 
L 488.667067 593.689713 
L 490.437328 603.690685 
L 492.150485 611.711447 
L 493.920746 625.038461 
L 497.404164 631.648781 
L 499.174425 637.515545 
L 500.830477 628.600731 
L 502.600738 620.712212 
L 504.313894 613.814704 
L 506.084156 602.611894 
L 507.797312 583.722195 
L 509.567574 568.282604 
L 511.337835 583.12699 
L 513.050992 593.996207 
L 514.821253 611.389919 
L 516.53441 623.555257 
L 518.304671 625.838652 
L 520.074933 635.157298 
L 521.673879 628.226403 
L 523.44414 621.696077 
L 525.157296 614.494937 
L 528.640714 578.081593 
L 530.410976 565.718835 
L 532.181237 578.404109 
L 533.894394 586.330781 
L 535.664655 603.664626 
L 537.377812 612.56156 
L 539.148073 619.806077 
L 540.918335 631.065699 
L 542.517281 617.953989 
L 544.287542 613.500295 
L 546.000698 604.678607 
L 547.77096 586.659528 
L 549.484116 567.514334 
L 551.254378 554.35391 
L 553.024639 567.779312 
L 554.737796 577.569671 
L 556.508057 596.523703 
L 559.991475 612.395473 
L 561.761737 622.249292 
L 563.360683 606.12686 
L 565.130944 599.008591 
L 566.8441 596.269682 
L 568.614362 583.216222 
L 570.327518 565.631625 
L 572.09778 550.969477 
L 573.868041 559.615939 
L 575.581198 571.359784 
L 577.351459 587.975418 
L 579.064616 594.16082 
L 580.834877 601.981517 
L 582.605139 603.204069 
L 584.26119 582.147337 
L 586.031451 573.139837 
L 587.744608 566.603122 
L 589.514869 552.021572 
L 591.228026 528.417647 
L 592.998287 509.658468 
L 594.768549 528.586331 
L 596.481705 540.259233 
L 598.251967 559.311888 
L 599.965123 564.820505 
L 601.735384 572.562715 
L 603.505646 581.576991 
L 605.104592 563.038952 
L 606.874853 552.884608 
L 610.358271 508.547809 
L 612.071428 477.145625 
L 613.841689 454.009213 
L 617.325107 488.165647 
L 619.095369 509.891296 
L 620.808525 518.559617 
L 622.578786 528.982066 
L 624.349048 540.505561 
L 625.947994 515.125711 
L 627.718255 498.606375 
L 631.201673 460.644713 
L 632.91483 437.333475 
L 634.685091 419.194161 
L 636.455353 436.187788 
L 638.168509 450.397253 
L 639.938771 478.569893 
L 641.651927 488.360994 
L 643.422188 495.766409 
L 645.19245 506.156299 
L 646.791396 476.84098 
L 648.561657 465.209864 
L 650.274814 451.315005 
L 652.045075 428.256468 
L 653.758232 400.666242 
L 655.528493 375.453298 
L 657.298755 395.903491 
L 659.011911 407.054658 
L 660.782173 429.644754 
L 662.495329 458.101387 
L 664.26559 473.510859 
L 666.035852 482.505004 
L 667.691903 445.830426 
L 669.462165 429.171443 
L 671.175321 414.171645 
L 672.945582 391.600027 
L 674.658739 361.640205 
L 676.429 343.734772 
L 678.199262 360.998919 
L 679.912418 391.279231 
L 681.68268 419.892846 
L 683.395836 438.933917 
L 685.166098 455.200224 
L 686.936359 480.1092 
L 688.535305 450.933946 
L 690.305567 430.0367 
L 692.018723 421.130643 
L 695.502141 362.540199 
L 697.272402 347.653974 
L 699.042664 421.66932 
L 700.75582 478.508774 
L 702.526082 504.405135 
L 704.239238 497.278023 
L 706.0095 500.235531 
L 707.779761 506.685793 
L 709.378707 475.445745 
L 711.148969 470.801372 
L 712.862125 452.635942 
L 714.632386 422.989704 
L 716.345543 398.971467 
L 718.115804 381.975411 
L 719.886066 413.22099 
L 721.599222 433.315484 
L 723.369484 460.539746 
L 725.08264 459.125244 
L 726.852902 467.330058 
L 728.623163 487.503067 
L 730.222109 474.645415 
L 731.992371 477.447631 
L 733.705527 462.251814 
L 735.475788 428.815569 
L 737.188945 393.909495 
L 738.959206 365.968313 
L 740.729468 396.519956 
L 742.442624 408.46424 
L 744.212886 430.28927 
L 745.926042 430.784525 
L 747.696304 434.918945 
L 749.466565 451.050071 
L 751.122616 426.68318 
L 752.892878 409.808146 
L 754.606034 396.562106 
L 756.376296 368.332801 
L 758.089452 332.776534 
L 759.859714 315.841532 
L 761.629975 354.115601 
L 763.343131 370.311924 
L 765.113393 393.622367 
L 766.826549 399.243789 
L 768.596811 404.140749 
L 770.367072 429.356176 
L 771.966018 399.924758 
L 773.73628 387.380647 
L 775.449436 374.398504 
L 777.219698 353.718384 
L 778.932854 308.447821 
L 780.703116 291.759542 
L 782.473377 324.88867 
L 784.186533 348.667706 
L 785.956795 381.816324 
L 787.669951 385.843484 
L 789.440213 394.925429 
L 791.210474 419.40716 
L 792.80942 383.828974 
L 794.579682 357.585184 
L 796.292838 338.158251 
L 798.0631 309.715078 
L 799.776256 274.578924 
L 801.546518 261.459889 
L 803.316779 302.696759 
L 805.029935 326.558729 
L 806.800197 356.639331 
L 808.513353 358.601097 
L 810.283615 370.36041 
L 812.053876 391.14639 
L 813.652822 356.623428 
L 815.423084 333.342132 
L 817.13624 313.78589 
L 818.906502 289.369308 
L 820.619658 251.934115 
L 822.38992 230.859995 
L 824.160181 271.033272 
L 825.873337 290.846984 
L 827.643599 320.520765 
L 829.356755 323.32357 
L 831.127017 335.430831 
L 832.897278 355.645301 
L 834.55333 314.440892 
L 836.323591 299.659353 
L 838.036747 276.330587 
L 839.807009 262.240003 
L 841.520165 227.75257 
L 843.290427 208.057818 
L 845.060688 263.038462 
L 846.773845 290.696349 
L 848.544106 330.490447 
L 850.257263 340.773826 
L 852.027524 357.242692 
L 853.797786 385.78267 
L 855.396732 354.323955 
L 857.166993 314.108116 
L 858.880149 303.718505 
L 860.650411 291.621936 
L 862.363567 251.068691 
L 864.133829 219.647406 
L 865.90409 273.005995 
L 867.617247 295.386695 
L 869.387508 328.522802 
L 871.100665 321.592166 
L 872.870926 320.769799 
L 874.641188 358.646937 
L 876.240134 314.323679 
L 878.010395 305.005271 
L 879.723551 282.482396 
L 881.493813 253.724484 
L 883.206969 209.446083 
L 884.977231 194.558966 
L 886.747492 245.06047 
L 888.460649 262.099555 
L 890.23091 299.79982 
L 891.944067 317.16525 
L 893.714328 325.466062 
L 895.48459 362.157175 
L 897.083536 323.661914 
L 898.853797 287.340219 
L 902.337215 245.11752 
L 904.050371 203.276719 
L 905.820633 206.79265 
L 907.590894 247.251702 
L 909.304051 271.65469 
L 911.074312 306.567918 
L 912.787469 307.537067 
L 914.55773 322.65528 
L 916.327992 348.362316 
L 917.984043 313.110113 
L 919.754304 288.944865 
L 921.467461 278.475931 
L 923.237722 261.383383 
L 924.950879 230.619631 
L 926.72114 219.260529 
L 930.204558 302.63633 
L 931.974819 336.34712 
L 933.687976 331.087506 
L 935.458237 329.106261 
L 937.228499 362.563458 
L 938.827445 318.543951 
L 944.081124 256.870498 
L 945.794281 230.576016 
L 947.564542 217.186468 
L 949.334804 258.967023 
L 951.04796 278.95727 
L 952.818221 317.883816 
L 954.531378 314.170512 
L 956.301639 324.576026 
L 958.071901 362.744553 
L 959.670847 317.49843 
L 961.441108 287.126617 
L 963.154265 267.788465 
L 964.924526 242.503986 
L 966.637683 188.211993 
L 968.407944 182.448058 
L 970.178206 233.559745 
L 971.891362 258.569011 
L 973.661623 291.319638 
L 975.37478 268.850169 
L 977.145041 297.76819 
L 978.915303 336.931879 
L 980.514249 305.970228 
L 982.28451 282.798996 
L 983.997667 266.747945 
L 985.767928 248.768315 
L 987.481085 203.940732 
L 989.251346 184.769752 
L 991.021608 231.797721 
L 994.505025 292.121526 
L 996.218182 279.001729 
L 996.218182 279.001729 
" clip-path="url(#peac937d283)" style="fill: none; stroke: #ff0000; stroke-width: 1.75; stroke-linecap: round"/>
   </g>
   <g id="patch_3">
    <path d="M 144 768.96 
L 144 103.68 
" style="fill: none"/>
   </g>
   <g id="patch_4">
    <path d="M 1036.8 768.96 
L 1036.8 103.68 
" style="fill: none"/>
   </g>
   <g id="patch_5">
    <path d="M 144 768.96 
L 1036.8 768.96 
" style="fill: none"/>
   </g>
   <g id="patch_6">
    <path d="M 144 103.68 
L 1036.8 103.68 
" style="fill: none"/>
   </g>
   <g id="text_18">
    <g id="patch_7">
     <path d="M 188.64 248.371875 
L 315.069375 248.371875 
Q 318.669375 248.371875 318.669375 244.771875 
L 318.669375 170.208 
Q 318.669375 166.608 315.069375 166.608 
L 188.64 166.608 
Q 185.04 166.608 185.04 170.208 
L 185.04 244.771875 
Q 185.04 248.371875 188.64 248.371875 
z
" style="fill: #fdf5e6; opacity: 0.5; stroke: #000000; stroke-width: 0.3; stroke-linejoin: miter"/>
    </g>
    <!-- mae = 29740.304 -->
    <g style="fill: #262626" transform="translate(188.64 178.797375) scale(0.12 -0.12)">
     <defs>
      <path id="ArialMT-6d" d="M 422 0 
L 422 3319 
L 925 3319 
L 925 2853 
Q 1081 3097 1340 3245 
Q 1600 3394 1931 3394 
Q 2300 3394 2536 3241 
Q 2772 3088 2869 2813 
Q 3263 3394 3894 3394 
Q 4388 3394 4653 3120 
Q 4919 2847 4919 2278 
L 4919 0 
L 4359 0 
L 4359 2091 
Q 4359 2428 4304 2576 
Q 4250 2725 4106 2815 
Q 3963 2906 3769 2906 
Q 3419 2906 3187 2673 
Q 2956 2441 2956 1928 
L 2956 0 
L 2394 0 
L 2394 2156 
Q 2394 2531 2256 2718 
Q 2119 2906 1806 2906 
Q 1569 2906 1367 2781 
Q 1166 2656 1075 2415 
Q 984 2175 984 1722 
L 984 0 
L 422 0 
z
" transform="scale(0.015625)"/>
      <path id="ArialMT-20" transform="scale(0.015625)"/>
      <path id="ArialMT-3d" d="M 3381 2694 
L 356 2694 
L 356 3219 
L 3381 3219 
L 3381 2694 
z
M 3381 1303 
L 356 1303 
L 356 1828 
L 3381 1828 
L 3381 1303 
z
" transform="scale(0.015625)"/>
      <path id="ArialMT-37" d="M 303 3981 
L 303 4522 
L 3269 4522 
L 3269 4084 
Q 2831 3619 2401 2847 
Q 1972 2075 1738 1259 
Q 1569 684 1522 0 
L 944 0 
Q 953 541 1156 1306 
Q 1359 2072 1739 2783 
Q 2119 3494 2547 3981 
L 303 3981 
z
" transform="scale(0.015625)"/>
      <path id="ArialMT-33" d="M 269 1209 
L 831 1284 
Q 928 806 1161 595 
Q 1394 384 1728 384 
Q 2125 384 2398 659 
Q 2672 934 2672 1341 
Q 2672 1728 2419 1979 
Q 2166 2231 1775 2231 
Q 1616 2231 1378 2169 
L 1441 2663 
Q 1497 2656 1531 2656 
Q 1891 2656 2178 2843 
Q 2466 3031 2466 3422 
Q 2466 3731 2256 3934 
Q 2047 4138 1716 4138 
Q 1388 4138 1169 3931 
Q 950 3725 888 3313 
L 325 3413 
Q 428 3978 793 4289 
Q 1159 4600 1703 4600 
Q 2078 4600 2393 4439 
Q 2709 4278 2876 4000 
Q 3044 3722 3044 3409 
Q 3044 3113 2884 2869 
Q 2725 2625 2413 2481 
Q 2819 2388 3044 2092 
Q 3269 1797 3269 1353 
Q 3269 753 2831 336 
Q 2394 -81 1725 -81 
Q 1122 -81 723 278 
Q 325 638 269 1209 
z
" transform="scale(0.015625)"/>
     </defs>
     <use xlink:href="#ArialMT-6d"/>
     <use xlink:href="#ArialMT-61" x="83.300781"/>
     <use xlink:href="#ArialMT-65" x="138.916016"/>
     <use xlink:href="#ArialMT-20" x="194.53125"/>
     <use xlink:href="#ArialMT-3d" x="222.314453"/>
     <use xlink:href="#ArialMT-20" x="280.712891"/>
     <use xlink:href="#ArialMT-32" x="308.496094"/>
     <use xlink:href="#ArialMT-39" x="364.111328"/>
     <use xlink:href="#ArialMT-37" x="419.726562"/>
     <use xlink:href="#ArialMT-34" x="475.341797"/>
     <use xlink:href="#ArialMT-30" x="530.957031"/>
     <use xlink:href="#ArialMT-2e" x="586.572266"/>
     <use xlink:href="#ArialMT-33" x="614.355469"/>
     <use xlink:href="#ArialMT-30" x="669.970703"/>
     <use xlink:href="#ArialMT-34" x="725.585938"/>
    </g>
    <!-- mape = 9.342 -->
    <g style="fill: #262626" transform="translate(188.64 191.532375) scale(0.12 -0.12)">
     <defs>
      <path id="ArialMT-70" d="M 422 -1272 
L 422 3319 
L 934 3319 
L 934 2888 
Q 1116 3141 1344 3267 
Q 1572 3394 1897 3394 
Q 2322 3394 2647 3175 
Q 2972 2956 3137 2557 
Q 3303 2159 3303 1684 
Q 3303 1175 3120 767 
Q 2938 359 2589 142 
Q 2241 -75 1856 -75 
Q 1575 -75 1351 44 
Q 1128 163 984 344 
L 984 -1272 
L 422 -1272 
z
M 931 1641 
Q 931 1000 1190 694 
Q 1450 388 1819 388 
Q 2194 388 2461 705 
Q 2728 1022 2728 1688 
Q 2728 2322 2467 2637 
Q 2206 2953 1844 2953 
Q 1484 2953 1207 2617 
Q 931 2281 931 1641 
z
" transform="scale(0.015625)"/>
     </defs>
     <use xlink:href="#ArialMT-6d"/>
     <use xlink:href="#ArialMT-61" x="83.300781"/>
     <use xlink:href="#ArialMT-70" x="138.916016"/>
     <use xlink:href="#ArialMT-65" x="194.53125"/>
     <use xlink:href="#ArialMT-20" x="250.146484"/>
     <use xlink:href="#ArialMT-3d" x="277.929688"/>
     <use xlink:href="#ArialMT-20" x="336.328125"/>
     <use xlink:href="#ArialMT-39" x="364.111328"/>
     <use xlink:href="#ArialMT-2e" x="419.726562"/>
     <use xlink:href="#ArialMT-33" x="447.509766"/>
     <use xlink:href="#ArialMT-34" x="503.125"/>
     <use xlink:href="#ArialMT-32" x="558.740234"/>
    </g>
    <!-- mse = 1606386841.637 -->
    <g style="fill: #262626" transform="translate(188.64 204.224625) scale(0.12 -0.12)">
     <use xlink:href="#ArialMT-6d"/>
     <use xlink:href="#ArialMT-73" x="83.300781"/>
     <use xlink:href="#ArialMT-65" x="133.300781"/>
     <use xlink:href="#ArialMT-20" x="188.916016"/>
     <use xlink:href="#ArialMT-3d" x="216.699219"/>
     <use xlink:href="#ArialMT-20" x="275.097656"/>
     <use xlink:href="#ArialMT-31" x="302.880859"/>
     <use xlink:href="#ArialMT-36" x="358.496094"/>
     <use xlink:href="#ArialMT-30" x="414.111328"/>
     <use xlink:href="#ArialMT-36" x="469.726562"/>
     <use xlink:href="#ArialMT-33" x="525.341797"/>
     <use xlink:href="#ArialMT-38" x="580.957031"/>
     <use xlink:href="#ArialMT-36" x="636.572266"/>
     <use xlink:href="#ArialMT-38" x="692.1875"/>
     <use xlink:href="#ArialMT-34" x="747.802734"/>
     <use xlink:href="#ArialMT-31" x="803.417969"/>
     <use xlink:href="#ArialMT-2e" x="859.033203"/>
     <use xlink:href="#ArialMT-36" x="886.816406"/>
     <use xlink:href="#ArialMT-33" x="942.431641"/>
     <use xlink:href="#ArialMT-37" x="998.046875"/>
    </g>
    <!-- rmse = 40079.756 -->
    <g style="fill: #262626" transform="translate(188.64 216.916875) scale(0.12 -0.12)">
     <use xlink:href="#ArialMT-72"/>
     <use xlink:href="#ArialMT-6d" x="33.300781"/>
     <use xlink:href="#ArialMT-73" x="116.601562"/>
     <use xlink:href="#ArialMT-65" x="166.601562"/>
     <use xlink:href="#ArialMT-20" x="222.216797"/>
     <use xlink:href="#ArialMT-3d" x="250"/>
     <use xlink:href="#ArialMT-20" x="308.398438"/>
     <use xlink:href="#ArialMT-34" x="336.181641"/>
     <use xlink:href="#ArialMT-30" x="391.796875"/>
     <use xlink:href="#ArialMT-30" x="447.412109"/>
     <use xlink:href="#ArialMT-37" x="503.027344"/>
     <use xlink:href="#ArialMT-39" x="558.642578"/>
     <use xlink:href="#ArialMT-2e" x="614.257812"/>
     <use xlink:href="#ArialMT-37" x="642.041016"/>
     <use xlink:href="#ArialMT-35" x="697.65625"/>
     <use xlink:href="#ArialMT-36" x="753.271484"/>
    </g>
    <!-- explained var = 0.988 -->
    <g style="fill: #262626" transform="translate(188.64 229.651875) scale(0.12 -0.12)">
     <defs>
      <path id="ArialMT-78" d="M 47 0 
L 1259 1725 
L 138 3319 
L 841 3319 
L 1350 2541 
Q 1494 2319 1581 2169 
Q 1719 2375 1834 2534 
L 2394 3319 
L 3066 3319 
L 1919 1756 
L 3153 0 
L 2463 0 
L 1781 1031 
L 1600 1309 
L 728 0 
L 47 0 
z
" transform="scale(0.015625)"/>
      <path id="ArialMT-6c" d="M 409 0 
L 409 4581 
L 972 4581 
L 972 0 
L 409 0 
z
" transform="scale(0.015625)"/>
      <path id="ArialMT-69" d="M 425 3934 
L 425 4581 
L 988 4581 
L 988 3934 
L 425 3934 
z
M 425 0 
L 425 3319 
L 988 3319 
L 988 0 
L 425 0 
z
" transform="scale(0.015625)"/>
      <path id="ArialMT-64" d="M 2575 0 
L 2575 419 
Q 2259 -75 1647 -75 
Q 1250 -75 917 144 
Q 584 363 401 755 
Q 219 1147 219 1656 
Q 219 2153 384 2558 
Q 550 2963 881 3178 
Q 1213 3394 1622 3394 
Q 1922 3394 2156 3267 
Q 2391 3141 2538 2938 
L 2538 4581 
L 3097 4581 
L 3097 0 
L 2575 0 
z
M 797 1656 
Q 797 1019 1065 703 
Q 1334 388 1700 388 
Q 2069 388 2326 689 
Q 2584 991 2584 1609 
Q 2584 2291 2321 2609 
Q 2059 2928 1675 2928 
Q 1300 2928 1048 2622 
Q 797 2316 797 1656 
z
" transform="scale(0.015625)"/>
      <path id="ArialMT-76" d="M 1344 0 
L 81 3319 
L 675 3319 
L 1388 1331 
Q 1503 1009 1600 663 
Q 1675 925 1809 1294 
L 2547 3319 
L 3125 3319 
L 1869 0 
L 1344 0 
z
" transform="scale(0.015625)"/>
     </defs>
     <use xlink:href="#ArialMT-65"/>
     <use xlink:href="#ArialMT-78" x="55.615234"/>
     <use xlink:href="#ArialMT-70" x="105.615234"/>
     <use xlink:href="#ArialMT-6c" x="161.230469"/>
     <use xlink:href="#ArialMT-61" x="183.447266"/>
     <use xlink:href="#ArialMT-69" x="239.0625"/>
     <use xlink:href="#ArialMT-6e" x="261.279297"/>
     <use xlink:href="#ArialMT-65" x="316.894531"/>
     <use xlink:href="#ArialMT-64" x="372.509766"/>
     <use xlink:href="#ArialMT-20" x="428.125"/>
     <use xlink:href="#ArialMT-76" x="455.908203"/>
     <use xlink:href="#ArialMT-61" x="505.908203"/>
     <use xlink:href="#ArialMT-72" x="561.523438"/>
     <use xlink:href="#ArialMT-20" x="594.824219"/>
     <use xlink:href="#ArialMT-3d" x="622.607422"/>
     <use xlink:href="#ArialMT-20" x="681.005859"/>
     <use xlink:href="#ArialMT-30" x="708.789062"/>
     <use xlink:href="#ArialMT-2e" x="764.404297"/>
     <use xlink:href="#ArialMT-39" x="792.1875"/>
     <use xlink:href="#ArialMT-38" x="847.802734"/>
     <use xlink:href="#ArialMT-38" x="903.417969"/>
    </g>
    <!-- r squared = 0.988 -->
    <g style="fill: #262626" transform="translate(188.64 242.386875) scale(0.12 -0.12)">
     <defs>
      <path id="ArialMT-71" d="M 2538 -1272 
L 2538 353 
Q 2406 169 2170 47 
Q 1934 -75 1669 -75 
Q 1078 -75 651 397 
Q 225 869 225 1691 
Q 225 2191 398 2587 
Q 572 2984 901 3189 
Q 1231 3394 1625 3394 
Q 2241 3394 2594 2875 
L 2594 3319 
L 3100 3319 
L 3100 -1272 
L 2538 -1272 
z
M 803 1669 
Q 803 1028 1072 708 
Q 1341 388 1716 388 
Q 2075 388 2334 692 
Q 2594 997 2594 1619 
Q 2594 2281 2320 2615 
Q 2047 2950 1678 2950 
Q 1313 2950 1058 2639 
Q 803 2328 803 1669 
z
" transform="scale(0.015625)"/>
      <path id="ArialMT-75" d="M 2597 0 
L 2597 488 
Q 2209 -75 1544 -75 
Q 1250 -75 995 37 
Q 741 150 617 320 
Q 494 491 444 738 
Q 409 903 409 1263 
L 409 3319 
L 972 3319 
L 972 1478 
Q 972 1038 1006 884 
Q 1059 663 1231 536 
Q 1403 409 1656 409 
Q 1909 409 2131 539 
Q 2353 669 2445 892 
Q 2538 1116 2538 1541 
L 2538 3319 
L 3100 3319 
L 3100 0 
L 2597 0 
z
" transform="scale(0.015625)"/>
     </defs>
     <use xlink:href="#ArialMT-72"/>
     <use xlink:href="#ArialMT-20" x="33.300781"/>
     <use xlink:href="#ArialMT-73" x="61.083984"/>
     <use xlink:href="#ArialMT-71" x="111.083984"/>
     <use xlink:href="#ArialMT-75" x="166.699219"/>
     <use xlink:href="#ArialMT-61" x="222.314453"/>
     <use xlink:href="#ArialMT-72" x="277.929688"/>
     <use xlink:href="#ArialMT-65" x="311.230469"/>
     <use xlink:href="#ArialMT-64" x="366.845703"/>
     <use xlink:href="#ArialMT-20" x="422.460938"/>
     <use xlink:href="#ArialMT-3d" x="450.244141"/>
     <use xlink:href="#ArialMT-20" x="508.642578"/>
     <use xlink:href="#ArialMT-30" x="536.425781"/>
     <use xlink:href="#ArialMT-2e" x="592.041016"/>
     <use xlink:href="#ArialMT-39" x="619.824219"/>
     <use xlink:href="#ArialMT-38" x="675.439453"/>
     <use xlink:href="#ArialMT-38" x="731.054688"/>
    </g>
   </g>
   <g id="text_19">
    <!-- Raw and Predicted data trend for Newark International -->
    <g style="fill: #262626" transform="translate(445.663125 97.68) scale(0.12 -0.12)">
     <defs>
      <path id="ArialMT-52" d="M 503 0 
L 503 4581 
L 2534 4581 
Q 3147 4581 3465 4457 
Q 3784 4334 3975 4021 
Q 4166 3709 4166 3331 
Q 4166 2844 3850 2509 
Q 3534 2175 2875 2084 
Q 3116 1969 3241 1856 
Q 3506 1613 3744 1247 
L 4541 0 
L 3778 0 
L 3172 953 
Q 2906 1366 2734 1584 
Q 2563 1803 2427 1890 
Q 2291 1978 2150 2013 
Q 2047 2034 1813 2034 
L 1109 2034 
L 1109 0 
L 503 0 
z
M 1109 2559 
L 2413 2559 
Q 2828 2559 3062 2645 
Q 3297 2731 3419 2920 
Q 3541 3109 3541 3331 
Q 3541 3656 3305 3865 
Q 3069 4075 2559 4075 
L 1109 4075 
L 1109 2559 
z
" transform="scale(0.015625)"/>
      <path id="ArialMT-77" d="M 1034 0 
L 19 3319 
L 600 3319 
L 1128 1403 
L 1325 691 
Q 1338 744 1497 1375 
L 2025 3319 
L 2603 3319 
L 3100 1394 
L 3266 759 
L 3456 1400 
L 4025 3319 
L 4572 3319 
L 3534 0 
L 2950 0 
L 2422 1988 
L 2294 2553 
L 1622 0 
L 1034 0 
z
" transform="scale(0.015625)"/>
      <path id="ArialMT-63" d="M 2588 1216 
L 3141 1144 
Q 3050 572 2676 248 
Q 2303 -75 1759 -75 
Q 1078 -75 664 370 
Q 250 816 250 1647 
Q 250 2184 428 2587 
Q 606 2991 970 3192 
Q 1334 3394 1763 3394 
Q 2303 3394 2647 3120 
Q 2991 2847 3088 2344 
L 2541 2259 
Q 2463 2594 2264 2762 
Q 2066 2931 1784 2931 
Q 1359 2931 1093 2626 
Q 828 2322 828 1663 
Q 828 994 1084 691 
Q 1341 388 1753 388 
Q 2084 388 2306 591 
Q 2528 794 2588 1216 
z
" transform="scale(0.015625)"/>
      <path id="ArialMT-74" d="M 1650 503 
L 1731 6 
Q 1494 -44 1306 -44 
Q 1000 -44 831 53 
Q 663 150 594 308 
Q 525 466 525 972 
L 525 2881 
L 113 2881 
L 113 3319 
L 525 3319 
L 525 4141 
L 1084 4478 
L 1084 3319 
L 1650 3319 
L 1650 2881 
L 1084 2881 
L 1084 941 
Q 1084 700 1114 631 
Q 1144 563 1211 522 
Q 1278 481 1403 481 
Q 1497 481 1650 503 
z
" transform="scale(0.015625)"/>
      <path id="ArialMT-66" d="M 556 0 
L 556 2881 
L 59 2881 
L 59 3319 
L 556 3319 
L 556 3672 
Q 556 4006 616 4169 
Q 697 4388 901 4523 
Q 1106 4659 1475 4659 
Q 1713 4659 2000 4603 
L 1916 4113 
Q 1741 4144 1584 4144 
Q 1328 4144 1222 4034 
Q 1116 3925 1116 3625 
L 1116 3319 
L 1763 3319 
L 1763 2881 
L 1116 2881 
L 1116 0 
L 556 0 
z
" transform="scale(0.015625)"/>
      <path id="ArialMT-6f" d="M 213 1659 
Q 213 2581 725 3025 
Q 1153 3394 1769 3394 
Q 2453 3394 2887 2945 
Q 3322 2497 3322 1706 
Q 3322 1066 3130 698 
Q 2938 331 2570 128 
Q 2203 -75 1769 -75 
Q 1072 -75 642 372 
Q 213 819 213 1659 
z
M 791 1659 
Q 791 1022 1069 705 
Q 1347 388 1769 388 
Q 2188 388 2466 706 
Q 2744 1025 2744 1678 
Q 2744 2294 2464 2611 
Q 2184 2928 1769 2928 
Q 1347 2928 1069 2612 
Q 791 2297 791 1659 
z
" transform="scale(0.015625)"/>
      <path id="ArialMT-4e" d="M 488 0 
L 488 4581 
L 1109 4581 
L 3516 984 
L 3516 4581 
L 4097 4581 
L 4097 0 
L 3475 0 
L 1069 3600 
L 1069 0 
L 488 0 
z
" transform="scale(0.015625)"/>
      <path id="ArialMT-6b" d="M 425 0 
L 425 4581 
L 988 4581 
L 988 1969 
L 2319 3319 
L 3047 3319 
L 1778 2088 
L 3175 0 
L 2481 0 
L 1384 1697 
L 988 1316 
L 988 0 
L 425 0 
z
" transform="scale(0.015625)"/>
      <path id="ArialMT-49" d="M 597 0 
L 597 4581 
L 1203 4581 
L 1203 0 
L 597 0 
z
" transform="scale(0.015625)"/>
     </defs>
     <use xlink:href="#ArialMT-52"/>
     <use xlink:href="#ArialMT-61" x="72.216797"/>
     <use xlink:href="#ArialMT-77" x="127.832031"/>
     <use xlink:href="#ArialMT-20" x="200.048828"/>
     <use xlink:href="#ArialMT-61" x="227.832031"/>
     <use xlink:href="#ArialMT-6e" x="283.447266"/>
     <use xlink:href="#ArialMT-64" x="339.0625"/>
     <use xlink:href="#ArialMT-20" x="394.677734"/>
     <use xlink:href="#ArialMT-50" x="422.460938"/>
     <use xlink:href="#ArialMT-72" x="489.160156"/>
     <use xlink:href="#ArialMT-65" x="522.460938"/>
     <use xlink:href="#ArialMT-64" x="578.076172"/>
     <use xlink:href="#ArialMT-69" x="633.691406"/>
     <use xlink:href="#ArialMT-63" x="655.908203"/>
     <use xlink:href="#ArialMT-74" x="705.908203"/>
     <use xlink:href="#ArialMT-65" x="733.691406"/>
     <use xlink:href="#ArialMT-64" x="789.306641"/>
     <use xlink:href="#ArialMT-20" x="844.921875"/>
     <use xlink:href="#ArialMT-64" x="872.705078"/>
     <use xlink:href="#ArialMT-61" x="928.320312"/>
     <use xlink:href="#ArialMT-74" x="983.935547"/>
     <use xlink:href="#ArialMT-61" x="1011.71875"/>
     <use xlink:href="#ArialMT-20" x="1067.333984"/>
     <use xlink:href="#ArialMT-74" x="1095.117188"/>
     <use xlink:href="#ArialMT-72" x="1122.900391"/>
     <use xlink:href="#ArialMT-65" x="1156.201172"/>
     <use xlink:href="#ArialMT-6e" x="1211.816406"/>
     <use xlink:href="#ArialMT-64" x="1267.431641"/>
     <use xlink:href="#ArialMT-20" x="1323.046875"/>
     <use xlink:href="#ArialMT-66" x="1350.830078"/>
     <use xlink:href="#ArialMT-6f" x="1378.613281"/>
     <use xlink:href="#ArialMT-72" x="1434.228516"/>
     <use xlink:href="#ArialMT-20" x="1467.529297"/>
     <use xlink:href="#ArialMT-4e" x="1495.3125"/>
     <use xlink:href="#ArialMT-65" x="1567.529297"/>
     <use xlink:href="#ArialMT-77" x="1623.144531"/>
     <use xlink:href="#ArialMT-61" x="1695.361328"/>
     <use xlink:href="#ArialMT-72" x="1750.976562"/>
     <use xlink:href="#ArialMT-6b" x="1784.277344"/>
     <use xlink:href="#ArialMT-20" x="1834.277344"/>
     <use xlink:href="#ArialMT-49" x="1862.060547"/>
     <use xlink:href="#ArialMT-6e" x="1889.84375"/>
     <use xlink:href="#ArialMT-74" x="1945.458984"/>
     <use xlink:href="#ArialMT-65" x="1973.242188"/>
     <use xlink:href="#ArialMT-72" x="2028.857422"/>
     <use xlink:href="#ArialMT-6e" x="2062.158203"/>
     <use xlink:href="#ArialMT-61" x="2117.773438"/>
     <use xlink:href="#ArialMT-74" x="2173.388672"/>
     <use xlink:href="#ArialMT-69" x="2201.171875"/>
     <use xlink:href="#ArialMT-6f" x="2223.388672"/>
     <use xlink:href="#ArialMT-6e" x="2279.003906"/>
     <use xlink:href="#ArialMT-61" x="2334.619141"/>
     <use xlink:href="#ArialMT-6c" x="2390.234375"/>
    </g>
   </g>
   <g id="legend_1">
    <g id="line2d_33">
     <path d="M 153 116.337812 
L 163 116.337812 
L 173 116.337812 
" style="fill: none; stroke: #0000ff; stroke-width: 1.75; stroke-linecap: round"/>
    </g>
    <g id="text_20">
     <!-- Test data for Newark International -->
     <g style="fill: #262626" transform="translate(181 119.837812) scale(0.1 -0.1)">
      <defs>
       <path id="ArialMT-54" d="M 1659 0 
L 1659 4041 
L 150 4041 
L 150 4581 
L 3781 4581 
L 3781 4041 
L 2266 4041 
L 2266 0 
L 1659 0 
z
" transform="scale(0.015625)"/>
      </defs>
      <use xlink:href="#ArialMT-54"/>
      <use xlink:href="#ArialMT-65" x="49.958984"/>
      <use xlink:href="#ArialMT-73" x="105.574219"/>
      <use xlink:href="#ArialMT-74" x="155.574219"/>
      <use xlink:href="#ArialMT-20" x="183.357422"/>
      <use xlink:href="#ArialMT-64" x="211.140625"/>
      <use xlink:href="#ArialMT-61" x="266.755859"/>
      <use xlink:href="#ArialMT-74" x="322.371094"/>
      <use xlink:href="#ArialMT-61" x="350.154297"/>
      <use xlink:href="#ArialMT-20" x="405.769531"/>
      <use xlink:href="#ArialMT-66" x="433.552734"/>
      <use xlink:href="#ArialMT-6f" x="461.335938"/>
      <use xlink:href="#ArialMT-72" x="516.951172"/>
      <use xlink:href="#ArialMT-20" x="550.251953"/>
      <use xlink:href="#ArialMT-4e" x="578.035156"/>
      <use xlink:href="#ArialMT-65" x="650.251953"/>
      <use xlink:href="#ArialMT-77" x="705.867188"/>
      <use xlink:href="#ArialMT-61" x="778.083984"/>
      <use xlink:href="#ArialMT-72" x="833.699219"/>
      <use xlink:href="#ArialMT-6b" x="867"/>
      <use xlink:href="#ArialMT-20" x="917"/>
      <use xlink:href="#ArialMT-49" x="944.783203"/>
      <use xlink:href="#ArialMT-6e" x="972.566406"/>
      <use xlink:href="#ArialMT-74" x="1028.181641"/>
      <use xlink:href="#ArialMT-65" x="1055.964844"/>
      <use xlink:href="#ArialMT-72" x="1111.580078"/>
      <use xlink:href="#ArialMT-6e" x="1144.880859"/>
      <use xlink:href="#ArialMT-61" x="1200.496094"/>
      <use xlink:href="#ArialMT-74" x="1256.111328"/>
      <use xlink:href="#ArialMT-69" x="1283.894531"/>
      <use xlink:href="#ArialMT-6f" x="1306.111328"/>
      <use xlink:href="#ArialMT-6e" x="1361.726562"/>
      <use xlink:href="#ArialMT-61" x="1417.341797"/>
      <use xlink:href="#ArialMT-6c" x="1472.957031"/>
     </g>
    </g>
    <g id="line2d_34">
     <path d="M 153 130.483125 
L 163 130.483125 
L 173 130.483125 
" style="fill: none; stroke: #ff0000; stroke-width: 1.75; stroke-linecap: round"/>
    </g>
    <g id="text_21">
     <!-- Forecast data for Newark International -->
     <g style="fill: #262626" transform="translate(181 133.983125) scale(0.1 -0.1)">
      <defs>
       <path id="ArialMT-46" d="M 525 0 
L 525 4581 
L 3616 4581 
L 3616 4041 
L 1131 4041 
L 1131 2622 
L 3281 2622 
L 3281 2081 
L 1131 2081 
L 1131 0 
L 525 0 
z
" transform="scale(0.015625)"/>
      </defs>
      <use xlink:href="#ArialMT-46"/>
      <use xlink:href="#ArialMT-6f" x="61.083984"/>
      <use xlink:href="#ArialMT-72" x="116.699219"/>
      <use xlink:href="#ArialMT-65" x="150"/>
      <use xlink:href="#ArialMT-63" x="205.615234"/>
      <use xlink:href="#ArialMT-61" x="255.615234"/>
      <use xlink:href="#ArialMT-73" x="311.230469"/>
      <use xlink:href="#ArialMT-74" x="361.230469"/>
      <use xlink:href="#ArialMT-20" x="389.013672"/>
      <use xlink:href="#ArialMT-64" x="416.796875"/>
      <use xlink:href="#ArialMT-61" x="472.412109"/>
      <use xlink:href="#ArialMT-74" x="528.027344"/>
      <use xlink:href="#ArialMT-61" x="555.810547"/>
      <use xlink:href="#ArialMT-20" x="611.425781"/>
      <use xlink:href="#ArialMT-66" x="639.208984"/>
      <use xlink:href="#ArialMT-6f" x="666.992188"/>
      <use xlink:href="#ArialMT-72" x="722.607422"/>
      <use xlink:href="#ArialMT-20" x="755.908203"/>
      <use xlink:href="#ArialMT-4e" x="783.691406"/>
      <use xlink:href="#ArialMT-65" x="855.908203"/>
      <use xlink:href="#ArialMT-77" x="911.523438"/>
      <use xlink:href="#ArialMT-61" x="983.740234"/>
      <use xlink:href="#ArialMT-72" x="1039.355469"/>
      <use xlink:href="#ArialMT-6b" x="1072.65625"/>
      <use xlink:href="#ArialMT-20" x="1122.65625"/>
      <use xlink:href="#ArialMT-49" x="1150.439453"/>
      <use xlink:href="#ArialMT-6e" x="1178.222656"/>
      <use xlink:href="#ArialMT-74" x="1233.837891"/>
      <use xlink:href="#ArialMT-65" x="1261.621094"/>
      <use xlink:href="#ArialMT-72" x="1317.236328"/>
      <use xlink:href="#ArialMT-6e" x="1350.537109"/>
      <use xlink:href="#ArialMT-61" x="1406.152344"/>
      <use xlink:href="#ArialMT-74" x="1461.767578"/>
      <use xlink:href="#ArialMT-69" x="1489.550781"/>
      <use xlink:href="#ArialMT-6f" x="1511.767578"/>
      <use xlink:href="#ArialMT-6e" x="1567.382812"/>
      <use xlink:href="#ArialMT-61" x="1622.998047"/>
      <use xlink:href="#ArialMT-6c" x="1678.613281"/>
     </g>
    </g>
   </g>
  </g>
 </g>
 <defs>
  <clipPath id="peac937d283">
   <rect x="144" y="103.68" width="892.8" height="665.28"/>
  </clipPath>
 </defs>
</svg>
