<?xml version="1.0" encoding="utf-8" standalone="no"?>
<!DOCTYPE svg PUBLIC "-//W3C//DTD SVG 1.1//EN"
  "http://www.w3.org/Graphics/SVG/1.1/DTD/svg11.dtd">
<svg xmlns:xlink="http://www.w3.org/1999/xlink" width="720pt" height="576pt" viewBox="0 0 720 576" xmlns="http://www.w3.org/2000/svg" version="1.1">
 <metadata>
  <rdf:RDF xmlns:dc="http://purl.org/dc/elements/1.1/" xmlns:cc="http://creativecommons.org/ns#" xmlns:rdf="http://www.w3.org/1999/02/22-rdf-syntax-ns#">
   <cc:Work>
    <dc:type rdf:resource="http://purl.org/dc/dcmitype/StillImage"/>
    <dc:date>2024-07-26T07:56:08.721379</dc:date>
    <dc:format>image/svg+xml</dc:format>
    <dc:creator>
     <cc:Agent>
      <dc:title>Matplotlib v3.8.4, https://matplotlib.org/</dc:title>
     </cc:Agent>
    </dc:creator>
   </cc:Work>
  </rdf:RDF>
 </metadata>
 <defs>
  <style type="text/css">*{stroke-linejoin: round; stroke-linecap: butt}</style>
 </defs>
 <g id="figure_1">
  <g id="patch_1">
   <path d="M 0 576 
L 720 576 
L 720 0 
L 0 0 
z
" style="fill: #ffffff"/>
  </g>
  <g id="axes_1">
   <g id="patch_2">
    <path d="M 48.89 511.981997 
L 709.2 511.981997 
L 709.2 25.49625 
L 48.89 25.49625 
z
" style="fill: #eaeaf2"/>
   </g>
   <g id="matplotlib.axis_1">
    <g id="xtick_1">
     <g id="line2d_1">
      <path d="M 78.904091 511.981997 
L 78.904091 25.49625 
" clip-path="url(#p92172c9b15)" style="fill: none; stroke: #ffffff; stroke-linecap: round"/>
     </g>
     <g id="line2d_2"/>
     <g id="text_1">
      <!-- 2020-12 -->
      <g style="fill: #262626" transform="translate(67.75832 549.990839) rotate(-45) scale(0.1 -0.1)">
       <defs>
        <path id="ArialMT-32" d="M 3222 541 
L 3222 0 
L 194 0 
Q 188 203 259 391 
Q 375 700 629 1000 
Q 884 1300 1366 1694 
Q 2113 2306 2375 2664 
Q 2638 3022 2638 3341 
Q 2638 3675 2398 3904 
Q 2159 4134 1775 4134 
Q 1369 4134 1125 3890 
Q 881 3647 878 3216 
L 300 3275 
Q 359 3922 746 4261 
Q 1134 4600 1788 4600 
Q 2447 4600 2831 4234 
Q 3216 3869 3216 3328 
Q 3216 3053 3103 2787 
Q 2991 2522 2730 2228 
Q 2469 1934 1863 1422 
Q 1356 997 1212 845 
Q 1069 694 975 541 
L 3222 541 
z
" transform="scale(0.015625)"/>
        <path id="ArialMT-30" d="M 266 2259 
Q 266 3072 433 3567 
Q 600 4063 929 4331 
Q 1259 4600 1759 4600 
Q 2128 4600 2406 4451 
Q 2684 4303 2865 4023 
Q 3047 3744 3150 3342 
Q 3253 2941 3253 2259 
Q 3253 1453 3087 958 
Q 2922 463 2592 192 
Q 2263 -78 1759 -78 
Q 1097 -78 719 397 
Q 266 969 266 2259 
z
M 844 2259 
Q 844 1131 1108 757 
Q 1372 384 1759 384 
Q 2147 384 2411 759 
Q 2675 1134 2675 2259 
Q 2675 3391 2411 3762 
Q 2147 4134 1753 4134 
Q 1366 4134 1134 3806 
Q 844 3388 844 2259 
z
" transform="scale(0.015625)"/>
        <path id="ArialMT-2d" d="M 203 1375 
L 203 1941 
L 1931 1941 
L 1931 1375 
L 203 1375 
z
" transform="scale(0.015625)"/>
        <path id="ArialMT-31" d="M 2384 0 
L 1822 0 
L 1822 3584 
Q 1619 3391 1289 3197 
Q 959 3003 697 2906 
L 697 3450 
Q 1169 3672 1522 3987 
Q 1875 4303 2022 4600 
L 2384 4600 
L 2384 0 
z
" transform="scale(0.015625)"/>
       </defs>
       <use xlink:href="#ArialMT-32"/>
       <use xlink:href="#ArialMT-30" x="55.615234"/>
       <use xlink:href="#ArialMT-32" x="111.230469"/>
       <use xlink:href="#ArialMT-30" x="166.845703"/>
       <use xlink:href="#ArialMT-2d" x="222.460938"/>
       <use xlink:href="#ArialMT-31" x="255.761719"/>
       <use xlink:href="#ArialMT-32" x="311.376953"/>
      </g>
     </g>
    </g>
    <g id="xtick_2">
     <g id="line2d_3">
      <path d="M 141.140667 511.981997 
L 141.140667 25.49625 
" clip-path="url(#p92172c9b15)" style="fill: none; stroke: #ffffff; stroke-linecap: round"/>
     </g>
     <g id="line2d_4"/>
     <g id="text_2">
      <!-- 2021-01 -->
      <g style="fill: #262626" transform="translate(129.994897 549.990839) rotate(-45) scale(0.1 -0.1)">
       <use xlink:href="#ArialMT-32"/>
       <use xlink:href="#ArialMT-30" x="55.615234"/>
       <use xlink:href="#ArialMT-32" x="111.230469"/>
       <use xlink:href="#ArialMT-31" x="166.845703"/>
       <use xlink:href="#ArialMT-2d" x="222.460938"/>
       <use xlink:href="#ArialMT-30" x="255.761719"/>
       <use xlink:href="#ArialMT-31" x="311.376953"/>
      </g>
     </g>
    </g>
    <g id="xtick_3">
     <g id="line2d_5">
      <path d="M 203.377244 511.981997 
L 203.377244 25.49625 
" clip-path="url(#p92172c9b15)" style="fill: none; stroke: #ffffff; stroke-linecap: round"/>
     </g>
     <g id="line2d_6"/>
     <g id="text_3">
      <!-- 2021-02 -->
      <g style="fill: #262626" transform="translate(192.231473 549.990839) rotate(-45) scale(0.1 -0.1)">
       <use xlink:href="#ArialMT-32"/>
       <use xlink:href="#ArialMT-30" x="55.615234"/>
       <use xlink:href="#ArialMT-32" x="111.230469"/>
       <use xlink:href="#ArialMT-31" x="166.845703"/>
       <use xlink:href="#ArialMT-2d" x="222.460938"/>
       <use xlink:href="#ArialMT-30" x="255.761719"/>
       <use xlink:href="#ArialMT-32" x="311.376953"/>
      </g>
     </g>
    </g>
    <g id="xtick_4">
     <g id="line2d_7">
      <path d="M 259.590926 511.981997 
L 259.590926 25.49625 
" clip-path="url(#p92172c9b15)" style="fill: none; stroke: #ffffff; stroke-linecap: round"/>
     </g>
     <g id="line2d_8"/>
     <g id="text_4">
      <!-- 2021-03 -->
      <g style="fill: #262626" transform="translate(248.445155 549.990839) rotate(-45) scale(0.1 -0.1)">
       <defs>
        <path id="ArialMT-33" d="M 269 1209 
L 831 1284 
Q 928 806 1161 595 
Q 1394 384 1728 384 
Q 2125 384 2398 659 
Q 2672 934 2672 1341 
Q 2672 1728 2419 1979 
Q 2166 2231 1775 2231 
Q 1616 2231 1378 2169 
L 1441 2663 
Q 1497 2656 1531 2656 
Q 1891 2656 2178 2843 
Q 2466 3031 2466 3422 
Q 2466 3731 2256 3934 
Q 2047 4138 1716 4138 
Q 1388 4138 1169 3931 
Q 950 3725 888 3313 
L 325 3413 
Q 428 3978 793 4289 
Q 1159 4600 1703 4600 
Q 2078 4600 2393 4439 
Q 2709 4278 2876 4000 
Q 3044 3722 3044 3409 
Q 3044 3113 2884 2869 
Q 2725 2625 2413 2481 
Q 2819 2388 3044 2092 
Q 3269 1797 3269 1353 
Q 3269 753 2831 336 
Q 2394 -81 1725 -81 
Q 1122 -81 723 278 
Q 325 638 269 1209 
z
" transform="scale(0.015625)"/>
       </defs>
       <use xlink:href="#ArialMT-32"/>
       <use xlink:href="#ArialMT-30" x="55.615234"/>
       <use xlink:href="#ArialMT-32" x="111.230469"/>
       <use xlink:href="#ArialMT-31" x="166.845703"/>
       <use xlink:href="#ArialMT-2d" x="222.460938"/>
       <use xlink:href="#ArialMT-30" x="255.761719"/>
       <use xlink:href="#ArialMT-33" x="311.376953"/>
      </g>
     </g>
    </g>
    <g id="xtick_5">
     <g id="line2d_9">
      <path d="M 321.827502 511.981997 
L 321.827502 25.49625 
" clip-path="url(#p92172c9b15)" style="fill: none; stroke: #ffffff; stroke-linecap: round"/>
     </g>
     <g id="line2d_10"/>
     <g id="text_5">
      <!-- 2021-04 -->
      <g style="fill: #262626" transform="translate(310.681732 549.990839) rotate(-45) scale(0.1 -0.1)">
       <defs>
        <path id="ArialMT-34" d="M 2069 0 
L 2069 1097 
L 81 1097 
L 81 1613 
L 2172 4581 
L 2631 4581 
L 2631 1613 
L 3250 1613 
L 3250 1097 
L 2631 1097 
L 2631 0 
L 2069 0 
z
M 2069 1613 
L 2069 3678 
L 634 1613 
L 2069 1613 
z
" transform="scale(0.015625)"/>
       </defs>
       <use xlink:href="#ArialMT-32"/>
       <use xlink:href="#ArialMT-30" x="55.615234"/>
       <use xlink:href="#ArialMT-32" x="111.230469"/>
       <use xlink:href="#ArialMT-31" x="166.845703"/>
       <use xlink:href="#ArialMT-2d" x="222.460938"/>
       <use xlink:href="#ArialMT-30" x="255.761719"/>
       <use xlink:href="#ArialMT-34" x="311.376953"/>
      </g>
     </g>
    </g>
    <g id="xtick_6">
     <g id="line2d_11">
      <path d="M 382.056447 511.981997 
L 382.056447 25.49625 
" clip-path="url(#p92172c9b15)" style="fill: none; stroke: #ffffff; stroke-linecap: round"/>
     </g>
     <g id="line2d_12"/>
     <g id="text_6">
      <!-- 2021-05 -->
      <g style="fill: #262626" transform="translate(370.910677 549.990839) rotate(-45) scale(0.1 -0.1)">
       <defs>
        <path id="ArialMT-35" d="M 266 1200 
L 856 1250 
Q 922 819 1161 601 
Q 1400 384 1738 384 
Q 2144 384 2425 690 
Q 2706 997 2706 1503 
Q 2706 1984 2436 2262 
Q 2166 2541 1728 2541 
Q 1456 2541 1237 2417 
Q 1019 2294 894 2097 
L 366 2166 
L 809 4519 
L 3088 4519 
L 3088 3981 
L 1259 3981 
L 1013 2750 
Q 1425 3038 1878 3038 
Q 2478 3038 2890 2622 
Q 3303 2206 3303 1553 
Q 3303 931 2941 478 
Q 2500 -78 1738 -78 
Q 1113 -78 717 272 
Q 322 622 266 1200 
z
" transform="scale(0.015625)"/>
       </defs>
       <use xlink:href="#ArialMT-32"/>
       <use xlink:href="#ArialMT-30" x="55.615234"/>
       <use xlink:href="#ArialMT-32" x="111.230469"/>
       <use xlink:href="#ArialMT-31" x="166.845703"/>
       <use xlink:href="#ArialMT-2d" x="222.460938"/>
       <use xlink:href="#ArialMT-30" x="255.761719"/>
       <use xlink:href="#ArialMT-35" x="311.376953"/>
      </g>
     </g>
    </g>
    <g id="xtick_7">
     <g id="line2d_13">
      <path d="M 444.293024 511.981997 
L 444.293024 25.49625 
" clip-path="url(#p92172c9b15)" style="fill: none; stroke: #ffffff; stroke-linecap: round"/>
     </g>
     <g id="line2d_14"/>
     <g id="text_7">
      <!-- 2021-06 -->
      <g style="fill: #262626" transform="translate(433.147253 549.990839) rotate(-45) scale(0.1 -0.1)">
       <defs>
        <path id="ArialMT-36" d="M 3184 3459 
L 2625 3416 
Q 2550 3747 2413 3897 
Q 2184 4138 1850 4138 
Q 1581 4138 1378 3988 
Q 1113 3794 959 3422 
Q 806 3050 800 2363 
Q 1003 2672 1297 2822 
Q 1591 2972 1913 2972 
Q 2475 2972 2870 2558 
Q 3266 2144 3266 1488 
Q 3266 1056 3080 686 
Q 2894 316 2569 119 
Q 2244 -78 1831 -78 
Q 1128 -78 684 439 
Q 241 956 241 2144 
Q 241 3472 731 4075 
Q 1159 4600 1884 4600 
Q 2425 4600 2770 4297 
Q 3116 3994 3184 3459 
z
M 888 1484 
Q 888 1194 1011 928 
Q 1134 663 1356 523 
Q 1578 384 1822 384 
Q 2178 384 2434 671 
Q 2691 959 2691 1453 
Q 2691 1928 2437 2201 
Q 2184 2475 1800 2475 
Q 1419 2475 1153 2201 
Q 888 1928 888 1484 
z
" transform="scale(0.015625)"/>
       </defs>
       <use xlink:href="#ArialMT-32"/>
       <use xlink:href="#ArialMT-30" x="55.615234"/>
       <use xlink:href="#ArialMT-32" x="111.230469"/>
       <use xlink:href="#ArialMT-31" x="166.845703"/>
       <use xlink:href="#ArialMT-2d" x="222.460938"/>
       <use xlink:href="#ArialMT-30" x="255.761719"/>
       <use xlink:href="#ArialMT-36" x="311.376953"/>
      </g>
     </g>
    </g>
    <g id="xtick_8">
     <g id="line2d_15">
      <path d="M 504.521969 511.981997 
L 504.521969 25.49625 
" clip-path="url(#p92172c9b15)" style="fill: none; stroke: #ffffff; stroke-linecap: round"/>
     </g>
     <g id="line2d_16"/>
     <g id="text_8">
      <!-- 2021-07 -->
      <g style="fill: #262626" transform="translate(493.376198 549.990839) rotate(-45) scale(0.1 -0.1)">
       <defs>
        <path id="ArialMT-37" d="M 303 3981 
L 303 4522 
L 3269 4522 
L 3269 4084 
Q 2831 3619 2401 2847 
Q 1972 2075 1738 1259 
Q 1569 684 1522 0 
L 944 0 
Q 953 541 1156 1306 
Q 1359 2072 1739 2783 
Q 2119 3494 2547 3981 
L 303 3981 
z
" transform="scale(0.015625)"/>
       </defs>
       <use xlink:href="#ArialMT-32"/>
       <use xlink:href="#ArialMT-30" x="55.615234"/>
       <use xlink:href="#ArialMT-32" x="111.230469"/>
       <use xlink:href="#ArialMT-31" x="166.845703"/>
       <use xlink:href="#ArialMT-2d" x="222.460938"/>
       <use xlink:href="#ArialMT-30" x="255.761719"/>
       <use xlink:href="#ArialMT-37" x="311.376953"/>
      </g>
     </g>
    </g>
    <g id="xtick_9">
     <g id="line2d_17">
      <path d="M 566.758545 511.981997 
L 566.758545 25.49625 
" clip-path="url(#p92172c9b15)" style="fill: none; stroke: #ffffff; stroke-linecap: round"/>
     </g>
     <g id="line2d_18"/>
     <g id="text_9">
      <!-- 2021-08 -->
      <g style="fill: #262626" transform="translate(555.612775 549.990839) rotate(-45) scale(0.1 -0.1)">
       <defs>
        <path id="ArialMT-38" d="M 1131 2484 
Q 781 2613 612 2850 
Q 444 3088 444 3419 
Q 444 3919 803 4259 
Q 1163 4600 1759 4600 
Q 2359 4600 2725 4251 
Q 3091 3903 3091 3403 
Q 3091 3084 2923 2848 
Q 2756 2613 2416 2484 
Q 2838 2347 3058 2040 
Q 3278 1734 3278 1309 
Q 3278 722 2862 322 
Q 2447 -78 1769 -78 
Q 1091 -78 675 323 
Q 259 725 259 1325 
Q 259 1772 486 2073 
Q 713 2375 1131 2484 
z
M 1019 3438 
Q 1019 3113 1228 2906 
Q 1438 2700 1772 2700 
Q 2097 2700 2305 2904 
Q 2513 3109 2513 3406 
Q 2513 3716 2298 3927 
Q 2084 4138 1766 4138 
Q 1444 4138 1231 3931 
Q 1019 3725 1019 3438 
z
M 838 1322 
Q 838 1081 952 856 
Q 1066 631 1291 507 
Q 1516 384 1775 384 
Q 2178 384 2440 643 
Q 2703 903 2703 1303 
Q 2703 1709 2433 1975 
Q 2163 2241 1756 2241 
Q 1359 2241 1098 1978 
Q 838 1716 838 1322 
z
" transform="scale(0.015625)"/>
       </defs>
       <use xlink:href="#ArialMT-32"/>
       <use xlink:href="#ArialMT-30" x="55.615234"/>
       <use xlink:href="#ArialMT-32" x="111.230469"/>
       <use xlink:href="#ArialMT-31" x="166.845703"/>
       <use xlink:href="#ArialMT-2d" x="222.460938"/>
       <use xlink:href="#ArialMT-30" x="255.761719"/>
       <use xlink:href="#ArialMT-38" x="311.376953"/>
      </g>
     </g>
    </g>
    <g id="xtick_10">
     <g id="line2d_19">
      <path d="M 628.995122 511.981997 
L 628.995122 25.49625 
" clip-path="url(#p92172c9b15)" style="fill: none; stroke: #ffffff; stroke-linecap: round"/>
     </g>
     <g id="line2d_20"/>
     <g id="text_10">
      <!-- 2021-09 -->
      <g style="fill: #262626" transform="translate(617.849351 549.990839) rotate(-45) scale(0.1 -0.1)">
       <defs>
        <path id="ArialMT-39" d="M 350 1059 
L 891 1109 
Q 959 728 1153 556 
Q 1347 384 1650 384 
Q 1909 384 2104 503 
Q 2300 622 2425 820 
Q 2550 1019 2634 1356 
Q 2719 1694 2719 2044 
Q 2719 2081 2716 2156 
Q 2547 1888 2255 1720 
Q 1963 1553 1622 1553 
Q 1053 1553 659 1965 
Q 266 2378 266 3053 
Q 266 3750 677 4175 
Q 1088 4600 1706 4600 
Q 2153 4600 2523 4359 
Q 2894 4119 3086 3673 
Q 3278 3228 3278 2384 
Q 3278 1506 3087 986 
Q 2897 466 2520 194 
Q 2144 -78 1638 -78 
Q 1100 -78 759 220 
Q 419 519 350 1059 
z
M 2653 3081 
Q 2653 3566 2395 3850 
Q 2138 4134 1775 4134 
Q 1400 4134 1122 3828 
Q 844 3522 844 3034 
Q 844 2597 1108 2323 
Q 1372 2050 1759 2050 
Q 2150 2050 2401 2323 
Q 2653 2597 2653 3081 
z
" transform="scale(0.015625)"/>
       </defs>
       <use xlink:href="#ArialMT-32"/>
       <use xlink:href="#ArialMT-30" x="55.615234"/>
       <use xlink:href="#ArialMT-32" x="111.230469"/>
       <use xlink:href="#ArialMT-31" x="166.845703"/>
       <use xlink:href="#ArialMT-2d" x="222.460938"/>
       <use xlink:href="#ArialMT-30" x="255.761719"/>
       <use xlink:href="#ArialMT-39" x="311.376953"/>
      </g>
     </g>
    </g>
    <g id="xtick_11">
     <g id="line2d_21">
      <path d="M 689.224067 511.981997 
L 689.224067 25.49625 
" clip-path="url(#p92172c9b15)" style="fill: none; stroke: #ffffff; stroke-linecap: round"/>
     </g>
     <g id="line2d_22"/>
     <g id="text_11">
      <!-- 2021-10 -->
      <g style="fill: #262626" transform="translate(678.078296 549.990839) rotate(-45) scale(0.1 -0.1)">
       <use xlink:href="#ArialMT-32"/>
       <use xlink:href="#ArialMT-30" x="55.615234"/>
       <use xlink:href="#ArialMT-32" x="111.230469"/>
       <use xlink:href="#ArialMT-31" x="166.845703"/>
       <use xlink:href="#ArialMT-2d" x="222.460938"/>
       <use xlink:href="#ArialMT-31" x="255.761719"/>
       <use xlink:href="#ArialMT-30" x="311.376953"/>
      </g>
     </g>
    </g>
    <g id="text_12">
     <!-- Date -->
     <g style="fill: #262626" transform="translate(367.427969 563.269807) scale(0.11 -0.11)">
      <defs>
       <path id="ArialMT-44" d="M 494 0 
L 494 4581 
L 2072 4581 
Q 2606 4581 2888 4516 
Q 3281 4425 3559 4188 
Q 3922 3881 4101 3404 
Q 4281 2928 4281 2316 
Q 4281 1794 4159 1391 
Q 4038 988 3847 723 
Q 3656 459 3429 307 
Q 3203 156 2883 78 
Q 2563 0 2147 0 
L 494 0 
z
M 1100 541 
L 2078 541 
Q 2531 541 2789 625 
Q 3047 709 3200 863 
Q 3416 1078 3536 1442 
Q 3656 1806 3656 2325 
Q 3656 3044 3420 3430 
Q 3184 3816 2847 3947 
Q 2603 4041 2063 4041 
L 1100 4041 
L 1100 541 
z
" transform="scale(0.015625)"/>
       <path id="ArialMT-61" d="M 2588 409 
Q 2275 144 1986 34 
Q 1697 -75 1366 -75 
Q 819 -75 525 192 
Q 231 459 231 875 
Q 231 1119 342 1320 
Q 453 1522 633 1644 
Q 813 1766 1038 1828 
Q 1203 1872 1538 1913 
Q 2219 1994 2541 2106 
Q 2544 2222 2544 2253 
Q 2544 2597 2384 2738 
Q 2169 2928 1744 2928 
Q 1347 2928 1158 2789 
Q 969 2650 878 2297 
L 328 2372 
Q 403 2725 575 2942 
Q 747 3159 1072 3276 
Q 1397 3394 1825 3394 
Q 2250 3394 2515 3294 
Q 2781 3194 2906 3042 
Q 3031 2891 3081 2659 
Q 3109 2516 3109 2141 
L 3109 1391 
Q 3109 606 3145 398 
Q 3181 191 3288 0 
L 2700 0 
Q 2613 175 2588 409 
z
M 2541 1666 
Q 2234 1541 1622 1453 
Q 1275 1403 1131 1340 
Q 988 1278 909 1158 
Q 831 1038 831 891 
Q 831 666 1001 516 
Q 1172 366 1500 366 
Q 1825 366 2078 508 
Q 2331 650 2450 897 
Q 2541 1088 2541 1459 
L 2541 1666 
z
" transform="scale(0.015625)"/>
       <path id="ArialMT-74" d="M 1650 503 
L 1731 6 
Q 1494 -44 1306 -44 
Q 1000 -44 831 53 
Q 663 150 594 308 
Q 525 466 525 972 
L 525 2881 
L 113 2881 
L 113 3319 
L 525 3319 
L 525 4141 
L 1084 4478 
L 1084 3319 
L 1650 3319 
L 1650 2881 
L 1084 2881 
L 1084 941 
Q 1084 700 1114 631 
Q 1144 563 1211 522 
Q 1278 481 1403 481 
Q 1497 481 1650 503 
z
" transform="scale(0.015625)"/>
       <path id="ArialMT-65" d="M 2694 1069 
L 3275 997 
Q 3138 488 2766 206 
Q 2394 -75 1816 -75 
Q 1088 -75 661 373 
Q 234 822 234 1631 
Q 234 2469 665 2931 
Q 1097 3394 1784 3394 
Q 2450 3394 2872 2941 
Q 3294 2488 3294 1666 
Q 3294 1616 3291 1516 
L 816 1516 
Q 847 969 1125 678 
Q 1403 388 1819 388 
Q 2128 388 2347 550 
Q 2566 713 2694 1069 
z
M 847 1978 
L 2700 1978 
Q 2663 2397 2488 2606 
Q 2219 2931 1791 2931 
Q 1403 2931 1139 2672 
Q 875 2413 847 1978 
z
" transform="scale(0.015625)"/>
      </defs>
      <use xlink:href="#ArialMT-44"/>
      <use xlink:href="#ArialMT-61" x="72.216797"/>
      <use xlink:href="#ArialMT-74" x="127.832031"/>
      <use xlink:href="#ArialMT-65" x="155.615234"/>
     </g>
    </g>
   </g>
   <g id="matplotlib.axis_2">
    <g id="ytick_1">
     <g id="line2d_23">
      <path d="M 48.89 458.999135 
L 709.2 458.999135 
" clip-path="url(#p92172c9b15)" style="fill: none; stroke: #ffffff; stroke-linecap: round"/>
     </g>
     <g id="line2d_24"/>
     <g id="text_13">
      <!-- −25 -->
      <g style="fill: #262626" transform="translate(24.9275 462.578041) scale(0.1 -0.1)">
       <defs>
        <path id="ArialMT-2212" d="M 3381 1997 
L 356 1997 
L 356 2522 
L 3381 2522 
L 3381 1997 
z
" transform="scale(0.015625)"/>
       </defs>
       <use xlink:href="#ArialMT-2212"/>
       <use xlink:href="#ArialMT-32" x="58.398438"/>
       <use xlink:href="#ArialMT-35" x="114.013672"/>
      </g>
     </g>
    </g>
    <g id="ytick_2">
     <g id="line2d_25">
      <path d="M 48.89 399.883819 
L 709.2 399.883819 
" clip-path="url(#p92172c9b15)" style="fill: none; stroke: #ffffff; stroke-linecap: round"/>
     </g>
     <g id="line2d_26"/>
     <g id="text_14">
      <!-- 0 -->
      <g style="fill: #262626" transform="translate(36.329063 403.462725) scale(0.1 -0.1)">
       <use xlink:href="#ArialMT-30"/>
      </g>
     </g>
    </g>
    <g id="ytick_3">
     <g id="line2d_27">
      <path d="M 48.89 340.768502 
L 709.2 340.768502 
" clip-path="url(#p92172c9b15)" style="fill: none; stroke: #ffffff; stroke-linecap: round"/>
     </g>
     <g id="line2d_28"/>
     <g id="text_15">
      <!-- 25 -->
      <g style="fill: #262626" transform="translate(30.768125 344.347408) scale(0.1 -0.1)">
       <use xlink:href="#ArialMT-32"/>
       <use xlink:href="#ArialMT-35" x="55.615234"/>
      </g>
     </g>
    </g>
    <g id="ytick_4">
     <g id="line2d_29">
      <path d="M 48.89 281.653186 
L 709.2 281.653186 
" clip-path="url(#p92172c9b15)" style="fill: none; stroke: #ffffff; stroke-linecap: round"/>
     </g>
     <g id="line2d_30"/>
     <g id="text_16">
      <!-- 50 -->
      <g style="fill: #262626" transform="translate(30.768125 285.232092) scale(0.1 -0.1)">
       <use xlink:href="#ArialMT-35"/>
       <use xlink:href="#ArialMT-30" x="55.615234"/>
      </g>
     </g>
    </g>
    <g id="ytick_5">
     <g id="line2d_31">
      <path d="M 48.89 222.537869 
L 709.2 222.537869 
" clip-path="url(#p92172c9b15)" style="fill: none; stroke: #ffffff; stroke-linecap: round"/>
     </g>
     <g id="line2d_32"/>
     <g id="text_17">
      <!-- 75 -->
      <g style="fill: #262626" transform="translate(30.768125 226.116776) scale(0.1 -0.1)">
       <use xlink:href="#ArialMT-37"/>
       <use xlink:href="#ArialMT-35" x="55.615234"/>
      </g>
     </g>
    </g>
    <g id="ytick_6">
     <g id="line2d_33">
      <path d="M 48.89 163.422553 
L 709.2 163.422553 
" clip-path="url(#p92172c9b15)" style="fill: none; stroke: #ffffff; stroke-linecap: round"/>
     </g>
     <g id="line2d_34"/>
     <g id="text_18">
      <!-- 100 -->
      <g style="fill: #262626" transform="translate(25.207188 167.001459) scale(0.1 -0.1)">
       <use xlink:href="#ArialMT-31"/>
       <use xlink:href="#ArialMT-30" x="55.615234"/>
       <use xlink:href="#ArialMT-30" x="111.230469"/>
      </g>
     </g>
    </g>
    <g id="ytick_7">
     <g id="line2d_35">
      <path d="M 48.89 104.307236 
L 709.2 104.307236 
" clip-path="url(#p92172c9b15)" style="fill: none; stroke: #ffffff; stroke-linecap: round"/>
     </g>
     <g id="line2d_36"/>
     <g id="text_19">
      <!-- 125 -->
      <g style="fill: #262626" transform="translate(25.207188 107.886143) scale(0.1 -0.1)">
       <use xlink:href="#ArialMT-31"/>
       <use xlink:href="#ArialMT-32" x="55.615234"/>
       <use xlink:href="#ArialMT-35" x="111.230469"/>
      </g>
     </g>
    </g>
    <g id="ytick_8">
     <g id="line2d_37">
      <path d="M 48.89 45.19192 
L 709.2 45.19192 
" clip-path="url(#p92172c9b15)" style="fill: none; stroke: #ffffff; stroke-linecap: round"/>
     </g>
     <g id="line2d_38"/>
     <g id="text_20">
      <!-- 150 -->
      <g style="fill: #262626" transform="translate(25.207188 48.770826) scale(0.1 -0.1)">
       <use xlink:href="#ArialMT-31"/>
       <use xlink:href="#ArialMT-35" x="55.615234"/>
       <use xlink:href="#ArialMT-30" x="111.230469"/>
      </g>
     </g>
    </g>
    <g id="text_21">
     <!-- Temperature -->
     <g style="fill: #262626" transform="translate(18.74125 299.609592) rotate(-90) scale(0.11 -0.11)">
      <defs>
       <path id="ArialMT-54" d="M 1659 0 
L 1659 4041 
L 150 4041 
L 150 4581 
L 3781 4581 
L 3781 4041 
L 2266 4041 
L 2266 0 
L 1659 0 
z
" transform="scale(0.015625)"/>
       <path id="ArialMT-6d" d="M 422 0 
L 422 3319 
L 925 3319 
L 925 2853 
Q 1081 3097 1340 3245 
Q 1600 3394 1931 3394 
Q 2300 3394 2536 3241 
Q 2772 3088 2869 2813 
Q 3263 3394 3894 3394 
Q 4388 3394 4653 3120 
Q 4919 2847 4919 2278 
L 4919 0 
L 4359 0 
L 4359 2091 
Q 4359 2428 4304 2576 
Q 4250 2725 4106 2815 
Q 3963 2906 3769 2906 
Q 3419 2906 3187 2673 
Q 2956 2441 2956 1928 
L 2956 0 
L 2394 0 
L 2394 2156 
Q 2394 2531 2256 2718 
Q 2119 2906 1806 2906 
Q 1569 2906 1367 2781 
Q 1166 2656 1075 2415 
Q 984 2175 984 1722 
L 984 0 
L 422 0 
z
" transform="scale(0.015625)"/>
       <path id="ArialMT-70" d="M 422 -1272 
L 422 3319 
L 934 3319 
L 934 2888 
Q 1116 3141 1344 3267 
Q 1572 3394 1897 3394 
Q 2322 3394 2647 3175 
Q 2972 2956 3137 2557 
Q 3303 2159 3303 1684 
Q 3303 1175 3120 767 
Q 2938 359 2589 142 
Q 2241 -75 1856 -75 
Q 1575 -75 1351 44 
Q 1128 163 984 344 
L 984 -1272 
L 422 -1272 
z
M 931 1641 
Q 931 1000 1190 694 
Q 1450 388 1819 388 
Q 2194 388 2461 705 
Q 2728 1022 2728 1688 
Q 2728 2322 2467 2637 
Q 2206 2953 1844 2953 
Q 1484 2953 1207 2617 
Q 931 2281 931 1641 
z
" transform="scale(0.015625)"/>
       <path id="ArialMT-72" d="M 416 0 
L 416 3319 
L 922 3319 
L 922 2816 
Q 1116 3169 1280 3281 
Q 1444 3394 1641 3394 
Q 1925 3394 2219 3213 
L 2025 2691 
Q 1819 2813 1613 2813 
Q 1428 2813 1281 2702 
Q 1134 2591 1072 2394 
Q 978 2094 978 1738 
L 978 0 
L 416 0 
z
" transform="scale(0.015625)"/>
       <path id="ArialMT-75" d="M 2597 0 
L 2597 488 
Q 2209 -75 1544 -75 
Q 1250 -75 995 37 
Q 741 150 617 320 
Q 494 491 444 738 
Q 409 903 409 1263 
L 409 3319 
L 972 3319 
L 972 1478 
Q 972 1038 1006 884 
Q 1059 663 1231 536 
Q 1403 409 1656 409 
Q 1909 409 2131 539 
Q 2353 669 2445 892 
Q 2538 1116 2538 1541 
L 2538 3319 
L 3100 3319 
L 3100 0 
L 2597 0 
z
" transform="scale(0.015625)"/>
      </defs>
      <use xlink:href="#ArialMT-54"/>
      <use xlink:href="#ArialMT-65" x="49.958984"/>
      <use xlink:href="#ArialMT-6d" x="105.574219"/>
      <use xlink:href="#ArialMT-70" x="188.875"/>
      <use xlink:href="#ArialMT-65" x="244.490234"/>
      <use xlink:href="#ArialMT-72" x="300.105469"/>
      <use xlink:href="#ArialMT-61" x="333.40625"/>
      <use xlink:href="#ArialMT-74" x="389.021484"/>
      <use xlink:href="#ArialMT-75" x="416.804688"/>
      <use xlink:href="#ArialMT-72" x="472.419922"/>
      <use xlink:href="#ArialMT-65" x="505.720703"/>
     </g>
    </g>
   </g>
   <g id="line2d_39">
    <path d="M 78.904091 314.689695 
L 80.911722 324.129542 
L 82.919354 320.138923 
L 84.926985 323.212159 
L 86.934617 371.263202 
L 88.942248 301.801228 
L 90.94988 325.955201 
L 92.957511 398.859716 
L 94.965143 319.570041 
L 96.972774 276.296288 
L 98.980406 350.032479 
L 100.988037 369.704227 
L 102.995669 340.17458 
L 105.0033 296.918162 
L 107.010932 332.903537 
L 109.018563 330.688906 
L 111.026195 365.157064 
L 113.033826 324.573167 
L 115.041458 295.175583 
L 117.049089 316.881299 
L 119.056721 321.692749 
L 121.064352 358.712981 
L 123.071984 344.343526 
L 125.079615 302.196573 
L 127.087247 290.657625 
L 129.094878 306.960591 
L 131.10251 264.522816 
L 133.110141 308.359502 
L 135.117773 278.170112 
L 137.125404 283.817132 
L 139.133036 282.826558 
L 141.140667 286.064522 
L 143.148299 265.950478 
L 145.15593 287.414338 
L 147.163562 281.724149 
L 149.171193 331.486166 
L 151.178825 319.541146 
L 153.186456 291.166499 
L 155.194088 299.106143 
L 157.201719 269.465235 
L 159.209351 313.877739 
L 161.216982 354.057839 
L 163.224614 321.151171 
L 165.232245 290.641019 
L 167.239877 279.788639 
L 169.247508 275.840217 
L 171.25514 244.812327 
L 173.262771 281.700624 
L 175.270403 300.664426 
L 177.278034 332.136537 
L 179.285666 262.86202 
L 181.293297 288.461888 
L 183.300929 224.770298 
L 185.30856 305.315691 
L 187.316192 266.984873 
L 189.323823 276.014332 
L 191.331455 308.922854 
L 193.339086 278.959431 
L 195.346718 257.335086 
L 197.354349 253.967388 
L 199.361981 267.350773 
L 201.369612 282.418996 
L 203.377244 254.967921 
L 205.384875 259.601228 
L 207.392507 314.382901 
L 209.400138 268.911539 
L 211.40777 331.633696 
L 213.415401 251.221813 
L 215.423033 292.003561 
L 217.430664 308.452545 
L 219.438296 260.439773 
L 221.445927 256.748205 
L 223.453559 279.755388 
L 225.46119 281.709403 
L 227.468822 245.839715 
L 229.476453 303.707037 
L 231.484085 303.152291 
L 233.491716 279.778918 
L 235.499348 299.177853 
L 237.506979 269.350155 
L 239.514611 303.775086 
L 241.522242 259.574352 
L 243.529874 288.202254 
L 245.537505 236.753667 
L 247.545137 272.647996 
L 249.552768 286.066688 
L 251.5604 275.959332 
L 253.568031 263.265966 
L 255.575663 277.235114 
L 259.590926 241.837499 
L 261.598557 185.833437 
L 263.606189 254.88243 
L 265.61382 260.756626 
L 267.621452 296.284558 
L 269.629083 267.212228 
L 271.636715 270.879148 
L 273.644346 260.186929 
L 275.651978 251.339292 
L 277.659609 247.16396 
L 279.667241 244.866273 
L 281.674872 251.851278 
L 283.682504 257.524857 
L 285.690135 244.225936 
L 287.697767 268.910354 
L 289.705398 253.813324 
L 291.71303 247.040789 
L 293.720661 252.823956 
L 295.728293 267.90184 
L 297.735924 245.887653 
L 299.743556 248.964215 
L 301.751187 275.913539 
L 303.758819 248.653817 
L 305.76645 231.702288 
L 307.774082 216.545975 
L 309.781713 294.903826 
L 311.789345 260.282193 
L 313.796976 248.170795 
L 315.804608 287.737995 
L 317.812239 253.424434 
L 319.819871 230.598334 
L 321.827502 195.422426 
L 323.835134 252.92852 
L 325.842765 245.900371 
L 327.850397 229.799153 
L 329.858028 262.113628 
L 331.86566 261.145694 
L 333.873291 254.700303 
L 335.880923 197.492131 
L 337.888554 239.71198 
L 339.896186 291.477892 
L 341.903817 240.457756 
L 343.911449 255.453586 
L 345.91908 230.454602 
L 347.926712 257.088785 
L 349.934343 242.154566 
L 351.941975 264.201361 
L 353.949606 259.658272 
L 355.957238 190.303621 
L 357.964869 168.663963 
L 359.972501 208.93268 
L 361.980132 218.638302 
L 363.987764 226.640212 
L 365.995395 215.072893 
L 368.003027 253.406922 
L 370.010658 269.428177 
L 372.01829 229.013698 
L 374.025921 225.975993 
L 376.033553 225.059385 
L 378.041184 262.195853 
L 380.048816 250.289275 
L 382.056447 174.233234 
L 384.064079 262.669597 
L 386.07171 249.285166 
L 388.079342 230.563254 
L 390.086973 236.461771 
L 392.094605 246.337637 
L 394.102236 150.27107 
L 396.109868 251.544088 
L 398.117499 212.720568 
L 400.125131 262.087854 
L 402.132762 216.074194 
L 404.140394 195.844223 
L 406.148025 207.290814 
L 408.155657 199.475063 
L 410.163288 219.602371 
L 412.17092 208.080715 
L 414.178551 236.309621 
L 416.186183 161.798048 
L 418.193814 182.832827 
L 420.201446 187.295399 
L 422.209077 246.582791 
L 424.216709 218.232259 
L 426.22434 208.727183 
L 428.231972 129.544918 
L 430.239603 187.752599 
L 432.247235 163.545714 
L 434.254866 188.684393 
L 436.262498 231.146683 
L 438.270129 199.587996 
L 440.277761 190.626916 
L 442.285392 174.600383 
L 444.293024 204.771771 
L 446.300655 197.828178 
L 448.308287 211.964932 
L 450.315918 163.266125 
L 452.32355 196.607308 
L 454.331181 166.183486 
L 456.338813 195.888647 
L 458.346444 217.452068 
L 460.354076 180.900321 
L 462.361707 228.882166 
L 464.369339 225.173334 
L 466.37697 227.972236 
L 468.384602 213.992168 
L 470.392233 197.626334 
L 472.399865 233.332383 
L 474.407496 190.624281 
L 476.415128 215.626331 
L 478.422759 168.677559 
L 480.430391 312.049261 
L 482.438022 328.942566 
L 484.445654 332.950875 
L 486.453285 332.30299 
L 488.460917 316.189059 
L 490.468548 336.08455 
L 492.47618 339.334373 
L 494.483811 319.428818 
L 496.491443 324.388934 
L 498.499074 339.8659 
L 500.506706 323.310354 
L 502.514337 329.429597 
L 504.521969 310.998892 
L 506.5296 331.637031 
L 508.537232 326.460176 
L 510.544863 320.20555 
L 512.552495 316.301158 
L 514.560126 320.610495 
L 516.567758 339.662097 
L 518.575389 324.979332 
L 520.583021 331.452915 
L 522.590652 314.109413 
L 524.598284 315.815108 
L 526.605915 320.171873 
L 528.613547 314.196077 
L 530.621178 320.582308 
L 532.62881 311.040385 
L 536.644073 314.599934 
L 538.651704 322.652669 
L 540.659336 320.198304 
L 542.666967 309.238404 
L 544.674599 326.754697 
L 546.68223 335.394454 
L 548.689862 299.135823 
L 550.697493 321.46073 
L 552.705125 320.687049 
L 554.712756 307.499859 
L 556.720388 315.902152 
L 558.728019 293.714534 
L 560.735651 333.321081 
L 562.743282 312.162981 
L 564.750914 331.339223 
L 566.758545 318.199082 
L 568.766177 312.760412 
L 570.773808 322.688957 
L 572.78144 302.672933 
L 574.789071 308.285629 
L 576.796703 326.331323 
L 578.804334 311.81131 
L 580.811966 336.506122 
L 582.819597 322.835754 
L 586.83486 302.968612 
L 588.842492 290.192479 
L 590.850123 310.340012 
L 592.857755 315.214678 
L 594.865386 317.666704 
L 596.873018 318.825498 
L 598.880649 311.664377 
L 600.888281 312.448885 
L 602.895912 327.639129 
L 604.903544 295.655664 
L 606.911175 306.594582 
L 608.918807 310.775287 
L 610.926438 315.373967 
L 612.93407 323.61318 
L 614.941701 306.886984 
L 616.949333 314.820835 
L 618.956964 300.543781 
L 620.964596 305.357043 
L 622.972227 317.531477 
L 624.979859 307.758573 
L 626.98749 301.881549 
L 628.995122 315.166974 
L 631.002753 300.158604 
L 633.010385 322.925587 
L 635.018016 310.479553 
L 637.025648 314.343905 
L 639.033279 312.060807 
L 641.040911 318.217506 
L 643.048542 313.146073 
L 645.056174 297.700864 
L 647.063805 312.221052 
L 649.071437 305.788589 
L 651.079068 313.66357 
L 653.0867 297.10232 
L 655.094331 306.39958 
L 657.101963 307.088295 
L 659.109594 313.187738 
L 661.117226 290.294075 
L 663.124857 313.530045 
L 665.132489 332.389505 
L 667.14012 297.286629 
L 669.147752 291.093272 
L 671.155383 303.341693 
L 673.163015 317.078332 
L 675.170646 298.81933 
L 677.178278 287.101629 
L 679.185909 308.985319 
L 679.185909 308.985319 
" clip-path="url(#p92172c9b15)" style="fill: none; stroke: #708090; stroke-width: 1.75; stroke-linecap: round"/>
   </g>
   <g id="line2d_40">
    <path d="M 90.94988 325.884279 
L 92.957511 337.908567 
L 94.965143 337.25721 
L 96.972774 330.993977 
L 98.980406 334.825451 
L 100.988037 334.60274 
L 102.995669 340.084647 
L 105.0033 335.936499 
L 107.010932 326.514188 
L 109.018563 328.102597 
L 111.026195 340.796993 
L 113.033826 337.159949 
L 115.041458 326.513 
L 117.049089 323.185388 
L 121.064352 330.411678 
L 123.071984 332.362338 
L 125.079615 323.367983 
L 127.087247 318.522905 
L 129.094878 320.206478 
L 131.10251 312.726694 
L 133.110141 310.821945 
L 135.117773 299.31582 
L 137.125404 290.669193 
L 139.133036 287.902048 
L 141.140667 287.24589 
L 143.148299 281.387303 
L 145.15593 284.65752 
L 147.163562 280.85247 
L 149.171193 288.469049 
L 151.178825 293.57248 
L 153.186456 294.7639 
L 155.194088 296.626989 
L 157.201719 297.129097 
L 159.209351 300.909583 
L 161.216982 311.242967 
L 163.224614 309.766539 
L 165.232245 305.637949 
L 167.239877 304.012541 
L 171.25514 297.166993 
L 173.262771 292.570262 
L 175.270403 284.942632 
L 177.278034 286.51197 
L 179.285666 282.543541 
L 181.293297 283.782577 
L 183.300929 276.486874 
L 185.30856 285.130212 
L 187.316192 283.027962 
L 191.331455 276.190279 
L 193.339086 278.489909 
L 195.346718 274.043223 
L 197.354349 278.214236 
L 199.361981 272.790677 
L 201.369612 274.995551 
L 203.377244 271.988921 
L 205.384875 264.942975 
L 207.392507 270.00347 
L 209.400138 271.657249 
L 211.40777 282.752436 
L 213.415401 280.448299 
L 215.423033 281.817523 
L 217.430664 289.458183 
L 219.438296 289.577975 
L 221.445927 281.344447 
L 223.453559 282.893569 
L 225.46119 275.761527 
L 227.468822 274.992656 
L 229.476453 276.664581 
L 231.484085 275.907402 
L 233.491716 278.670137 
L 235.499348 284.731515 
L 237.506979 283.245053 
L 239.514611 286.397294 
L 241.522242 288.359385 
L 243.529874 286.144416 
L 245.537505 276.658898 
L 247.545137 275.640195 
L 249.552768 273.767171 
L 251.5604 274.711339 
L 253.568031 268.924322 
L 255.575663 271.447288 
L 257.583294 267.295926 
L 259.590926 268.022188 
L 261.598557 255.620108 
L 263.606189 251.165214 
L 265.61382 248.993399 
L 267.621452 253.71034 
L 269.629083 252.278499 
L 271.636715 253.955132 
L 273.644346 256.576479 
L 275.651978 265.934459 
L 277.659609 264.83182 
L 279.667241 262.56177 
L 281.674872 256.214158 
L 283.682504 254.830248 
L 285.690135 251.022646 
L 287.697767 252.26885 
L 289.705398 252.622283 
L 291.71303 252.604687 
L 293.720661 253.741499 
L 295.728293 256.034436 
L 297.735924 254.371979 
L 299.743556 255.048876 
L 301.751187 256.049331 
L 303.758819 255.312258 
L 305.76645 253.121044 
L 307.774082 247.938475 
L 309.781713 251.795902 
L 311.789345 253.852265 
L 313.796976 253.738919 
L 315.804608 255.428127 
L 317.812239 256.109644 
L 319.819871 255.951936 
L 321.827502 252.934286 
L 323.835134 246.937814 
L 325.842765 244.883268 
L 327.850397 242.258748 
L 329.858028 238.598124 
L 331.86566 239.701161 
L 333.873291 243.144299 
L 335.880923 243.439972 
L 337.888554 241.551894 
L 339.896186 248.062969 
L 341.903817 249.585626 
L 343.911449 248.634192 
L 345.91908 244.24975 
L 347.926712 244.590962 
L 349.934343 250.97131 
L 351.941975 254.469793 
L 353.949606 249.924133 
L 355.957238 242.759256 
L 357.964869 230.360739 
L 359.972501 227.286178 
L 361.980132 221.793252 
L 363.987764 219.576916 
L 365.995395 212.558563 
L 368.003027 211.665513 
L 370.010658 222.969021 
L 372.01829 231.590412 
L 374.025921 234.025171 
L 376.033553 234.942469 
L 380.048816 245.052758 
L 382.056447 233.742231 
L 384.064079 232.776719 
L 386.07171 235.672643 
L 388.079342 236.327966 
L 390.086973 237.956879 
L 392.094605 235.691419 
L 394.102236 221.403104 
L 396.109868 232.447512 
L 398.117499 225.311936 
L 400.125131 227.140892 
L 402.132762 225.071026 
L 406.148025 213.690401 
L 408.155657 220.719543 
L 410.163288 216.156441 
L 412.17092 215.493605 
L 414.178551 211.811 
L 416.186183 204.057265 
L 418.193814 202.198494 
L 420.201446 199.342006 
L 422.209077 206.071682 
L 424.216709 205.875951 
L 426.22434 205.968304 
L 428.231972 190.716204 
L 430.239603 194.423997 
L 432.247235 191.668695 
L 434.254866 191.867122 
L 436.262498 189.661964 
L 440.277761 184.412746 
L 442.285392 190.849241 
L 444.293024 193.280551 
L 446.300655 198.178046 
L 448.308287 201.503837 
L 450.315918 191.806614 
L 452.32355 191.380802 
L 454.331181 187.888883 
L 456.338813 190.930064 
L 458.346444 192.741535 
L 460.354076 190.32327 
L 462.361707 192.740017 
L 464.369339 201.583904 
L 466.37697 206.064608 
L 468.384602 212.89442 
L 470.392233 213.142661 
L 472.399865 215.411277 
L 474.407496 216.800414 
L 476.415128 214.906724 
L 478.422759 206.835899 
L 480.430391 218.846902 
L 482.438022 235.268388 
L 484.445654 254.600465 
L 486.453285 268.739123 
L 490.468548 303.885266 
L 492.47618 328.264811 
L 494.483811 329.319033 
L 496.491443 328.668514 
L 498.499074 329.656375 
L 500.506706 328.371713 
L 502.514337 330.263218 
L 504.521969 326.679552 
L 506.5296 325.579932 
L 508.537232 326.584412 
L 510.544863 325.986786 
L 512.552495 322.620394 
L 514.560126 322.2347 
L 516.567758 323.696486 
L 518.575389 325.693691 
L 520.583021 325.667389 
L 522.590652 323.902994 
L 524.598284 323.275788 
L 526.605915 323.828748 
L 528.613547 322.912402 
L 530.621178 320.186718 
L 532.62881 318.19544 
L 534.636441 315.529227 
L 536.644073 315.599301 
L 538.651704 316.576096 
L 540.659336 316.579871 
L 542.666967 315.871632 
L 544.674599 316.753402 
L 546.68223 320.232555 
L 548.689862 318.282041 
L 550.697493 319.262154 
L 552.705125 318.981351 
L 554.712756 317.167288 
L 556.720388 318.119252 
L 558.728019 313.399229 
L 560.735651 313.103033 
L 562.743282 314.964055 
L 564.750914 316.375269 
L 566.758545 316.019845 
L 568.766177 316.771352 
L 570.773808 317.740896 
L 572.78144 319.020667 
L 574.789071 315.444174 
L 576.796703 317.468223 
L 578.804334 314.678521 
L 580.811966 317.293812 
L 582.819597 318.733147 
L 584.827229 317.31002 
L 586.83486 317.35226 
L 588.842492 314.767524 
L 590.850123 312.483052 
L 592.857755 312.969247 
L 594.865386 310.277902 
L 596.873018 309.705008 
L 598.880649 309.553194 
L 600.888281 310.907519 
L 602.895912 316.257041 
L 604.903544 314.159276 
L 606.911175 312.927834 
L 608.918807 311.943346 
L 610.926438 311.45027 
L 612.93407 313.157242 
L 614.941701 312.362685 
L 616.949333 310.5315 
L 618.956964 311.229802 
L 620.964596 311.053011 
L 622.972227 312.018181 
L 624.979859 310.930268 
L 626.98749 307.825749 
L 628.995122 309.008605 
L 631.002753 306.914 
L 633.010385 310.111401 
L 635.018016 310.843188 
L 637.025648 310.387821 
L 639.033279 311.002425 
L 641.040911 313.336134 
L 645.056174 312.696328 
L 647.063805 311.167108 
L 649.071437 310.496971 
L 651.079068 310.39978 
L 653.0867 308.262853 
L 655.094331 306.574578 
L 657.101963 305.709181 
L 659.109594 307.921592 
L 661.117226 304.789167 
L 663.124857 305.895089 
L 665.132489 308.570223 
L 667.14012 308.596552 
L 669.147752 306.409937 
L 671.155383 305.874708 
L 673.163015 306.430507 
L 675.170646 307.648401 
L 677.178278 303.872913 
L 679.185909 300.529458 
L 679.185909 300.529458 
" clip-path="url(#p92172c9b15)" style="fill: none; stroke-dasharray: 6.475,2.8; stroke-dashoffset: 0; stroke: #228b22; stroke-width: 1.75"/>
   </g>
   <g id="line2d_41">
    <path d="M 90.94988 260.986757 
L 92.957511 235.469781 
L 94.965143 233.773346 
L 96.972774 206.76913 
L 98.980406 209.404032 
L 100.988037 209.850023 
L 102.995669 223.121572 
L 105.0033 209.4642 
L 107.010932 230.922062 
L 109.018563 232.891394 
L 111.026195 267.26583 
L 113.033826 262.763614 
L 115.041458 253.029015 
L 117.049089 251.471889 
L 119.056721 263.639809 
L 121.064352 257.510609 
L 123.071984 257.759108 
L 125.079615 256.525425 
L 127.087247 242.206361 
L 129.094878 248.252756 
L 131.10251 216.683408 
L 133.110141 215.458212 
L 135.117773 222.745439 
L 137.125404 241.709289 
L 139.133036 240.895534 
L 141.140667 240.354883 
L 143.148299 237.391708 
L 145.15593 246.562989 
L 147.163562 259.186803 
L 149.171193 227.681415 
L 151.178825 224.020943 
L 153.186456 226.514485 
L 159.209351 234.895452 
L 161.216982 228.046379 
L 163.224614 229.570766 
L 167.239877 218.466319 
L 169.247508 209.274543 
L 171.25514 190.175198 
L 173.262771 186.904188 
L 175.270403 214.3621 
L 177.278034 206.950287 
L 179.285666 199.008462 
L 181.293297 200.097776 
L 183.300929 168.907548 
L 185.30856 182.5114 
L 187.316192 178.335779 
L 189.323823 177.3426 
L 191.331455 189.78949 
L 193.339086 193.904995 
L 195.346718 187.619151 
L 197.354349 213.027772 
L 199.361981 217.875226 
L 201.369612 219.740172 
L 203.377244 212.33709 
L 205.384875 229.999107 
L 207.392507 204.246711 
L 209.400138 207.968235 
L 211.40777 195.059382 
L 213.415401 186.801195 
L 215.423033 187.241861 
L 217.430664 198.275105 
L 219.438296 198.80271 
L 221.445927 190.668609 
L 223.453559 193.625255 
L 225.46119 213.524545 
L 229.476453 205.38852 
L 231.484085 208.003476 
L 233.491716 213.905861 
L 235.499348 223.750935 
L 237.506979 219.895489 
L 239.514611 219.036186 
L 241.522242 232.601646 
L 243.529874 234.143234 
L 245.537505 206.056829 
L 247.545137 205.047809 
L 249.552768 208.357048 
L 251.5604 209.541812 
L 253.568031 215.77482 
L 255.575663 219.19306 
L 257.583294 218.761817 
L 259.590926 224.170456 
L 261.598557 153.598827 
L 263.606189 157.302107 
L 265.61382 159.681435 
L 267.621452 149.825172 
L 269.629083 151.214508 
L 271.636715 150.840081 
L 273.644346 154.603146 
L 275.651978 221.064288 
L 277.659609 216.397921 
L 279.667241 209.03833 
L 281.674872 226.082397 
L 283.682504 228.204059 
L 285.690135 232.609252 
L 287.697767 226.254905 
L 289.705398 226.589694 
L 291.71303 226.533014 
L 293.720661 229.732957 
L 295.728293 227.457887 
L 297.735924 223.733711 
L 299.743556 226.354886 
L 301.751187 221.732777 
L 303.758819 220.006985 
L 305.76645 209.1942 
L 307.774082 187.489993 
L 309.781713 173.001269 
L 311.789345 174.986187 
L 313.796976 174.793986 
L 315.804608 170.583112 
L 317.812239 171.664485 
L 319.819871 171.020283 
L 321.827502 151.522955 
L 323.835134 161.705548 
L 325.842765 161.488288 
L 327.850397 157.36186 
L 329.858028 171.103225 
L 331.86566 169.1629 
L 333.873291 171.980152 
L 335.880923 174.349213 
L 337.888554 173.567336 
L 339.896186 159.252462 
L 341.903817 163.27589 
L 343.911449 163.451513 
L 345.91908 158.720904 
L 347.926712 158.582815 
L 349.934343 190.54439 
L 351.941975 194.509041 
L 353.949606 212.987547 
L 357.964869 118.995868 
L 359.972501 113.305442 
L 361.980132 114.766689 
L 363.987764 115.574644 
L 365.995395 126.869072 
L 368.003027 130.983275 
L 370.010658 125.56092 
L 372.01829 165.718275 
L 374.025921 174.408754 
L 376.033553 177.403556 
L 378.041184 176.377876 
L 380.048816 190.19609 
L 382.056447 138.42996 
L 384.064079 141.018344 
L 388.079342 143.523294 
L 390.086973 146.335907 
L 392.094605 148.716842 
L 394.102236 94.729319 
L 396.109868 119.351569 
L 398.117499 118.21508 
L 400.125131 114.885639 
L 402.132762 112.277431 
L 404.140394 103.270437 
L 406.148025 103.033563 
L 408.155657 143.284155 
L 410.163288 150.16968 
L 412.17092 148.937181 
L 414.178551 170.813626 
L 416.186183 134.961669 
L 418.193814 129.311887 
L 420.201446 125.038316 
L 422.209077 114.458256 
L 426.22434 114.619353 
L 428.231972 75.46882 
L 430.239603 85.353409 
L 432.247235 77.452452 
L 434.254866 77.719818 
L 436.262498 85.728486 
L 438.270129 88.758604 
L 440.277761 90.113132 
L 442.285392 126.926442 
L 444.293024 127.702907 
L 446.300655 145.70557 
L 448.308287 148.710423 
L 450.315918 140.087162 
L 452.32355 140.226691 
L 454.331181 129.23553 
L 456.338813 134.589832 
L 458.346444 130.231516 
L 460.354076 126.938658 
L 462.361707 118.686507 
L 464.369339 131.316655 
L 466.37697 130.341117 
L 468.384602 158.554984 
L 470.392233 159.588908 
L 472.399865 157.122807 
L 474.407496 166.676893 
L 476.415128 167.390112 
L 478.422759 138.854462 
L 480.430391 80.856461 
L 482.438022 49.914382 
L 484.445654 48.15588 
L 486.453285 47.609238 
L 488.460917 87.317376 
L 490.468548 122.986688 
L 492.47618 297.495261 
L 494.483811 303.671582 
L 496.491443 302.40838 
L 500.506706 298.833862 
L 502.514337 305.484782 
L 504.521969 295.29544 
L 506.5296 297.850625 
L 508.537232 300.075392 
L 510.544863 298.549902 
L 512.552495 300.584906 
L 514.560126 300.113529 
L 516.567758 294.630508 
L 518.575389 301.953987 
L 520.583021 301.996007 
L 522.590652 296.938493 
L 524.598284 294.981478 
L 526.605915 296.647123 
L 528.613547 293.694757 
L 530.621178 301.134733 
L 532.62881 297.888469 
L 534.636441 304.669745 
L 536.644073 304.822086 
L 538.651704 303.134177 
L 540.659336 303.127318 
L 544.674599 297.151404 
L 546.68223 293.224845 
L 548.689862 282.589227 
L 550.697493 283.783856 
L 552.705125 283.71545 
L 554.712756 279.688685 
L 556.720388 282.018972 
L 558.728019 270.377911 
L 560.735651 271.635599 
L 562.743282 277.656101 
L 564.750914 275.024556 
L 566.758545 274.963088 
L 568.766177 276.936972 
L 570.773808 277.388677 
L 572.78144 286.069633 
L 574.789071 286.850979 
L 576.796703 286.870832 
L 578.804334 289.901945 
L 580.811966 282.106654 
L 582.819597 283.638624 
L 584.827229 282.082237 
L 586.83486 282.307639 
L 588.842492 268.494948 
L 590.850123 268.720329 
L 592.857755 269.114833 
L 594.865386 277.885356 
L 596.873018 279.392082 
L 598.880649 279.375539 
L 600.888281 281.942467 
L 602.895912 298.516053 
L 604.903544 284.9592 
L 606.911175 282.581701 
L 608.918807 282.211614 
L 610.926438 282.674745 
L 612.93407 281.231199 
L 614.941701 279.638613 
L 618.956964 288.707792 
L 620.964596 288.109192 
L 622.972227 287.94584 
L 624.979859 286.901645 
L 626.98749 288.912529 
L 628.995122 288.452893 
L 631.002753 285.859769 
L 633.010385 284.428291 
L 635.018016 285.937433 
L 637.025648 286.525673 
L 639.033279 287.353646 
L 641.040911 291.996494 
L 643.048542 291.845281 
L 645.056174 289.19463 
L 647.063805 291.901657 
L 649.071437 290.270111 
L 651.079068 290.353101 
L 653.0867 283.463323 
L 655.094331 285.559016 
L 657.101963 286.489158 
L 659.109594 290.43709 
L 661.117226 279.470263 
L 663.124857 278.668064 
L 665.132489 268.214597 
L 667.14012 268.319024 
L 669.147752 261.416794 
L 673.163015 260.174442 
L 675.170646 264.982634 
L 677.178278 256.417023 
L 679.185909 269.641009 
L 679.185909 269.641009 
" clip-path="url(#p92172c9b15)" style="fill: none; stroke-dasharray: 11.2,2.8,1.75,2.8; stroke-dashoffset: 0; stroke: #ff8c00; stroke-width: 1.75"/>
   </g>
   <g id="line2d_42">
    <path d="M 90.94988 390.7818 
L 92.957511 440.347354 
L 94.965143 440.741075 
L 96.972774 455.218823 
L 98.980406 460.24687 
L 100.988037 459.355457 
L 102.995669 457.047723 
L 105.0033 462.408798 
L 107.010932 422.106313 
L 109.018563 423.313799 
L 111.026195 414.328157 
L 113.033826 411.556283 
L 115.041458 399.996985 
L 119.056721 389.809421 
L 121.064352 403.312748 
L 123.071984 406.965568 
L 125.079615 390.21054 
L 127.087247 394.839449 
L 129.094878 392.160199 
L 131.10251 408.769981 
L 133.110141 406.185677 
L 135.117773 375.886201 
L 137.125404 339.629096 
L 139.133036 334.908561 
L 141.140667 334.136898 
L 143.148299 325.382898 
L 145.15593 322.752052 
L 147.163562 302.518137 
L 149.171193 349.256683 
L 151.178825 363.124016 
L 153.186456 363.013314 
L 155.194088 363.979048 
L 157.201719 362.157718 
L 159.209351 366.923713 
L 161.216982 394.439554 
L 163.224614 389.962312 
L 165.232245 387.23299 
L 167.239877 389.558763 
L 169.247508 392.103131 
L 171.25514 404.158788 
L 173.262771 398.236336 
L 175.270403 355.523164 
L 177.278034 366.073652 
L 179.285666 366.078621 
L 181.293297 367.467377 
L 183.300929 384.0662 
L 185.30856 387.749023 
L 187.316192 387.720144 
L 189.323823 381.670439 
L 191.331455 362.591068 
L 193.339086 363.074824 
L 195.346718 360.467296 
L 197.354349 343.400701 
L 199.361981 327.706127 
L 201.369612 330.250931 
L 203.377244 331.640752 
L 205.384875 299.886842 
L 207.392507 335.76023 
L 209.400138 335.346264 
L 211.40777 370.44549 
L 213.415401 374.095404 
L 215.423033 376.393184 
L 217.430664 380.641262 
L 219.438296 380.35324 
L 221.445927 372.020286 
L 223.453559 372.161882 
L 225.46119 337.998509 
L 227.468822 340.619713 
L 229.476453 347.940642 
L 231.484085 343.811328 
L 233.491716 343.434412 
L 235.499348 345.712095 
L 237.506979 346.594617 
L 239.514611 353.758401 
L 241.522242 344.117123 
L 243.529874 338.145597 
L 245.537505 347.260967 
L 247.545137 346.232581 
L 249.552768 339.177295 
L 251.5604 339.880867 
L 253.568031 322.073825 
L 255.575663 323.701516 
L 257.583294 315.830035 
L 259.590926 311.873919 
L 261.598557 357.641389 
L 263.606189 345.02832 
L 265.61382 338.305363 
L 267.621452 357.595508 
L 269.629083 353.342491 
L 271.636715 357.070183 
L 273.644346 358.549813 
L 275.651978 310.804629 
L 277.659609 313.26572 
L 279.667241 316.085209 
L 281.674872 286.345919 
L 283.682504 281.456437 
L 285.690135 269.436041 
L 287.697767 278.282795 
L 289.705398 278.654873 
L 291.71303 278.67636 
L 293.720661 277.750041 
L 295.728293 284.610986 
L 297.735924 285.010246 
L 299.743556 283.742865 
L 301.751187 290.365885 
L 303.758819 290.617532 
L 305.76645 297.047888 
L 307.774082 308.386958 
L 309.781713 330.590535 
L 311.789345 332.718343 
L 313.796976 332.683852 
L 315.804608 340.273142 
L 319.819871 340.883589 
L 321.827502 354.345618 
L 323.835134 332.170079 
L 325.842765 328.278248 
L 327.850397 327.155635 
L 329.858028 306.093023 
L 333.873291 314.308447 
L 335.880923 312.53073 
L 337.888554 309.536453 
L 339.896186 336.873476 
L 341.903817 335.895362 
L 343.911449 333.816871 
L 345.91908 329.778597 
L 347.926712 330.599108 
L 349.934343 311.39823 
L 351.941975 314.430544 
L 353.949606 286.860718 
L 355.957238 320.365821 
L 357.964869 341.72561 
L 359.972501 341.266914 
L 361.980132 328.819816 
L 363.987764 323.579188 
L 365.995395 298.248055 
L 368.003027 292.347751 
L 370.010658 320.377123 
L 372.01829 297.462549 
L 374.025921 293.641588 
L 376.033553 292.481381 
L 378.041184 303.665816 
L 380.048816 299.909425 
L 382.056447 329.054502 
L 384.064079 324.535095 
L 386.07171 329.048739 
L 388.079342 329.132639 
L 390.086973 329.577851 
L 392.094605 322.665997 
L 394.102236 348.076889 
L 396.109868 345.543455 
L 398.117499 332.408792 
L 400.125131 339.396145 
L 402.132762 337.864621 
L 404.140394 335.266601 
L 406.148025 324.347239 
L 408.155657 298.154931 
L 410.163288 282.143202 
L 412.17092 282.050029 
L 414.178551 252.808375 
L 416.186183 273.152861 
L 418.193814 275.085102 
L 420.201446 273.645697 
L 422.209077 297.685108 
L 424.216709 297.198554 
L 426.22434 297.317255 
L 428.231972 305.963587 
L 430.239603 303.494584 
L 432.247235 305.884937 
L 434.254866 306.014427 
L 436.262498 293.595442 
L 438.270129 285.238393 
L 440.277761 278.712359 
L 442.285392 254.77204 
L 444.293024 258.858195 
L 446.300655 250.650521 
L 448.308287 254.297251 
L 450.315918 243.526067 
L 452.32355 242.534913 
L 454.331181 246.542237 
L 456.338813 247.270295 
L 458.346444 255.251554 
L 460.354076 253.707882 
L 462.361707 266.793527 
L 464.369339 271.851153 
L 466.37697 281.7881 
L 468.384602 267.233855 
L 470.392233 266.696413 
L 472.399865 273.699747 
L 474.407496 266.923936 
L 476.415128 262.423335 
L 478.422759 274.817335 
L 480.430391 356.837344 
L 482.438022 420.622394 
L 484.445654 461.045051 
L 486.453285 489.869008 
L 488.460917 486.036521 
L 490.468548 484.783844 
L 492.47618 359.03436 
L 494.483811 354.966484 
L 496.491443 354.928648 
L 498.499074 358.637614 
L 500.506706 357.909563 
L 502.514337 355.041654 
L 504.521969 358.063665 
L 506.5296 353.309239 
L 508.537232 353.093431 
L 510.544863 353.423669 
L 512.552495 344.655882 
L 514.560126 344.355871 
L 516.567758 352.762463 
L 518.575389 349.433395 
L 520.583021 349.338771 
L 522.590652 350.867496 
L 524.598284 351.570099 
L 526.605915 351.010372 
L 528.613547 352.130047 
L 530.621178 339.238703 
L 532.62881 338.502411 
L 534.636441 326.388709 
L 536.644073 326.376516 
L 538.651704 330.018014 
L 540.659336 330.032424 
L 542.666967 331.620485 
L 544.674599 336.355401 
L 546.68223 347.240265 
L 548.689862 353.974854 
L 550.697493 354.740452 
L 552.705125 354.247253 
L 554.712756 354.645891 
L 556.720388 354.219532 
L 558.728019 356.420547 
L 560.735651 354.570466 
L 562.743282 352.272009 
L 564.750914 357.725981 
L 566.758545 357.076602 
L 568.766177 356.605733 
L 570.773808 358.093114 
L 572.78144 351.971701 
L 574.789071 344.037368 
L 576.796703 348.065613 
L 578.804334 339.455097 
L 580.811966 352.48097 
L 582.819597 353.827669 
L 584.827229 352.537804 
L 586.83486 352.396881 
L 588.842492 361.040101 
L 590.850123 356.245774 
L 592.857755 356.823661 
L 594.865386 342.670447 
L 596.873018 340.017934 
L 598.880649 339.730849 
L 600.888281 339.872571 
L 602.895912 333.998028 
L 604.903544 343.359353 
L 606.911175 343.273967 
L 608.918807 341.675078 
L 610.926438 340.225795 
L 612.93407 345.083285 
L 614.941701 345.086757 
L 616.949333 336.887998 
L 618.956964 333.751813 
L 620.964596 333.99683 
L 622.972227 336.090522 
L 624.979859 334.95889 
L 626.98749 326.738969 
L 628.995122 329.564316 
L 631.002753 327.968232 
L 633.010385 335.794511 
L 635.018016 335.748944 
L 637.025648 334.249968 
L 639.033279 334.651204 
L 641.040911 334.675773 
L 643.048542 334.249586 
L 645.056174 336.198026 
L 647.063805 330.43256 
L 649.071437 330.72383 
L 651.079068 330.446459 
L 653.0867 333.062384 
L 655.094331 327.59014 
L 657.101963 324.929205 
L 659.109594 325.406094 
L 661.117226 330.108071 
L 663.124857 333.122114 
L 665.132489 348.925848 
L 667.14012 348.87408 
L 669.147752 351.40308 
L 671.155383 350.983531 
L 673.163015 352.686572 
L 675.170646 350.314167 
L 677.178278 351.328803 
L 679.185909 331.417906 
L 679.185909 331.417906 
" clip-path="url(#p92172c9b15)" style="fill: none; stroke-dasharray: 11.2,2.8,1.75,2.8; stroke-dashoffset: 0; stroke: #ff6347; stroke-width: 1.75"/>
   </g>
   <g id="patch_3">
    <path d="M 48.89 511.981997 
L 48.89 25.49625 
" style="fill: none"/>
   </g>
   <g id="patch_4">
    <path d="M 709.2 511.981997 
L 709.2 25.49625 
" style="fill: none"/>
   </g>
   <g id="patch_5">
    <path d="M 48.89 511.981997 
L 709.2 511.981997 
" style="fill: none"/>
   </g>
   <g id="patch_6">
    <path d="M 48.89 25.49625 
L 709.2 25.49625 
" style="fill: none"/>
   </g>
   <g id="text_22">
    <!-- When the upstream scaling causes a feature drift -->
    <g style="fill: #262626" transform="translate(248.65375 19.49625) scale(0.12 -0.12)">
     <defs>
      <path id="ArialMT-57" d="M 1294 0 
L 78 4581 
L 700 4581 
L 1397 1578 
Q 1509 1106 1591 641 
Q 1766 1375 1797 1488 
L 2669 4581 
L 3400 4581 
L 4056 2263 
Q 4303 1400 4413 641 
Q 4500 1075 4641 1638 
L 5359 4581 
L 5969 4581 
L 4713 0 
L 4128 0 
L 3163 3491 
Q 3041 3928 3019 4028 
Q 2947 3713 2884 3491 
L 1913 0 
L 1294 0 
z
" transform="scale(0.015625)"/>
      <path id="ArialMT-68" d="M 422 0 
L 422 4581 
L 984 4581 
L 984 2938 
Q 1378 3394 1978 3394 
Q 2347 3394 2619 3248 
Q 2891 3103 3008 2847 
Q 3125 2591 3125 2103 
L 3125 0 
L 2563 0 
L 2563 2103 
Q 2563 2525 2380 2717 
Q 2197 2909 1863 2909 
Q 1613 2909 1392 2779 
Q 1172 2650 1078 2428 
Q 984 2206 984 1816 
L 984 0 
L 422 0 
z
" transform="scale(0.015625)"/>
      <path id="ArialMT-6e" d="M 422 0 
L 422 3319 
L 928 3319 
L 928 2847 
Q 1294 3394 1984 3394 
Q 2284 3394 2536 3286 
Q 2788 3178 2913 3003 
Q 3038 2828 3088 2588 
Q 3119 2431 3119 2041 
L 3119 0 
L 2556 0 
L 2556 2019 
Q 2556 2363 2490 2533 
Q 2425 2703 2258 2804 
Q 2091 2906 1866 2906 
Q 1506 2906 1245 2678 
Q 984 2450 984 1813 
L 984 0 
L 422 0 
z
" transform="scale(0.015625)"/>
      <path id="ArialMT-20" transform="scale(0.015625)"/>
      <path id="ArialMT-73" d="M 197 991 
L 753 1078 
Q 800 744 1014 566 
Q 1228 388 1613 388 
Q 2000 388 2187 545 
Q 2375 703 2375 916 
Q 2375 1106 2209 1216 
Q 2094 1291 1634 1406 
Q 1016 1563 777 1677 
Q 538 1791 414 1992 
Q 291 2194 291 2438 
Q 291 2659 392 2848 
Q 494 3038 669 3163 
Q 800 3259 1026 3326 
Q 1253 3394 1513 3394 
Q 1903 3394 2198 3281 
Q 2494 3169 2634 2976 
Q 2775 2784 2828 2463 
L 2278 2388 
Q 2241 2644 2061 2787 
Q 1881 2931 1553 2931 
Q 1166 2931 1000 2803 
Q 834 2675 834 2503 
Q 834 2394 903 2306 
Q 972 2216 1119 2156 
Q 1203 2125 1616 2013 
Q 2213 1853 2448 1751 
Q 2684 1650 2818 1456 
Q 2953 1263 2953 975 
Q 2953 694 2789 445 
Q 2625 197 2315 61 
Q 2006 -75 1616 -75 
Q 969 -75 630 194 
Q 291 463 197 991 
z
" transform="scale(0.015625)"/>
      <path id="ArialMT-63" d="M 2588 1216 
L 3141 1144 
Q 3050 572 2676 248 
Q 2303 -75 1759 -75 
Q 1078 -75 664 370 
Q 250 816 250 1647 
Q 250 2184 428 2587 
Q 606 2991 970 3192 
Q 1334 3394 1763 3394 
Q 2303 3394 2647 3120 
Q 2991 2847 3088 2344 
L 2541 2259 
Q 2463 2594 2264 2762 
Q 2066 2931 1784 2931 
Q 1359 2931 1093 2626 
Q 828 2322 828 1663 
Q 828 994 1084 691 
Q 1341 388 1753 388 
Q 2084 388 2306 591 
Q 2528 794 2588 1216 
z
" transform="scale(0.015625)"/>
      <path id="ArialMT-6c" d="M 409 0 
L 409 4581 
L 972 4581 
L 972 0 
L 409 0 
z
" transform="scale(0.015625)"/>
      <path id="ArialMT-69" d="M 425 3934 
L 425 4581 
L 988 4581 
L 988 3934 
L 425 3934 
z
M 425 0 
L 425 3319 
L 988 3319 
L 988 0 
L 425 0 
z
" transform="scale(0.015625)"/>
      <path id="ArialMT-67" d="M 319 -275 
L 866 -356 
Q 900 -609 1056 -725 
Q 1266 -881 1628 -881 
Q 2019 -881 2231 -725 
Q 2444 -569 2519 -288 
Q 2563 -116 2559 434 
Q 2191 0 1641 0 
Q 956 0 581 494 
Q 206 988 206 1678 
Q 206 2153 378 2554 
Q 550 2956 876 3175 
Q 1203 3394 1644 3394 
Q 2231 3394 2613 2919 
L 2613 3319 
L 3131 3319 
L 3131 450 
Q 3131 -325 2973 -648 
Q 2816 -972 2473 -1159 
Q 2131 -1347 1631 -1347 
Q 1038 -1347 672 -1080 
Q 306 -813 319 -275 
z
M 784 1719 
Q 784 1066 1043 766 
Q 1303 466 1694 466 
Q 2081 466 2343 764 
Q 2606 1063 2606 1700 
Q 2606 2309 2336 2618 
Q 2066 2928 1684 2928 
Q 1309 2928 1046 2623 
Q 784 2319 784 1719 
z
" transform="scale(0.015625)"/>
      <path id="ArialMT-66" d="M 556 0 
L 556 2881 
L 59 2881 
L 59 3319 
L 556 3319 
L 556 3672 
Q 556 4006 616 4169 
Q 697 4388 901 4523 
Q 1106 4659 1475 4659 
Q 1713 4659 2000 4603 
L 1916 4113 
Q 1741 4144 1584 4144 
Q 1328 4144 1222 4034 
Q 1116 3925 1116 3625 
L 1116 3319 
L 1763 3319 
L 1763 2881 
L 1116 2881 
L 1116 0 
L 556 0 
z
" transform="scale(0.015625)"/>
      <path id="ArialMT-64" d="M 2575 0 
L 2575 419 
Q 2259 -75 1647 -75 
Q 1250 -75 917 144 
Q 584 363 401 755 
Q 219 1147 219 1656 
Q 219 2153 384 2558 
Q 550 2963 881 3178 
Q 1213 3394 1622 3394 
Q 1922 3394 2156 3267 
Q 2391 3141 2538 2938 
L 2538 4581 
L 3097 4581 
L 3097 0 
L 2575 0 
z
M 797 1656 
Q 797 1019 1065 703 
Q 1334 388 1700 388 
Q 2069 388 2326 689 
Q 2584 991 2584 1609 
Q 2584 2291 2321 2609 
Q 2059 2928 1675 2928 
Q 1300 2928 1048 2622 
Q 797 2316 797 1656 
z
" transform="scale(0.015625)"/>
     </defs>
     <use xlink:href="#ArialMT-57"/>
     <use xlink:href="#ArialMT-68" x="94.384766"/>
     <use xlink:href="#ArialMT-65" x="150"/>
     <use xlink:href="#ArialMT-6e" x="205.615234"/>
     <use xlink:href="#ArialMT-20" x="261.230469"/>
     <use xlink:href="#ArialMT-74" x="289.013672"/>
     <use xlink:href="#ArialMT-68" x="316.796875"/>
     <use xlink:href="#ArialMT-65" x="372.412109"/>
     <use xlink:href="#ArialMT-20" x="428.027344"/>
     <use xlink:href="#ArialMT-75" x="455.810547"/>
     <use xlink:href="#ArialMT-70" x="511.425781"/>
     <use xlink:href="#ArialMT-73" x="567.041016"/>
     <use xlink:href="#ArialMT-74" x="617.041016"/>
     <use xlink:href="#ArialMT-72" x="644.824219"/>
     <use xlink:href="#ArialMT-65" x="678.125"/>
     <use xlink:href="#ArialMT-61" x="733.740234"/>
     <use xlink:href="#ArialMT-6d" x="789.355469"/>
     <use xlink:href="#ArialMT-20" x="872.65625"/>
     <use xlink:href="#ArialMT-73" x="900.439453"/>
     <use xlink:href="#ArialMT-63" x="950.439453"/>
     <use xlink:href="#ArialMT-61" x="1000.439453"/>
     <use xlink:href="#ArialMT-6c" x="1056.054688"/>
     <use xlink:href="#ArialMT-69" x="1078.271484"/>
     <use xlink:href="#ArialMT-6e" x="1100.488281"/>
     <use xlink:href="#ArialMT-67" x="1156.103516"/>
     <use xlink:href="#ArialMT-20" x="1211.71875"/>
     <use xlink:href="#ArialMT-63" x="1239.501953"/>
     <use xlink:href="#ArialMT-61" x="1289.501953"/>
     <use xlink:href="#ArialMT-75" x="1345.117188"/>
     <use xlink:href="#ArialMT-73" x="1400.732422"/>
     <use xlink:href="#ArialMT-65" x="1450.732422"/>
     <use xlink:href="#ArialMT-73" x="1506.347656"/>
     <use xlink:href="#ArialMT-20" x="1556.347656"/>
     <use xlink:href="#ArialMT-61" x="1584.130859"/>
     <use xlink:href="#ArialMT-20" x="1639.746094"/>
     <use xlink:href="#ArialMT-66" x="1667.529297"/>
     <use xlink:href="#ArialMT-65" x="1695.3125"/>
     <use xlink:href="#ArialMT-61" x="1750.927734"/>
     <use xlink:href="#ArialMT-74" x="1806.542969"/>
     <use xlink:href="#ArialMT-75" x="1834.326172"/>
     <use xlink:href="#ArialMT-72" x="1889.941406"/>
     <use xlink:href="#ArialMT-65" x="1923.242188"/>
     <use xlink:href="#ArialMT-20" x="1978.857422"/>
     <use xlink:href="#ArialMT-64" x="2006.640625"/>
     <use xlink:href="#ArialMT-72" x="2062.255859"/>
     <use xlink:href="#ArialMT-69" x="2095.556641"/>
     <use xlink:href="#ArialMT-66" x="2117.773438"/>
     <use xlink:href="#ArialMT-74" x="2145.556641"/>
    </g>
   </g>
   <g id="legend_1">
    <g id="line2d_43">
     <path d="M 613.839063 38.154062 
L 623.839063 38.154062 
L 633.839063 38.154062 
" style="fill: none; stroke: #708090; stroke-width: 1.75; stroke-linecap: round"/>
    </g>
    <g id="text_23">
     <!-- temp -->
     <g style="fill: #262626" transform="translate(641.839063 41.654062) scale(0.1 -0.1)">
      <use xlink:href="#ArialMT-74"/>
      <use xlink:href="#ArialMT-65" x="27.783203"/>
      <use xlink:href="#ArialMT-6d" x="83.398438"/>
      <use xlink:href="#ArialMT-70" x="166.699219"/>
     </g>
    </g>
    <g id="line2d_44">
     <path d="M 613.839063 52.299375 
L 623.839063 52.299375 
L 633.839063 52.299375 
" style="fill: none; stroke-dasharray: 6.475,2.8; stroke-dashoffset: 0; stroke: #228b22; stroke-width: 1.75"/>
    </g>
    <g id="text_24">
     <!-- Rolling Mean -->
     <g style="fill: #262626" transform="translate(641.839063 55.799375) scale(0.1 -0.1)">
      <defs>
       <path id="ArialMT-52" d="M 503 0 
L 503 4581 
L 2534 4581 
Q 3147 4581 3465 4457 
Q 3784 4334 3975 4021 
Q 4166 3709 4166 3331 
Q 4166 2844 3850 2509 
Q 3534 2175 2875 2084 
Q 3116 1969 3241 1856 
Q 3506 1613 3744 1247 
L 4541 0 
L 3778 0 
L 3172 953 
Q 2906 1366 2734 1584 
Q 2563 1803 2427 1890 
Q 2291 1978 2150 2013 
Q 2047 2034 1813 2034 
L 1109 2034 
L 1109 0 
L 503 0 
z
M 1109 2559 
L 2413 2559 
Q 2828 2559 3062 2645 
Q 3297 2731 3419 2920 
Q 3541 3109 3541 3331 
Q 3541 3656 3305 3865 
Q 3069 4075 2559 4075 
L 1109 4075 
L 1109 2559 
z
" transform="scale(0.015625)"/>
       <path id="ArialMT-6f" d="M 213 1659 
Q 213 2581 725 3025 
Q 1153 3394 1769 3394 
Q 2453 3394 2887 2945 
Q 3322 2497 3322 1706 
Q 3322 1066 3130 698 
Q 2938 331 2570 128 
Q 2203 -75 1769 -75 
Q 1072 -75 642 372 
Q 213 819 213 1659 
z
M 791 1659 
Q 791 1022 1069 705 
Q 1347 388 1769 388 
Q 2188 388 2466 706 
Q 2744 1025 2744 1678 
Q 2744 2294 2464 2611 
Q 2184 2928 1769 2928 
Q 1347 2928 1069 2612 
Q 791 2297 791 1659 
z
" transform="scale(0.015625)"/>
       <path id="ArialMT-4d" d="M 475 0 
L 475 4581 
L 1388 4581 
L 2472 1338 
Q 2622 884 2691 659 
Q 2769 909 2934 1394 
L 4031 4581 
L 4847 4581 
L 4847 0 
L 4263 0 
L 4263 3834 
L 2931 0 
L 2384 0 
L 1059 3900 
L 1059 0 
L 475 0 
z
" transform="scale(0.015625)"/>
      </defs>
      <use xlink:href="#ArialMT-52"/>
      <use xlink:href="#ArialMT-6f" x="72.216797"/>
      <use xlink:href="#ArialMT-6c" x="127.832031"/>
      <use xlink:href="#ArialMT-6c" x="150.048828"/>
      <use xlink:href="#ArialMT-69" x="172.265625"/>
      <use xlink:href="#ArialMT-6e" x="194.482422"/>
      <use xlink:href="#ArialMT-67" x="250.097656"/>
      <use xlink:href="#ArialMT-20" x="305.712891"/>
      <use xlink:href="#ArialMT-4d" x="333.496094"/>
      <use xlink:href="#ArialMT-65" x="416.796875"/>
      <use xlink:href="#ArialMT-61" x="472.412109"/>
      <use xlink:href="#ArialMT-6e" x="528.027344"/>
     </g>
    </g>
    <g id="line2d_45">
     <path d="M 613.839063 66.561875 
L 623.839063 66.561875 
L 633.839063 66.561875 
" style="fill: none; stroke-dasharray: 11.2,2.8,1.75,2.8; stroke-dashoffset: 0; stroke: #ff8c00; stroke-width: 1.75"/>
    </g>
    <g id="text_25">
     <!-- Boundaries -->
     <g style="fill: #262626" transform="translate(641.839063 70.061875) scale(0.1 -0.1)">
      <defs>
       <path id="ArialMT-42" d="M 469 0 
L 469 4581 
L 2188 4581 
Q 2713 4581 3030 4442 
Q 3347 4303 3526 4014 
Q 3706 3725 3706 3409 
Q 3706 3116 3547 2856 
Q 3388 2597 3066 2438 
Q 3481 2316 3704 2022 
Q 3928 1728 3928 1328 
Q 3928 1006 3792 729 
Q 3656 453 3456 303 
Q 3256 153 2954 76 
Q 2653 0 2216 0 
L 469 0 
z
M 1075 2656 
L 2066 2656 
Q 2469 2656 2644 2709 
Q 2875 2778 2992 2937 
Q 3109 3097 3109 3338 
Q 3109 3566 3000 3739 
Q 2891 3913 2687 3977 
Q 2484 4041 1991 4041 
L 1075 4041 
L 1075 2656 
z
M 1075 541 
L 2216 541 
Q 2509 541 2628 563 
Q 2838 600 2978 687 
Q 3119 775 3209 942 
Q 3300 1109 3300 1328 
Q 3300 1584 3169 1773 
Q 3038 1963 2805 2039 
Q 2572 2116 2134 2116 
L 1075 2116 
L 1075 541 
z
" transform="scale(0.015625)"/>
      </defs>
      <use xlink:href="#ArialMT-42"/>
      <use xlink:href="#ArialMT-6f" x="66.699219"/>
      <use xlink:href="#ArialMT-75" x="122.314453"/>
      <use xlink:href="#ArialMT-6e" x="177.929688"/>
      <use xlink:href="#ArialMT-64" x="233.544922"/>
      <use xlink:href="#ArialMT-61" x="289.160156"/>
      <use xlink:href="#ArialMT-72" x="344.775391"/>
      <use xlink:href="#ArialMT-69" x="378.076172"/>
      <use xlink:href="#ArialMT-65" x="400.292969"/>
      <use xlink:href="#ArialMT-73" x="455.908203"/>
     </g>
    </g>
   </g>
  </g>
 </g>
 <defs>
  <clipPath id="p92172c9b15">
   <rect x="48.89" y="25.49625" width="660.31" height="486.485747"/>
  </clipPath>
 </defs>
</svg>
