<?xml version="1.0" encoding="utf-8" standalone="no"?>
<!DOCTYPE svg PUBLIC "-//W3C//DTD SVG 1.1//EN"
  "http://www.w3.org/Graphics/SVG/1.1/DTD/svg11.dtd">
<svg xmlns:xlink="http://www.w3.org/1999/xlink" width="576pt" height="432pt" viewBox="0 0 576 432" xmlns="http://www.w3.org/2000/svg" version="1.1">
 <metadata>
  <rdf:RDF xmlns:dc="http://purl.org/dc/elements/1.1/" xmlns:cc="http://creativecommons.org/ns#" xmlns:rdf="http://www.w3.org/1999/02/22-rdf-syntax-ns#">
   <cc:Work>
    <dc:type rdf:resource="http://purl.org/dc/dcmitype/StillImage"/>
    <dc:date>2024-07-25T16:33:38.185617</dc:date>
    <dc:format>image/svg+xml</dc:format>
    <dc:creator>
     <cc:Agent>
      <dc:title>Matplotlib v3.8.4, https://matplotlib.org/</dc:title>
     </cc:Agent>
    </dc:creator>
   </cc:Work>
  </rdf:RDF>
 </metadata>
 <defs>
  <style type="text/css">*{stroke-linejoin: round; stroke-linecap: butt}</style>
 </defs>
 <g id="figure_1">
  <g id="patch_1">
   <path d="M 0 432 
L 576 432 
L 576 0 
L 0 0 
z
" style="fill: #ffffff"/>
  </g>
  <g id="axes_1">
   <g id="patch_2">
    <path d="M 54.2 391.48 
L 565.2 391.48 
L 565.2 25.49625 
L 54.2 25.49625 
z
" style="fill: #eaeaf2"/>
   </g>
   <g id="matplotlib.axis_1">
    <g id="xtick_1">
     <g id="line2d_1">
      <path d="M 77.427273 391.48 
L 77.427273 25.49625 
" clip-path="url(#pa6c1febc3f)" style="fill: none; stroke: #ffffff; stroke-linecap: round"/>
     </g>
     <g id="line2d_2"/>
     <g id="text_1">
      <!-- 0.0 -->
      <g style="fill: #262626" transform="translate(70.477273 405.637812) scale(0.1 -0.1)">
       <defs>
        <path id="ArialMT-30" d="M 266 2259 
Q 266 3072 433 3567 
Q 600 4063 929 4331 
Q 1259 4600 1759 4600 
Q 2128 4600 2406 4451 
Q 2684 4303 2865 4023 
Q 3047 3744 3150 3342 
Q 3253 2941 3253 2259 
Q 3253 1453 3087 958 
Q 2922 463 2592 192 
Q 2263 -78 1759 -78 
Q 1097 -78 719 397 
Q 266 969 266 2259 
z
M 844 2259 
Q 844 1131 1108 757 
Q 1372 384 1759 384 
Q 2147 384 2411 759 
Q 2675 1134 2675 2259 
Q 2675 3391 2411 3762 
Q 2147 4134 1753 4134 
Q 1366 4134 1134 3806 
Q 844 3388 844 2259 
z
" transform="scale(0.015625)"/>
        <path id="ArialMT-2e" d="M 581 0 
L 581 641 
L 1222 641 
L 1222 0 
L 581 0 
z
" transform="scale(0.015625)"/>
       </defs>
       <use xlink:href="#ArialMT-30"/>
       <use xlink:href="#ArialMT-2e" x="55.615234"/>
       <use xlink:href="#ArialMT-30" x="83.398438"/>
      </g>
     </g>
    </g>
    <g id="xtick_2">
     <g id="line2d_3">
      <path d="M 170.336364 391.48 
L 170.336364 25.49625 
" clip-path="url(#pa6c1febc3f)" style="fill: none; stroke: #ffffff; stroke-linecap: round"/>
     </g>
     <g id="line2d_4"/>
     <g id="text_2">
      <!-- 0.2 -->
      <g style="fill: #262626" transform="translate(163.386364 405.637812) scale(0.1 -0.1)">
       <defs>
        <path id="ArialMT-32" d="M 3222 541 
L 3222 0 
L 194 0 
Q 188 203 259 391 
Q 375 700 629 1000 
Q 884 1300 1366 1694 
Q 2113 2306 2375 2664 
Q 2638 3022 2638 3341 
Q 2638 3675 2398 3904 
Q 2159 4134 1775 4134 
Q 1369 4134 1125 3890 
Q 881 3647 878 3216 
L 300 3275 
Q 359 3922 746 4261 
Q 1134 4600 1788 4600 
Q 2447 4600 2831 4234 
Q 3216 3869 3216 3328 
Q 3216 3053 3103 2787 
Q 2991 2522 2730 2228 
Q 2469 1934 1863 1422 
Q 1356 997 1212 845 
Q 1069 694 975 541 
L 3222 541 
z
" transform="scale(0.015625)"/>
       </defs>
       <use xlink:href="#ArialMT-30"/>
       <use xlink:href="#ArialMT-2e" x="55.615234"/>
       <use xlink:href="#ArialMT-32" x="83.398438"/>
      </g>
     </g>
    </g>
    <g id="xtick_3">
     <g id="line2d_5">
      <path d="M 263.245455 391.48 
L 263.245455 25.49625 
" clip-path="url(#pa6c1febc3f)" style="fill: none; stroke: #ffffff; stroke-linecap: round"/>
     </g>
     <g id="line2d_6"/>
     <g id="text_3">
      <!-- 0.4 -->
      <g style="fill: #262626" transform="translate(256.295455 405.637812) scale(0.1 -0.1)">
       <defs>
        <path id="ArialMT-34" d="M 2069 0 
L 2069 1097 
L 81 1097 
L 81 1613 
L 2172 4581 
L 2631 4581 
L 2631 1613 
L 3250 1613 
L 3250 1097 
L 2631 1097 
L 2631 0 
L 2069 0 
z
M 2069 1613 
L 2069 3678 
L 634 1613 
L 2069 1613 
z
" transform="scale(0.015625)"/>
       </defs>
       <use xlink:href="#ArialMT-30"/>
       <use xlink:href="#ArialMT-2e" x="55.615234"/>
       <use xlink:href="#ArialMT-34" x="83.398438"/>
      </g>
     </g>
    </g>
    <g id="xtick_4">
     <g id="line2d_7">
      <path d="M 356.154545 391.48 
L 356.154545 25.49625 
" clip-path="url(#pa6c1febc3f)" style="fill: none; stroke: #ffffff; stroke-linecap: round"/>
     </g>
     <g id="line2d_8"/>
     <g id="text_4">
      <!-- 0.6 -->
      <g style="fill: #262626" transform="translate(349.204545 405.637812) scale(0.1 -0.1)">
       <defs>
        <path id="ArialMT-36" d="M 3184 3459 
L 2625 3416 
Q 2550 3747 2413 3897 
Q 2184 4138 1850 4138 
Q 1581 4138 1378 3988 
Q 1113 3794 959 3422 
Q 806 3050 800 2363 
Q 1003 2672 1297 2822 
Q 1591 2972 1913 2972 
Q 2475 2972 2870 2558 
Q 3266 2144 3266 1488 
Q 3266 1056 3080 686 
Q 2894 316 2569 119 
Q 2244 -78 1831 -78 
Q 1128 -78 684 439 
Q 241 956 241 2144 
Q 241 3472 731 4075 
Q 1159 4600 1884 4600 
Q 2425 4600 2770 4297 
Q 3116 3994 3184 3459 
z
M 888 1484 
Q 888 1194 1011 928 
Q 1134 663 1356 523 
Q 1578 384 1822 384 
Q 2178 384 2434 671 
Q 2691 959 2691 1453 
Q 2691 1928 2437 2201 
Q 2184 2475 1800 2475 
Q 1419 2475 1153 2201 
Q 888 1928 888 1484 
z
" transform="scale(0.015625)"/>
       </defs>
       <use xlink:href="#ArialMT-30"/>
       <use xlink:href="#ArialMT-2e" x="55.615234"/>
       <use xlink:href="#ArialMT-36" x="83.398438"/>
      </g>
     </g>
    </g>
    <g id="xtick_5">
     <g id="line2d_9">
      <path d="M 449.063636 391.48 
L 449.063636 25.49625 
" clip-path="url(#pa6c1febc3f)" style="fill: none; stroke: #ffffff; stroke-linecap: round"/>
     </g>
     <g id="line2d_10"/>
     <g id="text_5">
      <!-- 0.8 -->
      <g style="fill: #262626" transform="translate(442.113636 405.637812) scale(0.1 -0.1)">
       <defs>
        <path id="ArialMT-38" d="M 1131 2484 
Q 781 2613 612 2850 
Q 444 3088 444 3419 
Q 444 3919 803 4259 
Q 1163 4600 1759 4600 
Q 2359 4600 2725 4251 
Q 3091 3903 3091 3403 
Q 3091 3084 2923 2848 
Q 2756 2613 2416 2484 
Q 2838 2347 3058 2040 
Q 3278 1734 3278 1309 
Q 3278 722 2862 322 
Q 2447 -78 1769 -78 
Q 1091 -78 675 323 
Q 259 725 259 1325 
Q 259 1772 486 2073 
Q 713 2375 1131 2484 
z
M 1019 3438 
Q 1019 3113 1228 2906 
Q 1438 2700 1772 2700 
Q 2097 2700 2305 2904 
Q 2513 3109 2513 3406 
Q 2513 3716 2298 3927 
Q 2084 4138 1766 4138 
Q 1444 4138 1231 3931 
Q 1019 3725 1019 3438 
z
M 838 1322 
Q 838 1081 952 856 
Q 1066 631 1291 507 
Q 1516 384 1775 384 
Q 2178 384 2440 643 
Q 2703 903 2703 1303 
Q 2703 1709 2433 1975 
Q 2163 2241 1756 2241 
Q 1359 2241 1098 1978 
Q 838 1716 838 1322 
z
" transform="scale(0.015625)"/>
       </defs>
       <use xlink:href="#ArialMT-30"/>
       <use xlink:href="#ArialMT-2e" x="55.615234"/>
       <use xlink:href="#ArialMT-38" x="83.398438"/>
      </g>
     </g>
    </g>
    <g id="xtick_6">
     <g id="line2d_11">
      <path d="M 541.972727 391.48 
L 541.972727 25.49625 
" clip-path="url(#pa6c1febc3f)" style="fill: none; stroke: #ffffff; stroke-linecap: round"/>
     </g>
     <g id="line2d_12"/>
     <g id="text_6">
      <!-- 1.0 -->
      <g style="fill: #262626" transform="translate(535.022727 405.637812) scale(0.1 -0.1)">
       <defs>
        <path id="ArialMT-31" d="M 2384 0 
L 1822 0 
L 1822 3584 
Q 1619 3391 1289 3197 
Q 959 3003 697 2906 
L 697 3450 
Q 1169 3672 1522 3987 
Q 1875 4303 2022 4600 
L 2384 4600 
L 2384 0 
z
" transform="scale(0.015625)"/>
       </defs>
       <use xlink:href="#ArialMT-31"/>
       <use xlink:href="#ArialMT-2e" x="55.615234"/>
       <use xlink:href="#ArialMT-30" x="83.398438"/>
      </g>
     </g>
    </g>
    <g id="text_7">
     <!-- Probability of using coupon -->
     <g style="fill: #262626" transform="translate(243.661328 419.632969) scale(0.11 -0.11)">
      <defs>
       <path id="ArialMT-50" d="M 494 0 
L 494 4581 
L 2222 4581 
Q 2678 4581 2919 4538 
Q 3256 4481 3484 4323 
Q 3713 4166 3852 3881 
Q 3991 3597 3991 3256 
Q 3991 2672 3619 2267 
Q 3247 1863 2275 1863 
L 1100 1863 
L 1100 0 
L 494 0 
z
M 1100 2403 
L 2284 2403 
Q 2872 2403 3119 2622 
Q 3366 2841 3366 3238 
Q 3366 3525 3220 3729 
Q 3075 3934 2838 4000 
Q 2684 4041 2272 4041 
L 1100 4041 
L 1100 2403 
z
" transform="scale(0.015625)"/>
       <path id="ArialMT-72" d="M 416 0 
L 416 3319 
L 922 3319 
L 922 2816 
Q 1116 3169 1280 3281 
Q 1444 3394 1641 3394 
Q 1925 3394 2219 3213 
L 2025 2691 
Q 1819 2813 1613 2813 
Q 1428 2813 1281 2702 
Q 1134 2591 1072 2394 
Q 978 2094 978 1738 
L 978 0 
L 416 0 
z
" transform="scale(0.015625)"/>
       <path id="ArialMT-6f" d="M 213 1659 
Q 213 2581 725 3025 
Q 1153 3394 1769 3394 
Q 2453 3394 2887 2945 
Q 3322 2497 3322 1706 
Q 3322 1066 3130 698 
Q 2938 331 2570 128 
Q 2203 -75 1769 -75 
Q 1072 -75 642 372 
Q 213 819 213 1659 
z
M 791 1659 
Q 791 1022 1069 705 
Q 1347 388 1769 388 
Q 2188 388 2466 706 
Q 2744 1025 2744 1678 
Q 2744 2294 2464 2611 
Q 2184 2928 1769 2928 
Q 1347 2928 1069 2612 
Q 791 2297 791 1659 
z
" transform="scale(0.015625)"/>
       <path id="ArialMT-62" d="M 941 0 
L 419 0 
L 419 4581 
L 981 4581 
L 981 2947 
Q 1338 3394 1891 3394 
Q 2197 3394 2470 3270 
Q 2744 3147 2920 2923 
Q 3097 2700 3197 2384 
Q 3297 2069 3297 1709 
Q 3297 856 2875 390 
Q 2453 -75 1863 -75 
Q 1275 -75 941 416 
L 941 0 
z
M 934 1684 
Q 934 1088 1097 822 
Q 1363 388 1816 388 
Q 2184 388 2453 708 
Q 2722 1028 2722 1663 
Q 2722 2313 2464 2622 
Q 2206 2931 1841 2931 
Q 1472 2931 1203 2611 
Q 934 2291 934 1684 
z
" transform="scale(0.015625)"/>
       <path id="ArialMT-61" d="M 2588 409 
Q 2275 144 1986 34 
Q 1697 -75 1366 -75 
Q 819 -75 525 192 
Q 231 459 231 875 
Q 231 1119 342 1320 
Q 453 1522 633 1644 
Q 813 1766 1038 1828 
Q 1203 1872 1538 1913 
Q 2219 1994 2541 2106 
Q 2544 2222 2544 2253 
Q 2544 2597 2384 2738 
Q 2169 2928 1744 2928 
Q 1347 2928 1158 2789 
Q 969 2650 878 2297 
L 328 2372 
Q 403 2725 575 2942 
Q 747 3159 1072 3276 
Q 1397 3394 1825 3394 
Q 2250 3394 2515 3294 
Q 2781 3194 2906 3042 
Q 3031 2891 3081 2659 
Q 3109 2516 3109 2141 
L 3109 1391 
Q 3109 606 3145 398 
Q 3181 191 3288 0 
L 2700 0 
Q 2613 175 2588 409 
z
M 2541 1666 
Q 2234 1541 1622 1453 
Q 1275 1403 1131 1340 
Q 988 1278 909 1158 
Q 831 1038 831 891 
Q 831 666 1001 516 
Q 1172 366 1500 366 
Q 1825 366 2078 508 
Q 2331 650 2450 897 
Q 2541 1088 2541 1459 
L 2541 1666 
z
" transform="scale(0.015625)"/>
       <path id="ArialMT-69" d="M 425 3934 
L 425 4581 
L 988 4581 
L 988 3934 
L 425 3934 
z
M 425 0 
L 425 3319 
L 988 3319 
L 988 0 
L 425 0 
z
" transform="scale(0.015625)"/>
       <path id="ArialMT-6c" d="M 409 0 
L 409 4581 
L 972 4581 
L 972 0 
L 409 0 
z
" transform="scale(0.015625)"/>
       <path id="ArialMT-74" d="M 1650 503 
L 1731 6 
Q 1494 -44 1306 -44 
Q 1000 -44 831 53 
Q 663 150 594 308 
Q 525 466 525 972 
L 525 2881 
L 113 2881 
L 113 3319 
L 525 3319 
L 525 4141 
L 1084 4478 
L 1084 3319 
L 1650 3319 
L 1650 2881 
L 1084 2881 
L 1084 941 
Q 1084 700 1114 631 
Q 1144 563 1211 522 
Q 1278 481 1403 481 
Q 1497 481 1650 503 
z
" transform="scale(0.015625)"/>
       <path id="ArialMT-79" d="M 397 -1278 
L 334 -750 
Q 519 -800 656 -800 
Q 844 -800 956 -737 
Q 1069 -675 1141 -563 
Q 1194 -478 1313 -144 
Q 1328 -97 1363 -6 
L 103 3319 
L 709 3319 
L 1400 1397 
Q 1534 1031 1641 628 
Q 1738 1016 1872 1384 
L 2581 3319 
L 3144 3319 
L 1881 -56 
Q 1678 -603 1566 -809 
Q 1416 -1088 1222 -1217 
Q 1028 -1347 759 -1347 
Q 597 -1347 397 -1278 
z
" transform="scale(0.015625)"/>
       <path id="ArialMT-20" transform="scale(0.015625)"/>
       <path id="ArialMT-66" d="M 556 0 
L 556 2881 
L 59 2881 
L 59 3319 
L 556 3319 
L 556 3672 
Q 556 4006 616 4169 
Q 697 4388 901 4523 
Q 1106 4659 1475 4659 
Q 1713 4659 2000 4603 
L 1916 4113 
Q 1741 4144 1584 4144 
Q 1328 4144 1222 4034 
Q 1116 3925 1116 3625 
L 1116 3319 
L 1763 3319 
L 1763 2881 
L 1116 2881 
L 1116 0 
L 556 0 
z
" transform="scale(0.015625)"/>
       <path id="ArialMT-75" d="M 2597 0 
L 2597 488 
Q 2209 -75 1544 -75 
Q 1250 -75 995 37 
Q 741 150 617 320 
Q 494 491 444 738 
Q 409 903 409 1263 
L 409 3319 
L 972 3319 
L 972 1478 
Q 972 1038 1006 884 
Q 1059 663 1231 536 
Q 1403 409 1656 409 
Q 1909 409 2131 539 
Q 2353 669 2445 892 
Q 2538 1116 2538 1541 
L 2538 3319 
L 3100 3319 
L 3100 0 
L 2597 0 
z
" transform="scale(0.015625)"/>
       <path id="ArialMT-73" d="M 197 991 
L 753 1078 
Q 800 744 1014 566 
Q 1228 388 1613 388 
Q 2000 388 2187 545 
Q 2375 703 2375 916 
Q 2375 1106 2209 1216 
Q 2094 1291 1634 1406 
Q 1016 1563 777 1677 
Q 538 1791 414 1992 
Q 291 2194 291 2438 
Q 291 2659 392 2848 
Q 494 3038 669 3163 
Q 800 3259 1026 3326 
Q 1253 3394 1513 3394 
Q 1903 3394 2198 3281 
Q 2494 3169 2634 2976 
Q 2775 2784 2828 2463 
L 2278 2388 
Q 2241 2644 2061 2787 
Q 1881 2931 1553 2931 
Q 1166 2931 1000 2803 
Q 834 2675 834 2503 
Q 834 2394 903 2306 
Q 972 2216 1119 2156 
Q 1203 2125 1616 2013 
Q 2213 1853 2448 1751 
Q 2684 1650 2818 1456 
Q 2953 1263 2953 975 
Q 2953 694 2789 445 
Q 2625 197 2315 61 
Q 2006 -75 1616 -75 
Q 969 -75 630 194 
Q 291 463 197 991 
z
" transform="scale(0.015625)"/>
       <path id="ArialMT-6e" d="M 422 0 
L 422 3319 
L 928 3319 
L 928 2847 
Q 1294 3394 1984 3394 
Q 2284 3394 2536 3286 
Q 2788 3178 2913 3003 
Q 3038 2828 3088 2588 
Q 3119 2431 3119 2041 
L 3119 0 
L 2556 0 
L 2556 2019 
Q 2556 2363 2490 2533 
Q 2425 2703 2258 2804 
Q 2091 2906 1866 2906 
Q 1506 2906 1245 2678 
Q 984 2450 984 1813 
L 984 0 
L 422 0 
z
" transform="scale(0.015625)"/>
       <path id="ArialMT-67" d="M 319 -275 
L 866 -356 
Q 900 -609 1056 -725 
Q 1266 -881 1628 -881 
Q 2019 -881 2231 -725 
Q 2444 -569 2519 -288 
Q 2563 -116 2559 434 
Q 2191 0 1641 0 
Q 956 0 581 494 
Q 206 988 206 1678 
Q 206 2153 378 2554 
Q 550 2956 876 3175 
Q 1203 3394 1644 3394 
Q 2231 3394 2613 2919 
L 2613 3319 
L 3131 3319 
L 3131 450 
Q 3131 -325 2973 -648 
Q 2816 -972 2473 -1159 
Q 2131 -1347 1631 -1347 
Q 1038 -1347 672 -1080 
Q 306 -813 319 -275 
z
M 784 1719 
Q 784 1066 1043 766 
Q 1303 466 1694 466 
Q 2081 466 2343 764 
Q 2606 1063 2606 1700 
Q 2606 2309 2336 2618 
Q 2066 2928 1684 2928 
Q 1309 2928 1046 2623 
Q 784 2319 784 1719 
z
" transform="scale(0.015625)"/>
       <path id="ArialMT-63" d="M 2588 1216 
L 3141 1144 
Q 3050 572 2676 248 
Q 2303 -75 1759 -75 
Q 1078 -75 664 370 
Q 250 816 250 1647 
Q 250 2184 428 2587 
Q 606 2991 970 3192 
Q 1334 3394 1763 3394 
Q 2303 3394 2647 3120 
Q 2991 2847 3088 2344 
L 2541 2259 
Q 2463 2594 2264 2762 
Q 2066 2931 1784 2931 
Q 1359 2931 1093 2626 
Q 828 2322 828 1663 
Q 828 994 1084 691 
Q 1341 388 1753 388 
Q 2084 388 2306 591 
Q 2528 794 2588 1216 
z
" transform="scale(0.015625)"/>
       <path id="ArialMT-70" d="M 422 -1272 
L 422 3319 
L 934 3319 
L 934 2888 
Q 1116 3141 1344 3267 
Q 1572 3394 1897 3394 
Q 2322 3394 2647 3175 
Q 2972 2956 3137 2557 
Q 3303 2159 3303 1684 
Q 3303 1175 3120 767 
Q 2938 359 2589 142 
Q 2241 -75 1856 -75 
Q 1575 -75 1351 44 
Q 1128 163 984 344 
L 984 -1272 
L 422 -1272 
z
M 931 1641 
Q 931 1000 1190 694 
Q 1450 388 1819 388 
Q 2194 388 2461 705 
Q 2728 1022 2728 1688 
Q 2728 2322 2467 2637 
Q 2206 2953 1844 2953 
Q 1484 2953 1207 2617 
Q 931 2281 931 1641 
z
" transform="scale(0.015625)"/>
      </defs>
      <use xlink:href="#ArialMT-50"/>
      <use xlink:href="#ArialMT-72" x="66.699219"/>
      <use xlink:href="#ArialMT-6f" x="100"/>
      <use xlink:href="#ArialMT-62" x="155.615234"/>
      <use xlink:href="#ArialMT-61" x="211.230469"/>
      <use xlink:href="#ArialMT-62" x="266.845703"/>
      <use xlink:href="#ArialMT-69" x="322.460938"/>
      <use xlink:href="#ArialMT-6c" x="344.677734"/>
      <use xlink:href="#ArialMT-69" x="366.894531"/>
      <use xlink:href="#ArialMT-74" x="389.111328"/>
      <use xlink:href="#ArialMT-79" x="416.894531"/>
      <use xlink:href="#ArialMT-20" x="466.894531"/>
      <use xlink:href="#ArialMT-6f" x="494.677734"/>
      <use xlink:href="#ArialMT-66" x="550.292969"/>
      <use xlink:href="#ArialMT-20" x="578.076172"/>
      <use xlink:href="#ArialMT-75" x="605.859375"/>
      <use xlink:href="#ArialMT-73" x="661.474609"/>
      <use xlink:href="#ArialMT-69" x="711.474609"/>
      <use xlink:href="#ArialMT-6e" x="733.691406"/>
      <use xlink:href="#ArialMT-67" x="789.306641"/>
      <use xlink:href="#ArialMT-20" x="844.921875"/>
      <use xlink:href="#ArialMT-63" x="872.705078"/>
      <use xlink:href="#ArialMT-6f" x="922.705078"/>
      <use xlink:href="#ArialMT-75" x="978.320312"/>
      <use xlink:href="#ArialMT-70" x="1033.935547"/>
      <use xlink:href="#ArialMT-6f" x="1089.550781"/>
      <use xlink:href="#ArialMT-6e" x="1145.166016"/>
     </g>
    </g>
   </g>
   <g id="matplotlib.axis_2">
    <g id="ytick_1">
     <g id="line2d_13">
      <path d="M 54.2 391.48 
L 565.2 391.48 
" clip-path="url(#pa6c1febc3f)" style="fill: none; stroke: #ffffff; stroke-linecap: round"/>
     </g>
     <g id="line2d_14"/>
     <g id="text_8">
      <!-- 0 -->
      <g style="fill: #262626" transform="translate(41.639063 395.058906) scale(0.1 -0.1)">
       <use xlink:href="#ArialMT-30"/>
      </g>
     </g>
    </g>
    <g id="ytick_2">
     <g id="line2d_15">
      <path d="M 54.2 348.543815 
L 565.2 348.543815 
" clip-path="url(#pa6c1febc3f)" style="fill: none; stroke: #ffffff; stroke-linecap: round"/>
     </g>
     <g id="line2d_16"/>
     <g id="text_9">
      <!-- 1000 -->
      <g style="fill: #262626" transform="translate(24.95625 352.122721) scale(0.1 -0.1)">
       <use xlink:href="#ArialMT-31"/>
       <use xlink:href="#ArialMT-30" x="55.615234"/>
       <use xlink:href="#ArialMT-30" x="111.230469"/>
       <use xlink:href="#ArialMT-30" x="166.845703"/>
      </g>
     </g>
    </g>
    <g id="ytick_3">
     <g id="line2d_17">
      <path d="M 54.2 305.607629 
L 565.2 305.607629 
" clip-path="url(#pa6c1febc3f)" style="fill: none; stroke: #ffffff; stroke-linecap: round"/>
     </g>
     <g id="line2d_18"/>
     <g id="text_10">
      <!-- 2000 -->
      <g style="fill: #262626" transform="translate(24.95625 309.186536) scale(0.1 -0.1)">
       <use xlink:href="#ArialMT-32"/>
       <use xlink:href="#ArialMT-30" x="55.615234"/>
       <use xlink:href="#ArialMT-30" x="111.230469"/>
       <use xlink:href="#ArialMT-30" x="166.845703"/>
      </g>
     </g>
    </g>
    <g id="ytick_4">
     <g id="line2d_19">
      <path d="M 54.2 262.671444 
L 565.2 262.671444 
" clip-path="url(#pa6c1febc3f)" style="fill: none; stroke: #ffffff; stroke-linecap: round"/>
     </g>
     <g id="line2d_20"/>
     <g id="text_11">
      <!-- 3000 -->
      <g style="fill: #262626" transform="translate(24.95625 266.25035) scale(0.1 -0.1)">
       <defs>
        <path id="ArialMT-33" d="M 269 1209 
L 831 1284 
Q 928 806 1161 595 
Q 1394 384 1728 384 
Q 2125 384 2398 659 
Q 2672 934 2672 1341 
Q 2672 1728 2419 1979 
Q 2166 2231 1775 2231 
Q 1616 2231 1378 2169 
L 1441 2663 
Q 1497 2656 1531 2656 
Q 1891 2656 2178 2843 
Q 2466 3031 2466 3422 
Q 2466 3731 2256 3934 
Q 2047 4138 1716 4138 
Q 1388 4138 1169 3931 
Q 950 3725 888 3313 
L 325 3413 
Q 428 3978 793 4289 
Q 1159 4600 1703 4600 
Q 2078 4600 2393 4439 
Q 2709 4278 2876 4000 
Q 3044 3722 3044 3409 
Q 3044 3113 2884 2869 
Q 2725 2625 2413 2481 
Q 2819 2388 3044 2092 
Q 3269 1797 3269 1353 
Q 3269 753 2831 336 
Q 2394 -81 1725 -81 
Q 1122 -81 723 278 
Q 325 638 269 1209 
z
" transform="scale(0.015625)"/>
       </defs>
       <use xlink:href="#ArialMT-33"/>
       <use xlink:href="#ArialMT-30" x="55.615234"/>
       <use xlink:href="#ArialMT-30" x="111.230469"/>
       <use xlink:href="#ArialMT-30" x="166.845703"/>
      </g>
     </g>
    </g>
    <g id="ytick_5">
     <g id="line2d_21">
      <path d="M 54.2 219.735259 
L 565.2 219.735259 
" clip-path="url(#pa6c1febc3f)" style="fill: none; stroke: #ffffff; stroke-linecap: round"/>
     </g>
     <g id="line2d_22"/>
     <g id="text_12">
      <!-- 4000 -->
      <g style="fill: #262626" transform="translate(24.95625 223.314165) scale(0.1 -0.1)">
       <use xlink:href="#ArialMT-34"/>
       <use xlink:href="#ArialMT-30" x="55.615234"/>
       <use xlink:href="#ArialMT-30" x="111.230469"/>
       <use xlink:href="#ArialMT-30" x="166.845703"/>
      </g>
     </g>
    </g>
    <g id="ytick_6">
     <g id="line2d_23">
      <path d="M 54.2 176.799073 
L 565.2 176.799073 
" clip-path="url(#pa6c1febc3f)" style="fill: none; stroke: #ffffff; stroke-linecap: round"/>
     </g>
     <g id="line2d_24"/>
     <g id="text_13">
      <!-- 5000 -->
      <g style="fill: #262626" transform="translate(24.95625 180.37798) scale(0.1 -0.1)">
       <defs>
        <path id="ArialMT-35" d="M 266 1200 
L 856 1250 
Q 922 819 1161 601 
Q 1400 384 1738 384 
Q 2144 384 2425 690 
Q 2706 997 2706 1503 
Q 2706 1984 2436 2262 
Q 2166 2541 1728 2541 
Q 1456 2541 1237 2417 
Q 1019 2294 894 2097 
L 366 2166 
L 809 4519 
L 3088 4519 
L 3088 3981 
L 1259 3981 
L 1013 2750 
Q 1425 3038 1878 3038 
Q 2478 3038 2890 2622 
Q 3303 2206 3303 1553 
Q 3303 931 2941 478 
Q 2500 -78 1738 -78 
Q 1113 -78 717 272 
Q 322 622 266 1200 
z
" transform="scale(0.015625)"/>
       </defs>
       <use xlink:href="#ArialMT-35"/>
       <use xlink:href="#ArialMT-30" x="55.615234"/>
       <use xlink:href="#ArialMT-30" x="111.230469"/>
       <use xlink:href="#ArialMT-30" x="166.845703"/>
      </g>
     </g>
    </g>
    <g id="ytick_7">
     <g id="line2d_25">
      <path d="M 54.2 133.862888 
L 565.2 133.862888 
" clip-path="url(#pa6c1febc3f)" style="fill: none; stroke: #ffffff; stroke-linecap: round"/>
     </g>
     <g id="line2d_26"/>
     <g id="text_14">
      <!-- 6000 -->
      <g style="fill: #262626" transform="translate(24.95625 137.441794) scale(0.1 -0.1)">
       <use xlink:href="#ArialMT-36"/>
       <use xlink:href="#ArialMT-30" x="55.615234"/>
       <use xlink:href="#ArialMT-30" x="111.230469"/>
       <use xlink:href="#ArialMT-30" x="166.845703"/>
      </g>
     </g>
    </g>
    <g id="ytick_8">
     <g id="line2d_27">
      <path d="M 54.2 90.926703 
L 565.2 90.926703 
" clip-path="url(#pa6c1febc3f)" style="fill: none; stroke: #ffffff; stroke-linecap: round"/>
     </g>
     <g id="line2d_28"/>
     <g id="text_15">
      <!-- 7000 -->
      <g style="fill: #262626" transform="translate(24.95625 94.505609) scale(0.1 -0.1)">
       <defs>
        <path id="ArialMT-37" d="M 303 3981 
L 303 4522 
L 3269 4522 
L 3269 4084 
Q 2831 3619 2401 2847 
Q 1972 2075 1738 1259 
Q 1569 684 1522 0 
L 944 0 
Q 953 541 1156 1306 
Q 1359 2072 1739 2783 
Q 2119 3494 2547 3981 
L 303 3981 
z
" transform="scale(0.015625)"/>
       </defs>
       <use xlink:href="#ArialMT-37"/>
       <use xlink:href="#ArialMT-30" x="55.615234"/>
       <use xlink:href="#ArialMT-30" x="111.230469"/>
       <use xlink:href="#ArialMT-30" x="166.845703"/>
      </g>
     </g>
    </g>
    <g id="ytick_9">
     <g id="line2d_29">
      <path d="M 54.2 47.990517 
L 565.2 47.990517 
" clip-path="url(#pa6c1febc3f)" style="fill: none; stroke: #ffffff; stroke-linecap: round"/>
     </g>
     <g id="line2d_30"/>
     <g id="text_16">
      <!-- 8000 -->
      <g style="fill: #262626" transform="translate(24.95625 51.569424) scale(0.1 -0.1)">
       <use xlink:href="#ArialMT-38"/>
       <use xlink:href="#ArialMT-30" x="55.615234"/>
       <use xlink:href="#ArialMT-30" x="111.230469"/>
       <use xlink:href="#ArialMT-30" x="166.845703"/>
      </g>
     </g>
    </g>
    <g id="text_17">
     <!-- Customer count -->
     <g style="fill: #262626" transform="translate(18.77 247.307813) rotate(-90) scale(0.11 -0.11)">
      <defs>
       <path id="ArialMT-43" d="M 3763 1606 
L 4369 1453 
Q 4178 706 3683 314 
Q 3188 -78 2472 -78 
Q 1731 -78 1267 223 
Q 803 525 561 1097 
Q 319 1669 319 2325 
Q 319 3041 592 3573 
Q 866 4106 1370 4382 
Q 1875 4659 2481 4659 
Q 3169 4659 3637 4309 
Q 4106 3959 4291 3325 
L 3694 3184 
Q 3534 3684 3231 3912 
Q 2928 4141 2469 4141 
Q 1941 4141 1586 3887 
Q 1231 3634 1087 3207 
Q 944 2781 944 2328 
Q 944 1744 1114 1308 
Q 1284 872 1643 656 
Q 2003 441 2422 441 
Q 2931 441 3284 734 
Q 3638 1028 3763 1606 
z
" transform="scale(0.015625)"/>
       <path id="ArialMT-6d" d="M 422 0 
L 422 3319 
L 925 3319 
L 925 2853 
Q 1081 3097 1340 3245 
Q 1600 3394 1931 3394 
Q 2300 3394 2536 3241 
Q 2772 3088 2869 2813 
Q 3263 3394 3894 3394 
Q 4388 3394 4653 3120 
Q 4919 2847 4919 2278 
L 4919 0 
L 4359 0 
L 4359 2091 
Q 4359 2428 4304 2576 
Q 4250 2725 4106 2815 
Q 3963 2906 3769 2906 
Q 3419 2906 3187 2673 
Q 2956 2441 2956 1928 
L 2956 0 
L 2394 0 
L 2394 2156 
Q 2394 2531 2256 2718 
Q 2119 2906 1806 2906 
Q 1569 2906 1367 2781 
Q 1166 2656 1075 2415 
Q 984 2175 984 1722 
L 984 0 
L 422 0 
z
" transform="scale(0.015625)"/>
       <path id="ArialMT-65" d="M 2694 1069 
L 3275 997 
Q 3138 488 2766 206 
Q 2394 -75 1816 -75 
Q 1088 -75 661 373 
Q 234 822 234 1631 
Q 234 2469 665 2931 
Q 1097 3394 1784 3394 
Q 2450 3394 2872 2941 
Q 3294 2488 3294 1666 
Q 3294 1616 3291 1516 
L 816 1516 
Q 847 969 1125 678 
Q 1403 388 1819 388 
Q 2128 388 2347 550 
Q 2566 713 2694 1069 
z
M 847 1978 
L 2700 1978 
Q 2663 2397 2488 2606 
Q 2219 2931 1791 2931 
Q 1403 2931 1139 2672 
Q 875 2413 847 1978 
z
" transform="scale(0.015625)"/>
      </defs>
      <use xlink:href="#ArialMT-43"/>
      <use xlink:href="#ArialMT-75" x="72.216797"/>
      <use xlink:href="#ArialMT-73" x="127.832031"/>
      <use xlink:href="#ArialMT-74" x="177.832031"/>
      <use xlink:href="#ArialMT-6f" x="205.615234"/>
      <use xlink:href="#ArialMT-6d" x="261.230469"/>
      <use xlink:href="#ArialMT-65" x="344.53125"/>
      <use xlink:href="#ArialMT-72" x="400.146484"/>
      <use xlink:href="#ArialMT-20" x="433.447266"/>
      <use xlink:href="#ArialMT-63" x="461.230469"/>
      <use xlink:href="#ArialMT-6f" x="511.230469"/>
      <use xlink:href="#ArialMT-75" x="566.845703"/>
      <use xlink:href="#ArialMT-6e" x="622.460938"/>
      <use xlink:href="#ArialMT-74" x="678.076172"/>
     </g>
    </g>
   </g>
   <g id="patch_3">
    <path d="M 77.427273 391.48 
L 79.75 391.48 
L 79.75 391.394128 
L 77.427273 391.394128 
z
" clip-path="url(#pa6c1febc3f)" style="fill: #00ced1"/>
   </g>
   <g id="patch_4">
    <path d="M 79.75 391.48 
L 82.072727 391.48 
L 82.072727 391.394128 
L 79.75 391.394128 
z
" clip-path="url(#pa6c1febc3f)" style="fill: #00ced1"/>
   </g>
   <g id="patch_5">
    <path d="M 82.072727 391.48 
L 84.395455 391.48 
L 84.395455 391.351191 
L 82.072727 391.351191 
z
" clip-path="url(#pa6c1febc3f)" style="fill: #00ced1"/>
   </g>
   <g id="patch_6">
    <path d="M 84.395455 391.48 
L 86.718182 391.48 
L 86.718182 391.351191 
L 84.395455 391.351191 
z
" clip-path="url(#pa6c1febc3f)" style="fill: #00ced1"/>
   </g>
   <g id="patch_7">
    <path d="M 86.718182 391.48 
L 89.040909 391.48 
L 89.040909 391.179447 
L 86.718182 391.179447 
z
" clip-path="url(#pa6c1febc3f)" style="fill: #00ced1"/>
   </g>
   <g id="patch_8">
    <path d="M 89.040909 391.48 
L 91.363636 391.48 
L 91.363636 391.308255 
L 89.040909 391.308255 
z
" clip-path="url(#pa6c1febc3f)" style="fill: #00ced1"/>
   </g>
   <g id="patch_9">
    <path d="M 91.363636 391.48 
L 93.686364 391.48 
L 93.686364 391.179447 
L 91.363636 391.179447 
z
" clip-path="url(#pa6c1febc3f)" style="fill: #00ced1"/>
   </g>
   <g id="patch_10">
    <path d="M 93.686364 391.48 
L 96.009091 391.48 
L 96.009091 391.136511 
L 93.686364 391.136511 
z
" clip-path="url(#pa6c1febc3f)" style="fill: #00ced1"/>
   </g>
   <g id="patch_11">
    <path d="M 96.009091 391.48 
L 98.331818 391.48 
L 98.331818 391.265319 
L 96.009091 391.265319 
z
" clip-path="url(#pa6c1febc3f)" style="fill: #00ced1"/>
   </g>
   <g id="patch_12">
    <path d="M 98.331818 391.48 
L 100.654545 391.48 
L 100.654545 391.136511 
L 98.331818 391.136511 
z
" clip-path="url(#pa6c1febc3f)" style="fill: #00ced1"/>
   </g>
   <g id="patch_13">
    <path d="M 100.654545 391.48 
L 102.977273 391.48 
L 102.977273 391.394128 
L 100.654545 391.394128 
z
" clip-path="url(#pa6c1febc3f)" style="fill: #00ced1"/>
   </g>
   <g id="patch_14">
    <path d="M 102.977273 391.48 
L 105.3 391.48 
L 105.3 391.179447 
L 102.977273 391.179447 
z
" clip-path="url(#pa6c1febc3f)" style="fill: #00ced1"/>
   </g>
   <g id="patch_15">
    <path d="M 105.3 391.48 
L 107.622727 391.48 
L 107.622727 391.007702 
L 105.3 391.007702 
z
" clip-path="url(#pa6c1febc3f)" style="fill: #00ced1"/>
   </g>
   <g id="patch_16">
    <path d="M 107.622727 391.48 
L 109.945455 391.48 
L 109.945455 391.351191 
L 107.622727 391.351191 
z
" clip-path="url(#pa6c1febc3f)" style="fill: #00ced1"/>
   </g>
   <g id="patch_17">
    <path d="M 109.945455 391.48 
L 112.268182 391.48 
L 112.268182 390.92183 
L 109.945455 390.92183 
z
" clip-path="url(#pa6c1febc3f)" style="fill: #00ced1"/>
   </g>
   <g id="patch_18">
    <path d="M 112.268182 391.48 
L 114.590909 391.48 
L 114.590909 391.136511 
L 112.268182 391.136511 
z
" clip-path="url(#pa6c1febc3f)" style="fill: #00ced1"/>
   </g>
   <g id="patch_19">
    <path d="M 114.590909 391.48 
L 116.913636 391.48 
L 116.913636 391.308255 
L 114.590909 391.308255 
z
" clip-path="url(#pa6c1febc3f)" style="fill: #00ced1"/>
   </g>
   <g id="patch_20">
    <path d="M 116.913636 391.48 
L 119.236364 391.48 
L 119.236364 390.964766 
L 116.913636 390.964766 
z
" clip-path="url(#pa6c1febc3f)" style="fill: #00ced1"/>
   </g>
   <g id="patch_21">
    <path d="M 119.236364 391.48 
L 121.559091 391.48 
L 121.559091 391.136511 
L 119.236364 391.136511 
z
" clip-path="url(#pa6c1febc3f)" style="fill: #00ced1"/>
   </g>
   <g id="patch_22">
    <path d="M 121.559091 391.48 
L 123.881818 391.48 
L 123.881818 390.750085 
L 121.559091 390.750085 
z
" clip-path="url(#pa6c1febc3f)" style="fill: #00ced1"/>
   </g>
   <g id="patch_23">
    <path d="M 123.881818 391.48 
L 126.204545 391.48 
L 126.204545 390.750085 
L 123.881818 390.750085 
z
" clip-path="url(#pa6c1febc3f)" style="fill: #00ced1"/>
   </g>
   <g id="patch_24">
    <path d="M 126.204545 391.48 
L 128.527273 391.48 
L 128.527273 390.964766 
L 126.204545 390.964766 
z
" clip-path="url(#pa6c1febc3f)" style="fill: #00ced1"/>
   </g>
   <g id="patch_25">
    <path d="M 128.527273 391.48 
L 130.85 391.48 
L 130.85 391.136511 
L 128.527273 391.136511 
z
" clip-path="url(#pa6c1febc3f)" style="fill: #00ced1"/>
   </g>
   <g id="patch_26">
    <path d="M 130.85 391.48 
L 133.172727 391.48 
L 133.172727 390.621276 
L 130.85 390.621276 
z
" clip-path="url(#pa6c1febc3f)" style="fill: #00ced1"/>
   </g>
   <g id="patch_27">
    <path d="M 133.172727 391.48 
L 135.495455 391.48 
L 135.495455 390.878893 
L 133.172727 390.878893 
z
" clip-path="url(#pa6c1febc3f)" style="fill: #00ced1"/>
   </g>
   <g id="patch_28">
    <path d="M 135.495455 391.48 
L 137.818182 391.48 
L 137.818182 390.621276 
L 135.495455 390.621276 
z
" clip-path="url(#pa6c1febc3f)" style="fill: #00ced1"/>
   </g>
   <g id="patch_29">
    <path d="M 137.818182 391.48 
L 140.140909 391.48 
L 140.140909 390.793021 
L 137.818182 390.793021 
z
" clip-path="url(#pa6c1febc3f)" style="fill: #00ced1"/>
   </g>
   <g id="patch_30">
    <path d="M 140.140909 391.48 
L 142.463636 391.48 
L 142.463636 390.492468 
L 140.140909 390.492468 
z
" clip-path="url(#pa6c1febc3f)" style="fill: #00ced1"/>
   </g>
   <g id="patch_31">
    <path d="M 142.463636 391.48 
L 144.786364 391.48 
L 144.786364 390.535404 
L 142.463636 390.535404 
z
" clip-path="url(#pa6c1febc3f)" style="fill: #00ced1"/>
   </g>
   <g id="patch_32">
    <path d="M 144.786364 391.48 
L 147.109091 391.48 
L 147.109091 390.234851 
L 144.786364 390.234851 
z
" clip-path="url(#pa6c1febc3f)" style="fill: #00ced1"/>
   </g>
   <g id="patch_33">
    <path d="M 147.109091 391.48 
L 149.431818 391.48 
L 149.431818 390.277787 
L 147.109091 390.277787 
z
" clip-path="url(#pa6c1febc3f)" style="fill: #00ced1"/>
   </g>
   <g id="patch_34">
    <path d="M 149.431818 391.48 
L 151.754545 391.48 
L 151.754545 390.707149 
L 149.431818 390.707149 
z
" clip-path="url(#pa6c1febc3f)" style="fill: #00ced1"/>
   </g>
   <g id="patch_35">
    <path d="M 151.754545 391.48 
L 154.077273 391.48 
L 154.077273 389.934297 
L 151.754545 389.934297 
z
" clip-path="url(#pa6c1febc3f)" style="fill: #00ced1"/>
   </g>
   <g id="patch_36">
    <path d="M 154.077273 391.48 
L 156.4 391.48 
L 156.4 389.719616 
L 154.077273 389.719616 
z
" clip-path="url(#pa6c1febc3f)" style="fill: #00ced1"/>
   </g>
   <g id="patch_37">
    <path d="M 156.4 391.48 
L 158.722727 391.48 
L 158.722727 389.461999 
L 156.4 389.461999 
z
" clip-path="url(#pa6c1febc3f)" style="fill: #00ced1"/>
   </g>
   <g id="patch_38">
    <path d="M 158.722727 391.48 
L 161.045455 391.48 
L 161.045455 389.719616 
L 158.722727 389.719616 
z
" clip-path="url(#pa6c1febc3f)" style="fill: #00ced1"/>
   </g>
   <g id="patch_39">
    <path d="M 161.045455 391.48 
L 163.368182 391.48 
L 163.368182 389.333191 
L 161.045455 389.333191 
z
" clip-path="url(#pa6c1febc3f)" style="fill: #00ced1"/>
   </g>
   <g id="patch_40">
    <path d="M 163.368182 391.48 
L 165.690909 391.48 
L 165.690909 389.848425 
L 163.368182 389.848425 
z
" clip-path="url(#pa6c1febc3f)" style="fill: #00ced1"/>
   </g>
   <g id="patch_41">
    <path d="M 165.690909 391.48 
L 168.013636 391.48 
L 168.013636 389.719616 
L 165.690909 389.719616 
z
" clip-path="url(#pa6c1febc3f)" style="fill: #00ced1"/>
   </g>
   <g id="patch_42">
    <path d="M 168.013636 391.48 
L 170.336364 391.48 
L 170.336364 389.11851 
L 168.013636 389.11851 
z
" clip-path="url(#pa6c1febc3f)" style="fill: #00ced1"/>
   </g>
   <g id="patch_43">
    <path d="M 170.336364 391.48 
L 172.659091 391.48 
L 172.659091 389.204382 
L 170.336364 389.204382 
z
" clip-path="url(#pa6c1febc3f)" style="fill: #00ced1"/>
   </g>
   <g id="patch_44">
    <path d="M 172.659091 391.48 
L 174.981818 391.48 
L 174.981818 389.547872 
L 172.659091 389.547872 
z
" clip-path="url(#pa6c1febc3f)" style="fill: #00ced1"/>
   </g>
   <g id="patch_45">
    <path d="M 174.981818 391.48 
L 177.304545 391.48 
L 177.304545 388.646212 
L 174.981818 388.646212 
z
" clip-path="url(#pa6c1febc3f)" style="fill: #00ced1"/>
   </g>
   <g id="patch_46">
    <path d="M 177.304545 391.48 
L 179.627273 391.48 
L 179.627273 389.547872 
L 177.304545 389.547872 
z
" clip-path="url(#pa6c1febc3f)" style="fill: #00ced1"/>
   </g>
   <g id="patch_47">
    <path d="M 179.627273 391.48 
L 181.95 391.48 
L 181.95 388.560339 
L 179.627273 388.560339 
z
" clip-path="url(#pa6c1febc3f)" style="fill: #00ced1"/>
   </g>
   <g id="patch_48">
    <path d="M 181.95 391.48 
L 184.272727 391.48 
L 184.272727 388.431531 
L 181.95 388.431531 
z
" clip-path="url(#pa6c1febc3f)" style="fill: #00ced1"/>
   </g>
   <g id="patch_49">
    <path d="M 184.272727 391.48 
L 186.595455 391.48 
L 186.595455 387.87336 
L 184.272727 387.87336 
z
" clip-path="url(#pa6c1febc3f)" style="fill: #00ced1"/>
   </g>
   <g id="patch_50">
    <path d="M 186.595455 391.48 
L 188.918182 391.48 
L 188.918182 388.817957 
L 186.595455 388.817957 
z
" clip-path="url(#pa6c1febc3f)" style="fill: #00ced1"/>
   </g>
   <g id="patch_51">
    <path d="M 188.918182 391.48 
L 191.240909 391.48 
L 191.240909 388.21685 
L 188.918182 388.21685 
z
" clip-path="url(#pa6c1febc3f)" style="fill: #00ced1"/>
   </g>
   <g id="patch_52">
    <path d="M 191.240909 391.48 
L 193.563636 391.48 
L 193.563636 386.799956 
L 191.240909 386.799956 
z
" clip-path="url(#pa6c1febc3f)" style="fill: #00ced1"/>
   </g>
   <g id="patch_53">
    <path d="M 193.563636 391.48 
L 195.886364 391.48 
L 195.886364 387.31519 
L 193.563636 387.31519 
z
" clip-path="url(#pa6c1febc3f)" style="fill: #00ced1"/>
   </g>
   <g id="patch_54">
    <path d="M 195.886364 391.48 
L 198.209091 391.48 
L 198.209091 387.229318 
L 195.886364 387.229318 
z
" clip-path="url(#pa6c1febc3f)" style="fill: #00ced1"/>
   </g>
   <g id="patch_55">
    <path d="M 198.209091 391.48 
L 200.531818 391.48 
L 200.531818 387.443999 
L 198.209091 387.443999 
z
" clip-path="url(#pa6c1febc3f)" style="fill: #00ced1"/>
   </g>
   <g id="patch_56">
    <path d="M 200.531818 391.48 
L 202.854545 391.48 
L 202.854545 387.014637 
L 200.531818 387.014637 
z
" clip-path="url(#pa6c1febc3f)" style="fill: #00ced1"/>
   </g>
   <g id="patch_57">
    <path d="M 202.854545 391.48 
L 205.177273 391.48 
L 205.177273 387.31519 
L 202.854545 387.31519 
z
" clip-path="url(#pa6c1febc3f)" style="fill: #00ced1"/>
   </g>
   <g id="patch_58">
    <path d="M 205.177273 391.48 
L 207.5 391.48 
L 207.5 386.75702 
L 205.177273 386.75702 
z
" clip-path="url(#pa6c1febc3f)" style="fill: #00ced1"/>
   </g>
   <g id="patch_59">
    <path d="M 207.5 391.48 
L 209.822727 391.48 
L 209.822727 385.211317 
L 207.5 385.211317 
z
" clip-path="url(#pa6c1febc3f)" style="fill: #00ced1"/>
   </g>
   <g id="patch_60">
    <path d="M 209.822727 391.48 
L 212.145455 391.48 
L 212.145455 385.769487 
L 209.822727 385.769487 
z
" clip-path="url(#pa6c1febc3f)" style="fill: #00ced1"/>
   </g>
   <g id="patch_61">
    <path d="M 212.145455 391.48 
L 214.468182 391.48 
L 214.468182 385.168381 
L 212.145455 385.168381 
z
" clip-path="url(#pa6c1febc3f)" style="fill: #00ced1"/>
   </g>
   <g id="patch_62">
    <path d="M 214.468182 391.48 
L 216.790909 391.48 
L 216.790909 385.082508 
L 214.468182 385.082508 
z
" clip-path="url(#pa6c1febc3f)" style="fill: #00ced1"/>
   </g>
   <g id="patch_63">
    <path d="M 216.790909 391.48 
L 219.113636 391.48 
L 219.113636 382.892763 
L 216.790909 382.892763 
z
" clip-path="url(#pa6c1febc3f)" style="fill: #00ced1"/>
   </g>
   <g id="patch_64">
    <path d="M 219.113636 391.48 
L 221.436364 391.48 
L 221.436364 384.309657 
L 219.113636 384.309657 
z
" clip-path="url(#pa6c1febc3f)" style="fill: #00ced1"/>
   </g>
   <g id="patch_65">
    <path d="M 221.436364 391.48 
L 223.759091 391.48 
L 223.759091 382.377529 
L 221.436364 382.377529 
z
" clip-path="url(#pa6c1febc3f)" style="fill: #00ced1"/>
   </g>
   <g id="patch_66">
    <path d="M 223.759091 391.48 
L 226.081818 391.48 
L 226.081818 383.193316 
L 223.759091 383.193316 
z
" clip-path="url(#pa6c1febc3f)" style="fill: #00ced1"/>
   </g>
   <g id="patch_67">
    <path d="M 226.081818 391.48 
L 228.404545 391.48 
L 228.404545 382.635146 
L 226.081818 382.635146 
z
" clip-path="url(#pa6c1febc3f)" style="fill: #00ced1"/>
   </g>
   <g id="patch_68">
    <path d="M 228.404545 391.48 
L 230.727273 391.48 
L 230.727273 383.107444 
L 228.404545 383.107444 
z
" clip-path="url(#pa6c1febc3f)" style="fill: #00ced1"/>
   </g>
   <g id="patch_69">
    <path d="M 230.727273 391.48 
L 233.05 391.48 
L 233.05 382.24872 
L 230.727273 382.24872 
z
" clip-path="url(#pa6c1febc3f)" style="fill: #00ced1"/>
   </g>
   <g id="patch_70">
    <path d="M 233.05 391.48 
L 235.372727 391.48 
L 235.372727 382.034039 
L 233.05 382.034039 
z
" clip-path="url(#pa6c1febc3f)" style="fill: #00ced1"/>
   </g>
   <g id="patch_71">
    <path d="M 235.372727 391.48 
L 237.695455 391.48 
L 237.695455 381.003571 
L 235.372727 381.003571 
z
" clip-path="url(#pa6c1febc3f)" style="fill: #00ced1"/>
   </g>
   <g id="patch_72">
    <path d="M 237.695455 391.48 
L 240.018182 391.48 
L 240.018182 380.531273 
L 237.695455 380.531273 
z
" clip-path="url(#pa6c1febc3f)" style="fill: #00ced1"/>
   </g>
   <g id="patch_73">
    <path d="M 240.018182 391.48 
L 242.340909 391.48 
L 242.340909 379.586677 
L 240.018182 379.586677 
z
" clip-path="url(#pa6c1febc3f)" style="fill: #00ced1"/>
   </g>
   <g id="patch_74">
    <path d="M 242.340909 391.48 
L 244.663636 391.48 
L 244.663636 379.973102 
L 242.340909 379.973102 
z
" clip-path="url(#pa6c1febc3f)" style="fill: #00ced1"/>
   </g>
   <g id="patch_75">
    <path d="M 244.663636 391.48 
L 246.986364 391.48 
L 246.986364 378.942634 
L 244.663636 378.942634 
z
" clip-path="url(#pa6c1febc3f)" style="fill: #00ced1"/>
   </g>
   <g id="patch_76">
    <path d="M 246.986364 391.48 
L 249.309091 391.48 
L 249.309091 376.709952 
L 246.986364 376.709952 
z
" clip-path="url(#pa6c1febc3f)" style="fill: #00ced1"/>
   </g>
   <g id="patch_77">
    <path d="M 249.309091 391.48 
L 251.631818 391.48 
L 251.631818 375.851229 
L 249.309091 375.851229 
z
" clip-path="url(#pa6c1febc3f)" style="fill: #00ced1"/>
   </g>
   <g id="patch_78">
    <path d="M 251.631818 391.48 
L 253.954545 391.48 
L 253.954545 376.409399 
L 251.631818 376.409399 
z
" clip-path="url(#pa6c1febc3f)" style="fill: #00ced1"/>
   </g>
   <g id="patch_79">
    <path d="M 253.954545 391.48 
L 256.277273 391.48 
L 256.277273 375.250122 
L 253.954545 375.250122 
z
" clip-path="url(#pa6c1febc3f)" style="fill: #00ced1"/>
   </g>
   <g id="patch_80">
    <path d="M 256.277273 391.48 
L 258.6 391.48 
L 258.6 374.477271 
L 256.277273 374.477271 
z
" clip-path="url(#pa6c1febc3f)" style="fill: #00ced1"/>
   </g>
   <g id="patch_81">
    <path d="M 258.6 391.48 
L 260.922727 391.48 
L 260.922727 372.931568 
L 258.6 372.931568 
z
" clip-path="url(#pa6c1febc3f)" style="fill: #00ced1"/>
   </g>
   <g id="patch_82">
    <path d="M 260.922727 391.48 
L 263.245455 391.48 
L 263.245455 371.171184 
L 260.922727 371.171184 
z
" clip-path="url(#pa6c1febc3f)" style="fill: #00ced1"/>
   </g>
   <g id="patch_83">
    <path d="M 263.245455 391.48 
L 265.568182 391.48 
L 265.568182 371.772291 
L 263.245455 371.772291 
z
" clip-path="url(#pa6c1febc3f)" style="fill: #00ced1"/>
   </g>
   <g id="patch_84">
    <path d="M 265.568182 391.48 
L 267.890909 391.48 
L 267.890909 371.55761 
L 265.568182 371.55761 
z
" clip-path="url(#pa6c1febc3f)" style="fill: #00ced1"/>
   </g>
   <g id="patch_85">
    <path d="M 267.890909 391.48 
L 270.213636 391.48 
L 270.213636 368.509141 
L 267.890909 368.509141 
z
" clip-path="url(#pa6c1febc3f)" style="fill: #00ced1"/>
   </g>
   <g id="patch_86">
    <path d="M 270.213636 391.48 
L 272.536364 391.48 
L 272.536364 366.705821 
L 270.213636 366.705821 
z
" clip-path="url(#pa6c1febc3f)" style="fill: #00ced1"/>
   </g>
   <g id="patch_87">
    <path d="M 272.536364 391.48 
L 274.859091 391.48 
L 274.859091 366.791693 
L 272.536364 366.791693 
z
" clip-path="url(#pa6c1febc3f)" style="fill: #00ced1"/>
   </g>
   <g id="patch_88">
    <path d="M 274.859091 391.48 
L 277.181818 391.48 
L 277.181818 365.417736 
L 274.859091 365.417736 
z
" clip-path="url(#pa6c1febc3f)" style="fill: #00ced1"/>
   </g>
   <g id="patch_89">
    <path d="M 277.181818 391.48 
L 279.504545 391.48 
L 279.504545 368.208588 
L 277.181818 368.208588 
z
" clip-path="url(#pa6c1febc3f)" style="fill: #00ced1"/>
   </g>
   <g id="patch_90">
    <path d="M 279.504545 391.48 
L 281.827273 391.48 
L 281.827273 365.417736 
L 279.504545 365.417736 
z
" clip-path="url(#pa6c1febc3f)" style="fill: #00ced1"/>
   </g>
   <g id="patch_91">
    <path d="M 281.827273 391.48 
L 284.15 391.48 
L 284.15 363.313862 
L 281.827273 363.313862 
z
" clip-path="url(#pa6c1febc3f)" style="fill: #00ced1"/>
   </g>
   <g id="patch_92">
    <path d="M 284.15 391.48 
L 286.472727 391.48 
L 286.472727 361.854032 
L 284.15 361.854032 
z
" clip-path="url(#pa6c1febc3f)" style="fill: #00ced1"/>
   </g>
   <g id="patch_93">
    <path d="M 286.472727 391.48 
L 288.795455 391.48 
L 288.795455 360.608883 
L 286.472727 360.608883 
z
" clip-path="url(#pa6c1febc3f)" style="fill: #00ced1"/>
   </g>
   <g id="patch_94">
    <path d="M 288.795455 391.48 
L 291.118182 391.48 
L 291.118182 360.222457 
L 288.795455 360.222457 
z
" clip-path="url(#pa6c1febc3f)" style="fill: #00ced1"/>
   </g>
   <g id="patch_95">
    <path d="M 291.118182 391.48 
L 293.440909 391.48 
L 293.440909 357.517477 
L 291.118182 357.517477 
z
" clip-path="url(#pa6c1febc3f)" style="fill: #00ced1"/>
   </g>
   <g id="patch_96">
    <path d="M 293.440909 391.48 
L 295.763636 391.48 
L 295.763636 354.469008 
L 293.440909 354.469008 
z
" clip-path="url(#pa6c1febc3f)" style="fill: #00ced1"/>
   </g>
   <g id="patch_97">
    <path d="M 295.763636 391.48 
L 298.086364 391.48 
L 298.086364 355.284796 
L 295.763636 355.284796 
z
" clip-path="url(#pa6c1febc3f)" style="fill: #00ced1"/>
   </g>
   <g id="patch_98">
    <path d="M 298.086364 391.48 
L 300.409091 391.48 
L 300.409091 352.837433 
L 298.086364 352.837433 
z
" clip-path="url(#pa6c1febc3f)" style="fill: #00ced1"/>
   </g>
   <g id="patch_99">
    <path d="M 300.409091 391.48 
L 302.731818 391.48 
L 302.731818 349.531347 
L 300.409091 349.531347 
z
" clip-path="url(#pa6c1febc3f)" style="fill: #00ced1"/>
   </g>
   <g id="patch_100">
    <path d="M 302.731818 391.48 
L 305.054545 391.48 
L 305.054545 349.917773 
L 302.731818 349.917773 
z
" clip-path="url(#pa6c1febc3f)" style="fill: #00ced1"/>
   </g>
   <g id="patch_101">
    <path d="M 305.054545 391.48 
L 307.377273 391.48 
L 307.377273 348.93024 
L 305.054545 348.93024 
z
" clip-path="url(#pa6c1febc3f)" style="fill: #00ced1"/>
   </g>
   <g id="patch_102">
    <path d="M 307.377273 391.48 
L 309.7 391.48 
L 309.7 346.268197 
L 307.377273 346.268197 
z
" clip-path="url(#pa6c1febc3f)" style="fill: #00ced1"/>
   </g>
   <g id="patch_103">
    <path d="M 309.7 391.48 
L 312.022727 391.48 
L 312.022727 343.3056 
L 309.7 343.3056 
z
" clip-path="url(#pa6c1febc3f)" style="fill: #00ced1"/>
   </g>
   <g id="patch_104">
    <path d="M 312.022727 391.48 
L 314.345455 391.48 
L 314.345455 342.532749 
L 312.022727 342.532749 
z
" clip-path="url(#pa6c1febc3f)" style="fill: #00ced1"/>
   </g>
   <g id="patch_105">
    <path d="M 314.345455 391.48 
L 316.668182 391.48 
L 316.668182 340.729429 
L 314.345455 340.729429 
z
" clip-path="url(#pa6c1febc3f)" style="fill: #00ced1"/>
   </g>
   <g id="patch_106">
    <path d="M 316.668182 391.48 
L 318.990909 391.48 
L 318.990909 336.822236 
L 316.668182 336.822236 
z
" clip-path="url(#pa6c1febc3f)" style="fill: #00ced1"/>
   </g>
   <g id="patch_107">
    <path d="M 318.990909 391.48 
L 321.313636 391.48 
L 321.313636 336.736364 
L 318.990909 336.736364 
z
" clip-path="url(#pa6c1febc3f)" style="fill: #00ced1"/>
   </g>
   <g id="patch_108">
    <path d="M 321.313636 391.48 
L 323.636364 391.48 
L 323.636364 336.006449 
L 321.313636 336.006449 
z
" clip-path="url(#pa6c1febc3f)" style="fill: #00ced1"/>
   </g>
   <g id="patch_109">
    <path d="M 323.636364 391.48 
L 325.959091 391.48 
L 325.959091 331.927511 
L 323.636364 331.927511 
z
" clip-path="url(#pa6c1febc3f)" style="fill: #00ced1"/>
   </g>
   <g id="patch_110">
    <path d="M 325.959091 391.48 
L 328.281818 391.48 
L 328.281818 330.253 
L 325.959091 330.253 
z
" clip-path="url(#pa6c1febc3f)" style="fill: #00ced1"/>
   </g>
   <g id="patch_111">
    <path d="M 328.281818 391.48 
L 330.604545 391.48 
L 330.604545 323.469082 
L 328.281818 323.469082 
z
" clip-path="url(#pa6c1febc3f)" style="fill: #00ced1"/>
   </g>
   <g id="patch_112">
    <path d="M 330.604545 391.48 
L 332.927273 391.48 
L 332.927273 323.297338 
L 330.604545 323.297338 
z
" clip-path="url(#pa6c1febc3f)" style="fill: #00ced1"/>
   </g>
   <g id="patch_113">
    <path d="M 332.927273 391.48 
L 335.25 391.48 
L 335.25 320.12006 
L 332.927273 320.12006 
z
" clip-path="url(#pa6c1febc3f)" style="fill: #00ced1"/>
   </g>
   <g id="patch_114">
    <path d="M 335.25 391.48 
L 337.572727 391.48 
L 337.572727 319.433081 
L 335.25 319.433081 
z
" clip-path="url(#pa6c1febc3f)" style="fill: #00ced1"/>
   </g>
   <g id="patch_115">
    <path d="M 337.572727 391.48 
L 339.895455 391.48 
L 339.895455 320.12006 
L 337.572727 320.12006 
z
" clip-path="url(#pa6c1febc3f)" style="fill: #00ced1"/>
   </g>
   <g id="patch_116">
    <path d="M 339.895455 391.48 
L 342.218182 391.48 
L 342.218182 316.51342 
L 339.895455 316.51342 
z
" clip-path="url(#pa6c1febc3f)" style="fill: #00ced1"/>
   </g>
   <g id="patch_117">
    <path d="M 342.218182 391.48 
L 344.540909 391.48 
L 344.540909 311.404014 
L 342.218182 311.404014 
z
" clip-path="url(#pa6c1febc3f)" style="fill: #00ced1"/>
   </g>
   <g id="patch_118">
    <path d="M 344.540909 391.48 
L 346.863636 391.48 
L 346.863636 310.33061 
L 344.540909 310.33061 
z
" clip-path="url(#pa6c1febc3f)" style="fill: #00ced1"/>
   </g>
   <g id="patch_119">
    <path d="M 346.863636 391.48 
L 349.186364 391.48 
L 349.186364 305.221204 
L 346.863636 305.221204 
z
" clip-path="url(#pa6c1febc3f)" style="fill: #00ced1"/>
   </g>
   <g id="patch_120">
    <path d="M 349.186364 391.48 
L 351.509091 391.48 
L 351.509091 302.00099 
L 349.186364 302.00099 
z
" clip-path="url(#pa6c1febc3f)" style="fill: #00ced1"/>
   </g>
   <g id="patch_121">
    <path d="M 351.509091 391.48 
L 353.831818 391.48 
L 353.831818 300.412351 
L 351.509091 300.412351 
z
" clip-path="url(#pa6c1febc3f)" style="fill: #00ced1"/>
   </g>
   <g id="patch_122">
    <path d="M 353.831818 391.48 
L 356.154545 391.48 
L 356.154545 297.664435 
L 353.831818 297.664435 
z
" clip-path="url(#pa6c1febc3f)" style="fill: #00ced1"/>
   </g>
   <g id="patch_123">
    <path d="M 356.154545 391.48 
L 358.477273 391.48 
L 358.477273 292.469157 
L 356.154545 292.469157 
z
" clip-path="url(#pa6c1febc3f)" style="fill: #00ced1"/>
   </g>
   <g id="patch_124">
    <path d="M 358.477273 391.48 
L 360.8 391.48 
L 360.8 290.708773 
L 358.477273 290.708773 
z
" clip-path="url(#pa6c1febc3f)" style="fill: #00ced1"/>
   </g>
   <g id="patch_125">
    <path d="M 360.8 391.48 
L 363.122727 391.48 
L 363.122727 289.592432 
L 360.8 289.592432 
z
" clip-path="url(#pa6c1febc3f)" style="fill: #00ced1"/>
   </g>
   <g id="patch_126">
    <path d="M 363.122727 391.48 
L 365.445455 391.48 
L 365.445455 282.379153 
L 363.122727 282.379153 
z
" clip-path="url(#pa6c1febc3f)" style="fill: #00ced1"/>
   </g>
   <g id="patch_127">
    <path d="M 365.445455 391.48 
L 367.768182 391.48 
L 367.768182 282.422089 
L 365.445455 282.422089 
z
" clip-path="url(#pa6c1febc3f)" style="fill: #00ced1"/>
   </g>
   <g id="patch_128">
    <path d="M 367.768182 391.48 
L 370.090909 391.48 
L 370.090909 279.545365 
L 367.768182 279.545365 
z
" clip-path="url(#pa6c1febc3f)" style="fill: #00ced1"/>
   </g>
   <g id="patch_129">
    <path d="M 370.090909 391.48 
L 372.413636 391.48 
L 372.413636 277.226811 
L 370.090909 277.226811 
z
" clip-path="url(#pa6c1febc3f)" style="fill: #00ced1"/>
   </g>
   <g id="patch_130">
    <path d="M 372.413636 391.48 
L 374.736364 391.48 
L 374.736364 272.417958 
L 372.413636 272.417958 
z
" clip-path="url(#pa6c1febc3f)" style="fill: #00ced1"/>
   </g>
   <g id="patch_131">
    <path d="M 374.736364 391.48 
L 377.059091 391.48 
L 377.059091 269.412425 
L 374.736364 269.412425 
z
" clip-path="url(#pa6c1febc3f)" style="fill: #00ced1"/>
   </g>
   <g id="patch_132">
    <path d="M 377.059091 391.48 
L 379.381818 391.48 
L 379.381818 263.100806 
L 377.059091 263.100806 
z
" clip-path="url(#pa6c1febc3f)" style="fill: #00ced1"/>
   </g>
   <g id="patch_133">
    <path d="M 379.381818 391.48 
L 381.704545 391.48 
L 381.704545 262.499699 
L 379.381818 262.499699 
z
" clip-path="url(#pa6c1febc3f)" style="fill: #00ced1"/>
   </g>
   <g id="patch_134">
    <path d="M 381.704545 391.48 
L 384.027273 391.48 
L 384.027273 258.463698 
L 381.704545 258.463698 
z
" clip-path="url(#pa6c1febc3f)" style="fill: #00ced1"/>
   </g>
   <g id="patch_135">
    <path d="M 384.027273 391.48 
L 386.35 391.48 
L 386.35 254.427696 
L 384.027273 254.427696 
z
" clip-path="url(#pa6c1febc3f)" style="fill: #00ced1"/>
   </g>
   <g id="patch_136">
    <path d="M 386.35 391.48 
L 388.672727 391.48 
L 388.672727 248.717184 
L 386.35 248.717184 
z
" clip-path="url(#pa6c1febc3f)" style="fill: #00ced1"/>
   </g>
   <g id="patch_137">
    <path d="M 388.672727 391.48 
L 390.995455 391.48 
L 390.995455 243.478969 
L 388.672727 243.478969 
z
" clip-path="url(#pa6c1febc3f)" style="fill: #00ced1"/>
   </g>
   <g id="patch_138">
    <path d="M 390.995455 391.48 
L 393.318182 391.48 
L 393.318182 240.473436 
L 390.995455 240.473436 
z
" clip-path="url(#pa6c1febc3f)" style="fill: #00ced1"/>
   </g>
   <g id="patch_139">
    <path d="M 393.318182 391.48 
L 395.640909 391.48 
L 395.640909 235.922201 
L 393.318182 235.922201 
z
" clip-path="url(#pa6c1febc3f)" style="fill: #00ced1"/>
   </g>
   <g id="patch_140">
    <path d="M 395.640909 391.48 
L 397.963636 391.48 
L 397.963636 235.149349 
L 395.640909 235.149349 
z
" clip-path="url(#pa6c1febc3f)" style="fill: #00ced1"/>
   </g>
   <g id="patch_141">
    <path d="M 397.963636 391.48 
L 400.286364 391.48 
L 400.286364 232.272625 
L 397.963636 232.272625 
z
" clip-path="url(#pa6c1febc3f)" style="fill: #00ced1"/>
   </g>
   <g id="patch_142">
    <path d="M 400.286364 391.48 
L 402.609091 391.48 
L 402.609091 227.334964 
L 400.286364 227.334964 
z
" clip-path="url(#pa6c1febc3f)" style="fill: #00ced1"/>
   </g>
   <g id="patch_143">
    <path d="M 402.609091 391.48 
L 404.931818 391.48 
L 404.931818 220.894536 
L 402.609091 220.894536 
z
" clip-path="url(#pa6c1febc3f)" style="fill: #00ced1"/>
   </g>
   <g id="patch_144">
    <path d="M 404.931818 391.48 
L 407.254545 391.48 
L 407.254545 220.636919 
L 404.931818 220.636919 
z
" clip-path="url(#pa6c1febc3f)" style="fill: #00ced1"/>
   </g>
   <g id="patch_145">
    <path d="M 407.254545 391.48 
L 409.577273 391.48 
L 409.577273 216.858534 
L 407.254545 216.858534 
z
" clip-path="url(#pa6c1febc3f)" style="fill: #00ced1"/>
   </g>
   <g id="patch_146">
    <path d="M 409.577273 391.48 
L 411.9 391.48 
L 411.9 213.251895 
L 409.577273 213.251895 
z
" clip-path="url(#pa6c1febc3f)" style="fill: #00ced1"/>
   </g>
   <g id="patch_147">
    <path d="M 411.9 391.48 
L 414.222727 391.48 
L 414.222727 214.024746 
L 411.9 214.024746 
z
" clip-path="url(#pa6c1febc3f)" style="fill: #00ced1"/>
   </g>
   <g id="patch_148">
    <path d="M 414.222727 391.48 
L 416.545455 391.48 
L 416.545455 202.517848 
L 414.222727 202.517848 
z
" clip-path="url(#pa6c1febc3f)" style="fill: #00ced1"/>
   </g>
   <g id="patch_149">
    <path d="M 416.545455 391.48 
L 418.868182 391.48 
L 418.868182 197.279634 
L 416.545455 197.279634 
z
" clip-path="url(#pa6c1febc3f)" style="fill: #00ced1"/>
   </g>
   <g id="patch_150">
    <path d="M 418.868182 391.48 
L 421.190909 391.48 
L 421.190909 194.574654 
L 418.868182 194.574654 
z
" clip-path="url(#pa6c1febc3f)" style="fill: #00ced1"/>
   </g>
   <g id="patch_151">
    <path d="M 421.190909 391.48 
L 423.513636 391.48 
L 423.513636 190.667461 
L 421.190909 190.667461 
z
" clip-path="url(#pa6c1febc3f)" style="fill: #00ced1"/>
   </g>
   <g id="patch_152">
    <path d="M 423.513636 391.48 
L 425.836364 391.48 
L 425.836364 184.999885 
L 423.513636 184.999885 
z
" clip-path="url(#pa6c1febc3f)" style="fill: #00ced1"/>
   </g>
   <g id="patch_153">
    <path d="M 425.836364 391.48 
L 428.159091 391.48 
L 428.159091 182.037288 
L 425.836364 182.037288 
z
" clip-path="url(#pa6c1febc3f)" style="fill: #00ced1"/>
   </g>
   <g id="patch_154">
    <path d="M 428.159091 391.48 
L 430.481818 391.48 
L 430.481818 181.607926 
L 428.159091 181.607926 
z
" clip-path="url(#pa6c1febc3f)" style="fill: #00ced1"/>
   </g>
   <g id="patch_155">
    <path d="M 430.481818 391.48 
L 432.804545 391.48 
L 432.804545 172.076093 
L 430.481818 172.076093 
z
" clip-path="url(#pa6c1febc3f)" style="fill: #00ced1"/>
   </g>
   <g id="patch_156">
    <path d="M 432.804545 391.48 
L 435.127273 391.48 
L 435.127273 168.51239 
L 432.804545 168.51239 
z
" clip-path="url(#pa6c1febc3f)" style="fill: #00ced1"/>
   </g>
   <g id="patch_157">
    <path d="M 435.127273 391.48 
L 437.45 391.48 
L 437.45 167.052559 
L 435.127273 167.052559 
z
" clip-path="url(#pa6c1febc3f)" style="fill: #00ced1"/>
   </g>
   <g id="patch_158">
    <path d="M 437.45 391.48 
L 439.772727 391.48 
L 439.772727 158.851748 
L 437.45 158.851748 
z
" clip-path="url(#pa6c1febc3f)" style="fill: #00ced1"/>
   </g>
   <g id="patch_159">
    <path d="M 439.772727 391.48 
L 442.095455 391.48 
L 442.095455 150.650937 
L 439.772727 150.650937 
z
" clip-path="url(#pa6c1febc3f)" style="fill: #00ced1"/>
   </g>
   <g id="patch_160">
    <path d="M 442.095455 391.48 
L 444.418182 391.48 
L 444.418182 148.375319 
L 442.095455 148.375319 
z
" clip-path="url(#pa6c1febc3f)" style="fill: #00ced1"/>
   </g>
   <g id="patch_161">
    <path d="M 444.418182 391.48 
L 446.740909 391.48 
L 446.740909 150.479192 
L 444.418182 150.479192 
z
" clip-path="url(#pa6c1febc3f)" style="fill: #00ced1"/>
   </g>
   <g id="patch_162">
    <path d="M 446.740909 391.48 
L 449.063636 391.48 
L 449.063636 145.198041 
L 446.740909 145.198041 
z
" clip-path="url(#pa6c1febc3f)" style="fill: #00ced1"/>
   </g>
   <g id="patch_163">
    <path d="M 449.063636 391.48 
L 451.386364 391.48 
L 451.386364 144.639871 
L 449.063636 144.639871 
z
" clip-path="url(#pa6c1febc3f)" style="fill: #00ced1"/>
   </g>
   <g id="patch_164">
    <path d="M 451.386364 391.48 
L 453.709091 391.48 
L 453.709091 138.886422 
L 451.386364 138.886422 
z
" clip-path="url(#pa6c1febc3f)" style="fill: #00ced1"/>
   </g>
   <g id="patch_165">
    <path d="M 453.709091 391.48 
L 456.031818 391.48 
L 456.031818 131.415526 
L 453.709091 131.415526 
z
" clip-path="url(#pa6c1febc3f)" style="fill: #00ced1"/>
   </g>
   <g id="patch_166">
    <path d="M 456.031818 391.48 
L 458.354545 391.48 
L 458.354545 132.317185 
L 456.031818 132.317185 
z
" clip-path="url(#pa6c1febc3f)" style="fill: #00ced1"/>
   </g>
   <g id="patch_167">
    <path d="M 458.354545 391.48 
L 460.677273 391.48 
L 460.677273 128.109439 
L 458.354545 128.109439 
z
" clip-path="url(#pa6c1febc3f)" style="fill: #00ced1"/>
   </g>
   <g id="patch_168">
    <path d="M 460.677273 391.48 
L 463 391.48 
L 463 115.958499 
L 460.677273 115.958499 
z
" clip-path="url(#pa6c1febc3f)" style="fill: #00ced1"/>
   </g>
   <g id="patch_169">
    <path d="M 463 391.48 
L 465.322727 391.48 
L 465.322727 117.590074 
L 463 117.590074 
z
" clip-path="url(#pa6c1febc3f)" style="fill: #00ced1"/>
   </g>
   <g id="patch_170">
    <path d="M 465.322727 391.48 
L 467.645455 391.48 
L 467.645455 115.915563 
L 465.322727 115.915563 
z
" clip-path="url(#pa6c1febc3f)" style="fill: #00ced1"/>
   </g>
   <g id="patch_171">
    <path d="M 467.645455 391.48 
L 469.968182 391.48 
L 469.968182 111.407263 
L 467.645455 111.407263 
z
" clip-path="url(#pa6c1febc3f)" style="fill: #00ced1"/>
   </g>
   <g id="patch_172">
    <path d="M 469.968182 391.48 
L 472.290909 391.48 
L 472.290909 109.260454 
L 469.968182 109.260454 
z
" clip-path="url(#pa6c1febc3f)" style="fill: #00ced1"/>
   </g>
   <g id="patch_173">
    <path d="M 472.290909 391.48 
L 474.613636 391.48 
L 474.613636 102.562409 
L 472.290909 102.562409 
z
" clip-path="url(#pa6c1febc3f)" style="fill: #00ced1"/>
   </g>
   <g id="patch_174">
    <path d="M 474.613636 391.48 
L 476.936364 391.48 
L 476.936364 107.585943 
L 474.613636 107.585943 
z
" clip-path="url(#pa6c1febc3f)" style="fill: #00ced1"/>
   </g>
   <g id="patch_175">
    <path d="M 476.936364 391.48 
L 479.259091 391.48 
L 479.259091 93.54581 
L 476.936364 93.54581 
z
" clip-path="url(#pa6c1febc3f)" style="fill: #00ced1"/>
   </g>
   <g id="patch_176">
    <path d="M 479.259091 391.48 
L 481.581818 391.48 
L 481.581818 93.54581 
L 479.259091 93.54581 
z
" clip-path="url(#pa6c1febc3f)" style="fill: #00ced1"/>
   </g>
   <g id="patch_177">
    <path d="M 481.581818 391.48 
L 483.904545 391.48 
L 483.904545 91.699554 
L 481.581818 91.699554 
z
" clip-path="url(#pa6c1febc3f)" style="fill: #00ced1"/>
   </g>
   <g id="patch_178">
    <path d="M 483.904545 391.48 
L 486.227273 391.48 
L 486.227273 89.681553 
L 483.904545 89.681553 
z
" clip-path="url(#pa6c1febc3f)" style="fill: #00ced1"/>
   </g>
   <g id="patch_179">
    <path d="M 486.227273 391.48 
L 488.55 391.48 
L 488.55 83.541679 
L 486.227273 83.541679 
z
" clip-path="url(#pa6c1febc3f)" style="fill: #00ced1"/>
   </g>
   <g id="patch_180">
    <path d="M 488.55 391.48 
L 490.872727 391.48 
L 490.872727 77.573549 
L 488.55 77.573549 
z
" clip-path="url(#pa6c1febc3f)" style="fill: #00ced1"/>
   </g>
   <g id="patch_181">
    <path d="M 490.872727 391.48 
L 493.195455 391.48 
L 493.195455 77.358868 
L 490.872727 77.358868 
z
" clip-path="url(#pa6c1febc3f)" style="fill: #00ced1"/>
   </g>
   <g id="patch_182">
    <path d="M 493.195455 391.48 
L 495.518182 391.48 
L 495.518182 70.91844 
L 493.195455 70.91844 
z
" clip-path="url(#pa6c1febc3f)" style="fill: #00ced1"/>
   </g>
   <g id="patch_183">
    <path d="M 495.518182 391.48 
L 497.840909 391.48 
L 497.840909 77.616485 
L 495.518182 77.616485 
z
" clip-path="url(#pa6c1febc3f)" style="fill: #00ced1"/>
   </g>
   <g id="patch_184">
    <path d="M 497.840909 391.48 
L 500.163636 391.48 
L 500.163636 71.304866 
L 497.840909 71.304866 
z
" clip-path="url(#pa6c1febc3f)" style="fill: #00ced1"/>
   </g>
   <g id="patch_185">
    <path d="M 500.163636 391.48 
L 502.486364 391.48 
L 502.486364 66.281332 
L 500.163636 66.281332 
z
" clip-path="url(#pa6c1febc3f)" style="fill: #00ced1"/>
   </g>
   <g id="patch_186">
    <path d="M 502.486364 391.48 
L 504.809091 391.48 
L 504.809091 65.766098 
L 502.486364 65.766098 
z
" clip-path="url(#pa6c1febc3f)" style="fill: #00ced1"/>
   </g>
   <g id="patch_187">
    <path d="M 504.809091 391.48 
L 507.131818 391.48 
L 507.131818 71.476611 
L 504.809091 71.476611 
z
" clip-path="url(#pa6c1febc3f)" style="fill: #00ced1"/>
   </g>
   <g id="patch_188">
    <path d="M 507.131818 391.48 
L 509.454545 391.48 
L 509.454545 64.349204 
L 507.131818 64.349204 
z
" clip-path="url(#pa6c1febc3f)" style="fill: #00ced1"/>
   </g>
   <g id="patch_189">
    <path d="M 509.454545 391.48 
L 511.777273 391.48 
L 511.777273 61.515416 
L 509.454545 61.515416 
z
" clip-path="url(#pa6c1febc3f)" style="fill: #00ced1"/>
   </g>
   <g id="patch_190">
    <path d="M 511.777273 391.48 
L 514.1 391.48 
L 514.1 62.674693 
L 511.777273 62.674693 
z
" clip-path="url(#pa6c1febc3f)" style="fill: #00ced1"/>
   </g>
   <g id="patch_191">
    <path d="M 514.1 391.48 
L 516.422727 391.48 
L 516.422727 58.982181 
L 514.1 58.982181 
z
" clip-path="url(#pa6c1febc3f)" style="fill: #00ced1"/>
   </g>
   <g id="patch_192">
    <path d="M 516.422727 391.48 
L 518.745455 391.48 
L 518.745455 57.951712 
L 516.422727 57.951712 
z
" clip-path="url(#pa6c1febc3f)" style="fill: #00ced1"/>
   </g>
   <g id="patch_193">
    <path d="M 518.745455 391.48 
L 521.068182 391.48 
L 521.068182 54.516818 
L 518.745455 54.516818 
z
" clip-path="url(#pa6c1febc3f)" style="fill: #00ced1"/>
   </g>
   <g id="patch_194">
    <path d="M 521.068182 391.48 
L 523.390909 391.48 
L 523.390909 49.53622 
L 521.068182 49.53622 
z
" clip-path="url(#pa6c1febc3f)" style="fill: #00ced1"/>
   </g>
   <g id="patch_195">
    <path d="M 523.390909 391.48 
L 525.713636 391.48 
L 525.713636 57.350606 
L 523.390909 57.350606 
z
" clip-path="url(#pa6c1febc3f)" style="fill: #00ced1"/>
   </g>
   <g id="patch_196">
    <path d="M 525.713636 391.48 
L 528.036364 391.48 
L 528.036364 56.577755 
L 525.713636 56.577755 
z
" clip-path="url(#pa6c1febc3f)" style="fill: #00ced1"/>
   </g>
   <g id="patch_197">
    <path d="M 528.036364 391.48 
L 530.359091 391.48 
L 530.359091 54.216264 
L 528.036364 54.216264 
z
" clip-path="url(#pa6c1febc3f)" style="fill: #00ced1"/>
   </g>
   <g id="patch_198">
    <path d="M 530.359091 391.48 
L 532.681818 391.48 
L 532.681818 47.904645 
L 530.359091 47.904645 
z
" clip-path="url(#pa6c1febc3f)" style="fill: #00ced1"/>
   </g>
   <g id="patch_199">
    <path d="M 532.681818 391.48 
L 535.004545 391.48 
L 535.004545 42.924048 
L 532.681818 42.924048 
z
" clip-path="url(#pa6c1febc3f)" style="fill: #00ced1"/>
   </g>
   <g id="patch_200">
    <path d="M 535.004545 391.48 
L 537.327273 391.48 
L 537.327273 46.316006 
L 535.004545 46.316006 
z
" clip-path="url(#pa6c1febc3f)" style="fill: #00ced1"/>
   </g>
   <g id="patch_201">
    <path d="M 537.327273 391.48 
L 539.65 391.48 
L 539.65 52.412945 
L 537.327273 52.412945 
z
" clip-path="url(#pa6c1febc3f)" style="fill: #00ced1"/>
   </g>
   <g id="patch_202">
    <path d="M 539.65 391.48 
L 541.972727 391.48 
L 541.972727 47.990517 
L 539.65 47.990517 
z
" clip-path="url(#pa6c1febc3f)" style="fill: #00ced1"/>
   </g>
   <g id="patch_203">
    <path d="M 54.2 391.48 
L 54.2 25.49625 
" style="fill: none"/>
   </g>
   <g id="patch_204">
    <path d="M 565.2 391.48 
L 565.2 25.49625 
" style="fill: none"/>
   </g>
   <g id="patch_205">
    <path d="M 54.2 391.48 
L 565.2 391.48 
" style="fill: none"/>
   </g>
   <g id="patch_206">
    <path d="M 54.2 25.49625 
L 565.2 25.49625 
" style="fill: none"/>
   </g>
   <g id="text_18">
    <!-- Baseline model probablity output -->
    <g style="fill: #262626" transform="translate(222.650312 19.49625) scale(0.12 -0.12)">
     <defs>
      <path id="ArialMT-42" d="M 469 0 
L 469 4581 
L 2188 4581 
Q 2713 4581 3030 4442 
Q 3347 4303 3526 4014 
Q 3706 3725 3706 3409 
Q 3706 3116 3547 2856 
Q 3388 2597 3066 2438 
Q 3481 2316 3704 2022 
Q 3928 1728 3928 1328 
Q 3928 1006 3792 729 
Q 3656 453 3456 303 
Q 3256 153 2954 76 
Q 2653 0 2216 0 
L 469 0 
z
M 1075 2656 
L 2066 2656 
Q 2469 2656 2644 2709 
Q 2875 2778 2992 2937 
Q 3109 3097 3109 3338 
Q 3109 3566 3000 3739 
Q 2891 3913 2687 3977 
Q 2484 4041 1991 4041 
L 1075 4041 
L 1075 2656 
z
M 1075 541 
L 2216 541 
Q 2509 541 2628 563 
Q 2838 600 2978 687 
Q 3119 775 3209 942 
Q 3300 1109 3300 1328 
Q 3300 1584 3169 1773 
Q 3038 1963 2805 2039 
Q 2572 2116 2134 2116 
L 1075 2116 
L 1075 541 
z
" transform="scale(0.015625)"/>
      <path id="ArialMT-64" d="M 2575 0 
L 2575 419 
Q 2259 -75 1647 -75 
Q 1250 -75 917 144 
Q 584 363 401 755 
Q 219 1147 219 1656 
Q 219 2153 384 2558 
Q 550 2963 881 3178 
Q 1213 3394 1622 3394 
Q 1922 3394 2156 3267 
Q 2391 3141 2538 2938 
L 2538 4581 
L 3097 4581 
L 3097 0 
L 2575 0 
z
M 797 1656 
Q 797 1019 1065 703 
Q 1334 388 1700 388 
Q 2069 388 2326 689 
Q 2584 991 2584 1609 
Q 2584 2291 2321 2609 
Q 2059 2928 1675 2928 
Q 1300 2928 1048 2622 
Q 797 2316 797 1656 
z
" transform="scale(0.015625)"/>
     </defs>
     <use xlink:href="#ArialMT-42"/>
     <use xlink:href="#ArialMT-61" x="66.699219"/>
     <use xlink:href="#ArialMT-73" x="122.314453"/>
     <use xlink:href="#ArialMT-65" x="172.314453"/>
     <use xlink:href="#ArialMT-6c" x="227.929688"/>
     <use xlink:href="#ArialMT-69" x="250.146484"/>
     <use xlink:href="#ArialMT-6e" x="272.363281"/>
     <use xlink:href="#ArialMT-65" x="327.978516"/>
     <use xlink:href="#ArialMT-20" x="383.59375"/>
     <use xlink:href="#ArialMT-6d" x="411.376953"/>
     <use xlink:href="#ArialMT-6f" x="494.677734"/>
     <use xlink:href="#ArialMT-64" x="550.292969"/>
     <use xlink:href="#ArialMT-65" x="605.908203"/>
     <use xlink:href="#ArialMT-6c" x="661.523438"/>
     <use xlink:href="#ArialMT-20" x="683.740234"/>
     <use xlink:href="#ArialMT-70" x="711.523438"/>
     <use xlink:href="#ArialMT-72" x="767.138672"/>
     <use xlink:href="#ArialMT-6f" x="800.439453"/>
     <use xlink:href="#ArialMT-62" x="856.054688"/>
     <use xlink:href="#ArialMT-61" x="911.669922"/>
     <use xlink:href="#ArialMT-62" x="967.285156"/>
     <use xlink:href="#ArialMT-6c" x="1022.900391"/>
     <use xlink:href="#ArialMT-69" x="1045.117188"/>
     <use xlink:href="#ArialMT-74" x="1067.333984"/>
     <use xlink:href="#ArialMT-79" x="1095.117188"/>
     <use xlink:href="#ArialMT-20" x="1145.117188"/>
     <use xlink:href="#ArialMT-6f" x="1172.900391"/>
     <use xlink:href="#ArialMT-75" x="1228.515625"/>
     <use xlink:href="#ArialMT-74" x="1284.130859"/>
     <use xlink:href="#ArialMT-70" x="1311.914062"/>
     <use xlink:href="#ArialMT-75" x="1367.529297"/>
     <use xlink:href="#ArialMT-74" x="1423.144531"/>
    </g>
   </g>
  </g>
 </g>
 <defs>
  <clipPath id="pa6c1febc3f">
   <rect x="54.2" y="25.49625" width="511" height="365.98375"/>
  </clipPath>
 </defs>
</svg>
